<svg width="18" height="18" viewBox="0 0 18 18" fill="none" xmlns="http://www.w3.org/2000/svg">
<path d="M15.415 8.12744C15.0702 7.8981 14.6054 7.99166 14.376 8.33643C14.1472 8.68117 14.2404 9.14619 14.585 9.37549C15.4259 9.93535 15.7499 10.5156 15.75 11.0015C15.7495 11.5995 15.2446 12.3444 13.9678 12.9829C12.7352 13.5991 10.9796 14.0015 9 14.0015C7.77289 14.0015 6.63215 13.8459 5.64844 13.5815L6.93359 12.9556C7.30541 12.774 7.45937 12.3247 7.27832 11.9526C7.09663 11.5806 6.64756 11.4264 6.27539 11.6079L3.41504 13.0024C3.04302 13.1841 2.88881 13.6332 3.07031 14.0054L4.46484 16.8657C4.64654 17.2375 5.09573 17.3927 5.46777 17.2114C5.83983 17.03 5.99448 16.5807 5.81348 16.2085L5.23633 15.0239C6.36987 15.331 7.65206 15.5015 9 15.5015C11.1621 15.5015 13.1569 15.0646 14.6387 14.3237C16.0753 13.6054 17.2495 12.4735 17.25 11.0015C17.2499 9.79933 16.4569 8.82095 15.415 8.12744Z" fill="black"/>
<path d="M4.45117 8.28564C4.30326 7.89886 3.87023 7.70527 3.4834 7.85303C2.62885 8.17975 1.53548 8.93392 0.998047 9.88135C0.794142 10.2416 0.920144 10.6996 1.28027 10.9038C1.6403 11.1076 2.09831 10.9812 2.30273 10.6216C2.62064 10.0611 3.38597 9.49531 4.01855 9.25342C4.40516 9.10556 4.59857 8.67234 4.45117 8.28564Z" fill="black"/>
<path fill-rule="evenodd" clip-rule="evenodd" d="M6.76953 2.49854C5.9411 2.49854 5.26953 3.17206 5.26953 4.00049V9.25049C5.27006 10.0785 5.94143 10.7505 6.76953 10.7505H12.0195C12.8476 10.7505 13.519 10.0785 13.5195 9.25049V4.00049C13.5195 3.17206 12.848 2.49854 12.0195 2.49854H6.76953ZM12.0195 4.00049V9.25049H6.76953V4.00049H12.0195Z" fill="black"/>
</svg>
