<svg width="18" height="18" viewBox="0 0 18 18" fill="none" xmlns="http://www.w3.org/2000/svg">
<path d="M2.73535 8.12695C3.08016 7.89762 3.54496 7.99117 3.77441 8.33594C4.00348 8.68072 3.91009 9.14562 3.56543 9.375C2.72429 9.9349 2.4005 10.515 2.40039 11.001C2.40065 11.5991 2.90543 12.3438 4.18262 12.9824C5.41523 13.5986 7.17074 14.001 9.15039 14.001C10.3775 14.001 11.5182 13.8454 12.502 13.5811L11.2168 12.9551C10.8448 12.7734 10.6907 12.3243 10.8721 11.9521C11.0538 11.5801 11.5028 11.4259 11.875 11.6074L14.7354 13.002C15.1075 13.1836 15.2616 13.6326 15.0801 14.0049L13.6855 16.8652C13.5039 17.2374 13.0548 17.3924 12.6826 17.2109C12.3104 17.0294 12.1556 16.5802 12.3369 16.208L12.9141 15.0234C11.7805 15.3305 10.4984 15.501 9.15039 15.501C6.98815 15.501 4.9935 15.0641 3.51172 14.3232C2.07498 13.6048 0.90064 12.4732 0.900391 11.001C0.900501 9.79875 1.69336 8.82047 2.73535 8.12695Z" fill="black"/>
<path d="M13.6992 8.28516C13.8471 7.89837 14.2802 7.70478 14.667 7.85254C15.5216 8.17922 16.6149 8.93337 17.1523 9.88086C17.3565 10.2411 17.2304 10.699 16.8701 10.9033C16.5099 11.1074 16.052 10.9811 15.8477 10.6211C15.5297 10.0606 14.7645 9.49479 14.1318 9.25293C13.7451 9.10502 13.5515 8.67196 13.6992 8.28516Z" fill="black"/>
<path d="M7.68555 4.72168C8.09976 4.72168 8.43555 5.05747 8.43555 5.47168C8.43555 5.88589 8.09976 6.22168 7.68555 6.22168C7.27133 6.22168 6.93555 5.88589 6.93555 5.47168C6.93555 5.05747 7.27133 4.72168 7.68555 4.72168Z" fill="black"/>
<path fill-rule="evenodd" clip-rule="evenodd" d="M11.3809 2.49902C12.2093 2.49902 12.8809 3.17157 12.8809 4V9.25C12.8806 10.0782 12.2091 10.75 11.3809 10.75H6.13086C5.3026 10.75 4.63112 10.0782 4.63086 9.25V4C4.63086 3.17157 5.30243 2.49902 6.13086 2.49902L11.3809 2.49902ZM6.13086 9.25H6.19531L9.38281 6.0625L9.49316 5.96289C9.76004 5.74432 10.0954 5.62305 10.4434 5.62305C10.786 5.62305 11.116 5.74092 11.3809 5.95312V4H6.13086V9.25ZM8.31641 9.25H11.3809V8.06055L10.4434 7.12305L8.31641 9.25Z" fill="black"/>
</svg>
