<?xml version="1.0" encoding="UTF-8"?>
<svg id="Kirchtagskrapfen" xmlns="http://www.w3.org/2000/svg" viewBox="0 0 595.28 396.85">
  <g id="lDFYYB">
    <g>
      <path d="M141.02,262.19c.28.04.72.33,1.08.36.98,1.93-1.23,2.57-2.77,2.73-.97.1-2.08.32-2.02-.93-.24,0-.46.18-.71.1-4.63-1.54-10.07.96-14.74,1.77-.37.06-.76-.23-1.09-.15-.46.11-1.1,1.23-2.46,1.38-1.45.16-1.96-.78-2.6-.72-.52.05-.5.54-.78.74-.99.71-5.19,3.3-6.17,3.34-2.99.1-4.47-5.72-2.97-7.87-.5-.02-1-.03-1.5.06-5.46.93-6.49,9.73-12.94,7.82-2.3-.68-2.48-2.45-2.88-4.53-.18,0-.17.41-.36.6-.95.96-4.53,4.41-5.48,4.56-.66.11-1.83-.68-2.17-1.21-.99-1.58-.3-4.58,0-6.33-2.86,1.23-6.25,5.69-9.73,4.12-1.84-.83-.73-2.67-.66-4.11-.72,1.95-4.53,6.1-6.65,5.91-2.53-.22-3.12-4.59-2.61-6.51-.18-.45-.61-.35-.98-.33-2.5.14-6.13,4.79-9.27,5.56-2.08.51-3.17-.64-2.29-2.65l4.36-1.73c.56.82-1.01,1.09-1.31,1.8s.68.15.93-.02c.87-.6.97-1.46,1.46-1.89,1.16-1.01,2.56-1.3,4.18-2.99,1.11-1.16,2.86-3,2.86-4.54-1.64,1.09-3.6,4.78-5.73,4.78s-2.83-2.16-2.73-3.91c.24-4.03,2.99-7.04,2.33-11.96-.03-.26-.14-1.04-.57-.86-.74.68-1.21,1.62-1.41,2.6-.29,1.43.52,4.69-2.07,3.22-.15-.7.67-1.53.64-2.12-.03-.56-.95-1.11.1-1.44-1.06-1.58,1.98-4.95,3.43-4.89.82.05,1.42,1.03,1.63,1.74,1.09,3.71-2.15,9.31-2.43,13.19-.05.73-.29,2.68.6,2.76.42.02.73-.17,1.06-.38.92-.6,3.58-3.33,4.46-4.26.73-.77,1.26-2.29,2.3-2.59.92-.27,1.19-.25,1.12.85-.2,2.91-2.39,6.19-4.04,8.52,4.88-2.56,2.07,5.57,3.97,5.92,2.99.55,7.58-7.49,8.82-9.74.19-.35,1.26-3.48,2.14-2.17.79,1.17-1.08,3.51-1.49,4.5-.34.83-1.27,3.75-1.39,4.58-.08.56-.39,1.66.47,1.68.28,0,4.69-1.71,5.21-1.97.46-.24,2.92-1.7,3.22-1.92.18-.14,2.47-3.56,2.57-3.77.2-.39-.1-1.05.36-1.78.81-1.3,3.57-2.9,3.08-.29-.24,1.29-2.54,3.74-3.27,4.87-1.35,2.1-1.71,4.81-1.36,7.26.88,1.25,3.52-1.94,4.21-2.51,1.04-.86,1.89-.96,2.96-2.3.75-.95,1.78-3.52,2.39-4.06.57-.49,1.89-.69,2.63-.95.23.02-.09,2.87-.16,3.18-.11.44-1.9,2.94-1.62,3.28.74-.24.74-.98,1.67-.72.38.35-1.68,3.78-1.16,4.51,1.13.67,4.14-1.2,5-2,.54-.5,2.75-3.14,2.98-3.73.07-.18.17-.33.09-.54-2.71-2.24.58-5.71,2.02-7.84,1.22-1.8,2.82-4.43,4.2-6.07.31-.36,1.04-1.05,1.26-.3.39.86-.86,4.02-1.25,5.08-.94,2.56-2.22,5.16-3.58,7.52,1.61.15,3-.75,4.53-1.08,1.2-.26,5.35-1.06,6.29-.78.57.17,1.12,1.4,1.94,1.37.81-.98,2.04-1.97,3.19-2.55,1.31-.66,5.25-2.03,6.61-1.99,1.59.05,2.56,1.32,1.43,2.62-.97,1.12-6.89,5.72-8.15,5.95-.52.1-1.17-.61-1.02.28.82-.24,2.02.28,2.69.19.63-.08,1.73-1.07,2.74-1.33,1.85-.48,4.48-.9,6.42-1.23,1.31-.23,3.6.04,4.65-.85s.74-2.56,1.05-3.73,2.35-7.61,3.35-7.63c.78.5.05,1.32.22,1.92.08.3.48.55.56.88.17.66.04,2.11.78,2.56,1.81,1.1,6.02-1.23,8.12-.48-1.6,1.69-7.37,3.45-9.21,1.81l-1.07-2.16c-.84,2.19-1.59,4.57-1.67,6.93,1.3.14,2.93-.19,4.18,0ZM51.76,247.21h-.48s0,.72,0,.72l.47-.36v-.35ZM106.72,251.71c-.47-.11-.97.79-1.16,1.11-.45.75-.78,1.76-1.27,2.55-1.16,1.86-3.46,4.06-3.06,6.37.8.6,2.89-3.46,3.19-4.09.9-1.87,1.49-4.03,2.29-5.94ZM126.92,256.95v.24c.16-.08.16-.16,0-.24ZM125.24,258.96c.38-.46.84-.69.73-1.53-1.78,1.6-4.33,1.07-6.41,2.19-2.21,1.18-3.5,2.89-3.5,5.45.32.33,2.5-1.47,2.93-1.73,2.3-1.36,4.42-2.17,6.25-4.38ZM114.07,261.32c-.81-.77-3.33.75-4.17.85-.43.05-.81-.23-1.32-.15-.23.03-1.51.61-1.64.77-.55.71.07,4.86.75,5.51.58.56,3.19.68,3.88.35.28-.13.48-1.01,1.01-1.44.61-.49,1.58-.59,2.17-1.19.31-1.7-1.66-1.61-2.42-2.37-1.29-1.28.9-2.77,2.04-1.45.11-.13-.15-.75-.3-.89ZM92.39,261.27l-1.32,1.44.11,1.09-.45.58c.98-.61,1.68-1.97,1.67-3.11ZM137.32,263.63h-.48s0,.23,0,.23h.48s0-.23,0-.23ZM117.84,264.83v.24c.16-.08.16-.16,0-.24ZM88.81,265.81v-.48s-.23,0-.23,0v.48s.23,0,.23,0ZM88.21,265.81v.24c.16-.08.16-.16,0-.24Z"/>
      <path d="M354.35,261.73c1.4,1.43,4.38-1.7,5.29-2.82,1.33-1.65,2.65-4.48,4.1-5.93.26-.26.55-.45.93-.5l.37,1.3c-.98,2.15-2.73,4.46-2.35,6.91.35,1.05,4.16-.53,4.83-1.08.82-.67,2.2-4.55,3.05-5.78.31-.46,2.8-3.06,3.17-3.28.74-.43,2.06-.04,2.88.25,1.56,4.37-3.09,7.87-6.71,9.32.15,1.39,1.41,1.97,2.67,2.13,3.07.4,3.87-1.09,6.26-2.31,1.96-1,2.83-.46,4.16-2.77,2.28-3.96,3.29-9.07,6.2-13.15.94-1.32,3.22-3.48,4.49-1.49-.57.96-1.88,1.09-2.62,1.69-1.6,1.29-3.3,4.88-4.16,6.83-.22.5-1.71,4.1-1.57,4.27,4.07-3.15,9.38-7.09,8.83-12.9l.83.24c.33.94.47,1.96.34,2.96-.35,2.67-5.39,8.28-7.46,10.09-2.22,1.94-5.01,2.57-4.21,6.3,1.52-.54,2.78-1.51,4.11-2.41,1.07-.72,2.34-1.82,3.42-2.61s2.24-1.57,3.33-2.4c.44-.04.36,0,.37.36.09,2.82-3.38,4.71-2.63,7.76.47.05.89-.07,1.32-.23.4-.14,3.88-1.78,4.06-1.92,1.01-.8,1.39-4.04,1.91-5.5.79-2.2,3.66-8.17,5.21-9.72.14-.14,1.15-.76,1.24-.75,1.68,2.11,2.33,5.36,1.63,8.03-.46,1.75-3,4.19-4.37,5.42-.46.42-2.67,1.88-2.76,2.02-.37.59.3,1.7.72,2.16,1.92,2.15,5.62,2.36,8.26,1.54.99-.31,2.84-1.92,2.88-.25-.1.9-3.84,2.03-4.74,2.21-4.28.85-6.76-.67-9.01-4.2-1.95.77-5.77,5.26-7.64,2.36-1.42-2.22.63-4.14,1.18-5.96.17-.57-.81-.09-1.01.07-.5.42-1.11,1.62-1.87,2.31-.5.45-3.74,2.88-4.16,3.01-3.04.92-2.57-1.14-3.11-2.88-.08-.27.16-.42-.36-.34-2.22,1.73-6.44,4.33-9.32,4.07-2.14-.19-2.97-1.45-4.06-3.09-2.06,1.05-4.23,3.18-6.56,1.53-1.5-1.07-.61-2.36-.49-3.57.03-.3.11-.76-.36-.59-1.19.43-.87,1.33-1.2,2.15-.67,1.68-2.83,3.35-4.69,3.21-2.4-.17-2.43-2.62-2.95-4.4-1.18,1.38-2.85,2.78-3.94,4.18-.59.76-.54,2.01-1.91,2.03l.47-1.19-.71.48.12-.95c-1.35.54-.58,2.32-2.34,2.36l-.54-.94c1.32-1.15,2.86-2.34,4.08-3.57,1.03-1.03,4.18-4.27,4.75-5.28.63-1.13.99-4.02,1.46-5.47.51-1.57,2.18-4.19,2.44-5.2.7-2.73,1-3.64,2.93-5.91,1.44-1.69,2.62-1.31,2.62.95,0,3.34-3.08,9.43-4.81,12.38-1.03,1.76-2.58,2.81-2.81,5.07-.09.88-.1,2.73.54,3.39ZM354.52,252.72c2.62-2.89,4.25-7.18,5.01-10.99-1.54,1.25-1.78,3.16-2.5,4.78-.9,2.03-2.04,4-2.5,6.21ZM400.17,258.41l4.43-3.57,1.44-1.91c.17-2.52,1.87-4.39-.5-6.46-.26.45-1.38,1.3-1.55,1.62-.26.49-.32,1.52-.6,2.2-.4.95-1.17,1.82-1.49,2.57s-2,5.23-1.72,5.56ZM370.06,257.48c.54-.22,1.16.12,1.66-.11.16-.07,2.42-2.14,2.63-2.4.94-1.13,1.77-2.72,1.19-4.18-1.82,2.28-4.53,3.78-5.49,6.69ZM398.49,261.28l-.48-.47v.48s.48,0,.48,0Z"/>
      <path d="M483.28,208.91c-.36.47-2.01,2.8-2.3,2.85-.8.14-1.46-2.38-2-1.89.39.92-.36,1.35-.8,2.06l-7.01,5.55c-1.62,0-1.58-1.56-1.5-2.83-1.07-.2-1,1.01-1.65,1.57-.3.26-.68.25-.89.42-.23.18-.28.61-.7.85-.65.38-1.88.36-2.48-.1-.37-.29-.33-.79-.55-1-.78-.78-2.9.43-3.9.39-.54-.02-1.1-.65-1.78-.44.16,1.2,1.52,1.74,1.67,3.01.13,1.1-.43,2.79-1.74,1.97-.66-.41-1.3-3.7-1.54-4.68-.09-.35.01-1.11-.1-1.23-.07-.07-.46.03-.6-.09-.32-.27-.38-.91-.97-1.08-1.56-.46-5.78,2.87-7.71,2.83l-.12-.72c-2.07,1.1.34,2.39.37,4.19,0,.49-.33,3.15-.64,3.22-3.41.82-1.81-6.01-3.11-6.43-.81-.26-2.09,1.73-2.82,2.37-2.88,2.49-5.82,2.37-6.83-1.67-3.01.96-7.21,2.01-8.95-1.43h-.35c-.56,1.16-3.37,4.35-4.72,3.05-1.62-1.56,0-6.24-.31-8.3l-3.95,3.11-.57-.37c.17-2.09,1.57-2.2,2.67-3.21.76-.69,2.22-2.13,2.51-3.05.9-2.77.27-8.31,1.51-10.67.1-.19,1.64-2.22,1.76-2.31,1.33-.96,3.43-.85,4.91-.36,4.62,1.53-.72,8.5-2.48,10.55-1.17,1.37-3.44,3.02-4.18,4.54-.53,1.09-1.38,6.41-1.23,7.63.03.26.08.77.38.82.81.16,3.19-3.02,3.66-3.74s.73-2.43,1.64-2.66c.57-.15,1.14.46,1.26-1-.26-.27-1.96,1.39-1.67.36.16-.54,2.57-3.85,2.99-3.95,1.57.73.36,3.39-.23,4.55-.66,1.28-3.15,3.45-1.68,4.53l.66-1.73c.49-1.2,4.04-4.5,5.21-5.3,1-.69,2.91-2.07,3.92-1.09.31-1.21,2.36-.79,3-.07.44.5.68,2.32.71,3.05.13,3.03-2.99,5.2-5.2,6.68.61,1.41,1.46,2.64,3.14,1.76.44-.23,3.89-3.08,4.33-3.55s1.3-1.63,1.59-2.23c.95-1.92.67-5.34,3.52-5.16l.25,1.5-2.61,5.77c1.68.61,2.94-.73,4.38-1.36,3.03-1.33,6.64-2.02,8.16-5.22.42-.88.61-3.47,2.02-2.26.87.75.05,1.11-.11,1.77-.15.61-.13,1.19-.33,1.81-.42,1.29-1.45,2.54-1.21,4.16l4.01-.53c.44-3.2,2.57-6.72,5.43-8.26.58.74,1.95,1.73,2.02,2.7s-1.17,3.61-1.77,4.42c-.8,1.08-2.21,1.47-3.23,2.26.46.73,1.52.79,2.22.37.24-.15.4-.71.75-.98.5-.39,1.17-.41,1.57-.82s1.52-2.59,1.78-3.24c.24-.6.89-3.45,1.22-3.56.94-.32,1.37.75,1.29,1.51-.09.93-2.61,6.12-2.14,6.59.34.07.59-.06.89-.19,1.32-.56,5.78-4.15,6.65-5.3.67-.9.92-2.28,2.02-3l-.71.12c-.14-1.43.5-3.73,2.39-3.24,1.96,2.15-.63,2.82-.95,4.67.91-.5,1.2-2.66,2.4-1.51.54.83-.23,1.42-.49,2.22.69-.9,1.97-1.62.48-2.75l1.09-1.28c3.43.63-.41,3.37-.38,4.64.02.81,2.16.94,1.68,2.25-.94.2-3.44-.33-3.33-1.55.01-.13.36-1,.46-1.31ZM421.87,206.09c.25.28,2.27-1.87,2.51-2.15,1.21-1.39,5.86-7.16,2.91-8.43-.82-.35-1.59.06-2.39.36-2.12.8-2.19,1.27-2.54,3.44-.19,1.19-.41,3.07-.5,4.27-.06.83.03,1.68,0,2.5ZM463.93,213.46c1.35-.21,2.58-1.22,3.2-2.41s1.22-2.65.02-3.55c-1.37,1.76-3.19,3.59-3.22,5.97ZM428.15,216.53c.17.17,1.46.71,1.75.76,2.82.46,3.41-1.11,5.38-2.48.58-.4,1.27-.5,1.77-.85.42-.29,1.93-2.38,2-2.81-.37-1.86-1.52-2.28-3.07-2.93.03.19-.03.35-.18.47-1.03.84-2.68,1.36-3.87,2.3-.87.68-4.84,4.52-3.78,5.53ZM456.05,213.71c.5-.13.53-.65.47-1.07l-.36-.36-.36.36.24,1.07ZM466.68,215.85v.24c.16-.08.16-.16,0-.24ZM445.77,219.21l-.12-.72-.35.36.47.36Z"/>
      <path d="M316.39,115.68c.68,1.06-.01,1.86-.14,2.77-.73,5.03-1.26,7.01-2.87,11.7-.66,1.93.18,2.29.19,3.77.02,1.88-1.17,3.57.37,5.61,1.11,1.47,4.21,1.28,5.02-.48.27-.59-.18-1.3-.13-2.01.07-1.18,1.92-8.66,2.62-9.11.84-.54,1.43,1.17,2.01,1.07,1.3-1.06,3.14-2.61,4.68-3.22.45-.18.99-.03,1.44-.24.31-.14.48-.66.89-.79.95-.29,4.32.03,5.09.78,2.55,2.5-1.26,6.37-2.58,8.65.61,1.3-.47,3.41,1.29,3.63s1.78-.47,3-1.27c.62-.41,1.19.07,1.39-1.24.35-2.31.32-5.11,2.1-7.04.34-.37,1.35-.67,1.44-.78.17-.2-.2-1.09,1.09-.61.39.14.44.68.76.91,1.51-2.08,4.4-2.79,6.33-.84l-3.82.52c-2.81,1.61-5.02,6.05-1.75,8.42,1.59-1.3,3.77-1.45,5.51-2.57s.95-1.47,1.23-3.22c-.64-.5-2.37-3-.58-2.81s1.95,4.81,1.34,5.87c-.67,1.17-5.48,3.23-6.94,3.46l1.86,3.04c1.12,4.17,2.71,9.12.03,13.04-1.63,2.38-4.05.3-5.02-1.59-.45-.87-.81-1.79-1.22-2.61-1.63-3.24,1.1-8.03,3.9-9.89-.19-2.32-1.82-1.04-2.89-1.14-.94-.09-1.93-1.2-2.45-1.07-2.44,2.04-3.97,4.93-7.1,1.78l-1.07-2.99c-.41.4-.77.81-1.24,1.15-2.08,1.51-5.45,3.93-8.05,3.79-.63-.03-.92-.55-1.84-.31-.45.12-1.48,1.74-2.14,2.17-2.32,1.49-5.33-.74-6.33-2.97-3.05,1.79-5.57,5.02-9.48,3.76-3.5-1.12-4-8.09-2.08-10.53.43-.55,1.4-.84,1.99-1.35,2.12-1.84,3.02-3.68,6.4-3.05,1.11.21,1.9,1.43,3.06,1.04.68-4.39,1.94-8.61,3.12-12.88.26-.57,1.05-.44,1.6-.36ZM334.52,129.17c1.36-1.46-.65-3.63-2.33-3.4-2.13.71-4.11,1.6-5.94,2.9-.5.36-2.47,1.89-2.76,2.26-.89,1.14-1.05,4.49-1.94,5.97l3.83.7c.85-.05,1.22-.9,1.82-1.29,1.33-.88,4.38-2.37,4.94-3.9.13-.36,0-.82.18-1.25.37-.88,1.72-1.49,2.19-1.99ZM347.38,126.37l-.59.6.11.11.59-.6-.11-.11ZM342.48,127.81c-.16-.15-.95.11-.95.36,0,.71,1.41.07.95-.36ZM303.35,132.43c-.19.19-1.06,3.26-1.14,3.75-.24,1.54-.24,2.99,1.77,2.72.85-.11,3.87-2.24,4.47-2.94.49-.57,2.8-4.32,2.74-4.9-.22-1.22-1.99-.85-2.66-1.44l-.1-.83-3.94,2.03c-.14.6,2.4,1.09,1.31,2.26-.04-1.28-1.72-1.39-2.45-.66ZM340.09,133.3c.88-1.49,2.23-2.59,2.15-4.54-.76.26-.89,1.09-1.26,1.6-.13.18-.62.24-.77.54-.13.27-.24,1.45-.29,1.87-.02.24-.25.59.17.52ZM340.34,134.02c.18,1.26,1.67,1.38,2.62,1.79-.89-1-1.42-2.37-1.07-3.7-.78.58-1.03,1.21-1.08,2.15l-.47-.24ZM301.62,133.33c-.89-.2-.2.92-.36,1.43l.36-1.43ZM301.39,139.78c-.78.75,3.18,1.83,3.51,1.85.17,0,2.74-1.24,3.03-1.41.47-.29,3.22-2.93,3.37-3.32.34-.95-.19-1.65-.11-2.62l-3.45,3.59c-1.24.43-3.23,2.86-4.49,2.59-.52-.11-1.12-.83-1.85-.68ZM325.76,138.33v-.48s-.23,0-.23,0v.48s.23,0,.23,0ZM345.79,138.84c-.91-.28-.55.18-.81.64-1.23,2.13-2.78,4.27-2.97,6.83-.04.5-.09,1.92.13,2.27.12.2.58.33.8.63.65.9,1.3,2.97,2.54,2.97.89.01,1.22-.92,1.5-1.63.85-2.2.69-6.16.23-8.49-.09-.45-1.18-3.09-1.42-3.23Z"/>
      <g>
        <path d="M452.55,251.51c1.32-.89.95.84,1.98,1.13.51-.52.09-1.07.71-1.68.15-.15,2.65-1.41,2.99-1.54,1.55-.58,3.71-1.05,5.36-.82,1.22.17.81.77,1.37,1.49.37.48,1.5,1.5,1.57,1.98.05.33-.23.77-.19,1.16.07.83.38,1.49.25,2.37-.15,1.05-2.04,3.06-2.85,3.84-.61.59-1.61.7-1.68,1.67,2.63,1.15,2.84,2.36,4.74-.52,1-1.52,1.16-2.68,1.77-4.2.27-.68.94-1.53,1.14-2.21.14-.49-.12-.29-.35-.34-1.45-.33-2.65-.32-2.53-2.27.01-.18.69-2.59.78-2.7.16-.22,1.3-.27,1.72-.55.58-.39.46-1.37,1.47-.7,1.41.93,1.4,2.83,1.31,4.31.74-.58,1.37-1.26,2.23-1.71.98-.52,4.58-1.94,5.65-2.24.48-.13,1.47-.33,1.66.28-.01,1.77-1.37,3.02-2.17,4.46-1.57,2.85-2.84,5.54-5.44,7.69.01.82,2.66.19,3.09-.01.18-.09,2.85-2.41,3.08-2.65,2.43-2.65,1.85-5.18,2.95-8.05.2-.53.99-1.63,1.51-.88.41.59-1.02,5.07-.82,6.55.13,1,.99,2.51,2.18,2.24.11-.03,2.07-.83,2.17-.9,1.42-.94,3.11-4.9,3.93-6.65.28-.59.69-2.72,1.38-2.68.43.02.36.97.33,1.28-.25,3.22-2.25,7.53-1.82,10.48.1.69.52,2.23,1.26,2.35,1.48.23,5.25-3.82,6.68-4.56.18-.04.15.23.11.35-.05.17-1.88,2.57-2.15,2.87-1.69,1.9-5.36,5.47-7.04,1.56-1.01-2.33-.58-3.5-.22-5.71.04-.22.23-.75-.26-.5-.58.29-.36,1.01-.44,1.14s-1.38,1.66-1.46,1.73c-.86.73-3.14,1.08-4.12.53-.79-.45-1.78-2.62-2.45-2.19-.4,1.44-.86,2.83-2.23,3.63-2.03.74-3.57,3.26-5.92,2.47-.63-.21-.59-.91-1.04-.86-1.22.13-2.2,2.44-3.81,2.14-.56-.18-.75-1.94-.88-2.49-.25-1.09-.95.8-1.33,1.29-3.2,4.15-2.65-.32-6.22-.45-.18,0-2.52,1.05-3.02,1.25-.31.12-.52.53-.82.61-1.34.38-4,.32-5.26-.38-.58-.32-1.1-1.2-1.63-1.25-.86-.09-1.44,1.07-2.74.87-3.86-.6-2.46-3.13-3.4-5.22-.45-1-2.15.5-2.93.79-2.51.95-5.81,1.56-8.07,3.1-1.65,1.12-3.36,3.26-5.11,4.27-.51.29-3.09,1.46-3.51,1.42-1.4-.15-1.37-1.71-1.71-2.32-.41-.72-1.73-.56-1.54-2.48.14-1.44,2.45-5.55,3.29-7,.61-1.05,2.9-4.95,3.85-5.24,1.3-.39,2.55,1.1,2.95,1.06,1.09-.45,1.71-1.53,2.78-2.01.77-.35,1.64-.42,2.33-.78s1.03-1,1.99-1.36c2.09-.77,3.84-.5,5.96-.23,1.14-.87,1.34-2.32,1.95-3.32.69-1.12,3.98-6.34,4.8-6.68.56-.23,1.27.25,1.1.86-.57.66-1.15,1.27-1.52,2.08-1.03,2.18-2.57,6.31-3.29,8.65-.77,2.52-2.45,9.19-1.22,11.4.32.57,1.11,1.33,1.78,1.12,2.44-.78,2.36-4.11,3.05-6.05.47-1.32,1.73-2.57,2.02-4.07ZM445.08,249.78l1.91-4.78c-1.14.71-3.14,3.73-1.91,4.78ZM424.54,263.17c.11.1,2.43-.77,2.79-.91,3.28-1.32,6.45-2.78,9.7-4.16s7.15-1.27,6.26-6.18c-.48-2.68-2.76-3.28-5.15-2.49-1.39.45-5.81,3.22-6.68,4.31-.48.6-.02,1.74-.84,2.26-.72-.36.09-1.62-.83-1.43.03.33-.04.55-.26.81-1.92,2.35-4,4.8-5,7.79ZM468.54,252.36l.81.27c1.04-.03,2.02-4.57.12-2.96-.54.45-1.34,2.06-.94,2.69ZM457.51,250.97c.39-.17.79-.53.71-.96-.39.17-.79.53-.71.96ZM461.45,250.01v.24c.16-.08.16-.16,0-.24ZM463.38,257.55c1.27-1.59,2.54-4.22.93-6.11-1.03-1.2-2.07-.48-3.13-.51-.94-.02-1.65-.45-2.74-.11-.71.22-5.16,4.7-5.68,5.55-.68,1.12-1.8,3.64-1.42,4.93.43,1.45,4.19,1.57,5.41,1.2.26-.08,3.18-1.64,3.6-1.89.59-.35,2.48-2.39,3.02-3.07ZM471.2,259.03c-.68-1.33,1.49-.91,1.84.42l.57.09c.36-.91,1.33-1.44,1.78-2.05,1.44-1.93,1.82-4.22,3.04-6.28l-.27-.49-6.45,2.39c.02,1.01-2.51,4.52-2,5.24l.93.27c-.38,1.15-1.52,2.96-1.67,4.18-.05.37-.03.4.35.35l2.65-2.38c.04-.07-.33-1.33-.4-1.5-.09-.21-.37-.2-.39-.23ZM428.11,253.38c-1.9.08-1.89,2.18-2.58,3.51-1.11,2.12-2.73,4.06-3.14,6.53.54.11.53-.27.72-.59.75-1.28,1.22-2.7,1.99-3.98.54-.9,3.2-4.06,3.23-4.63.01-.27-.22-.56-.22-.84ZM451.42,255.27v.24c.16-.08.16-.16,0-.24ZM488.7,256.68v.24c.16-.08.16-.16,0-.24ZM429.92,263.41v.24c.16-.08.16-.16,0-.24ZM428.73,263.65c-.68.56-4.84,1.33-4.66,2.26.35.52.49.27.91.21.93-.14,3.28-1.59,3.75-2.47Z"/>
        <path d="M539.63,241.91c.25.22,1.58,2.02,1.79,2.38,2.23,3.77-.42,7.24-.73,11.13,3.98.75,3.46-.88,4.29-3.67.41-1.39,2.38-3.54,3.92-3.49,2.73.08,3.6,2.17,2.65,4.55-.71,1.78-5.67,3.3-5.98,3.82-1.02,1.66,1.58,2.56,2.72,2.74.25.04,2.38.13,2.5.1.45-.13.62-.81,1.04-1.13.73-.56,2.11-.61,2.78-1.22.18-.17,2.25-3.92,2.42-4.34.37-.9.2-3.12,1.7-3.08,2.19.06-1.22,5.21-1.6,6.05-.55,1.19-1.06,2.47-1.39,3.74.26.23,2.46-1.43,2.94-1.72.38-.23,1.17-.37,1.3-.5.37-.37.47-1.49,1.62-1.85.47.27-.93,1.17-.12,1.43.68-1.42,1.7-4.67,2.61-5.8.59-.72,2.2-.63,1.89.62-.09.36-.63.56-.79.9-.28.6-.31,1.32-.64,1.99-.94,1.87-2.5,3.54-2.35,5.88,1.24.16,2.05-.89,3.05-1.37,1.71-.82,3.58-1.56,5.31-2.21v1.31c-1.84,1.08-3.71,2.15-5.55,3.23-.16.09-.19.38-.48.54-1.1.61-2.35,1.36-3.45.34-1.4-1.3-.24-3.53.4-4.94-.58-.13-.61.1-.92.39-1.06.99-3.19,3.98-4.68,3.93-2.14-.07-1.65-2.68-1.2-4.07-.95.17-.86,1.39-1.07,1.54-.38.27-3.9,2.07-4.3,2.17-2.6.66-5.11-1.35-5.73-3.84-.54-.37-1.36.22-1.99.1-.55-.11-.94-.84-1.61-.68v3.95c-1.15-.1-3.63,1.61-4.55.96l-.58-1.06c-.93.63-2.4.78-3.3,1.22-.61.3-1.12,1.1-1.81,1.54-1.86,1.15-3.59.94-5.59.27-.44-.15-.56-.7-1.23-.66s-2.12,1.13-2.94,1.39c-1.88.58-4.08.43-5.33-1.25-.16-.21-.88-1.58-.9-1.72s.98-2.36.07-1.98c-.38.69-1.85,1.42-2.14,1.92-.62,1.07-.51,4.03-2.47,3.04.09-1.43-2.73-4.6-2.42-5.77.41-1.56,2.13,1.74,3.3,1.01l1.69-10c-.69.35-1.48.42-2.14.85-.88.57-2.44,3.05-3.18,2.94-2.13-.3.72-3.75,1.5-4.38s1.92-.69,2.71-1.12c1.09-.59,2.15-2.53,3.5-1l-2.15,11.54c.55.53,3.18-2.48,3.58-2.99,1.51-1.93,2.5-4.3,4.06-6.21,1.37-.44,1.56.12,1.38,1.37-.56,3.87-6.86,6.74-5.21,10.84.87,2.16,4.87.81,6.47.21.28-1.2.83-2.5,1.13-3.64.26-.99-.02-1.58.57-2.77.35-.7,2.25-3.13,2.84-3.61,1.04-.87,2.68.55,2.99,1.52.66,2.1-.45,2.51-1.13,3.91-.33.66-.37,1.41-.8,2.07-.55.85-2.97,2.14-2.98,2.76.68.54,1.79.16,2.49.39.38.13.26.8.73.69.96-.09,1.85-1.57,2.68-2.12,1.24-.83,2.8-.84,4.03-1.71.27-1.45.01-2.94.14-4.4.2-2.29,1.59-8.61,2.41-10.72.36-.94,1.09-1.63,1.61-2.46.17-.14.52.1.65.21ZM536.37,256.16c.58-.41,1.23-1.01,1.63-1.59.74-1.09,2.66-4.79,2.84-5.99.35-2.23-.33-3.46-1.74-5.07-.6,0-1.06,2.74-1.2,3.34-.69,3.05-1.16,6.22-1.54,9.32ZM549.98,248.75l-3.21,2.88c-.47.96-1.3,1.68-1.09,2.85.32.33,4-1.78,4.31-2.32.56-.95.04-2.39-.02-3.42ZM528,253.07c-.43-.45-2.71,3.27-2.91,3.66-.22.45-.94,2.14-1.05,2.54-.33,1.26,1.72.19,2.17-.22.53-.5,2.16-3.72,2.16-4.43,0-.46-.45-1.02-.38-1.55ZM539.47,255.45c-.34-.36-2.3,2.05-2.48,2.41-.3.62-.45,1.19-.38,1.88,2.31.16,1.55-2.18,3.11-3.01l-.25-1.29ZM526.93,258.8v.24c.16-.08.16-.16,0-.24ZM525.26,260.23v.24c.16-.08.16-.16,0-.24ZM524.78,260.47v.24c.16-.08.16-.16,0-.24Z"/>
      </g>
      <path d="M69.81,214.62c-1.41,1.8-3.62,3.31-3.21,6.03,1.65.17,1.28,2.46,1.18,3.7.22.69,2.69.38,3.34.28.82-.13,3.74-1.18,4.28-1.69.2-.19.97-2.57,1.31-3.22,1.23-2.3,3.31-4.42,6.07-4.65,1.15-.1,2.15.98,1.71,2.15-1.13,3.03-4.14,4.58-6.68,6.24-.33,1.13,1.89,2.08,2.74,2.21,2.83.43,3.7-1.1,5.83-2.26,1.37-.75,2.82-1.24,4.24-1.85.37-.86.97-5.5,2.09-5.43.97.06,1.37,5.72,2.19,5.95.84-.19,1.86-.87,2.53-1.42,1.01-.83,2.14-3.12,3.51-2.61.84,1.41-3.73,5.45-4.98,5.85-.47.15-1.18.01-1.41.15-.64.38-.37,6.11-2.99,5.19-.35-.12-.99-3.1-1.09-3.7-.14-.84.29-1.89-.38-2.48-.3-.02-3.82,2.14-4.49,2.44-.87.38-2.28.87-3.28,1.26-2.56,1.02-5.33.46-5.99-2.49-.81-.12-1.36.6-2.04.91-1.84.83-3.75,1.43-5.79,1.5l-.38,3.32c-1.09.72-1.87.54-2.57-.55-1.24-1.95-.66-3.44-.66-5.55,0-1.11-.46-2.2-.01-3.45-1.37,1.17-1.97,2.62-3.5,3.78-1.11.85-4.95,3.04-6.24,3.1-2.25.1-2.09-2.86-2.8-4.25-1.38,1.52-2.74,3.2-4.31,4.53-1.19,1.01-4.49,3.64-5.98,2.65-1.83-1.2-1.41-6.71-.11-8.37-.25-.25-1.12.74-1.32.95-.85.89-4,5.43-4.76,5.49-.87.07-1.04-.63-.8-1.37,1.92-.4,1.53-2.63,2.23-3.62.41-.58,2.47-1.97,3.12-2.73.86-1,2.66-4.37,3.55-4.72,1.65-.64,1,2.29.77,3.17-.41,1.55-3.01,7.91-2.21,9.04.19.27.66.25.97.24.58-.03,3.95-2.24,4.57-2.74,1.04-.85,4.36-4.91,5.2-6.14,1.28-1.87,1.55-4.41,4.2-4.76.3,1.69-1.32,2.64-1.96,3.89-.74,1.45-2.46,6.96.35,6.57.28-.04,4.64-1.93,4.85-2.1.29-.22,4.57-5.23,4.71-5.57.42-1.01.54-2.86.95-4.07.26-.77,2.81-6.25,3.2-6.37,1.78.28,1.42,3.08,2.23,4.4,0,.36-1.64,2.69-1.98,3.14ZM70.52,212c.62-1.02-.46-1.97-1.27-1.27-1.55,1.33-.88,3.65-2.7,4.94.22.18,1-.4,1.2-.59.36-.33,2.58-2.78,2.77-3.08ZM81.71,218.39c.49-.5,1.37-.84,1.33-1.78-1.19.17-1.78.72-2.69,1.25-.4.23-1.15.36-1.36.55-.12.1-1.15,2.58-1.19,2.98.51.52,3.46-2.53,3.92-3ZM92.36,225.2c.03-.76.77-2.14-.35-2.39-.61.13-.32,1.61-.15,2.06.12.33-.08.41.5.33ZM60.46,223.56v.24c.16-.08.16-.16,0-.24ZM66.32,225.7v1.2s.72,0,.72,0v-1.2s-.72,0-.72,0Z"/>
      <g>
        <path d="M208.74,224.88c.81.23.77-.47,1.14-.72.86-.57,1.83-.94,2.66-1.57,2.1-1.58,3.75-3.72,6.35-4.64l.35.58c.01.61-.97,1.52-1.43,1.93-1.52,1.36-3.46,2.51-4.79,4.04l-5.13,3.01c-.44.9.96,2.22,1.38,3.17.2.46.09,1.06.24,1.31.41.71,2.26.63.9,2.56-.86,1.22-2.12,2.34-3.7,2.03-2.03-.41-.79-5.5-.86-7-.04-.85-.87-3.45-1.23-4.29-.75-1.72-2.63-3.43-1.15-5.55h.97c1.05,1.7.39,4.21,2.5,5.13.31-.02,1.04-2.58,1.06-3,.03-.54-.24-.96-.24-1.41,0-1.61,1.99-3.02,2.63-4.41-.68-.51-3.41,1.61-4.14,1.95-.79.37-1.69.5-2.48.87-3.29,1.55-6.29,3.39-9.97,4.13-1.06.76-.75,6.75-.85,8.22-.06.91-.44,4.97-1.5,4.87-1.76-.16-1.41-3.13-1.36-4.38.12-2.72,1.41-6.06,1.43-8.38,0-.71-.39-1.38-.25-2.13.1-.56,1.5-1.83,1.67-2.64l-2.81,2.93c.34.82-1.42,3.18-.99,3.64.05.06,1.13-.07.94.96-1.23-.07-2.3-1.53-2.15-2.72.44-3.42,2.93-5.22,4.5-7.94.7-1.21,1.49-4.68,3.06-4.83l.53.35c.11.39-.58,2.88-.76,3.48-.45,1.51-1.39,2.95-1.36,4.49.36.38,6.14-2.77,7-3.15,3.33-1.45,6.61-2.6,10.28-2.81,1.08-3.08,2.48-6.05,2.9-9.34,1.08-1.15,1.56-.19,1.98.89,2.89,7.5-3.52,9.85-5.84,15.55-.61,1.51-.92,3.29-1.5,4.82ZM214.7,207.2l-2.03,6.92c1.2-1.44,2.27-4.23,2.27-6.08,0-.28.16-.9-.24-.84ZM206.1,216.05h-.48s0,.23,0,.23h.48s0-.23,0-.23ZM202.52,217.24c-.95-.12-1.7.52-2.38,1.07.87.93,2.08-.13,2.38-1.07ZM191.05,229.43v-1.43s-.24,0-.24,0v1.43s.24,0,.24,0ZM207.07,234.43c1,.14,2.01-1.41,1.92-2.27-.14-.74-1.03-.89-1.67-.82l-.25,3.09Z"/>
        <g>
          <path d="M147.03,209.92c1.41.81-.48,3.67-.79,4.73,2.3-1.16,5.74-4.33,8.18-4.72.55-.09,3.4-.08,3.9.04,1,.24,2.32,1.88,2.38,2.9.14,2.41-5.47,5.43-6.34,7.51.21.78-.52,4.09.28,4.28.92.22,1.61-1.19,2.12-1.67,2.01-1.84,4.04-4.05,5.72-6.22.8-1.03,1.52-3.75,3-1.96.17,1.07-.87,1.76-1.24,2.53-.31.65-.49,1.47-.7,2.17-.2.66-1.57,5.59-.56,5.64,1.28-1.34,3.5-2.21,4.78-3.34,1.55-1.38,5.43-4.95,6.34-6.56.8-1.42.75-4.05,3.06-2.96.58.91-1.7,3.21-2.22,4.05-1.46,2.39-2.15,5.09-2.28,7.86.45.05.84-.14,1.25-.3,2.26-.94,4.65-2.66,6.28-4.47,1.23-1.38,2.23-2.93,3.12-4.53,2.21.63.47,1.98.05,2.92-.6,1.33-.94,3-.9,4.47,1.55-1.41,3.63-2.05,5.73-1.91l-.02.7c-1.16.42-3.32,1.21-4.21,2.01s-1.6,3.53-2.82,3.53c-2.19,0-.35-4.93-.6-6.23-1.58,2.3-3.58,4.29-6.23,5.35-4.47,1.8-3.09-1.82-2.96-4.87.01-.33.22-.41-.25-.71-.71.72-1.72,1.44-2.4,2.14-.96.98-1.43,1.89-2.62,2.87-4.83,4.01-5.68,1.52-4.9-3.81-.41-.11-.48.17-.72.36-1.38,1.06-2.49,2.89-3.94,3.95-.88.64-2.15,1.62-3.23,1.08-1.17-1.56-.92-3.54-.72-5.37-.27-.31-1.84,1.54-2.16,1.78-2.74,2.04-9.3,5.64-9.54-.34l-.56.04-8.75,10.96c-.26-1.35-.14-1.64.43-2.79,2.32-4.61,6.46-7.67,8.73-11.81,1.02-1.86,1.57-4.06,2.66-5.93.5-.85,2.49-3.98,3.64-3.32ZM158.93,213.84c.58-.9-.12-1.37-.88-1.92-1.72-1.26-1.8-.76-3.51-.2-1.53.5-3.35,1.27-4.82,2.11-1.24.72-8.35,6.15-7.56,7.52,1.61,1.06,3.84.02,5.61.68l.5-.69.24.48c-.06-.53.04-.79.34-1.21.2-.27,4.78-4.13,5.08-4.28.35-.18.71-.28,1.1-.26l.53.73.43-.02c.2-.05,2.75-2.64,2.93-2.92ZM143.5,214.42l-.12.71.36-.36v-.35s-.23,0-.23,0ZM182.57,217.49v.24c.16-.08.16-.16,0-.24ZM182.09,218.45v.24c.16-.08.16-.16,0-.24ZM181.14,219.17l-.36.36.11.11c.13-.15.48-.31.24-.47ZM170.98,219.89v-.48s-.23,0-.23,0v.48s.23,0,.23,0ZM148.88,221.82v.24c.16-.08.16-.16,0-.24ZM144.46,223.5c-.47-.02-1.57-.43-1.43.47l1.43-.47Z"/>
          <path d="M135.98,204.25c.18.12.28.43.68.63,2.09,1.02,5.33,1.18,5.4,4.29l-2.15-.95c.45.73.25,1.6-.71,1.67l.24-1.79c-.03-.44-2.49-1.77-3.05-1.98-.65-.24-1.12-.35-1.84-.27-2.28.24-6.37,4.66-8.63,5.72-.59,1.03.99,1.49,1.78,2.05.5.36.82.9,1.33,1.23.22.02,2.38-1.87,2.75-2.21,1.08-.97,4.71-5.12,5.85-5.13,1.59-.01.92,1.33.11,2-.47.39-1.14.49-1.67.96s-.92,1.24-1.53,1.81c-1.14,1.04-4.54,3.38-4.58,4.79-.05,1.67-.24,3.03-.33,4.64-.03.54.29,1.05.25,1.64-.06.91-3.6,7.79-4.29,8.63-.53.65-1.82,1.52-2.69,1.28-1.16-.31-2.64-3.12-2.93-4.26-.13-.51-.39-3.96-1.07-3.59-.12,1.09-2.62,1.45-2.84.39.13-1.39,9.43-8.02,11.15-9.04l.05-.54c-.06-.46-.43-.68-.72-.98-1.91-1.91-4.72-3.33-6.58-5.37l.36.95-.92-.28c.22-1.52-.62-1.11-1.01-1.55-.55-.62-.4-1.46.43-1.71,1.39-.42,2.79,2.01,3.9,2.45,2.41.96,4.15-1.52,5.89-2.7.98-.67,4.29-2.92,5.15-3.21,1.16-.38,1.31-.21,2.23.39ZM135.6,209.89h-.48s0,.48,0,.48l.48-.48ZM128.2,217.77l-6.61,5.09c-.13.14-.41.7-.44.88-.06.38.36,3.3.47,3.84.35,1.67.79,4.52,2.65,2.61,1.71-1.75,4.05-6.58,4.16-9,.05-.99-.47-2.32-.23-3.43Z"/>
        </g>
      </g>
      <g>
        <path d="M203.66,138.42l6.09-10.51c.94-1.79,1.41-3.58,1.3-5.62-.07-1.41-.41-4.71-2.39-4.18l.11.47h.84c-.17-.02-.4-.05-.47.17-2.02,6.4-5.08,12.77-5.93,19.57-.07.54-.42,3.3.12,3.45,2.8.25,6.01-1.32,7.98-3.24,1.54-1.5,2.2-4.64,3.62-6.65.98-1.39,3.95-4.27,4.16-.89.12,1.91-2.24,4.72-3.47,6.11-.31.35-.84.53-1.07.84-.94,1.26.64,2.75,1.94,2.77.36,0,3.23-1.12,3.55-1.35.62-.44,3.23-3.58,3.79-4.33,1.37-1.82,4.67-7.67,5.04-9.77.26-1.46-.57-4.52,1.85-3.79,1.6.48-.37,4.37-.67,5.45-.55,2-1.04,3.87-.83,5.97.62-.45.95.62,1.31.65,1.58-.51,2.72-1.8,4.01-2.62,1.52-.97,5.56-2.99,6.55-4.08.1-.11,1.11-2.22,1.21-2.5.17-.48-.01-1.06.24-1.67.38-.93,3.25-3.14,3.96-1.44,1.54,3.7-3.05,4.76-3.97,7.4-.42,1.19-1.19,5.01-1.33,6.32-.11,1.02.24,5.74-.65,6.04-1.36.46-1.61-2.73-2.18-3.74-.87-1.52-3.38-2.01-.19-3.64l.36,1.66c.39.07.65-.19.82-.49.26-.46,1.09-4.27,1.09-4.88,0-.38.05-.41-.37-.37l-7.44,4.74-2.13.75c-.17.23.15.7.09,1.03-.25,1.41-.53,3.49-.97,4.77-.77,2.25-2.37,3.42-3.16.43-.84-3.18.37-4.46.37-7.28,0-.26-.12-1.24-.61-1.08-.77,1.24-1.44,3.02-2.27,4.18-.42.58-3.41,3.78-3.94,4.18-2.85,2.19-5.46,2.2-7.2-1.21-.65-.11-3.16,2.16-4.07,2.61-1.95.97-3.71.9-5.81.52.55,2.79,1.08,5.5,1.2,8.36l-1.42-.25-.49-3.09v7.16c.69.11.4-.15.51-.55.26-.93.24-2.63,1.4-2.79.12,1.6-.19,3.19-.65,4.72-.39,1.32-.7,3.04-2.42,2.17-.22-4.39-.46-8.83-.29-13.23.09-2.21,1-4.5.24-6.8l-.59.95c-.41,0-1.1-2.62-.98-3.11.16-.71,1.07-.77,1.67-.68.51.18.32,1.32,1.11,1.17.66-3.79,1.94-7.48,3.03-11.18.7-2.38.94-4.44,2.08-6.76.18-.37,1.52-2.71,1.68-2.86,1.45-1.46,2.79,1.22,3.17,2.34,1.78,5.19-.35,9.6-3.08,13.98-.61.97-3.55,5.14-4.31,5.48-.37.17-.73.22-1.13.18ZM216.79,131.96c-.71.52-1.22,1.52-1.31,2.38.74-.58,1.2-1.45,1.31-2.38ZM228.51,135.3l.23-1.2c-.36.09-.59.56-.66.89-.16.77-.36,3.46-.3,4.26.03.41-.02.79.37,1.06.14-.85.87-1.9.85-2.76-.01-.74-.59-.86-.64-1.18-.14-.79.74-.69.62-1.33l-.47.24ZM229.7,137.2l.16-.84-.4-.35v1.19s.23,0,.23,0Z"/>
        <g>
          <path d="M163.02,126.5c.96-.11,1.1-.91,2.21-.66.45.1,2.21,1.64,2.12,2.21-.56,1.32-1.81,8.17-2.56,8.74-.17.13-.96.3-1.04.22-.41-1.44.49-2.57.7-3.72.26-1.48.38-3.36.49-4.88-.72.47-2.12,2.03-2.26,2.84-.06.36.18.77.12,1.09-.27,1.54-1.47,5.53,1.08,5.63s7.99-3.48,9.32-5.5c.88-1.33-.44-3.07,1.77-3.96.16-.78-1.21.41-.95-.47.32-1.1,1.08-1.28,1.68-1.91.78-.82,1.24-2.42,2.52-.87.74.9-.36,2.95-1.01,3.78-.42.53-1.29.72-1.27,1.5.52-.31,2.25-.89,2.79-.91.31,0,.49.37.8.32.76-.11,1.81-1.41,3.23-1.31.5.03.64.57.98.66.55.14,1.31-.49,2.4-.02,1.72.74,0,3.21,3.27,2.67,1.04-.17,1.15-1.01,1.96-1.62.93-.7,2.54-.99,3.25-1.46.41-.28.7-1.58,1.46-.98.19.15.43,1.5.39,1.79-.08.65-.91.82-.96,1.45-.04.42.28,1.06.26,1.66-.06,2.34-.55,4.82-.26,7.18.23,1.88,2.05,3.36,1.65,5.33-2.7,1.33-2.53-4.36-4.68-4.91-.46-.12-.96.02-1.35-.1-.32-.1-.32-.55-.56-.69-.47-.29-1.15.01-1.23-.87-.18-2.09,3-.38,3.77-.17,1.26.34.47-1.53.48-2.15.03-2.09,1.42-4.81,1.19-7.06-1.98,2.25-4.84,3.93-7.88,4.18-1.28,2.68-3.9,5.52-6.2,7.42-.86.71-2.15,1.75-3.34,1.19-.16-.08-1.97-1.64-2.03-1.79-.45-1.05.03-.65-.8-1.81-1.63-2.28-.81-2.42-.28-4.87-1.1.59-1.76,1.78-2.75,2.62-1.38,1.17-6.52,4.25-8.23,3.47-.1-.05-1.63-1.38-1.69-1.47-.16-.26-.41-1.3-.44-1.65-.07-.77.07-2.81.21-3.55.11-.54.6-.7.68-1,.11-.44-.44-1.5.03-2.22-.24-.3-3.74,3.84-4.04,4.2-.27.31-.85.53-.98.75-.33.56-.59,3.83-.7,4.73-.05.43.09.39-.47.36-.33-2.33-.47-3.93.42-6.15.15-.36,1.23-1.78,1.01-1.98-1.05-.21-2.25.9-3.12.07-1.85-1.78,1.34-1.4,2.17-1.61.69-.18,1.29-.97,2.02-1.09.91-.15-.54,1.42.6,1.2-.19-1.59,1.03-2.03,1.83-2.95,2.24-2.62,3.67-4.19,3.68-7.93,0-1.27-2.14-.83-2.6-.31-.03.04.09.57-.09.97-.55,1.22-1.07,1.91-1.13,3.38-.75.43-1.41.67-1.48-.44-.14-2.39,2.27-4.7,3.77-6.29,2.42-.71,2.96,4.21,2.64,5.76s-2.08,2.47-2.57,3.99ZM176.16,128.17l.72-1.43c-.23.06-1.34,1.29-.72,1.43ZM175.81,128.41v.24c.16-.08.16-.16,0-.24ZM183.34,129.6c-.84-.21-.8.47-1.21.82-.95.81-1.33-.04-1.78-.02-.19,0-.52.43-.84.52-1.42.4-3.58.42-3.61,2.39-.01,1,.35,3.91.52,5,.56,3.6,2.81,1.55,4.41.14,1.92-1.69,4.55-4.16,4.97-6.73.31-1.87-1.15-1.24-2.32-1.19l-.32-.33.17-.6ZM192.42,139.38h-.48s0,.23,0,.23h.48s0-.23,0-.23Z"/>
          <path d="M145.53,114.86l.52,1.62-2.88-1.07-.11-1.08c-.69.38-1.2.83-1.94,1.16s-1.56.41-2.17.7c-.86.41-6.5,6.85-7.3,8-2.31,3.31-5.15,9.63-1.12,12.73.95.73,4.7,1.3,5.4.59.42-.43,1.28-4.15,1.6-5.09.24-.69.92-1.49,1.06-2.01.12-.45-.17-1,.22-1.73.08-.14,1.74-2.46,1.85-2.57,1.97-2.16,4,.22,3.51,2.55,1.26-.45,1.35-1.58,2.98-1.63,1.19-.04,4.06.68,4.87,1.53,1.2,1.26,1.42,3.53.92,5.16-.28.89-3.44,5.89-4.12,6.63-1.22,1.31-5.58,2.87-7.28,2.53-2.65-.52-4.58-3.7-5.42-3.9-.46-.11-1.32.36-1.89.42-2.63.27-5.59-1.38-6.66-3.8-2.82-6.31,4.72-15.9,9.3-19.83.48-.41,1.68-1.42,2.18-1.64,1.81-.79,4.6.52,6.49.72ZM142.71,126.76c-.4-.09-.49.13-.71.36-.6.62-1.35,1.9-1.92,2.64-.16.22-.6.28-.66.4-.14.24-.06,1.1-.2,1.59-.21.73-1.72,4.79-1.51,5.05l1.44-1.07c1.14-.69,1.12-1.73,1.62-2.67,1.18-2.21,2.24-3.61,1.95-6.29ZM146.78,128.19h.35s.36-.36.36-.36l-.71.12v.23ZM138,138.03c-.63,1.44,3.31,2.95,4.37,3.05,1.98.19,3.09-.46,4.89-.59,1.74-2.42,5.55-7.3,3.92-10.38-.51-.96-2.85-1.97-3.86-1.51-.36.16-1.99.86-2.14.96-.57.37-1.92,2.08-2.32,2.71-.35.55-1.56,2.95-1.56,3.45,0,.94,1.27,2.06,2.23,2.02.53-.02,1.96-1.06,1.81,0-2.59,1.2-3.98,1.39-5.38-1.42-.19.45-1.88,1.52-1.97,1.71ZM144.15,130.34c.1-.11.32-1.26.24-1.43h-.23c-.02.49-.25.94-.24,1.43.08-.01.2.03.23,0Z"/>
        </g>
      </g>
      <path d="M455.63,302.44l.56.33c1.02-.38,1.5-1.38,2.17-2.13,2.65-2.96,3.91-6.74,6.14-10.11.35-.53,1.6-2.3,2.33-1.81.85,1.75-.08,2.47-.57,3.8-1,2.71-2.22,4.46-2.22,7.53,0,.34.17.7.22,1.05l2.84.27c-.06,1.74-2.56,2.4-3.72,1.21-.58-.59-.88-2.18-1.04-3.02-.11-.57.31-1.72-.5-1.53.13,2.18-5.19,9.2-7.27,6.44-.7-.93-.59-5.08-.73-6.43-1.32.94-2.22,2.34-3.46,3.47-.56.51-2.64,1.78-2.88,2.2-.59.99.36,2.38-.83,2.68-.14,0-1.45-2.08-1.51-2.31-.4-1.54,1.58-1.22,1.75-1.48.07-.12-.14-.46.09-.84.31-.51,1.15-.91,1.55-1.34,2.37-2.52,4.84-5.16,6.79-8.02.47-.69.51-1.79,1.39-1.93,1.76-.05.81,2.53.5,3.58-.2.68-1.61,3.81-1.61,4.13v4.3Z"/>
      <path d="M282.36,264c1.77-.27,2.34-2.06,3.64-2.93.67-.44,1.43-.59,2.07-1.03,1.82-1.25,4.84-4.99,7-5.45,3.58-.76-.2,4.63-.48,5.75s-.49,3.58.41,4.5c.21.21,4.02,1.56,2.35,2.33s-3.75-.37-4.44-1.92c-1.04-2.34-.05-4.85.3-7.22-2.02,1.01-3.58,2.59-5.26,4.05-1.23,1.07-2.3,2.27-3.45,3.23-4.76,3.98-4.18-4.09-3.47-6.8-.77.83-1.54,1.92-2.13,2.88-.29.48-1.91,3.22-2,3.5-.06.19-.07.35-.05.55l.89-.06.3.54-1.8.48-.61-.33c-.26-.28-.24-.56-.18-.91.09-.56,1.43-3.57,1.78-4.22,1.3-2.45,3.41-4.92,4.82-7.36.84-1.46,1.08-3.38,2.56-4.12,1.63,2.32-.65,5.45-1.38,7.92-.13.45-.89,3.01-.89,3.17v3.46Z"/>
      <path d="M272.14,120.05c1.49,1.63-.18,2.45-.36,3.2-.08.36.23.86.2,1.36-.08,1.29-3.54,5.98-4.53,7.2-.64.79-4.37,4.44-4.45,5.01-.12.84,1.06,3.23,2.18,3.21,1.07,0,3.36-2.36,3.86-3.29.85-1.57.31-3.78,1.87-4.58.73.15,0,3.72-.18,4.35-.6,2.1-1.58,3.75-3.44,4.92-2.85,1.78-4.55-.17-5.58-2.82l-1.19,1.57-1.41-.16c-.37-.43,1.68-6.41,2.23-6.9,1.04-.94,1.52.25,1.16,1.4-.19.61-.89.92-.68,1.47.29-.65.91-.84,1.31-1.31,1.61-1.88,3.51-4.25,5.01-6.22,1.29-1.7,2.97-3.89,3.33-5.99.51-3-2.79.46-3.81.62.27.77,1.17,1.2.96,2.14-.33.38-1.82-1.87-2.11-2.06.16-2.06,4.08-4.8,5.62-3.12Z"/>
      <g>
        <path d="M262.98,219.34c.33.3,2.47-.75,2.95-.99,2.82-1.41,5.61-3.31,8.5-4.64.68-1.28,1.46-2.57,2.1-3.87.34-.69.24-1.4.77-2.1.25-.32,2.74-2.15,3.04-2.24.69-.19,1.49,1.21,1.49,1.76,0,.95-1.67,3.33-2.36,4.07-1.4,1.5-2.77,1.6-3.38,3.78-.27.97-.98,3.36-1.12,4.16-.17.98,1.16,4.97,1.11,6.63-.02.57-.37,1.13-.41,1.69-.09,1.3.19,2.66-.3,3.88l-1.64.04c.35-3.1-.87-5.62-.72-8.72.11-2.33.52-5.08,1.18-7.29-.39.16-.83.38-1.02.78-.37.76.43,1.35-.29,1.84-.28-.24-.6-.41-.97-.46-1.61-.23-5.22,2.42-6.82,3.19-.85.41-1.62.57-2.5.85-.34,1.18.04,7.53-.97,7.87-.85.3-1.42-.24-1.52-1.07.3-2.03.62-4.13.72-6.18.02-.42.23-2.15-.36-2.04-.9.26-2.91,3.44-3.81,4.31-1.03.99-4.3,3.77-5.46,4.34-.82.4-1.83.8-2.72.5-1.78-.6-2.08-1.9-2.88-3.33-.12-.21.09-.4-.38-.28-.71.19-1.15,1-1.75,1.37-2.02,1.25-3.42,1.08-3.78,4.11l-1.32.24c-.22-2.07.24-3.43,1.83-4.74,1.05-.87,4.45-2.46,4.96-3.17.65-.89.44-3.46.67-4.59.33-1.63,2.2-4.67,3.77-5.31,2.58-1.05,6.03-.31,5.49,3.09-.14.88-1.8,2.85-2.49,3.48-.77.7-5.08,3.7-5.26,4.06-.59,1.18.58,2.35,1.13,3.29.85.49,3.09-.89,3.85-1.42,1.49-1.05,2.7-2.44,3.97-3.67.46-.45,2.65-2.27,2.75-2.51.46-1.07-.54-2.32.24-3.11.96-.96,1.48.7,1.67.71,2.5-1.65,2.39-5.1,3.09-7.65.46-1.66,1.3-3.36,1.54-5.15.71-1.48,1.85-.03,2.07,1.08.24,1.19-.34,4.47-.8,5.67-.39,1.02-4.51,7.12-3.86,7.72ZM277.55,210.5c.22.28,2.43-2.24,2.14-2.87-.32.47-2.54,2.36-2.14,2.87ZM246.97,222.22c.35.07.53-.12.79-.28.72-.43,4.73-3.98,5.18-4.62,1.75-2.51-2.1-2.95-3.01-2.28-.1.08-1.49,1.74-1.64,1.94-1.1,1.6-1.49,3.3-1.33,5.24Z"/>
        <path d="M239.07,211c-.5,1.22.58,1.17.73,2.25.21,1.54-.35,3.13-.25,4.67l-.72-2.03.24-2.75h-.95c-.26,1.06-.32,2.63-.58,3.6-.43,1.57-1.59,3.61-1.99,5.18-.37,1.48-.23,3.47-.54,4.95-.09.41-.28.59-.59.84-1.25-2.42-.43-5.79.28-8.3.48-1.71,1.83-4.24,2.05-5.84.04-.31.28-.34-.19-.66-5.21,1.97-9.28,5.95-14.08,8.57-1.48.09-1.83-1.77-.38-2.25.47-.15.99-.05,1.45-.22,2.12-.78,5.3-4.27,7.8-5.58,2.13-1.12,3.73-1.18,5.88-1.77.65-.18,1.05-.87,1.85-.66Z"/>
      </g>
      <path d="M279.4,134.06c1.24-.19,1.76,1.13,2.64,1.77.77.56,1.81.94,2.6,1.46.62.4,1.04,1.33,1.93,1.3-.07-1.95-.37-3.88-.24-5.85.11-1.62.88-3.86.93-5.28.03-.97-1.35-6.7.96-5.72l.6.61c0,6.13-1.3,12.33-.32,18.5l-.37,1.09c-.18.25-.39.25-.67.2-.57-.09-5.84-4.42-6.2-5.05-.18-.31-.12-.8-.32-1.11-.39-.62-1.92-.62-1.54-1.92Z"/>
      <path d="M233.56,195.97l.37,1.66c.85-1.56,2.94-.98,4.62-1.36,3.58-.79,10.8-3.64,14.02-2.01,1.45.74,2.18,2.32,1.75,3.91-.39,1.47-.75-1.14-.81-1.28-.1-.23-.98-1.01-1.25-1.14-2.86-1.39-10.07,1.8-13.2,2.47-1.82.39-4.68.87-6.29-.14-1.4-.88-.89-2.46.78-2.12Z"/>
      <path d="M49.58,207.56l.91-2.55,1.71-2.35-.71.12.03-1.16.92-.28c.25-.58-.45-.42-.49-.62-.14-.71.89-2.66,1.82-1.54.6.73-.2,2.4-.56,3.29-.43,1.07-.32.79-.58,1.8-.53,2.03-1.73,3.08.77,4.36-.67,1.11-1.71.35-2.48.43-.68.07-1.56,1.56-2.31,1.03-.13-.09-.96-2.36-.96-2.65,0-.57.42-.95.48-1.45.08-.7-.08-1.43.04-2.11.23-1.37.91-2.62.93-3.97-.14-.14-1.15.31-.95-.35.23-.76.79-2.37,1.78-2.3.85.06.65,1.61.61,2.3-.14,2.69-.88,5.3-.96,7.99Z"/>
      <path d="M211.21,287.42c-.77-1.25-.37-1.9,1.06-2.09,4-.53,8.19-.08,12.16-.25,2.66-.11,5.48-.65,8.11-.75.82-.03,2.14-.21,2.75.37,0,.93-11.67,2.18-13.02,2.28-1.41.11-2.89-.08-4.31,0-1.1.06-6.21.8-6.76.45Z"/>
      <path d="M297.55,120.2c-.82-.9-.57-2.61-1.2-3.72l.48-.57c-1.59.05-3.52.56-5.07,1.02-.63.19-1.07.72-1.79.84-.91.16-1.59-.25-2.45.06.37,1.65,3.02,1.98,2.63,3.82-1.74-.58-2.52-2.27-3.76-3.46.08-.27.23-.52.42-.72,1.51-1.65,6.47-3.31,8.67-2.93,1.83.31,1.59,1.41,2.77,2.48l-.68,3.19Z"/>
      <path d="M526.95,232.21c-1.02,1.22-2.51.94-3.75,1.39-.96.35-1.51,1.5-2.62,1.32-.02-1.52,1.69-2.11,2.75-2.86l.11.47,1.68-.24c-.06-.71-1.27-.49-1.18-1.05.14-.79.94-.75,1.48-1.09.42-.26.26-1.03,1.44-.68,1.09.32.63,2.11.09,2.75Z"/>
      <path d="M317.42,263.32c.49.61.41,1.84.02,2.5-.78.58-1.24-.31-1.85-.66-.27.29,2.24,2.24.84,3.1-.76-1.05-2.53-2.21-2.23-3.64.25-1.22,2.32-2.44,3.23-1.3Z"/>
      <path d="M211.24,291.69c.37.33,1.05.06.89.78-1.56.58-3.8-2.02-4.01-3.28-.4-2.42,2.42-4.44,2.23-1.84-.02.31-.33.61-.36.97-.09.84.65,2.83,1.26,3.38Z"/>
      <path d="M181.55,292.74c.07.5.03.39-.3.53-.96.43-2.26.43-3.11.72-.76.26-1.87,1.81-3.28,1.14.62-3.03,4.29-3.08,6.69-2.39Z"/>
      <path d="M369.39,279.2l3.07-.46c.42.38-2.39,2.19-2.83,2.26-.31.05-.67-.14-.99-.11l.24-1.19-.83.39-.83-.54c.11-1.37,1.77-1.89,2.17-.35Z"/>
      <g>
        <path d="M370.94,160.03c1.31.08,1.61-1.69,2.19-2.59,1.2-.39,1.94,1.02,2.1,2,.5,3.11-1.03,6.01-3.17,8.14-.8.8-2.46,1.49-2.89,2.72-.22.62-1.11,7.13-.84,7.4,3.19-.04,6.25-1.5,8.92-3.15.47-.29.88-1.08,1.47-.92.78.22.16,1.23-.27,1.64s-2.77,1.97-3.39,2.34c-2.01,1.19-4.6,2.24-6.96,2.24l.73,7.27c.44.78,1.73,4.49.55,4.88-.57.15-.82-.07-1.15-.46-1.28-1.53-1.37-5.33-1.6-7.25-.09-.72-.36-1.44-.45-2.18-.17-1.51.38-2.98-.69-4.34l1.24-1.08.87-6.16-5.39,2.62c-.22.23-.91,2.27-.97,2.64-.06.45-.12,3.08-.04,3.42.29,1.24,2.66,2.56,1.39,4.34l1.16.75.71,4.28-1.76,1.29c-2.63-.84-3.31-3.89-3.47-6.32-.09-1.39.39-3.42.18-4.48-.09-.46-2.47-3.45-2.69-3.46-.83.82-1.66,1.1-2.58,1.67-1.64,1-6.27,4.05-8.13,2.84-.55-.36-.23-2.24-1.35-2.17-1.68,3.81-8.28,7.95-7.89.48-.22-.23-4.29,2.12-4.42,2.39-.57,1.16,1.34,3.27.25,4.54-1.9,1.89-2.86-4.5-3-5.5l-.6,1.19c-1.68-.43-1.52-2.74-.71-3.81.37-.49,1.34-.36,1.51-.88l.03-.92-.47-.12c-1.23,1.98-3.87,2.88-5.8,4.07-.16.1-.19.37-.35.47-1.08.68-3.06,1.02-3.16,2.78-.03.52.24.94.21,1.38-.04.76-.47,2.65-1.31,2.77-2.03.3-.69-2.35-.6-3.26.2-2.02-2.2-3.01-2.35-4.93,1.63-2.78,2.15.09,2.83.43,1.49.74,1.08-1.03,1.3-1.81.25-.87,1.82-5.21,1.33-5.72-.37-.07-.55.04-.85.23-.91.59-4.92,5.15-5.34,6.13s-.04,2.48-1.54,1.97c-1.03-.35.05-2.86.45-3.54,1.35-.92,6.65-7.93,7.86-7.66.43.92,1.17,3.41,1.07,4.39-.12,1.27-2.84,5.58-2.37,6.12l6.04-3.39c.92-.76,2.42-1.46,3.26-2.24,1.06-.98,1.73-4.14,3.45-2.95,1.15.79-1.24,2.33-1.47,3.49-.27,1.33-.2,3.22-.29,4.6.57.57,5.08-2.06,5.51-2.74.59-.94.61-3.85,1.13-5.31.4-1.1,3.12-6.3,4.22-6.3,2.69,1.76,3.68,4.6,2.09,7.58-.84,1.57-1.8,1.8-2.92,2.82-.58.53-2.97,2.61-3.16,3.06-.27.64-.1,2.72.67,2.82,1.55.19,2.55-1.81,3.47-2.51.53-.4,1.33-.42,1.36-.48.54-1.09,1.24-2.05,1.68-2.93.49-1.01.31-2.06,1.25-3.05.25-.27,3.76-2.64,4-2.7.87-.22,1.3-.02,1.26.9,1.24-.69,4.14-.35,5.49.12,1.19.42,2.27,1.09,1.92,2.5l.94-.02,1.61-6.63c1.12-2.01,1.77-5.77,2.93-7.57.1-.16,1.22-1.27,1.32-1.31.83-.36-.05.81-.07.89-.12.58.04,1.18-.17,1.74-.99,2.14-1.91,4.3-2.87,6.45-.19.43-.06.45.25.71.8.16,5.88-4.54,6.05-5.19.14-.55-.56-1.56-.64-2.17-.12-.86.32-1.52-.29-2.44l-1.67,1.19.04-1.63c2.81-1.79,3.13,1.55,3.79,3.54ZM370.47,166.96c2.04-1.33,3.94-3.73,3.59-6.34-.07-.52-.18-.75-.61-1.06-1.09.47-.77,1.52-1.05,1.98-.69,1.12-.49.35-1.08,2.1-.38,1.12-1.04,2.08-.85,3.33ZM370.94,163.38c-.4-.05-.7.27-1,.49-2.23,1.66-2.37,2.33-5.14,3.51-1.42.61-2.51,2.57-2.21,4.12.18.25,5.09-2.37,5.47-2.77.93-.95.94-2.57,1.39-3.62.34-.79,1.28-.86,1.49-1.73ZM338.69,175.34c3.3-1.34,6.2-4.81,5.26-8.5l-1.8.38c-.47,1.35-1.99,2.8-2.52,3.93-.21.44-.79,2.65-.87,3.18-.05.34-.09.67-.06,1.01ZM351.59,170.55l.12-.71c-1.5,1.97-4.01,1.88-3.94,5.01,1.89.26,3.47-.33,5.26-.48.15-.13-.74-2.11.15-2.37.96-.28,4.5,2.27,5.32.54.34-1.33-3.24-1.13-4.1-1.33-.57-.13-1.9-.49-1.85-1.14h-.23c.18.5-.52.65-.72.48ZM338.81,172l-.36.36.11.11c.13-.15.48-.31.24-.47ZM359.72,177.23c.21-1.09.65-2.3.79-3.4.02-.19.19-.69-.19-.66-.14.01-.53.84-.84,1.07-.51.38-1.34.32-1.66.98-.03.19,1.61,2.22,1.9,2ZM354.82,174.23c-.68-.02-3.32,1.52-4.33,1.79-1.27.34-3.2-.3-3.8.99s.71,1.26,1.67,1.19c2.98-.24,4.59-1.96,7.18-3.1l-.13-.6c-.18-.12-.37-.25-.59-.26ZM362.59,183.93c-1.34-.17-1.54-1.22-1.44-2.4-.29.04-.45.3-.46.58-.03.81.55,3.58.87,4.39.22.55.44.87.91,1.24l.11-3.81Z"/>
        <path d="M309.53,168.67c1.24-.28,2.09.7,1.45,1.8-.14.24-1.94,1.5-2.32,1.74-1.29.8-4.44,2-5.14,3.22-1.26,2.19-1.2,5.24,2.03,4.9.71-.71,2.31-1.13,2.93-1.62.28-.23.42-.69.7-.97,2.14-2.09,4.39-4.14,6.1-6.59l1.15.42c.34.58-1.65,2.68-2.11,3.19-1.39,1.56-6.79,7.05-8.5,7.5s-4.32-.15-4.55-2.12c-.07-.62.21-1.07.15-1.54-.05-.4-.49-.66-.5-1.2-.02-.71.73-1.45.28-2.12-.2-.3-.76-.3-1.09-.65-.56-.6-.59-1.77-.98-2.37-.3-.46-1.1-.76-1.54-1.32-1.68-2.14-1.09-7.55,1.9-8.24-.26,1.73-1.97,6.01-.13,7.18,1.24.78,1.72-1.11,2.53-2.04,1.62-1.87,2.92-2.48,4.75-3.85.7-.52,2.11-2.17,2.78-2.26.64-.08,1.89.56,2.22,1.1,1.43,2.29-2.87,5.13-2.12,5.83ZM310.24,162.7l-3.26,2.47-4.86,5.41c2.34-.08,3.96-1.08,5.62-2.62,1.36-1.27,3.45-3.32,2.5-5.26ZM310.49,170.11l-1.43.24v.23c.52.01,1.25.13,1.43-.47ZM308.58,170.35c-.8.05-1.62.32-2.35.65-.34.16-.65-.14-.52.54,1.18.41,2.23-.17,2.87-1.19ZM303.8,172.02c-.57.09-2.66.31-2.62,1.08.05.96,2.58-.33,2.62-1.08ZM306.31,172.74v.24c.16-.08.16-.16,0-.24Z"/>
        <path d="M287.08,181.83c-.43.13-.57-.35-.89-.42-1.24-.27-2.28.22-3.14-1.16-1.35-2.19.13-8.79.91-11.31-1.22.65-1.47,2.14-2.18,3.19s-2.16,2.45-2.65,3.57c-.24.55.12,1.19-.28,1.6-.7.7-1.13,0-1.1-.82.09-2.52,6.96-11.72,8.57-14.85.48-.92.58-2.86,2.03-2.46,1.73.47-1.42,6.22-2.23,7.03-.29,3.45-2.11,7.62-2.17,10.99-.07,3.79,2.79,1.74,3.13,4.65Z"/>
        <path d="M300.36,162.5c.32-.11.74-.07,1.05.09.74.44.66,3.3-.12,3.94l-1.33-3.45c0-.28.13-.48.4-.57Z"/>
      </g>
      <path d="M478.79,302.09c.29.38,1.4,2.45.62,2.61-1.74-.4-3.25-2.24-.62-2.61Z"/>
      <g>
        <path d="M70.01,179.98c-1.73,2.21-7.36,5.39-10.05,6.32-1.59.55-4.55,1.63-5.86.12-.5-.58-1.6-3.31-1.66-4.1s1.25-6.73,1.58-7.68c1.84-5.24,8.5-9.33,13.98-7.17,2.3.91,4.77,4.7,4.48,7.2-.1.89-1.87,4.52-2.48,5.3ZM55.14,184.54c1.41,1.39,4.94-.1,6.53-.84,2.05-.96,6.46-3.99,7.97-5.65,1.19-1.31,1.36-3.76.81-5.38-.72-2.15-1.19-2.77-3.41-3.28-4.5-1.03-7.85.31-10.73,3.84-.5.61-1.54,2.67-.55,3.15.74.36,2.27-.35,2.15.59-1.67.37-2.03-.4-2.74,1.44-.62,1.62-1.41,4.77-.04,6.12Z"/>
        <path d="M42.22,182.65c.49.36,1.32.16,1.84.43-2.59,3.05-3.85,1.06-4.07-2.14-.13-1.88.32-3.72.42-5.57.02-.45.21-.67-.3-1-.3.01-1.44,3.28-1.7,3.79-.76,1.5-2.35,4.15-3.33,5.51-.25.35-.72.89-1.18.97l.12-.72-.96-.24,8.96-16.95c.53-.62,1.32-.56,1.74.15.61,1.76-1.51,5.87-2,7.71-.41,1.55-.86,7.1.45,8.06Z"/>
        <path d="M31.17,187.51c-.25-.24,1.38-2.93,2.14-2.87l.38,1.19c-.75.72-1.38,1.63-2.52,1.68Z"/>
      </g>
      <path d="M387.64,173.9c.11.39.43.78.4,1.19-.22,2.51-4.26-1.07-.4-1.19Z"/>
      <g>
        <path d="M519.91,296.78c2.89-.56,2.7-3.83,4.19-5.72.91-1.15,6.03-3.61,7.58-4.13,2.17-.73,5.02-.31,5.38,2.37.05.41-1.54,4.1-1.85,4.49-.27.33-2.29,2.38-2.62,2.63-.49.36-1.04.41-1.44.71-1.93,1.44,1.89,1.54,2.79,1.13.54-.25.91-.87,1.43-1.22.84-.55,3.46-1.92,3.91-2.54.68-.94,1.14-3.31,1.69-4.52.89-1.95,2.52-3.69,2.59-5.97,2.5-.72.27,2.78.07,3.84-.17.91-.21,3.54,1.03,3.65,1.08-.49,2.53-.76,3.55-1.23,1.3-.61,2.43-2.04,3.97-1.89-.52-1.08-.36-2.9,1.19-2.63-.15,2.85,1.24,4.77,4.31,3.95.64-.17,1.29-.95,1.84-1.05.81-.14,2.56.9,2.69-.51h-1.91c.1-1.98,1.39-1.58,2.76-1.46.09,0,.37-1.09,1.53-.57,1.41.62.13,2.92-.57,3.72-1.56,1.78-6.49.64-6.48,4.06,1.61.29,2.94,1.74,4.43,2.03,3.23.62,5.66-1.76,6.03-4.86l1-.23c1.86,1.27.08,2.4-.54,3.68-.24.5-1.47,3.18-1.22,3.44,1.52.61,2.82-1.11,3.93-.96.85.11,1.14,1.33.74,1.93-.08.12-2.42,1.01-2.74,1.08-2.08.42-3.19-.4-3.98-2.25-2.22.77-6.92-.65-8.59-2.17-1.57-1.43-.37-3.13-.7-3.59l-2.15-.67c-.38.09-.86,1.59-1.04,2.05-.46,1.17-1.26,4.74-1.75,5.41s-1.24.47-1.59-.28c-.87-1.88,1.2-6.68,1.01-6.98-.23-.38-.5-.25-.83-.11-.85.34-1.97,1.51-3.05,1.73-.89.18-1.91-.03-2.82.07l-.31-.06-.87-1.63c-.42-.06-1.85,1.05-1.55,1.43l.48-.12.12.83.6-.36-.48-.59,1.86.77c.36,1.12.65,2.84-.43,3.64-1.72,1.26-2.04-1.46-3.42-1.24-1.49.94-3.13,2.14-4.69,2.94-1.28.66-4.24,2.29-5.5,1.18-.47-.42-.35-1.15-.84-1.54-1.39,1.79-6.19,3.06-6.82,0-.87-.08-1.46.71-2.31.3-1.11-.53-1.45-3.54-1.5-4.72,0-.24-.41-.15-.56-.09-.57.22-2.5,2.02-3.42,2.55-.75.42-1.53.44-2.12,1,.32,2.08,1.04,4.23.86,6.45l-1.32-.23c-.66-1.34-.41-2.83-.65-4.13-.17-.9-1.93-4.28-1.15-4.84.21-.15.68-.1.95-.24.57-.31.69-2.09.95-2.87.23-.68.76-1.35.91-1.96.22-.89.26-2.27.17-3.17-.85,1.1-1.92,1.9-3.1,2.64-1.79,1.12-6.14,3.48-8.14,3.59-.74.04-1.38-.17-2.02-.49-.31.44.26,3.22.25,3.93s-.46,1.45-.49,2.17c-.05,1.13.4,2.21.23,3.55s-.87,2.56-1.88,3.37c-2.75-.82-1.01-5.23-.73-7.29-1.48,1.56-3.5,2.32-5.34,3.38-1.21.7-2.88,2.8-4.22.8-1.1-1.64.73-3.42-1.42-4.2v-.29c.23-.97,1.41-1.04,1.84-1.76.52-.86,1-3.24,1.51-4.46.24-.56,3.17-6.8,4.26-5.65l-2.08,4-1.97,5.07c2.33-.24,5-3.29,5.01-5.62,0-.7-.46-1.57-.22-2.38l-.73-.13c.62-1.06,1.92.14,2.21,1.02,1.1,3.39-1.71,6.93-4.37,8.64-1.18.76-2.45.81-2.79,2.23-.1.41-.38,2.37.07,2.45l9.65-4.69.18-.48c-.37-1.39-.03-2.85-.2-4.24-.2-1.66-1.48-2.74-1.17-4.45,1.64-.22,1.16.87,1.57,1.66,1.07,2.05,1.57,2.09,3.74,1.62,1.8-.39,5.14-2.23,6.8-3.24.92-.56,4.22-3.55,4.92-3.36.2.25.95.59,1.06.76,1.42,2.26-3.06,7.75-2.67,10.44,2.4-1,4.61-2.73,6.44-4.55,2.16-5.1,3.23-10.92,6.7-15.27.32-.4.68-.75,1.18-.91,2.1,1.33,1.57,3.88,1.01,5.96-.47,1.73-1.84,4-2.84,5.52-1.61,2.45-4.14,4.75-5.17,7.45l.2,3.47ZM521.34,287.7c3.04-2.72,5.23-7.11,5.24-11.23-1.21.93-1.47,2.65-2.05,3.8-.78,1.55-2,3.37-2.66,4.98-.3.74-.51,1.64-.53,2.45ZM535.18,288.19c-3.12.32-6.66,1.05-8.93,3.34-.09,1.63-3.16,4.55-1.44,5.96,1.02.84,3.22-.46,4.16-1.09.42-.29.9-1.03,1.22-1.17.87-.37,1.61.18,2.19-1.16.28-.65-.21-.67-.76-.64.28,2.08-2.49.95-.41-.28,1.53-.91,2.92-.32,3.95-2.26.61-1.16.3-1.49.02-2.69ZM552.64,288.4v.96s.48,0,.48,0v-.96s-.48,0-.48,0ZM498.52,299.43v.24c.16-.08.16-.16,0-.24Z"/>
        <path d="M572.24,296.5c-.15-1.15.97-3.19,1.79-1.43.59,1.28-.84,1.31-1.79,1.43Z"/>
      </g>
      <g>
        <path d="M194.18,254.51c1,.11,2.18-.7,2.99-.73.43-.02,2.88.21,3.29.3.84.18,2.39,1.59,2.55,2.47.82,4.39-3.28,5.4-4.47,8.4-.36.91-1.11,3.85-1.01,4.74.04.36.03.6.37.82.47-.33.98-.6,1.43-.96,3.88-3.12,6.52-7.9,9.15-12.11.63-1.01,2.06-4.08,2.66-4.68,1.9-1.89,2.66,2.73,2.66,4,0,.6-.2,2.45-.31,3.05-.05.25-1.24,3.27-1.36,3.42-.3.37-1.03.55-1.35.11-.34-.47.54-1.62.6-2.31s-.23-1.16-.18-1.81c.07-.97,1.33-2.53-.29-2.82.05.56-.56.96-.66,1.37-.15.59.06,1.22-.11,1.8-.78,2.76-2.17,4.88-1.13,8.06,1.47-.59,5.43-1.66,6.08-3.11.42-.92,0-3.51.58-5.15.24-.67,2.21-4.14,2.66-4.51,1.65-1.36,3.66-.41,4.69-.8,1.38-.51,3.99-4.53,5.46-4.61.95-.05,2.5,1.79,2.67,2.81.21,1.24-.06,6.17-.53,7.23-.73,1.64-3.66,3.14-5.05,4.38-.92.82-1.88,1.98-2.7,2.91l-1.91,1.31c1.9,0,3.03-1.62,4.32-2.49,2.3-1.54,4.4-2.55,5.92-5.07.82-1.37,1.31-4.64,3.61-3.9.41.56-3.19,6.1-3.63,7.23-.12.32-.85,2.95-.84,3.12.21,2.89,4.63-.15,6.24-.11,1.73-1.44,1.76-3.49,2.56-5.32s2.43-3.54,3.35-5.25c.59-1.09,1.02-3.5,2.28-3.7.22-.04.9.1.99.23.59.92-1.56,4.4-1.99,5.46-.57,1.4-2.9,6.67-.42,7.12,1.39.25,2.23-1.44,3.05-2.1,1.98-1.62,3.99-2.84,5.48-5.04.84-1.24,2.65-6.36,4.14-2.77-2.04,3.02-4.66,5.76-4.01,9.71.48.47,4.5-1.45,5.19-1.87,2.86-1.74,5.25-4.63,7.83-6.74,1.23.35.34,1.4-.13,2.02-2.13,2.85-8.82,8.59-12.35,8.93-.77.07-2.48-1.73-2.64-2.27-.33-1.07.4-2.12.43-3.18-1.26,1.03-2.44,2.59-3.7,3.58-.42.33-2.81,1.82-3.15,1.88-1.2.2-2.11-2.1-2.74-2.9-.21-.27-.24-.49-.67-.4-.16,2.01-.3,3.96,0,5.97-1.03.03-.62-1.76-.77-2.45-.14-.65-.55-1.19-.67-1.85-1.01,1.32-1.1,2.44-2.8,3.29-4.78,2.39-8.23.56-6.52-4.95l-4.42,3.83c-1.58.71-2.63,2.29-4.49,1.86-.63-.14-1.09-.79-1.62-1-1.61-.66-2.94-.4-3.69-2.52-1.94,1.08-5.11,4.8-7.27,2.27-1.85-2.17.31-4.32-.02-6.43-.04-.28-.15-.57-.47-.61-1.04,1.96-2.27,4.26-3.7,5.98-.81.97-2.67,2.99-3.59,3.82-.98.9-2.15,1.37-3.31.45-1.69-1.34.62-5.42-.52-5.94l-2.41,2.12-5.47,1.61c-1.95-1.34-3.85-2.81-3.94-5.4-2.67,1.28-3.9,3.49-7.29,3.23-3.59-.28-2.81-5.56-2.51-8l-2.15,2.52c-.36.27-.84-.23-.92-.54-.36-1.35,2.97-5.15,3.74-6.44,1.8-3.03,2.92-6.66,5.41-9.4.79-.87,1.7-1.31,2.43-2.16.55-.1,1.15.25,1.38.73.2.42.57,2.32-.12,2.29-.4-.02-.86-.44-1.3.09-.78,2.26-2.34,4.13-3.22,6.33-.8,1.99-2,6.76-1.87,8.81.07,1.07.21,3.18,1.47,2.97,1.06-.18,4.1-2.95,5.54-3.32,1.16-2.96,3.58-8.99,6.25-10.7.92-.59,2.13-1.13,3.05-.26,1.63,1.55-.46,3.66-.1,4.04ZM228.12,255.67c-1,.33-1.85-.5-2.61-.62-.87-.14-.16,1.33-.25,1.92-.34,2.27-3.02,4.03-4.3,5.51-.71.82-1.45,3.02-.59,3.94.91-.66,2.27-1.22,3.11-1.91,1.14-.94,4.02-3.57,4.9-4.65,1.08-1.33.64-1.23,1-2.58.1-.37.51-.59.55-1,.09-.92-.29-4.96-1.51-5.11-.88-.13-2.98,2.41-3.29,3.3,1.66-.88,4.06-.03,3.71,2.15h-.71s0-.96,0-.96ZM192.98,252.36c-.33-.31-2.32,1.44-2.62,1.79-.79.95-1.3,2.17-1.92,3.23.13.12,1.91-1.15,2.13-1.33,1.12-.97,2.02-2.23,2.41-3.68ZM221.9,254.96c-.69.49-1.63.45-2.32.9-1.07.69-2.91,5.58-2.64,6.81.29,1.34,1,.97,1.52-.05.78-1.53,1.22-3.72,2.12-5.28.52-.9,1.5-1.27,1.32-2.38ZM195.55,255.76c-.31.05-2.34.6-2.59.73-.32.17-4.75,4.09-5.09,4.48-2.35,2.73-1.42,5.78,2.38,5.73,2.7-.03,4.57-1.37,6.21-3.36.67-.82,1.94-3.49,2.85-3.56.2-.02.48.19.7.15.55-.1,2.15-2.66,1.59-3.17-.76-.69-4.94-1.18-6.05-1.01ZM212.22,256.17v.24c.16-.08.16-.16,0-.24ZM223.81,256.4c-.44-.47-1.81,2.45-2.15,2.63,1.31-.15,1.98-1.46,2.15-2.63ZM220.95,260.94c.64-.36,1.04-.68.71-1.43l-.71,1.43ZM176.98,264.79l-.48-2.39c-.28.65-.17,1.15,0,1.8.1.4-.23.7.48.58ZM218.08,264.28c-1.05-.03-.92,1.88-.35,2.39.58.11.34-.46.35-.83.02-.52-.01-1.04,0-1.55Z"/>
        <path d="M171.96,262.41c.55,1.31.99,2.23.69,3.79-.39.22-1.15.35-1.41-.14-.06-.11-.7-2.21-.7-2.33,0-.67.74-1.34,1.41-1.32Z"/>
        <path d="M185.82,248.54c.19-1.14-.28-1.97-.64-2.99l.73-.58c.98.15.76,3.11-.09,3.57Z"/>
      </g>
      <g>
        <path d="M176.67,160.17l-.12-.48-.36.48h.48s.05.29-.1.5c-3.74,5.09-7.51,8.65-7.54,15.39,0,.53-.29.98-.23,1.64.14,1.66,1.98,3.75,3.7,2.53,1.42-1,4.02-4.78,4.86-6.37.48-.92,1.61-5.19,2.98-4.84,1.47.75.39,2.69-.21,3.78-.51.92-1.13,1.91-1.68,2.86-.69,1.2-2.51,3.28-2.69,4.5-.06.41.35.25.44.48.21.55.13,1.75.95,1.23.1-.07.75-1.94.94-2.29,1.22-2.24,3.09-4.77,4.81-6.66,1.02-1.12,2.7-3.11,4.17-3.23,1.78-.15,2.34.13,3.13,1.67.91,1.78,1.08,3.57.48,5.51-.18.6-.61,1.01-.73,1.41-.27.88.36,4.33.64,5.36.78,2.88,1.23.62,2.13-.45.69-.82,1.75-1.48,2.35-2.19.92-1.11,3.71-5.51,4.38-6.85.53-1.07.99-2.7,1.41-3.85,2.72-2.3,3.21-.18,3.1,2.36-.03.73-.46,1.55-.42,2.12.03.46.44.89.4,1.45-.01.2-1.22,3.37-1.43,3.84-.16.38-1.11,1.61-.95,1.79,1.33-.94,3.03-1.96,4.18-3.1,2.02-2,3.12-4.91,5.6-6.23l-.12-.47c-.55-.13-.37.53-.72.72-.87.46.23-1.97.4-2.23.49-.74,1.58-1.64,2.35-.76l-1.19,1.55c.2.22,1.79-1.93,1.43-.36-.05.21-1.09,1.7-1.32,2.02-.36.5-1.36.98-.94,1.69,1.44-1.44,3.3-3,5.06-4.02.86-.5,3.9-1.98,4.73-1.98.63,0,2.33.58,2.81.97.73.58,1.25,3.27,1.04,4.07-.34,1.25-2.94,3.18-3,4.19-.06.88,1.09,4.06,2.26,3.94.46-.05,3.27-2.26,3.72-2.76,1.12-1.22,1.77-2.92,2.76-4.17.42-.53,1.28-1.04,1.46-1.29.3-.42.21-2.43.37-3.1.33-1.34,2.24-1.65,2.25-.11.02,2.54-3.24,4.68-3.03,7.33.49.33,4.17-1.82,4.76-2.29.53-.41.8-1.04,1.15-1.3,1.16-.87,3.73-2.11,4.33-3.48.29-.66,1.21-4.22,1.46-4.41,2.22,1.1.49,2.94.07,4.49-.64,2.33-.58,4.7-.26,7.06l.55.4c.41,0,3.8-2.52,4.2-2.99s3.29-4.23,3.4-4.49c.37-.89-.1-2,.66-2.68.88-.78,2.03-.03,2.38.94.02.79-3.35,4.4-4.05,5.27-.9,1.11-1.94,2.86-2.87,3.82-1.44,1.47-4.59,3.65-5.92.91-.85-1.75.18-3.64-.06-5.2-.05-.33.13-.41-.36-.36-1.01.14-1.64,1.34-2.39,1.92-1.19.92-2.61,2.18-3.72,2.97-1.7,1.21-3.97,2.51-4.64-.34-.62,1.24-2.04,1.9-2.85,2.89-.44.54-.5,1.33-1.1,1.77-.18.13-2.48.81-2.76.84-1.41.16-2.83-1.81-3.15-3.04l-.17-2.21c-1.32.87-2.2,2.36-3.54,3.15-1.58.94-7.35,3.35-8.78,1.77-.73-.66-.3-3.85-.72-4.18-.83-.68-1.16.86-1.45,1.26-1.03,1.42-2.06,2.51-3.7,3.24-3.73,1.66-3.46-1.53-3.68-4.15-.03-.35.19-.69-.35-.59-.62.26-2.77,3.98-3.37,4.76-.93,1.22-2.92,4.14-4.58,3.45-.74-.31-2.81-6.39-1.5-7.24-.66-.16-.41.24-.59.48-1.87,2.48-3.21,4.53-6.34,5.62-1.99.69-3.37.91-5.11-.39s-1.13-2.55-2.22-4c-.65-.19-1.61,1.27-2.36,1.42-4.06.8-5.66-4.48-5.31-7.69.79-7.19,5.03-11.45,9.88-16.04.51-.49.85-1.58,1.57-1.89.77-.33,2.69-.57,3.27.2,1.14,1.52-1.84,1.43-2.43,1.58-.14.04-2.24,1.04-2.33,1.14ZM222.96,170.96c-1.06-1.37-1.63-.33-2.2-.31-.39.01-.67-.42-1.1-.37-.39.04-.45.51-.63.61-2.74,1.41-5.99,3.66-7.9,6.14-.22.29-1.64,2.49-1.68,2.65-.2.91,1.09,1.6,1.83,1.69,2.52.28,7.68-3.01,9.13-5.09.46-.65.53-1.56,1.06-2.04s1.31-.34,1.58-.63c.6-.64.42-1.98-.1-2.64ZM232.83,171.84c.11.14.75-.7.6-.95-.29.3-.69.5-.6.95ZM184.57,181.43c.18-1.55,1.95-1.88,2.86-2.75,1.54-1.46,3.06-4.58,1.43-6.45-.91-1.05-1.51-.48-2.55.08-2.35,1.28-6.94,7.71-7.89,10.28-.16.42-.28.87-.1,1.31.41.66,2.46-.25,3.06-.51.64-.28,2.3-1.15,2.47-1.71h.47s.12.47.12.47l.59-.84-.47.12ZM211.8,172.33l.12-.71-.36.36v.35s.23,0,.23,0ZM202.48,173.53h-.71c-.17.49.39.97.39,1.31.01,1.1-1.8,2.58-1.34,3.7.4.31,2.25-2.25,2.34-2.56.3-1.02-.74-1.46-.69-2.45ZM188.75,179.27v.24c.16-.08.16-.16,0-.24Z"/>
        <path d="M181.45,160.65c0-.62-.28-1.35.12-1.91.7.4,1.04,1.84-.12,1.91Z"/>
      </g>
      <g>
        <path d="M557.48,168.41c-.24.28-1.82,1.37-1.82,1.64.8.79,2.55,1.05,3.47.37.3-.22.46-.8.81-1.1,2.72-2.27,3.84-4.13,5.83-7.07.68-1.04,1.26-2.65,1.86-3.63,1.14-1.85,2.74,1.8,2.3,3.25-.25.83-2.1,1.7-2.58,2.44-.56.84-.44,2.08-1.18,2.87-.46.49-1.24.64-1.8,1.07-4.31,3.29,2.45,5.41,5.81,4.61,1.91-.45,2.44-1.42,3.85-2.12.64-.32,1.31-.37,1.93-.7,2.38-1.22,4.4-3.96,7.39-3.96-.48.9-1.68.92-2.51,1.43-2.84,1.78-5.32,4.81-8.41,6.41-3.22,1.67-8.08,1.67-10.56-1.29l-.39-2.48-4.08,3.12c-.87.12-2.34-1.51-3.8-1.45-1.03.04-3.73,1.75-5.1,2.1-.75.19-2.23.11-2.72.32-.41.17-3.33,3.88-4.27,4.64-.52.42-3.3,2.27-3.79,2.42-1.36.42-2.31-.11-2.59-1.49-.87-4.28-.86-8.97,2.56-12.14,1.39-1.28,5.09-2.4,5.46.07.14.91-1.58,4.51-2.21,5.33-.68.87-2.39,1.52-2.53.1-.12-1.18,3.73-3.71,3-5.12-.68-1.32-3,.66-3.58,1.45-1.66,2.24-1.47,5.32-1.05,7.96.07.45.22,1.99.57,2.06l4.89-2.99c.43-.62-.29-.12-.48,0-.37.23-1,.81-1.3.83l-2.14-.47c-.65-.09,1.02-1.78,1.23-1.92.37-.25,2.59-.9,2.91-.68l.27,1.17c.54.5,2.66-2.61,2.76-3.1s-.19-1.05-.09-1.74c.43-2.93,3.79-6.52,4.67-9.68.51-1.85.76-4.33.8-6.16.03-1.38,3.82-2.89,4.85-1.29,1.47,2.28-2.12,5.89-3.31,7.65-1.93,2.87-3.69,5.3-4.69,8.69-.19.63-.27,1.29-.46,1.92l.49.27c2.08-.48,4.66-1.04,6.2-2.65,1.07-1.11,1.15-2.67,3.08-3.14,1.1.42,1.18,1.32.4,2.21ZM551.59,159.42c.51.12.53-.28.77-.54.61-.68,2.34-3.07,2.34-3.89l-.38-.57-2.69,1.46c.46,1.39.44,2.16-.03,3.54ZM567,161.8l-.36.36.11.11c.13-.15.48-.31.24-.47ZM539.53,175.91v.24c.16-.08.16-.16,0-.24Z"/>
        <path d="M503.81,175.7h-.24c.05-.22-.13-.72.12-.72l.12.72Z"/>
        <path d="M503.57,175.7l.12.23.12-.23c.48-.22,1.2-.81,1.57-1.17,1.26-1.24,2.33-2.99,3.31-4.58.79-1.28,2.78-5.49,4.54-5.25,2.14.29-.02,5.41-.59,6.52-.74,1.43-.2.85-.25,2.18-.04.98-.96,4.27.02,4.82,1.07.03,1.28-.97,1.91-1.46.67-.52,1.55-.93,2.15-1.44,2.38-2.02,3.52-7.14,5.13-9.91.49-.85,1.12-1.57,1.32-.13-.56.99-.38,2.24-.63,3.19-.33,1.19-1.24,2.21-1.7,3.34-.28.69-1.79,4.73-.22,4.33.2-.05,3.25-1.87,3.57-2.11.69-.52,2.22-2.28,2.46-3.1.18-.61-.03-1.31.33-1.82.51-.71.79.07,1.23.03.49-.04,1.38-1.32.82-1.81l-1.55,1.19c-.54-.91,1.98-4.45,2.62-3.82.45,1.18-.02,1.7-.17,2.58-.32,1.88-.58,1.77-1.23,3.3-.96,2.27-1.77,6.81-.78,9.09.81,1.87,2.47,1.99,3.87,3.17-2.71.19-5.75-.87-5.99-3.93l.25-4.66c-.31-.36-3.36,2.82-3.71,3.1-.76.62-1.85,1.51-2.86,1.47-1.46-.06-.87-1.83-.94-2.77-.02-.25.35-.42-.25-.36-1.23,2.11-7.36,7.67-7.51,2.01-.03-1.12.37-5.14.75-6.12.19-.48.71-.72.84-1.31.21-.94-.08-2.16.28-3.18l-5.73,7.53c-1.57,1.63-2.62,3.06-4.43,4.42-.23.17-.27.66-.52.72-1.01.26-6.09-1.52-6.92-2.23-1.2-1.04-1.74-3.31-1.74-4.84,0-.65.39-1.09.44-1.66.35-3.87,1.25-7.09,1.87-10.79.31-1.81.51-3.85,1.85-5.31,1.95-2.12,4.98,2.83,4.88,4.61-.22,3.82-4.63,8.17-6.78,11.16-.42,1.98-.49,4.71,1.46,5.92.77.48,3.62,1.39,4.44,1.17.76-.2,1.24-.9,1.75-1.37.36-.34.34.3.58-.73ZM499.2,156.18c-.67-.81-1.44.36-1.72.91-1.2,2.3-2.17,8.28-2.19,10.9,0,.62.18,1.15.7.49,1.75-2.26,5.02-6.9,4.41-9.8-.03-.14-1.11-2.39-1.2-2.5ZM525.91,173.05v.24c.16-.08.16-.16,0-.24ZM526.03,174.01v-.48s-.23,0-.23,0v.48s.23,0,.23,0Z"/>
        <path d="M492.57,173.79c.65,1.08-.97,2.69-2.01,2.63-.26-.02-1.96-.72-2.23-.89-.57-.38-.72-1.08-1.43-1.21s-1.49.44-2.33.46c-.65.02-2.83-.26-3.24-.6-.56-.46-.75-1.18.14-1.34,1.41-.25,3.74.97,5.26-.46-.3-.8.05-1.56.02-2.25-.05-1.08-.64-1.65-.15-2.9.45-1.15,1.86-1.37,2.85-.71.11.07,1.71,1.69,1.79,1.79.68.94.62,2.13,0,3.08-.51.79-1.63,1.28-2.04,1.8-.52.66.71,1.29,1.34,1.28.72,0,1.32-.62,2.03-.68ZM489.93,167.84c-1.91-.37-2.35.82-2.38,2.5s1.31,1.33,2.28.59l.1-3.1Z"/>
        <g>
          <path d="M480.06,169.66c-.56.55-1.58,1.04-2.08,1.62-.58.68-1.23,4.39-1.39,5.53-.43,3.09-.3,6.27-1.2,9.3l.47.24c.3-.27.5-.62.72-.96,2.48-3.92,3.21-6.27,2.62-11-.08-.67-.47-1.18-.57-1.83-.27-1.66,1.38-.99,1.72.46.26,1.14-.2,3.7-.22,4.95-.03,2.2-.06,2.44-.86,4.61-.66,1.79-1.53,3.45-2.32,5.08-.5,1.04-1.11,4.12-2.77,2.93-.02-.94.04-1.89.02-2.83-.09-3.85.51-8.58,1.2-12.39.19-1.06.74-2.19.87-3.19.36-2.9-1.21-1.93-3.29-2.68-.19.2.38,4.75.34,5.53-.04.63-.37,1.03-1.02.66-.46-.26.29-2.14.45-2.6l-.71.24c-.11-.14.06-2.92-.08-3.6-.08-.39-.05-.56-.4-.22-.4.38-.98,3.5-1.12,4.25-.58,3.04-1.79,9-1.84,11.87,0,.22.04,1.84.58,1.31.51-.95.66-2.13,1.09-3.09.15-.33.66-.51.77-.9.22-.73-.17-1.28-.12-1.83.03-.33,1.02-2.97,1.24-3.02,1.36.3-.05,1.66-.11,1.85-.45,1.5.28,2.93-.04,4.46-.33,1.6-1.25,2.29-1.93,3.57-.35.66-1.25,4.57-2.6,2.69-.96-1.34.53-7.19.28-9.06l1.86-10.05-.56-.35c-.82.86-4.08,1.52-3.22-.46,1.57-.04,3.02-.7,4.28-1.57,1.14-2.87,1.02-9.07,3.55-11.02,2.17-1.68,4.63,1.02,4.78,3.14.06.85-.62,3.15-1.08,3.89-.37.59-2.64,2.47-2.67,2.77-.07.85,1.97,1.48,2.36.94.25-1.87.68-3.84,1.59-5.52.48-.88,1.33-1.59,1.92-2.38.72-.97.86-2.58,2.43-2.47v.71c.2-.8-.16-1.61.84-1.89l.49.69-2.41,9.08c-.3.76-1.27,1.96-1.87,2.55ZM474.32,159.63c-1.58,1.92-1.38,2.12-1.89,4.44-.24,1.1-1.01,2.54-1.08,3.47-.03.4-.04.51.32.77,2.73-1.6,5.84-4.24,5.39-7.78l-1.58-2.25c-.5.36-.78.89-1.16,1.35ZM482.77,159.71c-.75-.17-.32.49-.72.83-.16.14-.53.13-.7.27-.5.43-3.03,6.43-3.2,7.33-.09.47-.07.68.08,1.13l1.19-1.14c2.35-2.16,1.97-4.51,2.68-7.05.16-.57.67-.8.66-1.37Z"/>
          <path d="M472.74,176.2c-.13.65-.23.91.24,1.43l-.95.24v-1.67s.71,0,.71,0Z"/>
        </g>
        <g>
          <path d="M449.08,159.02c0-.62.94-2.11,1.55-1.43,1.05,1.93.24,4.74-.96,6.43-.75,1.05-3.62,3.03-3.68,3.97-.04.76.33,3.15.54,3.98.74,2.87,2.1,2.94,3.85.64.64-.84,2.83-5.61,3.23-5.84.23-.14.47-.13.72-.11-.29,2.11-2.2,3.51-1.79,5.97,1.15-1.61,1.98-3.32,3.23-4.89,1.46-1.83,4.39-4.73,6.9-3.34,2.67,1.48,1.16,7.61.21,9.96-.59,1.44-1.72,3.05-2.56,4.37-.28.44-1.41,1.32-1.92,1.45-1.33.33-2.73-1.67-3.57-2.41-.56-.49-1.44-.91-1.94-1.42-.85-.86-1.01-1.92-1.79-2.75-.54-.11-1.32,2.48-3.34,2.4-2.77-.11-2.69-5.42-2.64-7.41-.41-.03-2.91,1.74-3.64,2.09-1.11.54-2.43.32-2.21,2.33.06.51.6.67.69,1.01.15.56-.8,1.55-1.04,2.23-.39,1.11-.1,3.37-1.41,3.33-2.26-.06.49-2.41-.03-3.34-1.41.53-2.37,1.81-3.63,2.59-.96.59-2.84,1.57-3.89,2.08-.79.38-4.02,1.67-4.72,1.74-2.79.26-2.73-2.4-3.53-4.24-1.2.59-3.55,1.65-4.84,1.85s-2.62-.46-3.72-.13c-.56.17-.98,1.18-1.48,1.62-1,.88-3.57,2.89-4.68,3.44s-2.68.56-3.43-.58c-.12-.19-1-2.35-1.04-2.56-.2-1.06,1.15-4.81.91-5.07-1.48.4-3.96,3.39-5.43,2.69-1.26-.6-.59-2.78-.83-3.95-.13-.66-.82-1.41-1.03-2.08-.93-3.02.01-9.14,1.37-12,.25-.54.85-.82,1.02-1.37.22-.71,0-1.44.21-2.17.46-1.57,2.46-2.48,2.24-.42-.25,2.31-2.38,5.14-2.95,7.34-.48,1.88-.63,6.08-.32,8,.07.44.25.8.58,1.09.53-1.33,2.95-2.49,4.25-2.1.48.14,1.65,1.31,2.3,1.51.41.09.7-.27.98-.49,2.2-1.7,10.36-10.13,10.87-12.54.1-.46.36-2.39-.49-2.16l-.6.72c-.25-1.05.81-3.65,2.02-2.63.23.19,1.27,2.66,1.32,3.01.09.68-.21,1.51-.47,2.13-1.3,3.17-7.54,8.92-10.29,11.44-1.01.92-2.7,1.36-3.03,2.94-.12.59.03,1.22-.11,1.8-.34,1.41-1.47,3.43-.67,4.85.73,1.3,2.08.84,3.15.26s5.37-3.73,5.23-5.05c-.08-.76-1.08-.87-.67-2.82.68-3.23,3.95-6.3,6.74-7.83.63-.34,4.04-1.78,4.51-1.68.17.04.15.49.29.5.45.03,1.22-.61,1.69-.66,1.42-.14,3.25,1.19,4.12,2.23,2.03,2.43.78,4.92-1.18,6.87-.98.97-5.77,3.69-4.88,5.4.72.64,1.88,1.32,2.86,1.19,1.62-1,3.72-1.45,5.32-2.34.72-.4,1.34-1.12,2.06-1.53,1.16-.66,4.23-1.61,4.6-2.81.11-.34.37-2.87.3-3.17-.18-.76-1.74-2.09-1.88-3.16-.11-.83.23-1.46.25-2.16.01-.44-.27-.87-.23-1.41.07-1.14,1.17-2.61,2.02-1.33.12.18.95,3.29,1.03,3.75.12.65-.17,2.26.44,2.44.25.07,3.55-1.41,4-1.7,1.78-1.19,1.1-1.64,1.46-3.32.32-1.49,2.13-4.55,3.48-5.24,0,.36.34.75.21,1.26-.11.42-.79.72-1.02,1.15-.22.4-.2.97-.48,1.43-.48.8-1.35,1.38-1.45,2.37.84-.48,2.27-1.71,2.7-2.56.22-.44,1.53-4.12.65-4.12-.18.18-.37.36-.6.47ZM437.38,168.82c.86.63,1.45-2.58.59-3.1-.16,1.08-1.09,2.03-.59,3.1ZM457.13,177.49c.13.1.18.42.33.5.86.46,1.84-.35,2.62-.72.8-2.22,2.62-4.56,2.86-6.93.2-2,.2-5.2-2.72-4.41-1.14.31-3.53,2.84-4.3,3.84-.98,1.26-1.82,3.02-2.19,4.53.14.53,2.77,2.7,3.41,3.19ZM425.67,174.08c1.23.1,3.39-1.94,3.57-3,.3-1.72-.56-1.65-1.29-2.52-.42-.5-.24-1-1.17-1.46-.58-.28-3.46-.72-4.05-.62-.65.1-4.35,2.37-4.69,2.98-.37.65-.52,3.08-.86,4.15-.43,1.33-1.4,2.37-1.51,3.65.64,2.39,6.38.03,7.61-1.14.81-.76.71-1.34,1.18-1.92.18-.23.56-.3.71-.48.41-.51.83-2.21,1.45-.71l-.95,1.08ZM416.35,171.7c-.62-.12-.42.12-.59.48-.35.75-.46,1.64-.84,2.39.51.54,1.61-2.49,1.43-2.86ZM398.43,177.92c1.38.02,2.08-1.15,3.02-1.87.43-.33,1.9-.78,1.75-1.35-.71-.56-1.42-1.27-2.4-1.19-.16.07-1.1,1.55-1.13,1.73-.07.34.25.75.09,1.02-.24.41-1.66.4-1.33,1.67ZM414.2,176.48v-.71s-.23,0-.23,0v.71s.23,0,.23,0Z"/>
          <path d="M441.87,158.97c-.06.03-1.27-.02-1.39-.31-.01-1.1,5.41-4.15,6.52-4.7,3.38-1.71,7.7-2.97,11.39-1.52,0,.57-4.37.98-5.07,1.14-3.64.87-7.7,3.01-11.01,4.77-.33.18-.37.58-.43.62Z"/>
          <polygon points="440.95 160.46 440.48 160.45 440.46 159.65 441.07 159.27 440.95 160.46"/>
        </g>
      </g>
      <rect x="570.54" y="255.66" width=".23" height=".71"/>
      <path d="M11.9,150.26c.16.08.16.16,0,.24v-.24Z"/>
      <g>
        <path d="M156.95,92.04c-.17.14-.83.39-1.01.09l.12-2.88c-1.51.53-1,2.79-1.04,3.98-.03,1.01-.34,1.87-.03,2.95.09.31.06.57.48.47l5.14-7.05c1.05-1.18,3.41-2.61,5.03-2.38.58.08,3.83,2.1,4.2,2.56,1.4,1.7-1.73,2.32-2.63,2.84-.65.38-3.31,2.2-3.47,2.76-.18.66,1.7,3.65,1.41,4.84h.78c.93-1.27,3.37-3.03,4.08-4.32.51-.92.57-2.78,1.05-3.97.17-.43,2.05-4.09,2.67-3.42l-.12,1.91c1.08-.54,1.69-1.71,2.67-2.35,2.06-1.35,4.64-2.42,6.61-3.9.58-.44.68-1.4,1.68-1.18.21.05.28.76.63,1.08.77.71,2.94,1.2,3.02,2.67.01.24-.63,3.35-.75,3.68-.35,1-.38.66-.66,1.95-.17.79-1.19.96-1.14,1.86,1.38.16,2.21-1.05,3.27-1.63s2.79-1.6,3.73-2.01c.63-.27,1.97-.33,2.49-.74.67-.53,1.12-3.23,2.7-3.03.45,1.4-.68,2.72-1.07,4.06-.25.85-1.3,4.91-.61,5.39.51.36,1.98-.11,2.57-.33,2.68-.99,4.75-3.08,6.53-5.25.71-.87,1.2-2.14,1.9-3.05l-.7-.25c-.08-.82.02-1.49.83-1.78l.71.71c1.17-.97,1.4-3.27,3.23-3.1l-.24.71c.37.05.77-.24.72.36-.08.96-1.42,1.82-1.63,2.44-.36,1.03.56.52.43,1.26-2.94,1.58-4.21,7-4.3,10.15-.01.42-.21,1.44.37,1.33.26-.05,3.89-2.89,4.18-3.23,1.63-1.88,3.96-5.25,5.25-7.41.25-.42.98-2.95,1.66-2.28.27.27-1.14,3.21-1.39,3.74-1.45,3.07-4.66,8.2-7.31,10.37-1.35,1.11-3.62,1.06-4.32-.72-.87-2.22.63-4.67.24-6.93-1.72,2.05-3.82,4.17-6.4,5.06-1.26.43-1.77.48-3.03-.05l.24-.47-1.32-.48.12-3.35c-.36-.41-1.78,1.89-2.03,2.15-.62.67-1.52,1.58-2.22,2.13-.6.48-2.64,1.96-3.26,1.92-1.41-.09-2.12-2.76-3.26-2.53-.29.06-3.33,3.47-3.92,3.97-1.67,1.32-3.54,2.17-5.74,1.92-1.67-.19-1.95-1.29-2.85-2.41-.23-.28-.73-.4-.86-.63-.31-.53-.03-1.31-.58-1.74-.95,1.7-2.72,4.1-4.96,3.52-2.58-.67-.84-3.86-2.44-4.97-.7-.49-1.84-.01-1.15-1.6.42-.97,1.79-1.35,2.5-1.97.8-.7,1.32-1.49,2.35-2.26.59-.44,1.65-.42.59-1.58-2.3-2.52-6.16,1.77-7.4,3.62-.93,1.39-2.22,4.97-3.9,5.19-3.1.41-1.23-6.21-1.98-7.84-2,.91-4.09,1.73-6.25,2.24-1.37.32-2.95.83-4.26.4-.18,1.59.71,3.35.5,4.91-.07.51-1.58,1.13-.49,2.26l.23-.95c1.01-.75,1.26,3.49.7,4.39-.45.72-1.46.65-2.22.64-.25-.07-.61-2.75-.64-3.23-.09-1.4.58-6.26-.24-6.93-.39-.32-1.05-.18-1.54-.85-1.37-1.88.71-2.45,2.15-1.44l.31-.39c.19-2.51,1.17-5.33-.08-7.72-3.16,4.19-5.43,9.27-8.37,13.6-1.17,1.71-1.76,2.5-3.42,3.75-.25.19-.32.66-.66.78-.73.26-2.18,0-2.95-.2,2.08-1.41,3.79-3.06,5.35-5.04,3.32-4.19,4.95-8.33,7.68-12.63.57-.91,2.61-4.32,3.92-3.49,1.65,1.03.14,9.14.25,11.11,2.11-1.07,4.57-1.14,6.87-1.85,5.3-1.65,3.38-2.61,4.22-7.25.32-1.79,2-7.66,2.75-9.19,2.16-4.36,7.46-2.56,8.26,2.02.8,4.58-4.56,9.55-6.82,13.03-.44.68-1.47,3.18-1.74,3.39ZM155.59,87.58c.14.16,1.2-.46,1.42-.61,1.78-1.19,6.37-7.25,6.68-9.32s-.67-6.02-3.42-4.61c-1.41.72-2.98,5.08-3.38,6.65-.24.93-1.57,7.59-1.3,7.89ZM210.78,84.67v-.48s-.23,0-.23,0v.48s.23,0,.23,0ZM181.88,90.9c.66-.32,1.39-.45,1.92.1.37.38.48,1.58,1.19,1.21.27-.18,1.74-4.08,1.85-4.6.56-2.77-3.53-1.78-4.14.17-.16.51-.03,1.05-.16,1.51-.16.59-.66,1-.66,1.61ZM181.15,87.08c-.66.32-1.73.38-2.28.7-.52.31-4.59,4.48-4.83,4.97-.21.42-.47,1.37-.19,1.75l2.71.64.3.54c-1.85.35-3.02-.04-4.78-.47l-.48,3.21c1.08,1.9,1.77,3.04,4.16,2.74.25-.03,3.5-1.14,3.66-1.24.79-.5,1.66-2.92,2.67-3.43-.56-1.26-2.04-1.85-2.13-3.58-.04-.64,1.19-2.39,1.31-3.18.08-.51-.44-1.89-.12-2.65ZM193.98,92.72c.26-.33,1.12-1.9.92-2.31l-9.53,5.72-.12.59c2.49,3.07,3.65.15,5.59-1.52.84-.73,2.35-1.44,3.14-2.47ZM205.17,91.37l-.36.36.11.11c.13-.15.48-.31.24-.47ZM183.55,94.48c.5-1.91.13-2.59-1.91-2.63-.18,1.3.42,2.79,1.91,2.63ZM194.3,92.56h.35s.36-.36.36-.36l-.71.12v.23ZM185.7,93.29l.24-.95-.72.36v.6s.48,0,.48,0ZM214.73,92.31v.24c.16-.08.16-.16,0-.24ZM183.31,96.87h-.48s0,.23,0,.23h.48s0-.23,0-.23ZM184.98,97.59v-.48s-.23,0-.23,0v.48s.23,0,.23,0ZM178.89,100.22v.24c.16-.08.16-.16,0-.24Z"/>
        <path d="M219.23,90.23l-1.22,3.12c.8.84,1.59,3.52,2.71,3.73,1.39.26,3.82-.2,5.06-.91,1.41-.81.94-1.92,1.4-3.38.42-1.36,1.27-1.84,1.65-2.65.27-.57.12-1.57.61-2.02.34-.31.96-.24,1.13-.42.12-.13.08-.53.3-.76.95-1,2.74-.77,3.39.42,1.05,1.89-.36,3.99-1.59,5.43-.68.79-3.61,2.95-3.66,3.51-.17,1.9,2.57,2.56,4.03,2.11,1.75-.54,4.6-2.91,5.59-4.45.47-.73.43-1.64,1.08-2.26l-.69-.25c-.44-1.58.48-1.64,1.04-2.51.6-.93.6-1.93,2.04-2.28,2.26-.56.75,2.98.78,3.65.02.48.57.78.42,1.61-.22,1.22-1.92,0-2.16,1.2.22.97,5.4,1.04,4.54-1.07l1.2-.25c-.7-1.23.43-2.32.24-3.45-.13-.75-1.09-1.05-1.21-2.38-.32-3.34,1.81-7.31,3.21-10.19.47-.96.12-2.23,1.69-2.15,1.31.07,1.71,3.13,1.79,4.21.23,2.9-.11,4.61-1.47,7.12-.4.74-1.36,1.27-1.15,2.31,4.14-.9,10.35-4.2,14.26-1.49.61.42,1.43,1.19,1.15,1.94-.45,1.22-3.53,2.32-4.77,2.16-.32-.04-.63-.41-.73-.41-.17,0-1.74,1.74-3.11.69l-2.52.79-.19,1.07c1.85.3,2.01,2.4,2.99,3.82,1.42,2.04,2.02,2.06,4.34,1.05,1.95-.85,1.57-1.44,2.69-2.75,2.79-3.26,5.2-5.71,7.02-9.75.52-1.15,1.91-5.81,2.52-6.32.4-.34,1.12-.58,1.56-.14.64.93-1.03,3.33-1.44,4.32-.77,1.87-1.53,3.85-2.1,5.78-.11.37-.57.72-.57,1.02.91,1.26,1.62,2.32,2.07,3.84l.35.24c1.77.18,2.92-.89,4.3-1.36.9-.31,1.9-.27,2.81-.53.34-.1,3.49-1.65,3.54-1,.05,1.71-1.84,2.28-3.21,2.76-2.13.75-4.59,1.24-6.7,2.14-.47,1.04-.79,5.53-2.16,5.74-1.68.14-1.46-1.67-1.86-2.69-.21-.55-.61-.92-.82-1.57-.6-1.9.18-3.84.16-5.78-.45-.51-2.14,2.67-2.39,2.98-.61.74-1.32,1.09-1.91,1.67-1.31,1.27-3.9,4.2-5.84,4.21-3.53.02-3.85-3.26-5.1-5.68-.23-.45-.75-.74-.88-1.03-.21-.47-.31-1.57-.26-2.13.31-.71,3.91-1.74,4.81-1.9.67-.12,1.46.11,2.08-.07.38-.11.71-.72,1.19-.96.6-.31,1.42-.47,2.08-.67.78-1.03-3.34-.97-3.7-.95-3.87.24-7.3,2.22-10.96,3.09l-3.49,6.84c-.9.46-1.39-.32-2.14-.5-1.02-.24-2.18-.26-3.2-.59-.22.05-.27.54-.51.73-3.18,2.58-9.47,8.05-11.61,1.45-2.52.7-4.07,2.6-6.98,1.61-.56-.19-.71-.96-1.37-.9-.32,3.1-1.43,6.04-2.03,9.07-.45,2.27-.38,4.17-.64,6.28-.07.58-.66,2.91-.94,3.35-1.24,1.96-2.04-2.29-2.1-3.06-.43-5.43,1.45-12.38,2.59-17.69,1.33-6.17,2.66-12.55,5.15-18.49.32-.77,2.15-4.09,2.86-4.08l.36.13c1.91,2.28,3.73,4.36,2.2,7.46s-5.25,6.66-7.61,9.23ZM219.63,87.29c1.73-1.31,3.4-3.51,4.54-5.37,1.46-2.39,1.68-3.85.11-6.33l-4.65,11.7ZM250.32,76.76c-.37.23-.42.51-.58.85-.77,1.65-2.49,5.37-2.82,6.99-.16.78.08,3.37,1.39,2.56.14-.09,1.41-2.65,1.54-2.99.32-.82,1.06-3.63,1.08-4.43,0-.36-.3-2.98-.61-2.97ZM228.95,93.73c2.02-1.79,4.19-3.39,3.57-6.45-1.31.25-1.29,1.88-1.73,2.33-.25.26-1.01.26-1.25.78-.29.6-.47,2.57-.59,3.34ZM269.81,88.21l-.12.71.36-.36v-.35s-.23,0-.23,0ZM242.45,90.38v.24c.16-.08.16-.16,0-.24ZM240.06,91.34v.24c.16-.08.16-.16,0-.24ZM267.9,91.56h-.48s0,.48,0,.48l.48-.48ZM271.84,93.46v.24c.16-.08.16-.16,0-.24ZM271.49,97.05l1.41-1.83c.09-.47-.95-1.03-1.3-1.27-.61.03-.36,2.59-.11,3.1ZM265.39,94.66v.24c.16-.08.16-.16,0-.24ZM215.58,109.03l.83-.24c.42-1.02.22-2.2.39-3.19.47-2.89,1.44-6.09.92-8.99-.34,0-.46.73-.54,1.01-1.07,3.71-1.18,7.6-1.6,11.41ZM215.35,113.09c.65-.17,1.38-2.89.59-2.86-.96.76-.27,1.84-.59,2.86Z"/>
        <path d="M101.17,73.58c-.06.08.17.43-.05.55-.3.16-.8,0-1,.26-.59.79-.31,2.38-.51,3.26-.3,1.4-1.65,3.92-1.02,5.2s6.11.44,7.37.25c.79-2.08,1.69-3.85,3.03-5.63.45-.6,1.19-1.09,1.67-1.67.58-.71.82-2.45,2.37-2.27l.93,2.2c-1.69,3.25-1.93,8.86-6.29,9.5-.37.58-.66,3.14.01,3.34,1.07.32,1.07-1.43,1.36-1.97,1.18-2.24,1.97-2.3,3.82-3.52.42-.28.67-1.21,1.59-.94.05.39.41.78.46,1.12.13.78-1.45,3.36-2.01,4.1-1.52,2.01-2.61,2.75-4.7,3.9-1.12.62-1.13,1.89-1.13,3.05,1.67-.3,3.51.95,5,.09.33-.19,2.18-1.94,2.56-2.33,2.48-2.56,4.49-6.15,7.25-8.42.88.26,1.27-.41,1.84-.54,2.07-.47.5,2.7.37,3.48-.42,2.47-1.07,6.14-1.24,8.55-.14,1.91.66,3.78-.57,5.63l-1.31.18c-1.18-4.98,1.35-9.8,1.15-14.78-.48-.45-2.46,2.55-2.74,2.87-.61.69-1.29,1.48-1.91,2.15-1.12,1.2-4.59,4.8-5.99,5-.78.11-3.03.25-3.81.22-1.98-.06-2.51-1.68-2.25-3.41.12-.76.89-1.76.93-2.42.04-.72-.4-2.1-.46-2.89-.06-.85.47-1.72-.04-2.68-2.11-.2-6.84,1.1-8.34-.61-1.8-2.06-.38-5.48.76-7.61s2.03-4,3.31-6.01c.34-.53.92-2.75,1.92-1.46.39.5-.2,2.8-.53,3.33-.35.55-1.47.47-1.8.93ZM111.85,76.15l-2.72,3.61-1.57,3.56c1.31.17,2.14-.96,2.67-1.99.75-1.45,1.23-3.6,1.62-5.18ZM114,84.02c-.53-1.73-1.11-.11-1.66.38-1.12,1-1.98,1.19-1.92,2.97.51.54,2.92-3.52,3.58-3.35Z"/>
        <path d="M128.1,73.5c-1.29.07-.95-1.47-2.12-1.7l.46-1.62c1-.68,2,2.57,1.66,3.33Z"/>
        <path d="M125.23,72.07l-1.41-1.11c-.05-.66,1.8-1.87,1.89-.93.03.28-.97,1.34-.47,2.03Z"/>
        <path d="M210.67,87.06c.16.08.16.16,0,.24v-.24Z"/>
      </g>
      <g>
        <path d="M82.49,120.12c-.62,3.64-4.11,6.23-4.29,10.03,3.38-.43,2.75,3.03,1.19,4.89-.5.6-1.78,1.33-1.84,1.95.85,3.46,3,4.03,5.09,1.05.82-1.17.58-3.31,1.41-3.84s1.75-.18,1.56-1.9l-1.08.96-.59-.59c.66-1.03,1.46-3.51,2.74-3.59,1.96-.12.55,3.01.24,3.93l2.29-3.2c1.32-.51,1.92-1.95,3.03-2.76.21-.15,2.26-1.37,2.39-1.4,1.31-.32,1.11.64,1.49,1.02.24.25.76.31,1.08.6,2.13,2.01,3.26,3.51,1.42,6.19-.66.95-1.53,1.56-2.36,2.43-.64.68-1.13.23-.79,1.72.29,1.26,1.72,2.25,2.98,2.26.15,0,2.68-.69,2.93-.78.33-.12,1.1-.76,1.33-1.05.2-.26,1.39-2.74,1.49-3.05.14-.48-.03-1,.18-1.49.06-.14,1.46-1.53,1.67-1.68,1.32-.93,2.37-.42,3.23-.83.94-.45,1.26-2.39,3.76-2.94.33-.07.89-.28.78.3-1.86,2.14-4.57,2.91-5.93,5.54-.5.97-1.87,4.8-.76,5.45,1.46.86,2.92-1.1,4.05-1.69.58-.31,1.21-.32,1.77-.62,1.73-.91,3.06-2.76,3.47-4.65.51-2.36-.76-2.5-1.89-4.27,1.92-1.49,3.33,2.11,3.37,3.58.07,2.8-1.89,4.58-4,6.05-1.61,1.13-3.91,2.46-5.81,2.91-.27.38,1.85,3.76,2.05,4.52.85,3.28.13,6.57-1.14,9.63-.64,1.55-1.46,3.03-3.27,1.95-.74-.44-.77-1.26-1.03-1.47-.44-.35-1.7-.08-1.99-1.24-.06-.25.53-4.41.67-4.84l3.63-5.93c.63-2.5-1.5-1.88-2.73-2.51-.55-.28-1.25-1.5-1.38-1.54-.85-.23-.77.39-.96.48-2.27,1.11-4.54,2.52-6.77.38-.59-.56-1.16-2.55-1.74-2.49-.25.02-3.69,2.37-4.2,2.75-1.01.74-1.26,1.77-2.77,1.79-1.8.03-1.17-.89-1.83-2.01-1.25-2.12-2.69.93-4.03,1.39-2.48.85-3.73-1.57-4.54-3.45h-.35c-2.31,1.81-6.68,5.36-9.75,4.73-2.65-.55-3.68-3.44-1.97-5.43,1.4.84.07,3.39,2.03,3.34l.1-3.85-2.73-.45c-.3-1.25.8-3.43,2.14-2.26.59.52.79,1.78,1.15,2.43.15.27-.01.4.53.3,1.38-3.29,5.4-5.85,8.83-6.57,1.22-3.09,2.67-6.46,4.9-8.97.18-.2,1.32-1.46,1.55-1.19ZM97.26,133.18c.51-.47.63-2,.52-2.67-.15-.93-.75-1.02-1.05-1.58-.34-.66-.17-1.68-.97-2.08-2.61,1.08-5.06,2.61-6.67,4.99-.52.76-3.54,6.25-3.24,6.67,1.15-.07,2.65.68,3.64.19.5-.25.73-.74,1.15-1.01,1.12-.71,2.33-1.22,3.33-2.16.49-.46,1.25-1.76,1.35-1.82.49-.3,1.51-.13,1.93-.52ZM77.25,134.45c1.2-.05,2.67-2.91,1.29-3.33-1.14-.35-1.44,2.57-1.29,3.33ZM75.26,136.53c.61-.74.06-1.3.07-1.98,0-.74.17-1.67.14-2.38-.01-.26.13-.35-.26-.58-2.1,1.63-4.88,3.09-6.57,5.13-.51.62-2.61,3.9-1.9,4.41,1.46-.1,3.18-.91,4.45-1.63.88-.49,3.49-2.29,4.06-2.98ZM107.11,132.28c-1.13-.09-.86.79-1.22,1.28-.58.8-1.44,1.08-1.16,2.3.69.72,2.69-3.26,2.38-3.58ZM84.9,137.31l.71-1.67-.72.4v1.27ZM105.68,139.44l-.36-2.39c-1.15.62-1.06,2.43.36,2.39ZM86.81,140.42c-.31-.1-1.2.36-.95.47.43.06.84-.01.95-.47ZM107.72,143.75c-.92.79-1.06,2.13-1.58,3.19-.79,1.61-2.44,3.73-2.34,5.54.03.61,2.46,2.97,2.97,2.97,1.11,0,2.64-5.08,2.74-6.1.23-2.26-.18-3.98-1.79-5.6Z"/>
        <g>
          <path d="M37.34,137.59l-1.32.23-1.19,3.34-.48-.98,1.79-4.16c3.62-.32,1.71,5.58.77,7.46-1.95,3.9-4.78.61-5.67-2.07l-3.32,3.12c-.93.5-2,.32-2.5-.65-.59-1.14.05-1.17.1-1.87.09-1.4-.21-2.61.62-4.04.16-.28,1.9-2.08,2.12-2.18,1.22-.57,2.61,1.16,2.87,2.26.41.3,1.62-1.68,1.87-2.07.4-.65.64-1.41,1.04-2.06,2.64-4.28,5.47-8.82,5.68-14.02-1.71.82-1.78,4.05-4.05,3.34-.02-1.38.79-2.69,1.66-3.7.75-.87,2.54-2.9,3.6-1.92,1.55,1.43-.11,5.41-.71,7.19-.78,2.3-1.9,5.08-3.06,7.21s-3.08,4.23-4.07,6.2c-.32.65-.61,1.32-.47,2.05.09.49,1.79,3.15,2.22,3.04l2.51-5.73ZM28.18,142.28c.34-.31,2.16-2.39,2.18-2.7.06-.69-1.5-2.32-2.34-1.99-.04,1.84-1.53,3.23-.95,5.26.19.13.93-.4,1.11-.56Z"/>
          <path d="M49.04,124.92l.12,1.2.83.23c-.53,2.09-.56,4.26-.03,6.37.4,1.59,1.69,3.46,2.31,5.1.43,1.17,2.18,5.66.19,5.93-.88.12-1.11-.93-1.62-1.4-2.05-1.88-3.16-2.95-5.01-5.02-.88-.98-2.17-.9-1.32-2.86l2.1.76c.38,1.87,1.89,3.11,3.39,4.14.32.22.46.47.96.35.3-.3-2.15-4.57-2.4-5.36-1.03-3.12-.7-5.97.01-9.09.08-.36-.18-.42.47-.36Z"/>
          <path d="M64.81,119.17c-.32-.33-2.67.57-3.17.77-2.34.95-4.58,2.54-7.1,3.41-1.38.48-3.03.51-4.18,1.32l-.36-1.43-.71.24.53-1.75c.83-.39,1.56.15,2.43.07,3.47-.31,7.62-3.37,10.65-3.95,2.47-.47,4.19.93,2.28,2.99l-.36-1.67Z"/>
          <path d="M36.14,123.97c.11.53-1.23,2.71-1.67,2.39-.62-1.26.22-2.88,1.67-2.39Z"/>
          <polygon points="36.11 127.1 36.38 128.03 36.02 128.03 35.42 127.43 35.42 127.08 36.11 127.1"/>
          <path d="M49.88,124.68c.16.08.16.16,0,.24v-.24Z"/>
        </g>
      </g>
      <g>
        <path d="M501.78,121.4c-.16.15-2.85,1.84-3.03,1.88-.88.22-1.31-.2-1.98-.09-.61.1-2.06,1.02-2.81,1.28-.4.14-1.02-.1-1.44.24-.37.29,0,.71-.1,1.08-.17.57-.95,1.43-.26,1.93.59.43,4.18,1,5.17,1.29,1.7.5,3.6,2.37,4.38-.15.62-1.99.05-3.68,1.39-5.54.25-.35,2.81-2.41,3.17-2.57,2.18-.96,1.61,1.12.95,2.38-.35.67-1.39,1.52-1.64,2.19-.18.48-.06.99-.25,1.42-.14.31-.68.5-.8.89-.29,1,.45.92.99,1.27.16.1.15.43.34.47.72.16,5.57.13,6.41,0,.24-.04.45-.08.54-.35l-.07-1.57.7-.21c.97,1.32,2.09,3.22.26,4.29l-.73-.25.02-.73c-.25-.33-1.92-.31-2.39-.22-.5.1-.78.55-1.25.66-1.29.3-3.75-.25-5.15-.49-.34-.06-.65-.39-1.02-.4-1-.02-1.19,1.25-1.8,1.54-1.05.49-3.07-.69-4.25-1-1.27-.34-6.84-1.09-6.7-2.77.95-.98,1.23-3.06,2.09-3.87.48-.45,1.07-.53,1.54-.86.82-.59,1.31-1.73,2.77-1.4l.12.96,2.75-1.68c.53-.76-3.46-.09-3.74-.08-1.89.02-3.41-.14-4.74-1.57-.29,0-.58,1.66-.79,2.07-.52,1.05-1.68,2.27-2.25,3.25-.7,1.21-1.97,5.51-3.93,4.77-.17-.06-2.25-1.39-2.34-1.5-.67-.81-.34-2.67-.96-3.58-1.27,2.08-3.36,3.32-5.14,4.9-.94.83-3.16,3.77-4.37,3.44-.88-.25-1.32-3.38-1.84-4.17-1.87,0-7.59.89-8.56-.98-.48-.93-.05-2.05-.65-2.93l-1.07,2.27.68.39c.11.17.03.33,0,.5-.25,1.08-3.2,4.97-4.14,5.67-3.16,2.38-3.58-2.62-3.95-4.77-1.13-.32-1.47,1.2-2.07,1.38-.23.07-1.17.12-1.26.03-.14-.14.21-.78-.25-.7-.14,1.15-3.07,2.47-3.71,1.44-.53-1.82,1.86-1.81,2.99-2.27-.98-.96-2.89-.89-3.53-2.2-.34-.69-.75-7-1.14-6.99-1.98,1.35-3.94,2.74-6.28,3.4-.47,1.73-.29,3.74-.63,5.46-.17.84-2.26,5.29-2.92,5.46-1.65-.27-3.08-2.3-3.55-3.79-.26-.84-.18-1.98-.54-2.81-.14-.34-.05-.36-.53-.3-.24,2.74-4.84,5.17-7.25,5.01-1.91-.13-2.66-1.37-4.07-2.35-1.46,1.89-3.43,2.41-5.39,3.47-.34.18-.52.65-.9.77-1.17.36-2.91-.05-3.47-1.22-.23-.48.33-1.57-.3-1.36-1.35.45-3.03,3.33-3.69,3.49-1.84-.23-2.81-.04-3.48-2.05-.65.66-1.4,1.39-2.21,1.84-1.15.64-3.92,1.87-5.18,1.99-3.31.3-6.78-.92-7.78-4.3-1.63.6-2.42,1.9-4.16,2.4-.78.23-3.13.35-3.48.58s-.31,1.56-1.26,1.3c-.46-.12-1.47-2.8-1.79-3.48-.2-.42-.62-.68-.82-1.1-.48-1.03-.2-2.77-1.23-3.25-.36.03-5.26,3.82-5.38,4.21-.24.8,1.27,4.17,1.7,5.15s1.63,1.65.51,3.06c-.59.07-1.02-.12-1.53-.36-.61-.29-3.09-2.03-3.69-2.52-1.21-.98-1.83-2.46-2.97-3.49-.15-.85,3.32-2.01,4.01-2.27.29-1.4-.35-2.81-.44-4.15-.21-3.08.37-8.78,1.85-11.51.35-.65,1.08-1.02,1.35-1.52s.2-1.13.51-1.64c.06-.1,1.54-1.63,1.64-1.7,2.14-1.61,4.89,4.6,6.12,5.15.72.32,1.75-.62,2.09.52.5,1.65-.87,3.53-1.27,5.08-.68,2.69-.51,3.79-.12,6.35.16,1.06.32,1.68.49,2.42.1.44-.14,1.16.11,1.53.43.63,3.11-.1,3.77-.33s3.11-1.43,3.59-1.84c1.1-.93,1.21-3.83,2.22-5.25.76-1.06,2.59-3.09,3.92-2.04,1.59,1.25-.32,4.02-1.3,5.13-.74.84-2.87,2.18-2.76,3.22.98,2.11,3.44,2.94,5.64,3,2.35.06,5.01-2.5,7.5-2.77l1.92-3.34-1.42.72c-1.4,2.7-9.76,6.97-9.02,1.02.17-1.41.7-2.94,1.37-4.13.35-.63-.81.16-.47-.47,1.63-3.02,3.95-5.65,7.74-5.12,2.43.34,4.11,3.78,3.84,5.99-.08.66-.74,1.81-.93,2.57-.08.31.17.69.07,1.04-.21.75-1.91,1.43-.92,3.04,2.89-.96,4.83-2.79,6.01-5.57.38-.89.92-4.18,1.54-4.43.17-.07.64-.1.77-.01,1.07.71-1.42,5.99-1.55,7.14-.19,1.71.64,1.87,2.12,1.62.4-.07,2.66-1.05,3.03-1.27.47-.29.57-.8.81-.98,1.22-.9,2.49-1.12,2.76-2.85.08-.53-.08-1.14.02-1.61.04-.17.42-.14.47-.33.17-.71-.23-1.57.95-1.88,1.4-.38.16,1.77-.72,1.95-.02.14.4,1.18.5,1.41.11.24-.19.48.47.36.35-1.07,1.25-2.6,1.18-3.72-.03-.47-1.79-1.99.19-1.95.52.01,1.27.98,1.22,1.46-.04.39-.55.71-.63,1.05-.16.65.38,1.08-.02,2.1-.53,1.35-3.32,2.54-1.04,3.63,1.28.61,3.04.68,4.34.14s3.9-2.91,4.38-4.22c.38-1.05.57-2.97.67-4.12.04-.42-.23-.85-.2-1.18.18-2.02.5-4.06.67-6.09h.72s-.12.95-.12.95c.46-.91,1.2-2.94,2.17-1.21s.39,3.6.35,5.51l1.36-1.16c1.8.08,2.69,1.28,2.46,3.07.11.13,2.26-.97,2.55-1.15.94-.57,2.39-1.55,3.29-2.2,1-.72-.7.04-.83-.6.11-.8.97-.96,1.65-.8.55,2.64,2.3-1.3,3.5-.3.99.86-.52,3.42-1.22,4.09-.22.21-.62.04-.71.21-.06.1-.34,2.14-.33,2.31.03.5.58.64.67.98.12.46-.71,2.28.43,2.66.89.3,3.05-.08,3.89-.58,1.93-1.15,1.6-3.79,3.14-5.46.85-.92,2.67-.92,3.57-1.92.52-.16,1.21.65,1.14,1.14-.02.16-1.02,2.62-1.18,2.87-.88,1.44-4.44,3.66-4.73,4.35s1.09-.05,1.26.14c.97.26,1.11,4,1.37,4.99.73.69,3.4-2.77,4.06-3.23l2.89-7.85c.12-.51,1.68-.64,1.86-.38.43,1.06-.85,2.03-.94,2.75-.04.34.34,3.19.48,3.33.46.46,6.33.54,6.94.23,1.08-.54.11-3.67,1.91-3.47l-.6,1.19,1.55-1.43c.04,2.22-1.19,4.38-.48,6.58.08.26-.16.43.37.36,1.36-.77,2.68-1.92,4.01-2.69s2-.51,3.05-2.21c.2-.33-.01-.69.16-1,.37-.67,1.43-1.59,1.63-2.21.34-1.07-.42-3.2,1.29-3.11.2.85.82,1.36.95,2.28s-.36,6.85,1.3,6.53c.29-.3.76-.51,1.03-.78,1.03-1.04,3.07-4.14,3.72-5.48.35-.74.1-1.77,1.02-2.32.19.6.33.28.83.48.11-.55-.53-.68-.67-1.12-.27-.92.64-6.97.91-8.3.16-.8.78-1.25,1.18-.25.9,2.25-1.04,6.98-.24,8.37.1.17.92.93,1.12,1.03.45.23,2.71.51,3.33.51,1.18.01,5.19-1.01,5.58.63.08.33-.29.97-.53,1.19ZM369.59,112.98v.24c.16-.08.16-.16,0-.24ZM371.55,126.51c1.18-1.49,4.17-6.09,3.91-7.91-.11-.73-2.78-3.59-3.48-4.18-.62-.52-1.54-1.49-2.24-.57-2.79,3.69-3.59,5.5-3.85,10.23-.04.64-.11,6.83.38,6.82,1.07-.31,2.01-1.39,2.99-1.78.82-.33,1.83-.02,2.37-1.09l-1.91.6c.29-.98,1.39-1.56,1.82-2.11ZM430.64,115.44c-.14,1.08,0,2.67,0,3.82,0,.3-.15.69,0,1.07.06.07.3-.12.36-.24.84-1.5.85-4.53.59-6.21-.61-.1-.37.06-.5.34-.07.16-.45,1.15-.45,1.22ZM435.43,119.85h-1.2c-.29,1.07.91,1.04.72,2.15-.81-.06-1.25.53-1.92-.11-.43-.41-.43-1.31-.94-1.56-2.17,3.7-2.37,7.34.14,10.97l.69-.23c.48-1.29,1.13-2.52,1.75-3.74.17-.35.66-.68.71-.94.05-.24.26-2.54.27-2.86.03-1.05-.46-2.5-.22-3.68ZM455.2,121.69c.27-.32.17-1.47-.06-1.85-1.29,1.15-2.61,1.61-2.75,3.58l2.81-1.73ZM490.03,120.53v.24c.16-.08.16-.16,0-.24ZM398.27,121.32l-.36.36.11.11c.13-.15.48-.31.24-.47ZM398.39,130.39c.19-1.72,3.37-2.7,3.6-4.41.25-1.83-.05-3.18-1.92-3.84-1.63-.57-2.5.11-3.82.98-.38.25-1.83,1.29-2.04,1.55-.72.88-2.82,7-1.42,7.37,1.88-.2,3.39-1.28,5.03-2.11l.57.46ZM461.83,121.75v.24c.16-.08.16-.16,0-.24ZM505.92,122.67c-.22-.17-2.45,1.3-2.53,1.43-.17.27.18.85.13,1.29-.06.65-.63,1.31-.47,2.06,1.78.04,1.19-.98,1.54-1.92s.99-1.9,1.32-2.86ZM460.64,124.14v.24c.16-.08.16-.16,0-.24ZM374.02,126.11c.6.06.81-.38.71-.95l-.71.6v.35ZM393.13,125.62v-.48s-.23,0-.23,0v.48s.23,0,.23,0ZM389.31,125.38c-1.7.49-2.83,1.7-2.62,3.58.27.3,2.41-2.18,2.5-2.39.17-.39.14-.78.12-1.19ZM373.79,129.45c.66-.23.64-1.04.11-1.43l-.11,1.43ZM376.29,131.6v.24c.16-.08.16-.16,0-.24ZM365.42,133.76c-.23-.21-1.73.49-2.08.67-.94.48.84,1.07,1.25,1.48.59.59.76,1.85,1.79,1.91l-.96-4.06Z"/>
        <path d="M513.57,120.04l.25,4.67-.6,2.02c-.52-1.09-.91-2.97-1.06-4.2-.05-.45-.24-3.51-.15-3.67.38-.78,1.19-.59,1.43.22.81-.54,1.77-.4,2.65-.69.97-.33,1.81-1.64,2.25-.14.04,1.15-2.72,2.44-3.68,2.28-.46-.08-.61-.55-1.09-.48Z"/>
        <path d="M472.41,122.16c-.26.26-1.6.46-1.62.17.07-.61.98-2.79,1.56-2.74.65.49.54,2.08.06,2.57Z"/>
        <path d="M419.3,122.49c.16.08.16.16,0,.24v-.24Z"/>
      </g>
      <g>
        <path d="M144.91,195.19c-.3-3.31-2.09-8.38-5.62-9.41-3.77,1.57-8.9,2.22-9.45-3.12-.31-.23-1.52,1.95-1.78,2.16-.41.32-1.13.43-1.64.75-1.36.85-2.68,2.24-4.53,1.82s-1.21-3.6-1.97-3.77c-2.16,1.98-7.71,3.88-10.22,1.93-.57-.44-.48-1.76-1.24-2.1-2.08.42-4.57,4.39-6.44,4.46-.42.01-1.62-.36-1.92-.69-.53-.6-.92-3.31-1.2-3.33-3.58,1.94-8.32,5.22-12.55,3.95-.98-.3-1.97-.97-1.9-2.14.04-.67,2.04-4.56,2.52-5.37,2.15-3.58,6.46-8.4,10.65-9.42,1.11-.27,2.18-.15,3.3-.16.29-2.22.64-4.42-.26-6.57l.41-.57c1.87-.63,2.05,2.96,2.01,4.15-.05,1.37-.97,3.07-.73,4.29.14.69,1.54.91,1.69,3.09.31,4.51-3.88,5.87-3.06,9.52.57,2.54,2.11.22,2.76-.31.91-.75,3.1-1.43,3.88-2.26.64-.68.91-2.24,1.38-3.16.63-1.25.52-.71.93-2.17.45-1.6,1.98-3.7,3.9-3.15.82.83-2.83,2.88-3.07,3.76-.18.68.38,1.03.38,1.57,0,1.52-2.79,4.9.31,5.18-.76-2.69-.51-5.62,1.44-7.75,1.13-1.24,5.55-4.28,7.16-4.79,1.34-.42,3.69-.74,4.79.22,2.46,2.16,1.24,5.33-.28,7.61-1.36,2.05-3.01,2.21-2.6,5.31.39,2.93,4.93-1.19,6.08-1.83.49-.27,1.07-.15,1.47-.44.15-.1,2.14-2.64,2.22-2.8.38-.72.18-1.33.74-2.12.47-.66,2.65-2.29,2.88-.95.48,2.83-6.08,4.51-2.88,7.88,1.07,1.13,2.39.6,3.72.57.51,0,1.98.53,1.78-.34-.03-.13-1.44-1.8-1.64-2.19-1.32-2.63,2.32-5.71,4.22-7.24,2.79-2.26,3.26-1.95,6.33-2.93.43-.14.63-.82,1.19-.64,1.72.79,2.6,2.5,2.31,4.37-.46,2.96-6.84,7.63-9.53,8.86.7.61,1.63,1.12,2.21,1.85,1.63,2.05,3.21,8,3.27,10.59,0,.41-.24,2.1-.39,2.43-.96,2.1-8.5,1.3-9.49-.43-.54-.95.08-3.04.46-4.04.7-1.82,2.12-4.72,3.46-6.1.1-.11,1.03-1.03,1.19-.83.26,1.06-.67,1.51-1,2.22-.56,1.22-.98,2.73-1.5,3.99-.48,1.16-1.64,2.03-1.16,3.54.38,1.17.91.6,1.82.81.34.08.62.35,1.02.41.56.09,4.17.42,4.17-.35-.08-1.24.11-2.59,0-3.82ZM100.21,172.89c-1.81-.38-2.72-.38-4.29.61s-3.39,2.45-4.55,3.82c-.92,1.1-4.58,6.49-3.79,7.73.46.72,2.42.39,3.15,0,3.35-1.8,5.09-5.63,7.32-8.45.32-.4,1.04-.77,1.13-.9.33-.52.44-2.17,1.02-2.8ZM121.34,179.18c.69-.8.79-1.28,1.32-1.91.92-1.09,3.43-1.09,2.14-3.3-.22-.37-1.9-1.25-2.24-1.25-.13,0-2.24.42-2.52.5-2.74.72-6.3,4.92-7.26,7.55-.15.42-.62,2.06-.49,2.38.47,1.13,2.16,1.37,3.24,1.09,2.01-.52,4.45-3.45,5.82-5.05ZM140.1,184.29c.06-.03.33-.68.76-1.03,1.06-.86,2.88-1.56,4.16-2.53,1.11-.85,3.5-2.93,3.96-4.16.68-1.83.59-3.49-1.81-3.44-2.55.06-7.91,4.37-9.08,6.65-.25.48-.59,1.21-.53,1.75.07.69,1.85,3.18,2.55,2.77ZM101.17,178.62c.89.8,1.92-4.29.59-4.77-.57-.03-.53,4.27-.59,4.77ZM99.5,176.23l-6.57,8.84c1.29-.74,5.68-2.39,6.22-3.59.28-.62-.15-1-.1-1.52.11-1.22.64-2.45.45-3.73Z"/>
        <path d="M94.72,177.67l.59-2.86c1.02.75.26,2.3-.59,2.86Z"/>
      </g>
      <g>
        <path d="M369.86,219.19c1.27,1.06,4.71-1.63,5.43-2.68s.93-3.23,2.62-2.99c.2,1.96-1.9,2.97-1.57,5.02.45.62,3.68-.67,4.64-.29.36-1.16,1.25-1.96,1.75-3.15.26-.61,1.1-4.66,2.13-2.45.7,1.51-2.56,5.77-.82,6.33.31.1,3.34-1.12,3.83-1.37,1.3-.67,4.07-3.25,4.81-4.5.82-1.39.52-3.51,2.66-3.19.44,2.28-1.66,4.22-2.09,6.15-.15.67-.36,2.91.07,3.41.71.84,5.65-.28,6.92-.25s3.04.27,2.06,1.81c-2.24-.19-8.71,1.45-10.31.01-1.18-1.07-.43-3.09-.82-4.44-1.32,1.33-4.87,4.27-6.71,4.53-2.26.32-2.05-1.6-2.85-1.67-.37-.03-2.41.51-2.94.65-1.06.28-1.29.94-2.77.78-1.28-.14-.67-.92-1.46-1.65-.84,1.28-3.42,2.47-4.79,1.68-1-.57-1.62-2.33-1.86-3.37-.06-.28.23-.27-.28-.23-.35.03-.6.08-.91.24-1.18.62-2.94,2.84-4.01,3.69-.59.47-3.69,2.3-4.28,2.42-.34.07-2.44-.18-2.72-.35l-1.04-1.94c-.89-.22-1.42.4-1.91.44-.39.04-.75-.39-1.18-.43-.7-.07-1.6.71-1.77-.35.79-1.24,3.52-.44,4.3-1.2.96-2.55,1.17-4.67,2.91-6.88.47-.6.95-.8,1.31-1.2.42-.46.59-1.15,1.15-1.6,1.11-.88,3.45-1.12,4.66-.34,1.71,1.1,2.22,2.58.97,4.29-1.72,2.33-3.56,3.75-6.04,5.19-.66.38-2.8.87-2.8,1.75l.65.8c.55-.11,1.31-.11,1.81-.26,3.44-1.05,4.18-2.08,6.62-4.37.74-.69,1.71-.76,1.9-1.92.15-.93-.04-1.94.12-2.98.4-2.66,2.3-6.57,4.06-8.59.96-1.09,2.26-2.15,3.35-3.05,1.3,1.17,1.47,2.58,1.21,4.26-.56,3.49-2.6,6.36-4.91,8.95-.38.43-1.99,1.59-2.1,1.96-.26.82.35,2.82.98,3.35ZM368.35,214.49c.42.08.59-.22.84-.47,1.88-1.95,3.9-4.38,4.72-6.99.21-.67,1.11-3.76.28-4.01-.55-.1-.75.28-1.06.6-1.23,1.25-5.75,9.75-4.78,10.86ZM361.11,211.2c-.83.19-2.5,1.78-3,2.5-.42.62-1.97,3.73-2.09,4.37-.05.3-.08.66.26.73s5.02-3.25,5.59-3.73c1.18-1,2.91-2.31,1.45-3.81-.37-.23-1.75-.17-2.22-.06ZM357.48,218.8v.24c.16-.08.16-.16,0-.24Z"/>
        <path d="M295.47,216.93h-1.19c-.08.59.01.38.34.51,1.32.5,1.93-.83,2.64-1.7,2.68,2.19-2.26,5.7-4.18,3.23-.84-1.08-.34-1.56-.29-2.63.01-.29-.21-.62-.18-.94.08-.9.9-1.44,1.23-2.11.37-.75,1.6-4.51,2.41-4.44,2.17.2.51,3.15-.03,4.19-.25.49-.87.9-.97,1.44-.12.68.42,1.67.21,2.45Z"/>
        <path d="M346.75,219.18c-1,1.01-4.23,3.76-5.42,4.26-1.28.54-3.26.94-4.6.61-1.15,1.83.38,3.99,1.89,5.02,1.62-2.12,2.82-4.71,4.89-6.44.1.44-.15.66-.32.99-.94,1.75-2.39,3.66-3.55,5.29-.81,1.7,1.53,1.97,2.35,2.79.33.33,2.34,3.02,2.54,3.44,1.23,2.62.08,4.96-1.14,7.3-.64,1.23-2.38,4.43-3.81,4.57-1.07.1-1.4-.85-2.13-1.43-.96-.78-1.43-1.33-2.26-2.04-.32-.28-.96-.38-1.1-.57-.28-.4-.02-1.26-.12-1.79-.07-.37-.41-.64-.46-.98-.14-.81,2.86-7.17,3.48-8.44.25-.52,1.02-1.16,1.06-1.59.07-.73-1.59-1.86-1.98-2.8-.53-1.28-.2-2.69-.54-3.77-.22-.72-1.34-1.31-1.53-2.32-.21-1.17.59-3.42.91-4.6-2.23.95-3.89,2.66-6.56,2.15-.63-.12-.7-.75-1.32-.71l-.48,1.67,2.59.03c1.12.71-1.26,4.69-2.23,5.16-.82-.21-1.37-1.15-1.31-1.96.03-.51.67-.91.35-1.33-2.56.75-8.17,3.08-10.61,1.78-.42-.22-1.04-1.2-1.33-1.23-.51-.04-4.76,3.19-5.85,3.64-4.19,1.74-8.2.84-7.65-4.41-.16-.19-1.27.78-1.48.96-.56.47-3.1,2.97-3.47,3.07-.69.19-1.33-.39-1.5-1.04l6.21-7.18c-1.33-.35-1.22-.61-1.82-1.53-.31-.47-1-.29-.41-1.64,1.61-1.57,1.13.85,2.82.85,1.15,0,4.7-.66,5.92-.97s4.28-2.29,4.97-1.22c1.23,1.89-1.95,2.35-3.19,2.99-1.02.53-5.71,3.65-6.08,4.43-.54,1.13-.46,4.08,1.03,4.36,3.16.59,7.07-2.37,9.44-4.17.71-.82.1-1.63.34-2.77.19-.91,2.35-4.64,2.99-5.37,1.27-1.43,5.27-3.04,5.72-.23.59,3.69-3.8,6.32-6.2,8.4l-.22,1.02c.71.11,1.58.48,2.28.49s3.54-.28,4.32-.44c.71-.14,3.92-1.1,4.15-1.61.08-.61-.59-.22-.72-.95s.09-1.8,0-2.63c-.1-.94-.98-4.52-.25-5.04l1.42.17c.18,1.76.29,5.63,2.75,5.44s7.05-3.26,8.51-5.13c.57-.73.94-1.83,1.43-2.39.85-.96,2.84-2.08,3.55-.43.14.55-1.64,2.82-2.12,3.29-2.36,2.34-4.74,3.45-5.39,7.29-.05.3-.06,2.63.5,1.68.88-3.55,4.99-8.4,8.3-9.85.45-.2.92-.16,1.37-.3.88-.28.88-1.04,2.23-.33,1.24.65,1.65,2.61,1.61,3.91-.05,1.49-1.71,3.52-2.75,4.56ZM337.08,222.12c.85.48,1.68.11,2.54-.14,1.35-.39,3.28-1.02,4.35-1.86,1.38-1.09,4.41-4.38,4.29-6.2-.07-1.09-2.03-2.26-2.93-2.01-.21.06-3.05,2.33-3.43,2.68-1.15,1.04-2.43,2.46-3.29,3.76-.44.68-1.99,3.07-1.54,3.77ZM320.32,212.38c-3.17-.29-5.1,3.5-5.25,6.21.51.57,4.85-4.31,5.12-5.03.15-.4.17-.76.13-1.18ZM325.93,212.37v.24c.16-.08.16-.16,0-.24ZM325.94,213.33v.24c.16-.08.16-.16,0-.24ZM325.94,213.8v.24c.16-.08.16-.16,0-.24ZM301.71,217.91c.09-.08,1.59-.08,1.53-1.22-1.47,1.24-3.14,1.87-4.18,3.7l1.55-1.32.24.48c.83-.31.8-1.58.86-1.64ZM338.81,244.77c.29.24.77.43,1.12.2,2.74-3.87,5.67-6.85,2-11.34-.56-.69-1.17-.99-1.78-1.56-.58-.53-.56-1.24-1.55-1.32l.83.83c-1.06-.28-1.55,1.21-2,2.06-.62,1.19-2.56,5.66-2.56,6.78,0,1.52,1.71,2.05,2.66,2.86.5.43.93,1.21,1.26,1.48Z"/>
      </g>
      <g>
        <path d="M168.86,302.09c1.17.74-1.09,3.97-1.44,4.82-1.12,2.66-2.37,6.1-2.8,8.9-.08.55-.07,1.25.1,1.79.24.43,1.14-.34,1.4-.53,2.08-1.45,8.08-5.78,9.47-7.49.71-.87,2.18-4.17,3.03-4.39.33-.08.99.18,1.15.44.57.93-.75,1.77-1.13,2.46-1.37,2.47-3.27,6.27-1.79,8.94,1.38.74,2.26.37,3.52-.29,3.18-1.65,7.08-5.58,9.17-8.51.48-.67.62-2.33,1.81-2.13-.19.76.56.57.48,1.27-.19,1.61-1.58,4-2.04,5.64-.46,1.63-1.15,4.93-1.29,6.59-.32,3.59,1.61-.1,3.1-.12l-1.54,2.88c-1.71,1.26-3.07.87-3.24-1.33s.88-7.33,1.48-9.5c.17-.6.7-1.03.9-1.6-.52-.51-1.69,2.67-1.91,2.98-.6.85-4.68,4.47-5.65,5.1-5.6,3.66-8.53-.55-6.78-6.16-2.05,1.14-7.62,7.81-9.66,7.86-4.17.1-1.38-8.12-.62-10.14.17-.45.96-1.57.96-1.66,0-.31-.27-.33-.59-.12-.77.5-1.96,2.31-2.86,3.11-.31.28-1.95,1.63-2.16,1.62-.46-.24-.72-.68-.56-1.21l8.14-9.09c.32-.12,1.09-.3,1.35-.14Z"/>
        <g>
          <path d="M233.09,307.18c-.93,1.05-4.5,4.6-5.6,5.03-.95.37-1.58.43-2.53.05-.5-.2-3.05-1.77-3.38-2.12-.79-.84-.31-1.44-.47-2.39-1.31,1.15-2.07,2.7-3.13,4.04-2.6,3.28-5.7,7.36-8.57,10.3-.94.96-2.34,2.15-1.91-.24,1.85-2.42,4.06-4.57,5.94-6.95,1.41-1.78,8.04-10.45,8.4-11.93.12-.51-.14-.86-.08-1.25.18-1.17,1.45-4.17,3.04-3.42,2.29,1.08-1.85,5.68-1.9,7.3h.47c.02-.21.09-.42.26-.57,3.38-3.04,6.13-7.63,11.16-8.23,1.06-.13,2.76.76,2.69,1.96,0,.15-.73,2.48-.84,2.77-.6,1.5-2.46,4.43-3.54,5.65ZM225.13,310.52c.92.6,1.24.15,2.05-.29,1.45-.79,4.67-3.51,5.76-4.76.26-.3,2.92-5.05,3-5.38.16-.66.03-1.24-.37-1.8-.98-.65-4.32,1.07-5.26,1.69-.35.23-.41.7-.91.99-.53.31-1.31.33-1.66.62-.16.13-2.35,2.74-2.69,3.16-.27.33-1.82,2.47-1.86,2.68-.29,1.37.91,2.4,1.95,3.08Z"/>
          <path d="M218.75,302.9c-.7.83-2.48,1.28-3.35,2.02-.94.81-4.94,9.22-5.15,10.62-.11.72.03,1.52-.02,2.25l-.92-.03c-1.03-2.91.58-6.26,1.99-8.81.22-.4,1.72-2.44,1.55-2.62-2.22,1.31-4.49,2.68-7.18,2.74l-.35,1.8-2.35-2.67c-1.59-1.52,2.89-1.3,3.91-1.5,1.21-.23,3.2-.91,4.35-1.39,1.75-.73,5.33-3.23,6.8-3.49.97-.17,1.3.37.7,1.08Z"/>
        </g>
        <g>
          <path d="M307.48,304.34c-.95.1-1.43.97-2.29,1.41s-2.35.97-3.07.01c-.35-.46-.2-1.88-.73-1.66-2.14,2.11-6.66,6.4-9.93,5.39-1.42-.44-1.83-2.55-1.9-3.83-.1-1.75.53-2.29.81-3.45.09-.35-.18-.73-.09-1.06.24-.9.77-1.68.84-2.77.02-.35.19-.42-.25-.72-1.06,1.16-2.31,2.17-3.35,3.34-2.99,3.37-5.76,6.91-8.13,10.74-.33.54-1.05.75-.82,1.69-.56.03-.42.08-.48-.36-.54-4.22,1.7-5,3.82-7.65,2.72-3.39,4.94-7.14,8.62-9.78,2.3-1.65,3.34-.8,3.34,1.89,0,1.33-.72,4.93-1.03,6.39-.26,1.25-1.11,2.41-.9,3.76,2.56.47,4-1.34,5.96-2.53.49-.3,1.08-.28,1.57-.58,2.09-1.27,2.07-5.03,2.62-7.17.71-2.77,1.99-5.12,3.45-7.54,1.42-.46,2.57-2.73,4.14-1.79.06.04.97.91,1,.97.29.52.15,1.78,0,2.39-.31,1.35-3.28,6.77-4.22,7.96-.64.82-3.9,3.65-3.92,4.1-.11,2.65,3.28.2,4.28-.4.78-.47,2.62-2.37,3.52-1.76.7.48-.65,2.35-.85,2.99-.17.53-.81,3.62-.59,3.83.61.23,2.52-.72,2.75-1.2.31-.63.04-1.92.15-2.72.29-2.15,1.92-6.52,3.21-8.26,2.18-2.93,3.49.1,3.43,2.45-.05,1.9-1.84,6.01-3.08,7.45-.45.52-1.92.59-1.09,1.8.27.39,2.29.04,2.82-.07,1.18-.25,6.45-2.48,7.34-3.18.74-.59,1.73-1.88,1.24-2.81.53-.42,1.3-5.01,2.22-3.03.79,1.69-1.95,6.46-1.3,8.6.57.56,3.66-1.38,4.38-1.72,1.67-.8,3.05-.97,4.28-2.64.9-1.21.92-2.62,2.56-3.18.25-.49-.71-.29-.72-.94-.02-.95,1.89-3.32,2.98-2.04,1.18,1.39-1.35,3.84-2.06,5.09-1.15,2.04-1.58,4.01-1.39,6.37l4.79-3.21c1.87-1.64,3.57-4.37,5.24-5.99.28-.28.28-.03.24.24-.18,1.52-2.14,3.09-2.97,4.2-1.69,2.27-2.82,4.14-5.27,5.95-3.84,2.83-3.14-2.15-4.3-4.29-1.1,1.07-2.53,2.07-3.87,2.82-3.14,1.74-5.65,2.69-5.81-2.1-1.4.59-2.51,1.55-3.9,2.19-1.82.85-5.47,2.45-7.33,1.52-.45-.23-.28-.9-.82-.85-1.02.1-1.8,1.67-3.01,1.58s-2.15-.99-2.15-2.17v-3.7ZM309.62,289.29c-.58-.06-1,0-1.52.27-.12.06-1.86,1.77-1.93,1.89-.71,1.13-2.44,6.17-2.7,7.58-.07.42-.08.84-.05,1.26,2.85-2.99,6.17-6.61,6.2-10.99ZM313.46,305.77c.13.09.72.04.83-.24,1.22-2.32,2.58-4.57,2.74-7.28.04-.6.18-1.37-.36-1.78-.23,0-2.03,2.89-2.16,3.33-.16.57-.05,1.16-.21,1.69-.23.74-1.69,3.73-.84,4.28Z"/>
          <path d="M259.21,296.26c.16.15-.46,2.88-.59,3.35-.82,2.98-2.41,5.35-3.55,8.12-.2.5.39,1.46-.39,1.67l-.12-.72-.72,1.67c-.32-.31-.34-.81-.31-1.24.19-2.47,2-5.11,2.09-7.6-2.35,2.01-5,3.87-7.79,5.23-.55.27-1.34.28-1.76.63-1.2,1.03-.04,4.56-2.63,4.66l-.48-1.8c-4.55.28-5.68-6.6-1.32-7.75.13,1-1.09,2.14-1.27,3.05-.51,2.72,2.07,2.97,4.02,3.4-.18-.89.12-1.8-.02-2.73-.06-.44-.44-2.11-.57-2.53-.16-.51-.81-.92-.85-1.56-.05-.83.67-2.01,1.63-1.74,1.52,1.26-.29,5.44,2.25,4.93,2.11-.42,6.29-3.24,8.04-4.63,2.06-1.64,1.82-4.38,4.32-4.4Z"/>
          <path d="M278.57,297.68c.12.16-.97,3.4-1.14,3.75-.21.44-.87.86-.91,1.13-.04.3.19.91.14,1.45-.16,1.82-.95,3.74-.95,5.73,0,.87.77,2.18.65,2.91-.09.58-.67,1.29-.66,1.99-.79.63-.71-2.2-.77-2.45-.13-.62-.72-1.26-.85-2.02-.47-2.76.14-5.65,2.33-7.47-.7.14-1.31.72-1.94,1.06-.27.14-.69.07-.87.19-.2.13-1.94,3.15-2.67,3.9-.54.55-3.23,2.72-3.83,2.88-1.55.4-1.17-.85-1.51-1.62-.25-.58-.77-1.13-.84-1.81-.17-1.57.69-3.13,1.03-4.6l-8.97,7.99c-1.29.87-1.46.75-2.61-.11.23-1.06,1.35-1.18,2.13-1.8,2.76-2.2,6.86-5.02,9.26-7.35,1.28-1.25,2.31-4.4,4.34-3.49.38,1.24-.75,1.57-1.22,2.44-.83,1.54-2.08,5.53-2.1,7.23-.03,2.1,1.36.12,2.18-.47,2.23-1.61,5.01-3.98,6.66-6.24.88-1.2,1.49-3.77,3.11-3.22Z"/>
          <path d="M283.58,298.39l-1.91.48c-.43-.4,1.8-2.21,1.91-.48Z"/>
        </g>
        <g>
          <path d="M421.94,304.02c1.19-.14,1.96-1.1,3.01-1.64,1.45-.75,2.69-1.56,3.98-2.24,1.49-.78,2.14-.78,3.24-2.5.79-1.24,1.09-3.86,3.27-3.2.62.93-2.04,4.28-2.49,5.41-.35.88-.65,2.35-.45,3.27.38,1.69,1.82.1,2.08,1.04.41,1.47-1.87,2.72-3.2,1.27-.91-.99-.68-2.53-.85-3.7-.1-.69-.65-.35-1.08-.12-1.74.95-6.26,5.02-8.06,4.51-1.4-.39-.94-3.82-1.25-4.97-.79.69-1.47,1.61-2.28,2.25-1,.79-5.12,3.48-6.13,3.66-2.54.48-4.5-.85-4.37-3.52-2.23.65-4.26,2.03-6.46,2.74-.93.3-3.46.62-3.89.89-.84.52.53,5.07-.99,4.74-1.15-.25-1.17-4.91-1.32-5.97-.82-.29-.18.98-.83.71-.28-.11-.57-.77-.86-1.05-.16-.15-.53-.14-.69-.27-.6-.48-.17-1.79.59-1.8l1.79,1.44c.3-1.17-.42-2.86-.2-3.89.11-.51,1.14-1.69,1.48-2.33.1-.18-.14-.52-.05-.66.19-.29,1.31-.79.79-1.73l-1.87,3.03c-2.25,2-4.06,5.02-6.38,6.88-1,.8-2.93,2.13-4.17,2.05-1.87-.13-2.91-2.13-3.33-2.15-1.02-.04-1.47.96-2.21,1.39-1.75,1.02-5.4,2.84-6.78.41-.43-.76.08-2.14-.59-2.05-1.56.22-1.69,2.15-2.74,3l-.72-.25c1.05-1.3,4.36-10.25,5.23-10.53.19-.06.59-.18.72-.09,1.05,1.9-.9,3.62-1.36,5.42-.1.39-.39,2.69-.25,2.89,1.45,1.05,3.11.71,4.74.15.42-.14,2.91-1.45,3.11-1.67.48-.53-.07-2.59,0-3.58.1-1.5,1.69-5.04,2.75-6.08.17-.16,1.78-1.43,1.89-1.45,1.19-.23,1.93-.22,2.75.66,1.39,1.5.91,2.02.13,3.64-.56,1.15-2.03,3.62-2.78,4.62-.32.42-2.02,1.79-2.1,2.22,1.57,2.79,3.78.72,5.5-.5,1.17-.83,2.65-2.1,3.66-3.27,1.52-1.76,2.79-3.84,4.27-5.64,2.9-1.3.36,4.26.2,5.56s.06,2.81-.02,4.15c2.44-.33,4.66-1.42,6.97-2.23.54-.19,1.13-.1,1.64-.27,2.54-.88,1.96-1.71,3.05-3.64.83-1.46,2.99-4.66,4.37-5.43.23-.13,2.03-.85,2.24-.88,4.12-.46,1.54,3.12.13,4.68-1.78,1.97-4.49,3.34-5.98,5.51.04,1.81,1.75,1.97,3.24,1.78,2.43-.31,7.62-4.49,9.05-6.48.45-.63,1.99-3.94,2.85-3.8,1.48.88-.54,2.39-.68,3.06-.07.33.17.79.07,1.27-.38,1.81-1.44,3.37-1.38,5.21ZM414.53,294.71c-2.05.54-3.03,1.98-3.82,3.82.22.24,3.07-2.66,3.34-2.99.22-.27.58-.39.48-.84ZM382.04,303.33c1.35-1.4,5.31-5.45,4.73-7.47-.21-.74-1.25-.8-1.87-.52-.18.08-2.13,2.35-2.21,2.56-.25.62-.13,1.24-.28,1.86-.32,1.32-.94,2.1-.37,3.57ZM422.77,298.05v.24c.16-.08.16-.16,0-.24Z"/>
          <path d="M358.39,309.08l1.67-.24c-.4,1-1.38.5-1.95.6-.47.09-.77.46-1.11.54-1.64.4-4.11-2.05-4.33-3.67-.28-2,.76-5.22,2-6.79,1.85-2.34,4.98-5.4,7.6-6.73.54-.27,1.17-.45,1.74-.68.72-.22.97.46,1.47.66.34.13.79.06,1.19.24,1.01.45,2.97,3.79,3.06,4.81.02.18-1.2,3.12-1.37,3.43-.67,1.22-6.03,5.47-7.38,6.24-.23.13-3.2,1.07-2.6,1.58ZM365.73,293.84c-.32-.19-2.33-.07-2.81.08-1.49.49-4.19,2.95-5.03,4.29-.75,1.21-.56,2.71-1.31,3.94-.63,1.03-.05-1.63.12-1.67-1.41.75-3.05,5.58-1.56,6.46.3.18,3.75.43,3.95.35.4-.17,1.67-1.52,2.17-1.9,2-1.48,5.02-3.55,6.13-5.81,1.23-2.53.66-3.54-1.27-5.08-.22-.18-.29-.6-.4-.66ZM358.74,307.65v.24c.16-.08.16-.16,0-.24Z"/>
          <path d="M363.65,308.13l.48.12c.13,1.07-1.54,3.41-1.96,4.49-.18.47-1.31,3.49-1.34,3.68-.07.43.25.9.21,1.37-.15,1.91-.26,4.37-.51,6.19-.38,2.75-2.82,3.76-5.31,3.94-1.2-1.18-1.47-3-1.36-4.63.37-5.64,3.76-9,7.07-13.23.96-1.23,2.04-2.42,2.96-3.61.19,1.07-.48,1.8-1.19,2.51l.96-.84ZM355.53,326.28c.96.12,1.4-.69,2.07-1.16.52-.36,1.33-.39,1.54-1.09.54-4.06.34-8.31,2.29-12.04l.19-1.48c-.68.61-1.17,1.4-1.65,2.17-1.37,2.19-4.13,6.81-4.43,9.18-.06.46-.23,4.21,0,4.42Z"/>
          <path d="M355.27,306.46c-.94-.55.24-2.93.95-3.34.01,1.24-1.1,2.09-.95,3.34Z"/>
        </g>
      </g>
    </g>
  </g>
</svg>