<?xml version="1.0" encoding="UTF-8"?>
<svg id="Kirchtagskrapfen" xmlns="http://www.w3.org/2000/svg" viewBox="0 0 595.28 396.85">
  <g id="zKTxIO">
    <g>
      <path d="M176.05,86.8c-.71,1-1.34,2.09-1.85,2.87.57,1.21-.09.88-.27,1.39s-.16,2.34-.32,3.14c-.04.2-.8,1.01,0,.83.46-.11,1.53-.63,1.99-.88,3.42-1.86,10.92-7.25,12.41-10.86.16-.39.83-2.48.84-2.78.04-.97-1.62-1.39-.96-2.73.69.28,1.24.61,1.21,1.44h.84c.42,1.93-.26,3.86-1.23,5.5-2.22,3.77-7.95,8.19-11.64,10.42-1.28.77-2.83,1.42-4.19,2.05l-1.55,4.19c1.65,1.42,7.96,4.38,9.37,1.87.34-.61,0-2.65.3-3.7.06-.19.69-1.66.79-1.85.32-.59,3.22-3.76,3.7-3.97,1.91-.84,4.43.45,3.72,2.77-.63,2.08-3.82,5.73-5.53,7.18-.3.26-1.07.46-1.1.62.98,3.46,6.01,4.04,8.72,2.26.79-.52,4.04-3.34,4.62-4.07.2-.25,1.21-1.87,1.26-2.1.23-1.03.02-3.41.32-4.24.13-.36,1.38-.38,1.18-1.58.41,0,.52-.14.46.34-.07.55-.84,2.95.34,2.76.36-.26.72-.6.98-.95.63-.86,2.64-5.98,2.79-7.05.19-1.39-.19-3.9-1.93-3.97.13-1.36,1.84-.57,2.22.31.07.17.39,2.82.41,3.18.08,1.41-1.12,4.78-1.67,6.24-.3.79-1.43,2.17-1.43,2.63,0,.98,2.44,3.63,2.14,5.16.4-.21.89-.28,1.28-.51,1.66-.99,4.8-4.94,5.19-6.83.14-.66-.14-1.85-.09-2.44.04-.39.32-.83.34-1.25l.47.24.24-1.68c.35-.03.43-.21.41.24-.03.76-.22,1.51-.18,2.29.06,1.37.15,3.18.29,4.52.09.88.29,2.14,1.17,2.55.59-1.75,1.9-3.15,2.74-4.82.64-1.28,1.53-3.51,1.85-4.89.61-2.66.71-5.19-1.58-7.07,0,.5-.53,1.41-.94,1.69s-.92.18-1.22.47c-.25.24-1.01,2.37-1.32,2.88-.52.51-.75-1.26-.72-1.54.05-.41,1.65-2.68,2.04-3.02,1.77-1.54,4.35-1.38,5.06,1.19,1.59,5.81-2.12,12.07-5.62,16.4,1.16,2.78,4.67,0,6.09-1.27.47-.42.69-1.01,1.19-1.45.68-.6,3.27-2.87,3.72-1.68-1.92.79-3.06,2.83-4.55,4.2-.97.89-2.2,1.45-3.12,2.39,2.56,1.51,6.03-1.54,7.56-3.47.27-.34,1.98-3.09,2.01-3.28.05-.36-.41-.62-.69-.7-.46-.12-1.32.45-1.45-.1,4.54-2.04,2.86,2.07,1.3,4.29-.43.61-3.16,3.77-3.65,4.09-.8.52-2.45.57-3.41.73,1.17,1.29,3.74,3.61,5.58,3.31,2.49-.41,5.77-4.03,6.32-6.41.36-1.57.01-3.51.83-5.05.43-.09.47.13.68.4,1.77,2.31-.9,5,.16,7.75.93,2.42,3.91,1.99,5.69.72.61-.43,4.04-3.28,4.28-3.7,1.08-1.9.93-4.81,2.52-6.83,1.2-1.53,1.7,1.39,1.53,2.49-.36,2.31-2.83,4.19-2.88,6.73-.02.86.59,3.28,1.32,3.74,1.03.66,3.38-2.17,4.09-2.9,2.47-2.54,4.85-5.46,7.42-7.93.96-.92,2.39-2.32,3.3-.64.99,1.84.99,4.17,1.86,6.06.3,2.76-1.73,2.12-2.09-.08-.08-.51.18-3.29-.78-2.59-1.01.74-.89,5.94.24,6.73,1.25.87,2.81-1.45,3.48-2.06,1.02-.94,3.15-2.43,3.43-3.75.43-2.06.73-5.5,1.71-7.41.24-.46.71-.58.75-.74.14-.55-.16-1.24-.11-1.79.12-1.46,1.8-2.53,2.26-3.92,2.76-1.12,4.01.69,3.3,3.3-.78,2.83-3,6.59-4.58,9.09-.67,1.06-2.12,1.82-1.66,3.25s1.25,2.2,2.7,1.63c1.62-.64,3.74-3.07,5.45-4.15.6-.38,2.35-1.58,2.23.05-.07,1.03-.98,1.66-.71,3.36.12.76,1.85,3.05,2.54,3.45,1.2.7,3.33.66,4.58.09s.49-1.1.56-1.83c.23-2.13,1.22-5.46,2.28-7.32.12-.22,2.18-2.32,2.37-2.43.78-.45,1.48-.05,1.58.84.09.77.18,3.37.11,4.1-.06.65-.73,1.94-.87,2.86-.06.37-.34.53.15.85.77-1.42,2.22-2.58,2.93-4.02.51-1.03.72-3.35,1.15-3.89.87-1.09,1.2.68,1.06,1.54-.06.4-.35.7-.41,1.03-.58,3.15-1.6,6.37-.05,9.41.62.47,4.52-4.3,5.03-4.92.93-1.12,2.36-2.7,3.08-3.87.6-.98.92-3.21,2.21-2.61.78.52-1,3.64-1.16,4.38-.38,1.74-.4,6.09.91,7.37,1.57,1.53,4.36-1.93,5.4-2.99.4-.41,1.03-1.17,1.33-1.67,1-.1.52,1.23.23,1.79-.62,1.21-2.96,3.18-4.01,4.02-.19.15-.24.63-.54.77-.62.3-2.25.38-2.87-.02-2.13-1.37-2.69-4.99-2.17-7.3-1.35.18-1.6,1.8-2.16,2.52-.69.89-1.77,1.54-2.51,2.29-.39.4-.28,1.06-1.08,1.32-4.2,1.38-3.83-2.92-4.21-5.65l-1.31,1.32c-.96,1.44-2.14,3.43-3.86,4.06-1.44.53-1.11-.49-2.27-.97-.74.05-1.45.86-1.98,1.05-3.4,1.22-8.73-4.04-7.26-7.61-1.86.02-2.84,2.34-3.96,3.12-.19.13-2.27,1.16-2.42,1.19-1.71.3-3.14-1.3-3.34-2.87-2.39,1.47-4.41,5.92-7.67,5.27-1.04-.21-2.22-3.45-2.27-4.46-.04-.77.43-1.61.4-2.18-.02-.4-.47-.65-.43-1.14.03-.32.78-1.39,1.21-1.34l-.36-.48c-2.69,2.43-5.24,5.06-7.42,7.93-1.32.86-3.46,3.88-5.1,3.16s-1.94-2.14-2.35-3.65c-.15-.53.12-1.56-.47-1.45-1.4,1.03-2.34,2.03-3.99,2.73-2.24.96-4.32,1.66-6.07-.59-.57-.74-.33-1.61-1.42-1.43-.72.72-1.08,1.88-1.85,2.51-1,.83-3.62,1.98-4.91,1.83-.6-.07-2.36-.83-2.87-1.22-1.35-1.03-3.42-4.11-4.61-4.8-.57-.33-1.33-.13-1.98-.36-.78-.27-.99-1.3-1.86-1.37-.41-.48-.07-1.01-.18-1.6-.03-.19-.36-1.34-.73-1.2-.07.03-1.26.79-1.31.85-.33.31-.37.82-.63,1.05-1.3,1.22-2.91,2.65-4.55,3.36-.04,1.56-.77,5.45-3.05,4.76-.11-.03-1.64-1.04-1.73-1.16-.99-1.27-1.22-3.52-1.68-5.04-2.11,1.18-3.41,3.37-5.47,4.6-3.83,2.3-7.94,1.01-10.35-2.6-2.7.67-4.64.52-7.14-.63-.84-.39-2.03-1.42-2.48-1.6-.63-.25-.47,1.69-1.55,1.07-.69-.39-.84-2.53-1.45-3.53-.18-.3-.62-.34-.69-.59-.08-.29.24-.71.2-.78-.04-.06-1.05-.76-1.19-.84-1.64-.97-3.82-1.36-4.64-3.51-.07-.18-.68-2.41-.02-2.14.78.32,3.03,4.48,4.45,3.49.69-.48.54-3.49,2.75.05.95-.63,2.3-.17,2.85-1.38.1-.21-.06-.57.08-.89.33-.72,1.41-1.32,1.26-2.48l-.48.24v-.48s.41-.04.41-.04c.52-3.77,4-9.1,7.04-11.33,1.96-1.44,3.88-2.27,6.28-2.73,2.24,1.2-.1,1.67-1.42,1.84s-1.1-.04-2.47.88c-2.68,1.8-4.99,4.13-6.82,6.73ZM270.11,88.61c-.41.12-2.25,3.13-2.52,3.72-.31.69-1.3,4.81-1.39,5.58-.04.31-.2.87.26.97s2.15-3.33,2.71-3.76c.57-1.24,2.94-5.12,2.09-6.33-.22-.32-.81-.28-1.16-.18ZM181.9,102.71c.36.09.56-.08.85-.22.55-.26,3.57-3.67,4.05-4.35.42-.61,1.25-2.01,1.05-2.69-.62-2.09-4.2,1.52-4.76,2.34-.87,1.3-1.14,3.37-1.2,4.92ZM285.72,106.01c.1-.06,1.31-1.57,1.45-1.78.52-.81.81-1.81,1.13-2.71v-3.84c-1.72,1.7-2.67,4.29-3.24,6.61-.2.8-.57,2.41.66,1.73ZM171.34,98.4l-1.65.02c-.44.88.35,1.63.7,2.37l.48-.11c-.08-.85,0-1.56.48-2.28ZM200.35,99.36c-.64-.46-1.93,1.36-1.63,2.22.11.31,3.57,2.87,3.23,1.11-.18-.95-1.39-2.29-1.59-3.33ZM201.81,104.87c-1.61.22-2.29-.79-3.36-1.68-.16,1.95.77,5.84,3.34,4.77l.02-3.09Z"/>
      <path d="M471.65,202.03c-.13.96.66,2.42.66,3.19,0,2.23-2.01,6.13-3.34,7.95-.16.21-.62.33-.88.68-.27.37-1.83,2.91-1.83,3.13.94,1.79,2.55,3.77,1.83,5.87,3.61-.11,5.65-4.39,9.35-4.32.09-1.89-.42-5.49,1.21-6.82,1.31-1.07,5.88-2.25,7.55-2.05,4.47.52-.28,7.47-.6,9.59l2.51-3.12c2.17-1.59,5.57-5.08,8.4-5.16,2.14-.06,3.05,2.21,2.71,4.03-.52,2.75-3.01,4.71-3.53,7.5-.32,1.69-.21,3.56.47,5.14.63.46,5.9-4.99,6.6-5.75s1.82-1.9,2.38-2.66c.67-.91,1.9-4.15,2.76-4.44,1.74-.59,1.17,1.4.71,2.34-.76,1.55-2.22,3.3-2.75,5.22-.09.32-.12,2.48,0,2.66.45.64,2.38-.39,2.95-.69,1.52-.8,4.92-3.72,5.94-5.09.62-.83,1.39-3.89,2.05-4.2,2.28-.55,1.3,1.58.67,2.85-.1.21-.95,1.1-1.09,1.48-.58,1.52-.77,4.82.34,6.06.12.13,0,.37.43.31,1.61-.25,5.48-6.44,5.42-8.05-.02-.54-.42-.8-.49-1.21-.16-.97.81-3.81,2.06-2.76.49.41.06,1.35.81,1.23v.23c-.75-.11-.45.64-.47,1.2,1.84-.48,3.64-1.32,5.46-1.86,1.15-.34,3.24-1.04,4.31-1.2,3.23-.49,3.06,1.44,1.5,3.42-.52.65-1.65,1.22-1.94,1.67-.22.35-.14.79-.3,1.02-.57.83-2.03,1.18-2.53,1.9-1.39,1.97,1.1,2.29,2.62,1.9.81-.21,5.96-3.23,6.69-3.86,1.33-1.14,1.46-2.67,2.53-3.95.85-1.02,1.58-1.71,3.01-1.43-.29,2.14-1.23,4-2.64,5.63-.41.47-1.29.65-1.37,1.47.32.84.09,3.11,1.25,3.22s4.77-3.2,5.63-4.21c.52-.61,2.79-4.18,3.24-4.19,1.36,1.5-.05,2.23-.49,3.58-.26.79-.72,3.2-.59,3.96.01.07,1.11.11,1.26.08.45-.1,3.6-2.17,4.13-2.6,1.03-.84,2.35-2.15,3.37-3.1.89-.83,2.05-2.42,2.82-3.05.31-.25.74-.34,1.13-.31l-.48.83.48.36c-.19-.03-.36,0-.47.18-.77,1.32-2.27,5.72-2.14,7.16.04.4.04.75.33,1.06.26.28.61.26.96.26,2.62,0,6.07-4.67,8.4-5.77.71.47-.12.6-.25,1.06-.53,1.82-1.41,4.99-.34,6.65.06.09,1.58,1.45,1.68,1.5.63.3,1.98.38,2.76.6.35.1.42-.14.35.48l-3.18.45c-2.48-1.28-4.56-3.77-3.54-6.68-.65-.47-1.49,1.44-1.94,1.78s-3.04,1.57-3.58,1.7c-1.27.31-2.28-.39-2.81-1.51-.86-1.81-.34-3.81.41-5.57-.2-.24-3.93,3.87-4.47,4.28-1.56,1.17-5.66,3.76-6.51.58-.18-.67.25-1.77-.77-1.74-.47,1.31-2.02,2.02-3.1,2.78-1.02.71-1.06,1.56-2.67,1.2-2.58-.58-2.57-4.42-2.98-4.45-1.84,1.36-4.76,3.36-7.02,3.78-2.11.39-3.32-1.89-4.26-1.86-1.33.4-3.02,2.62-4.52,2.12s1.02-3.17,1.84-3.62c1.72-.96,3.06-.87,4.85-2.35,1.46-1.21,2.65-2.83,3.95-4.2.22-.51-.56-.37-.85-.37-2.96.02-6.52,2.96-9.71,2.65l-.31,2.76-.35.24c-.1.75-.23,2.31-1.21,2.11-.53.76-3.82,4.72-4.34,4.84-2.63.62-4.07-3.66-3.87-5.63-.72.24-.73,1.12-1.22,1.54-.76.65-4.54,3.1-5.39,3.24-2.74.44-3.61-1.38-3.58-3.82-.43.51-1.03.93-1.46,1.43-1.14,1.33-2.62,2.99-3.97,4.18-2.87,2.55-5.07-1.83-4.54-4.41-2.19,2.02-4.51,4.94-7.66,2.74-1.38-.96-1.97-2.67-2.28-4.3-.42-2.19.13-4.14.88-6.18.39-1.04,3.21-5.47.79-5.47-.28,0-5.06,1.41-5.38,1.6-1.34.74-1.08,3.63-.97,5.02.08,1.12.75,3,.73,3.83-.02,1.05-.44,2.4-.3,3.56-3.1,3.68-1.64-3.42-1.87-4.99-.05-.35.14-.39-.37-.36-.58.03-2.31.9-2.84,1.25-2.49,1.66-3.21,2.37-6.06,3.78-1.33.66-1.89,2.82-3.47,1.34-.54-.5-.62-1.42-1.2-1.92-.12-.1-1.51-1.02-1.6-1.04-.52-.12-1.33.45-1.88-.77-.26-.59.14-.98.07-1.49-.14-1.11-.55-1.53-.37-2.88.38-2.86,2.23-3.31,4.73-2.34.68-1.93.82-4.26,2.17-5.87l-.48-.35c.22.12,1.19-1.23,1.2-1.33s-.73,0-.29-1c.28-.63,2.53-4.87,2.8-5.12.47-.43,1-.21,1.52.05ZM467.85,212.05c1.15-2.13,2.62-4.02,2.73-6.53.01-.33.3-.68-.21-.9-.45-.19-.4.42-.52.66-.44.9-2.51,6-2.48,6.65l.48.12ZM492.23,222.27c1.71-1.53,4.74-4.61,5.31-6.81.25-.95.43-2.12-.41-2.83-1.02-.5-6.93,2.9-7.15,3.3-.18.33.07.92-.08,1.12-.04.05-.67.1-1.06.49-.66.66-2.09,3.65-2.32,4.63-.32,1.34-.26,2.26,1.26,2.72,1.17.36,3.57-1.82,4.47-2.63ZM463.46,217.74l.29-.56c.04-1.09-2.18-.47-2.37.51-.12.6.08,1.4,0,2.04l2.08-1.99ZM465.7,219.01v3.48c0,.05-.19.17-.12.36l.72.49c1.25.02.15-3.23-.06-3.8-.14-.39.13-.64-.54-.53ZM464.02,219.73c-.27-.34-1.35,1.31-1.45,1.56l1.09,1.07c.54.02.33-2.18.36-2.63Z"/>
      <path d="M62.83,202.78c1.13,1.07.97,2.86.27,4.08-.57,1-2.99,3.56-3.91,4.48-1.26,1.25-2.91,2.51-4.29,3.65-.36,2.49-.88,5.02-1.03,7.54-.02.37.17.74.16,1.15-.02.9-.55,1.75,0,2.77.3.23,1.23-.84,1.43-1.08,1.3-1.54,3.8-5.36,4.25-7.26.35-1.46-.14-2.87.95-4.13l1.04.13c-.68,2.61-1.3,5.35-.96,8.03.63.13.41-.16.59-.47,2-3.41,5.33-9.77,10.09-9.13,1.09.15,2.71,2.48,2.93,3.54.48,2.3-1.03,3.16-2.1,4.86.37.27,2.34-.41,2.87-.6,1.75-.65,3.1-1.82,4.43-3,.35-2.87,1.61-5.36,2.51-8.04l-.43-.42c.71-1.15,1.63-4.94,3.21-4.94,2.52.49,2.18,4.98,1.55,6.81-.36,1.04-1.81,3.3-2.53,4.19-1.34,1.66-3.41,2.54-3.46,5.05,1.33-.62,1.46.96,2.23,1.6,1.11.93,3.76.71,4.36-.64.25-.56.06-1.34.31-2.09.29-.91,2.84-3.95,3.73-4.43,1.9-1.03,3.33-.21,2.42,1.94s-2.19,2.66-3.57,4.1-2.71,3.53-.58,4.89c2.84,1.82,5.72-.65,7.41-2.86,1.56-2.03.83-4.24,1.27-6.65.32-1.75,1.67-3.34,2-4.97.18-.87-.16-1.2-.13-1.8.03-.48,2.24-4.5,2.56-4.7,1.92-1.18,2.07,1.84,2.1,3.01.06,2.65-1.24,7.31-2.4,9.69-.55,1.13-2.3,2.86-2.49,3.99-.3,1.73.41,2.88.95,4.42.32.24,1.75-1.19,1.91-.36l-1.55,1.98c-1.64-.58-2.83-2.27-2.76-4.02-.35-.09-.31,0-.48.15-1,.87-1.74,2.19-2.8,2.93-2.95,2.06-7.78,1.66-8-2.6-1.68.26-2.93.38-4.56-.24v5.64c-.15,3.5.7,6.74.17,10.24-.14.95-.36,3.67-1.69,3.28-1.54-1.8-2.1-4.48-2.08-6.81l-.48-.12c-.09,1.12-1.21.57-1.99.77-2.32.59-5.19,2.76-7.86,3.66-1.31.44-3.27,1.13-4.55.85-1.59,4.83-3.67,9.7-3.84,14.87l.74-.15c.6-1.5,2.65-2.47,3.94-3.45,1.82-1.38,3.79-3.46,6.27-3.58.65-.03,1.97.33.98.76-.68.3-1.34.37-2.1.78-1.96,1.03-9.02,5.99-9.53,7.98-.66,2.55.53,3.2,2.83,2.83s11.43-6.14,13.19-7.92c1.29-1.3,1.28-2.22.24-3.72,1.78-.36,2.02,1.54,1.92,2.87,1.64.04,1.46-1.85,1.79-2.88.9-2.85,1.72-4,3.1-6.5.53-.96.68-2.03,1.35-2.97,1.25-1.75,4.42-3.44,6.47-2.15.48.3,1.49,1.65,1.55,2.23.37,3.12-3.09,5.88-5.27,7.7-1.51,1.26-4.4,2.92-5.64,4.2-.78.81-.76,1.32-.71,2.4.11,2.31,1.19,6.42,4.18,6.12.76-.08,1.83-.92,2.78-.71.13.64-.16.41-.47.6-1.77,1.04-2.91,1.55-4.89.57-2.81-1.39-2.65-4.7-2.91-7.41-3.56,2.05-6.92,4.53-10.51,6.52-2.15,1.19-5.71,3.34-8.15,2.78-1.95-.45-2.43-2.13-2.58-3.9-.56-6.76,2.03-14.31,5.07-20.24h.53c.36.14.5.64,1,.69.78.08,4.14-1.24,5.08-1.64,2.42-1.02,5.67-3.8,8.23-2.44-.26-5.29.22-10.56.72-15.83-.77.05-.82.88-1.46,1.3-1.62,1.07-4.22,1.76-6.14,2.04-.47.07-.96-.17-1.29-.08-1.04.3-3.26,2.29-4.79,2.85-1.22.45-2.56.85-3.83.37-.06,1.4-.22,2.52,1.2,3.24.07.74-1.3.31-1.57.13-1.01-.65-.88-3.52-1.12-4.64-.26-1.23-1.38-2.33-.67-3.77-.42-.08-.62.2-.82.5-1.11,1.68-1.57,3.1-2.98,4.93-.32.42-.48,1.12-.76,1.39-.76.74-1.72.35-2.04-.58-.44-1.26-.2-5.58-.11-7.08.03-.54.59-3.34.48-3.48l-2.39,1.56c-4.93,2.88-5.27-2.4-4.77-5.97.32-2.34,1.41-4.37,1.71-6.69.35-.8,1.03-1.01,1.86-.9v.72s-.96-.48-.96-.48c.03.49,0,.97-.11,1.45-.5,2.23-.88,4.05-1.06,6.37-.16,1.98-.65,5.95,2.45,4.36.76-.39,3.5-2.22,3.86-2.85.64-1.13.88-3.61,1.54-5.18s3.39-6.49,4.97-6.79c.71-.14,1.93.31,2.44.79ZM60.43,208.63c1.17-2.16,3.15-2.54,1.75-5.45l-2.4.36c-.32.85-1.07,1.41-1.48,2.12-.43.75-.74,2.09-1.14,2.63-.44.58-1.9.81-1.69,2.09l.72-.24-.48,2.64,4.72-4.15ZM81.38,215.65c3.11-2.62,6.46-6.98,3.72-11.03-.15,0-1.6,2.04-1.74,2.34-.49,1.09-1.65,5.26-1.88,6.52-.13.73-.13,1.44-.1,2.17ZM103.21,205.82c-.57-.13-.39.1-.53.31-2.03,2.93-2.13,7.08-3.29,10.37l.11,2.74c2.42-4.01,4.41-8.63,3.72-13.42ZM64.44,218.39c-.4.59-2.26,4.77-2.24,5.32,0,.3.1.45.39.54,1.39.48,6.42-1.85,6.75-3.01.19-.67-.24-1.51.41-1.98l1.2.96c1.83-1.05,2.88-2.78,1.99-4.87-.05-.11-1.58-1.63-1.69-1.68-1.11-.53-2.68.66-3.51,1.41-.49.44-3.04,2.95-3.29,3.31ZM92.17,215.65c-2.31-.13-3.09,2.27-3.59,4.08.45-.32,4.07-3.64,3.59-4.08ZM81.14,240.35c-.11-1.3.76-2.73.84-3.95.23-3.15-.29-10.74-.87-13.89-.09-.48-.17-1.01-.57-1.34-.43.29-.34.63-.37,1.06-.37,5.06-1.2,12.89.38,17.64.14.41.01.57.59.48ZM81.62,250.18l3.58-2.29c1.94-1.84,7.08-5.05,6.49-8.13-.23-1.19-1.71-1.43-2.73-1.31-1.23.15-2.11,1.14-3.22,1.24-1.37,3.51-3.71,6.65-4.12,10.49Z"/>
      <path d="M266.09,277.05l.21,1.3-.91,9.71c.99.16,1.41-.77,2.08-1.16.63-.37,1.51-.63,2.06-1,3.01-2.05,6.15-7.57,10.42-5.79.66.27,1.51.86,1,1.69-.23.38-6.89,3.16-8,3.87-.69.44-1.23.78-1.55,1.57-1.23,3-1.34,8.05.02,11,.5,1.07,2.53,4.3,3.82,3.89.47-.15,3.62-2.64,3.88-3.09,1.53-2.58-1.66-10.15,3.89-9.27,1.04.17,2.29,1.29,2.74,2.22l-4.42,5.9c-.29,1.41-.15,2.74.43,4.03.35.27.76.32,1.2.26,1.83-.24,4.15-1.29,6.09-1.61,1.26-.21,3.34-.45,4.41.21.27-3.14.3-6.27-.64-9.31-.21-.67-2.13-3.62-.2-3.41,1.22.13,1.06,3.01,3.38,3.35,1.25.18,3.71-.94,4.67-1.78.87-.76,1.1-1.87,1.81-2.74,2.06-2.53,6.47-2.01,2.74,1.54-.7.67-3.78,2.27-1.91,3.34,2.58,1.48,6.9-1.85,9.95-2.02,4.96-.28,1.59,3.22-1.31,3.97-2,.52-3.06.65-5.02,1.7-1.49.8-2.72,1.46-3.63,2.97.95.01,1.66-.75,2.58-.9,2.54-.41,2.71,1.6,4.4,2.44,2.14,1.06,5.92,1.9,7.98.36.73-.54-.06-2.34-.09-3.21-.12-3.25,2.52-8.32,5.29-10.05,1.12-.7,3.11-.69,3.48.81.48,1.95-1.7,6.74-2.81,8.49-.65,1.02-1.92,2.3-2.72,3.28-.69,1.45,1.75.8,2.45.53,1.89-.72,5.4-4.34,6.35-6.12.28-.52.23-1.86,1.03-1.86,1.73,0,.21,3.34.12,4.21-.48,4.47.26,8.19,5.04,4.56,3.55-2.69,4.58-5.62,7.19-8.64.34-.39.79-.75,1.32-.84.33.23.39.42.37.82-.04.58-1.09,2.5-1.33,3.49-.57,2.4-.86,5.54-.24,7.93.49,1.86,1.11,2.54,3.12,1.91.42.58-.2,1.02-.7,1.22-4.28,1.74-5.02-6.76-4.22-9.37-.27-.31-3.37,3.53-3.71,3.85-.46.43-2.46,2.18-2.88,2.4-.38.2-1.54.44-1.96.44-3.55,0-4.17-4.16-3.93-6.93-.47.31-.66.97-1.07,1.44-1.57,1.78-4.44,3.97-6.95,3.58-.59-.09-.96-.53-1.69-.49s-1.58.93-2.44,1.13c-2.6.6-6.24-.2-8.36-1.83-1.71-1.32-1.76-3.31-4.37-1.73-.94.57-1.4,1.6-2.78,1.45l-.52-.44c-.73-3.41,3.56-4.65,5.4-6.71-2.31.6-4.64.15-5.66-2.18-1.94.92-3.77,2.18-6.1,1.94-.19.18.26,4.38.26,5.16,0,1.39-.07,4.3-.57,5.44-.31.71-.64,1.89-1.51,1.17-1.2-.99,1.38-3.06-.95-3.37-3.6.17-6.93,1.58-10.49,2.09-1.12-.17-1.91-2.78-1.86-3.78-2.48,1.36-3.69,5.13-7,2.63-3.09-2.33-4.35-7.93-4.03-11.62.11-1.3.84-2.24.95-3.48l-2.62,1.57c-1.49,1.17-1.29,1.76-1.23,3.59.12,3.09.81,6.24.23,9.32-.37,1.95-1.38,2.02-3.2,1.8-1.99-.24-4.24-1.8-5.78-3.1-.42-.36-2.53-2.39-2.53-2.76,2.54-3.6,6.38-5.76,9.49-8.77-.13-3.41.32-6.87.6-10.29-2.26.66-4.3.85-6.61,1.08-1.04.1-1.73.82-2.85-.14l-.62.62c1.75,3.91-.81.95-2.14-.01.89-2.16,6.02-1.96,8.01-2.31.88-.15,5.21-1.58,5.65-1.16ZM325.59,288.07c-.43-.46-2.47,1.2-2.85,1.58-.44.44-2.05,2.55-2.24,3.03-.22.55-.6,5.47-.42,5.69.55.14.39-.1.55-.3,2.3-2.98,4.76-6.1,4.97-10.01ZM281.22,295.98l2.86-3.51c-2.85-4.3-3.99.95-2.86,3.51ZM313.84,290.95c-1.44.42-3.58.8-4.56,1.91,1.48-.58,3.59-.53,4.56-1.91ZM264.13,302.64c.79-.45.57-4.99.53-6.06-.06-1.65-.73-3.54-.24-5.16-3.06,1.7-5.56,4.27-8.15,6.59,0,.15,1.98,1.8,2.28,2.03.97.75,3.26,2.38,4.37,2.58.35.06.92.17,1.21,0Z"/>
      <path d="M501.84,285.11c-.64.72-1.27,1.54-1.95,2.25-.5.53-1.85,1.27-2.22,1.74-.4.51-1.44,3.08-.79,3.53.78-.25,1.27-.53,2.11-.19l1.64,3.04c.68.1,1.35.07,2.02-.07.98-.21,4.3-2.34,4.94-3.09,1.11-1.29,1.95-3.91,3.74-4.53,1.11-.38,1.73-.34,1.62,1.01l.34-.02c1.81-.84,2.96-2.26,5.12-2.81.39-.1.8.13,1.21.03,1.17-.28.98-.92,2.66-.17s1.23,2.85,2.17,4.15c-.9.02-.44,1.36-.59,1.93-.33,1.26-2.63,4.17-3.56,5.2-.66.73-4.25,3.32-3.51,4.39,1.81.42,3.72-1.54,5.15-2.64,2.65-2.05,4.85-4.53,7.19-6.74.18-.17.54.03.57-.01.4-.47,1.08-2.43,1.61-3.06.76-.93,1.49-.7,2.51-.49v.95s-.6-.48-.6-.48c-.51.29-.43,1.04-.67,1.37s-.58.1-.88.93c-.31.88-.03,5.37.47,5.86.42.41.4-.15.5-.34.62-1.22,1.36-3.09,1.52-4.42.09-.71-.53-.92.61-1.23-.06,2.09-.55,4.17-1.12,6.19-.09.32-1.09,1.62-.2,1.48,2.93-.45,3.58-3.25,5.83-4.6.13-.21-.66-3.33-.58-4.04.23-2.02,2.91-8,4.23-9.71.39-.5.83-.61,1.12-.9.07-.07-.31-.84.55-.42v-.96s.48.48.48.48c.46-1.74,2.66-2.08,2.64,0l-1.91-.72c-.49.67-.85,1.6-1.22,2.21-.66,1.08-1.08,1.47-1.9,2.27-.19.18-1.16,1.11-1.18,1.2-.14.45.37.99.36,1.41,0,.34-.46.83-.57,1.27-.47,1.96-.46,3.81-.77,5.8.44.02.25-.64.54-.9,1.09-.96,2.52-1.64,3.45-3.02.15-.22.09-.65.31-1.01.36-.59,1.32-.93.94-.03-.27.63-1.62,1.29-1.16,1.83h-.73c.56,1.22-.29,1.68-.96,2.52l.72.6-.72.48,1.32-.3c1.89-.94,4.43-1.03,6.72-1.83,1.32-.46,2.15-1.61,3.44-2.1,3.23-1.23,4.55.31,2.84,3.32-.41.72-1.42.83-1.12,1.87l-.44-.21-.55,1.13-.44-.21.48.72c-.74-.05-1.26.27-1.56.98-.13.3.13.64.1.68-.13.19-1.58.26-1.42.98l-.71-.48.72.72-.48.47c1.19-.06,1.23,1.35,2.47,1.11.6-.11,2.54-1.2,3.11-1.58.25-.17,1.02-.83,1.37-1.11,1.79-1.43,3.05-3.99,4.71-6.07.37-.46,1.41-1.96,1.9-1.96l.83.96c-.3.03-.51.15-.68.4-1.24,1.76-2.19,3.89-2.51,5.69-.15.86-.39,1.64-.41,2.55.37-.08.91.23,1.22.11.17-.06,2.65-2.12,2.86-2.39.67-.85.38-1.28.62-1.78.27-.56,1.71-3.5,2.5-2.9l-.48.71.7-.02c.13-.47.14-.99.74-.94l-.48-.35,1.2-1.32c-.02.59,0,1.29-.2,1.85-.25.72-1.23,2.07-1.59,2.96-.12.29.1.61-.02.93-.18.49-.88,1.34-1.01,1.88-.14.57.19,3.15.49,3.58l3.53,1.63c-3.16,1.92-5.28-.95-6.36-3.71-.15.73-.65.34-1.01.54-.31.17-.58,1-1.55,1.21-.45.1-1.61-.11-2.02-.29-.9-.41-.79-1.05-1.08-1.76-.13-.32-.66,0-.22-.91-1.19.06-1.11,1.01-1.49,1.38-.41.41-1.2-.06-.91,1.26-1.78-.21-2.72,1.95-4.77,1.25l-.27.42-.03-.43c-1.35.33-2.39-1.56-3.49-2.18l-.56.09c-.27.98-1.88,1.28-2.7,1.05-.41-.12-.68-.68-1.02-.94-.21-.16-.53.02-.57-.03-.5-.63-.72-2.12-1.27-2.92-.22-.32-.59-.41-.79-.65-.57-.67-.72-1.9-2.13-.47-1.54,1.56-3.2,3.35-5.18,4.71-.15.1-.2.45-.3.52-.28.16-2.21.09-2.65,0-2.65-.53-2.26-4.35-2.4-6.37-.02-.31.3-.62-.29-.53-.22.16-.24.49-.45.65-3.29,2.47-7.25,7.27-11.19,8.61-.24.08-.37.53-.82.56-.91.06-2-.9-2.41-1.66-1.63,1.63-5.11,1.17-6.83-.14-1.23-.94-1.76-4.1-1.69-5.62-1.75.42-3.09,1.96-5.04,1.44l.24.72-.48-.12c-.24,1.46.48,8.1-2.23,7.27-.67-.2-1.98-4.07-2.26-4.94-.82-2.6-1.23-5.26-1.51-7.96-.42-.11-.48.18-.72.36-.88.66-4.25,3.57-4.81,4.31-.21.27-.37,1.61-1.07.61-.86-1.23.7-1.65.95-1.93.54-.61,1.22-1.91,1.92-2.64.83-.86,3.1-2.36,3.55-3.42.24-.56-.09-1.45,0-2.13.36-2.62.97-6.17,2.47-8.34.6-.86,3.53-4.31,4.24-4.64.4-.18,1.53-.45,1.96-.41.63.06,2.64,1.34,2.77,2.04.63,3.37-2.34,6.58-4.4,8.9ZM504.22,280.54c1.63-2.35,1.74-5.17-1.94-4.96-.98.06-.96.79-1.55,1.35-1.25,1.18-2.67,2.2-3.3,3.9l-1.02,7.25c.41.11.48-.17.72-.36,2.01-1.56,5.69-5.13,7.1-7.17ZM521.81,286.91c-.07-.06-1.65-.21-1.91-.17-1.29.17-3.75,2.24-4.86,3.01-.14.1-.18.31-.17.48l-.47-.72c-.65,1.14-2.05,1.83-3,2.87-1.12,1.23-2.16,3.05-2.21,4.75-.11,3.39,2.76,5.09,5.45,2.81.37-.32.94-1.22,1.01-1.26.29-.16.89-.07,1.57-.46.13-.07,1.95-1.81,2.1-1.99.74-.88,1.65-2.21,1.79-3.37l.48.24c.19-1.44,1.24-3.45.98-4.92-.1-.54-.48-.45-.66-.68-.12-.16-.02-.53-.09-.6ZM556.62,289.27c-2.01-.21-2.22,1.07-3.36,2.28l.48.11-.24,1.2c.74-.32,1.41-.95,1.92-1.56.15-.18,1.3-1.95,1.2-2.04ZM549.36,291.5c-.84-.2-2.47,1.15-3.23,1.65l.17.43c-1.33-.31-2.07.93-.48.48-.63,1.07.79.11,1.13.05.8-.13,1.65-.03,2.44-.32l.03-1.41.48.24v-.84s-.43.05-.43.05c-.06-.09-.07-.32-.12-.33ZM548.93,294.31c-.78-.24-.61.36-1.01.54-.57.27-2.97.84-3.06,1.25-.1.48.51.44.65.66.29.45.19,1.44.79,1.73,1.59.78,2.04-.49,3.08-1.13l-.45-3.07ZM499.28,302.22c-.15-1.57.64-3.54.14-5.05-.2-.61-2.01-1.8-2.53-2.38l1.69,7.43h.71Z"/>
      <path d="M467.38,261.57c0-.13.36-.44.24-.72-.58-.47-.69.63-.96.96-1.63,1.98-3.62,4.73-5.39,6.12-.95.74-1.64.75-2.61-.04-1.57-1.26-1.17-5.57-1.59-7.4l-6.17,4.79c-2.65,1.43-5.86,1.31-6.78-1.91l-3.05,1.73-.79,2.83c-1.49-.15-2.41-.75-2.98-2.18-.67-1.7-.95-4.33-.86-6.1s-1.28.57-1.51.77c-.45.4-1.6,1.43-2.04,1.75-.73.53-3.48,1.8-3.77,2.4-.54,1.1.42,3.18.07,3.79-.21.37-1.23.74-1.65.19-.71-.94.07-3.73-.11-4.23-.12-.34-2.02-1.6-2.27-1.42-.2.76-.61,1.56-1.01,2.23-1.08,1.82-3.71,6.23-5.7,6.77s-3.83-.81-5.24-2.09c-.04-1.36-.81-2.34-.53-3.79-2.02.95-4.18,1.86-6.48,1.68.64.68,2,.96,2.88.96.02.36.07,1.07-.38,1.18-1.3.3-7.07-3.61-7.87-4.8-1.63-2.43-.67-5.27-.15-7.88-1.64.49-2.88.94-4.66.7-.58-.08-1.11-.65-1.8-.46-.62,1.52.02,3.01,0,4.42,0,.9-.9,4.93-1.35,5.62-1.06,1.66-1.89.3-1.78-1.3.15-2.28,1.49-6.04,1.45-7.92-.03-1.49-1.41-3.77-1.23-4.79.09-.5.3-.67.84-.62.89.1.53,1.09,1.33.97.2-.83.6-5.04-.14-5.26-1.52-.45-5.84,5.47-6.99,6.52-.2.38-.05.77.05,1.15.25.92.89.9,1.08,1.67-2.73-.35-2.7-3.2-1.32-5.03,1.15-1.52,3.48-4.12,5.07-5.24.95-.67,1.88-1.33,2.95-.63,2.16,1.42.72,6.4.72,8.58,2.41,1.58,5.44.24,7.45-1.39,1.17-.95,3.75-4.56,5.27-4.11.21.06.65.32.7.53.02.09-.46,1.65-.51,1.72-.09.11-.56.09-.79.28-1.13.92-2.83,2.19-3.72,3.25-.23.27-.58.39-.48.84,2.95-2.34,5.08-4.54,9.21-4.05,2.16.26,4.8,2.08,5.86,3.98,1.45,2.6.37,3.69-.91,5.96l-3.6,2.87c.97.56.55,1.35.77,2.1.37,1.28,2.21,3.08,3.66,2.82.18-.03,2.43-2.15,2.65-2.4,1.34-1.57,2.83-4.52,3.6-6.47.19-.48,0-1.08.17-1.51.73-1.87,1.73-3.65,2.32-5.59,3.7-.7,2.76,5.59,2.65,7.8.06.07.92-.19,1.12-.32,1.92-1.27,3.86-3.58,5.84-4.89,1.41-4.05,1.55-8.94,4.21-12.5,1.14-1.53,2.1-2.31,2.67.16.62,2.71-.48,6.22-1.85,8.58-.34.59-1.02,1.07-1.42,1.71-.07.11-.35,1.23-.4,1.28-.35.33-1.06.13-1.08,1.06,2.17.85,2.96,3.29,3.13,5.41,2.87-.39,1.96-1.92,2.16-3.95s2.77-6.56,4.56-7.67c1.29-.79,2.67-.48,4,.06,2.34.95,2.07,3.14.68,4.87s-4.1,4.06-5.73,5.42c-.8.67-2.04.58-1.47,1.76.65,1.34,3.26,1.56,4.36.89.15-.09.27-.5.6-.71,1.34-.85,3.35-1.94,4.52-2.92.76-.64,2.55-3.34,3.1-3.62.27-.14.53-.17.82-.1.94.6.08,1.46-.03,2.08-.45,2.48-.07,5.31.69,7.71l1.12-.14c2.51-2.57,4.69-5.18,6.69-8.19.58-.87,1.95-4.47,3.3-4.1.83.23-.16,2.12-.35,2.67-.06.17-.39.17-.44.37-.34,1.26-1.25,5.77-1.16,6.84.16,1.99,1.99,1.86,3.54,1.37v1.04s-1.2.4-1.2.4l.24.48c-.97.42-4.08-.76-4.08-1.8,0-1.27-.07-2.57,0-3.84ZM439.06,253.78c1.38-2.22,2.79-4.59,2.9-7.31.02-.54.11-1.18-.37-1.56.08,1.16-.51,1.13-.92,1.94-.86,1.71-1.27,4.09-1.65,5.79-.08.36-.19.72-.42,1.02l.47.11ZM451.95,252.41c-.78-.63-3.3-.12-3.94.47-.21.19-.16.6-.37.83-1.21,1.29-1.77,2.25-2.28,4.08-.12.45-.51,2.33.07,2.46.49.11,5.52-4.41,6.11-5.16.62-.8,1.47-1.83.42-2.68ZM417.33,258.74c-.71-1.73-1.09-2.69-2.74-3.87-5.68-4.05-15.09,4.26-10.88,10.16.26.37.86.97,1.29,1.11.63.2,3.49-.14,4.28-.3,3.27-.66,6.77-4.13,8.45-6.91.02-.13-.35-.09-.39-.19ZM427.79,260.49v-3.48c0-.14-.56-.5-.72-.36-.23,1.93-1.29,1.91.17,3.53.14.16-.02.46.55.31ZM438.35,259.29c.29,1.52-.68,3.89,1.08,4.55.94-.06.15-3.81-.25-4.3-.27-.33-.44-.27-.83-.25Z"/>
      <path d="M365.42,295.74c-.56-.27-1.89-.83-1.91-1.55-.01-.55,2.45-4.23,2.91-5.24,1.14-2.48,2.78-7.17,2-9.76-1.14-3.76-2.73.65-3.53,2-.24.4-1.13,1.21-1.15,1.29-.28,1.32.37,3.46.2,4.45-.12.71-.94,1.03-1.11,1.55-.81,2.46-1.69,9.21-1.2,11.64.61,3.01,3.8,2.11,5.55.62,3.66-3.14,2.93-5.55,4.83-9.32.44-.88,1.39-2.65,2.25-1.29.58.91-.14,3.22-.51,4.23-.93,2.52-2.69,3.55-1.51,6.66.93,2.44,3.72.61,5.04-.48.36-.3,2.12-2.05,2.29-2.33.47-.78.49-3.48.83-4.63.28-.94,1.34-3.57,2.42-3.59,2.24-.05.8,3.81.34,4.92-.87,2.09-2.17,2.78-1.15,5.46,1.6,4.23,6.38-.84,7.99-2.67-.32-2.02-.5-4.09-.36-6.15.11-1.6.95-6.67,1.49-8.1.28-.73,1.86-3.58,2.33-4.07.99-1.02,3.55-.93,4.49.14,3.32,3.77-.16,10.74-2.51,14.25-.77,1.15-3.52,3.75-3.41,4.95.08.89,1.16,1.96,1.74,2.63,1.56.57,4.4-2.33,5.34-3.44,2.86-3.35,1.78-7.25,3.19-11.2.55-1.55,2.73-5.44,3.96-6.47,1.63-1.37,4.18.12,4.02,2.2-.09,1.16-2.19,4.97-2.9,6.18-.86,1.45-2.69,3.47-3.45,4.97-.1.2.15.54.07.67-.11.17-.93.29-1.11.94-.54,1.84,1.58,6.71,3.78,5.7,1.99-.91.51-2.65.51-4.05.01-3.43,2.69-8.66,6.21-9.63,1.1-.3,2.38,1.08,2.38,2.14,0,1.95-2.09,5.68-3.24,7.33-.16.22-.6.31-.72.5-.15.24.14.59.09.68-.11.2-2.13.98-1.16,1.83.06.05,1.49.29,1.6.29,1.58.01,4.17-2.2,5.07-3.43,1.48-2.03,2.01-4.52,2.93-6.8l1.37.59c-.22,1.97-1.43,3.83-1.62,5.77-.32,3.18-.1,5.29,3.03,2.67,1.02-.85,3.35-3.3,4.16-4.35.74-.96,2.21-5.28,3.47-4.91.23.16.34.31.37.6.11,1.01-1.98,4.34-2.17,5.99-.09.77-.08,2.32.06,3.06.1.55,1.51,2.93,1.38,3.05-1.75.12-1.92.18-2.59-1.37-.53-1.23-1-2.83-.53-4.14l-3.48,3.12c-.94,1.39-2.19,2.59-3.96,1.8s-1.24-3.67-1.8-3.71c-2.25,2.14-3.37,4.15-6.94,3.58-.68-.11-1.26-.77-1.92-.71-1.23.12-1.81,2.3-4.08,1.91-.63-.11-1.9-1.27-2.29-1.79-.69-.91-1.06-2.55-1.57-3.22-.19-.24-.25-.32-.58-.25-.3,1.05-4.32,5.23-5.02,5.41-2.71.71-4.01-.75-4.97-3.03-.41,0-.72.18-1.05.39-1.54,1.01-2.31,2.66-4.23,3.22-3.21.95-4.59-.75-5.49-3.59-2.64,2.59-6.38,7.11-9.29,2.09l-.55-1.85c-1.21,1.71-3.21,3.62-5.34,4.02-.9.17-1.62-.19-2.44.08-.15.91.15,2.04-.08,2.92-.12.45-.73.96-.95,1.45-.72,1.64-.01,8-.18,10.37-.03.46-.14.87-.25,1.31-.52.07-.87-.4-.95-.84.05-3.42-.38-6.85-.4-10.26-.01-2.95.37-5.97.41-8.91.06-3.78.5-7.18,1.24-10.98.67-3.48,1.8-7.28,3.5-10.41.77-1.43,2.72-3.8,4.23-1.99,2.42,2.91.43,9.33-.96,12.45-.99,2.22-2.84,4.01-2.51,6.48ZM395.1,279.96c-.34.1-1.1.98-1.33,1.32-1.58,2.29-2.25,7.9-2.42,10.74-.04.61-.21,4.45.34,4.44,2.9-3.25,6.45-8.34,6.6-12.84.05-1.56-1.35-4.2-3.19-3.66ZM409.04,281.64c-2.32-1.57-3.94,2.61-4.6,4.33-.52,1.36-1.44,4.28-1.53,5.88-.03.45-.21.68.3,1,.91-1.63,6.66-9.84,5.84-11.22ZM410.67,296.85c.92-1.15,4-5.94,3.92-7.21-.06-.9-.5-1.25-1.27-.82-3.43,1.93-4.42,5.56-4.24,9.31.23.26,1.39-1.04,1.59-1.28Z"/>
      <path d="M258.66,201.02c-1.05-.74-4.89.58-5.24,1.6-.39,1.14.54,3.17-.64,4.16l-.14-.7h-.91c-1.05,4.79-3.91,9.6-3.11,14.57.46.76,4.27-.24,5.06-.51.84-.29,4.17-1.95,4.73-2.46.65-.6,1.6-3.39,2.13-4.35.32-.58,1.88-3.48,2.67-2.94l.62,1.66c.68.85,1.35-.72,1.91-1.2,2.66-2.31,5.93-3.11,7.2.97.69,2.2.38,4.32-.97,6.21-1.04,1.47-2.46,1.78-1.97,4.16.88,4.29,5.83,1.07,7.79-.61.6-3.87,1.79-7.64,3.2-11.27.42-1.09.9-2.56,1.38-3.71.12-.29,1.25-2.39,1.35-2.49.26-.23,2.06-1.17,2.42-1.16.9.02,2.12,1.74,2.26,2.5.54,2.92-.56,6.74-1.9,9.35-.72,1.42-3.13,3.71-4.21,5.14-.18.24-.47.3-.36.72,1.49.63,6.36-2.51,6.83-3.6.21-.49.08-1.06.31-1.61.39-.97,3.15-3.43,4.15-3.76,1.55-.51,3,.05,2.27,1.78-.4.94-2.35,2.8-3.19,3.6-.89.85-3.02,2.06-3.29,3.11-.93,3.59.95,5.34,4.28,3.56.67-.36,3.9-2.76,4.25-3.25.81-1.14.56-3.1.82-4.39.45-2.25,2.2-5.01,3.09-7.22.57-1.43.35-2.17,1.6-3.68,1.62-1.95,4-2.95,4.33.47.43,4.45-1.79,8.61-4.57,11.93-.62.74-3.11,2.83-3.31,3.47s.1,2.94.3,3.68c.27,1.06.99,1.87,1.33,2.86-2.56.1-3.13-3.01-3.36-5.03-1.5.63-2.39,2.04-3.83,2.77-4.14,2.1-7.55.29-6.73-4.44-1.99.63-3.37,2.21-5.61,1.89-.21.15-.29,4.46-.29,5.14,0,1.89.54,2.04-.16,4.29-.39,1.25-1.85,5.21-3.53,4.39-2.08-1.01-.27-10.41-.24-12.59-2.35,1.22-4.06,2.92-6.81,1.65-1.66-.77-1.8-1.77-2.14-3.34-.05-.25.21-.32-.28-.23-.85.17-1.81,1.33-2.69,1.87-1.52.93-3.17,1.75-5,1.5-2.13-.3-3.26-3.45-2.51-5.28-2.42,1.1-8.58,4.31-10.72,1.61-1.06-1.34-.59-5.26-.2-6.89.86-3.64,2.46-7.15,3.96-10.54-.22-.26-3.78,3.82-4.07,4.2-2.64,3.43-3.64,6.04-4.3,10.33-.13.82.17,1.77-.39,2.49-.25-.1-.36-1.71-.37-2.03-.21-4.37.77-7.96,3.37-11.51,1.3-1.77,7.39-7.22,9.29-7.98,1.47-.58,4.51-1.31,4.13,1.14ZM285.7,204.66c-.29.08-1.15,1.01-1.34,1.32-.99,1.61-3.84,9.54-3.85,11.26,0,.54.16,1.15.57,1.52,3.75-2.84,6.6-8.28,5.86-13.05-.06-.37-.18-.72-.46-.98l-.79-.08ZM299.69,218.53c.43.09.58-.23.84-.47,2.59-2.34,5.28-6.42,5.63-9.96.07-.66.21-3.06-.6-3.23-.41-.07-.46.34-.65.54-1.68,1.83-3.07,5.28-3.85,7.66-.22.66-1.56,5.25-1.37,5.46ZM268.66,218.69c1.02-1.23.63-.6,1.63-1.37,2.19-1.69,1.94-9.16-2.63-5.99-1.27.88-4.44,4.53-4.86,5.93-.23.77-.99,5.17-.53,5.58.33.04.65,0,.97-.11.56-.19,5.05-3.58,5.43-4.04ZM291.05,215.65c.11.12,2.16-1.61,2.37-1.82.26-.25.61-.35.5-.82-1.11.59-2.69,1.21-2.87,2.64ZM260.82,218.77c-.85-.92-1.04,3.51-.95,3.95.12.63,1.02,1.47.93.27-.1-1.37-.55-2.88.02-4.22ZM278.34,234.35c.14.11.56-.43.65-.66.78-1.92,1.17-4.47,1.27-6.64.08-1.57-.06-3.13-.25-4.69-.16.1-.64.24-.67.29-.07.1-.45,2.13-.5,2.49-.32,2.05-.71,5.37-.76,7.41-.02.65.08,1.19.26,1.8Z"/>
      <path d="M473.38,177.52c.91-.91,2.42-1.97,3.73-1.21,2.08,1.2.39,3.18-.62,4.44-.58.72-3.65,3.67-3.79,4.14-.28.96.93,2.57,1.77,2.71,2.16.36,6.91-3.7,8.39-5.28.37-.39,1.57-1.72,1.78-2.09.33-.56-.26-1.29,1.47-.93,1.04.75-.98,7.55-.73,9.01l7.87-5.07c.18-2.35-.25-4.65-.79-6.92-.16-.66-1.37-2.77,0-2.89,1.11-.1,1.26,2.08,1.61,2.96,1.81,4.45,4.44,1.73,6.89-.66.59-.57.58-1.43,1.89-1.05.79,1.35-.31,2.36-.62,3.51s-1.01,3.72-1.03,4.73c0,.25.24,2.47.28,2.6.26.81,1.95.7,2.61.52,1.65-.44,4.4-3.44,5.51-4.8.67-.82.94-2.45,2.24-2,1.13.39-.26,1.89-.4,2.36-.34,1.15-.22,2.8-.87,3.97.65.17.11.61.76.89,1.31.57,7.16-2.71,8.78-3.22.22-3.68-.49-7.35-.92-10.99,2.15-.02,1.72,3.16,3.48,4.32,1.13.74,3.44-.32,4.52-1,.68-.43,1.58-1.83,1.89-1.96,1.17-.5,2.07.03,1.5,1.28-.1.21-1.94,2.25-2.36,2.8-.39.52-1.33.8-1.11,2,2.67.03,6.22-3.25,8.74-2.87.16.02,1.03.46,1.06.51.11.2-.76,2.59-.94,2.89-.39.65-3.47,3.31-4.14,3.72-.29.18-2.34.5-2.33.91.58.29,1.23,1.17,1.74,1.38.09.04,1.73.29,1.86.28,2.41-.09,4.48-1.52,6.71-2.27.61-.58-1.38-.66-1.44-.72v-.71c1.94-.45,4.59.75,2.48,2.6-1.03.9-5.61,2.86-6.98,3.1-1.46.26-2.68.05-3.89-.8-.6-.42-1.46-1.68-1.94-1.9-.6-.27-4.83.41-2.52-1.56,1.09-.93,1.87-.53,3.01-.83.37-.1,2.99-1.26,3.33-1.47.38-.24,3.35-3.29,3.14-3.45-2.65.07-5.95,3.59-8.47,2.83-.8-.24-1.3-2.05-1.13-2.83-1.47.56-2.66.06-4.08-.24.76,1.26.4,2.72.24,4.07l2.39-.72c-.05.37.23.77.22,1.09,0,.22-2.06,3.69-2.28,3.72-.71.12-1.41-.86-1.06-1.45-.19,0-.39-.02-.59,0-1.74.28-5.4,2.7-7.38,3.18-3.1.76-4.13-.79-4.15-3.67-2.55,3-8.17,6.03-9.22.1-.46-2.62.44-3.48.98-5.7.32-1.34-.95.21-1.4.52-1.41.98-2.65,1.66-4.4,1-.49,1.36.57,2.78.64,3.75.03.49-.23,1.18-.26,1.74s.33,3.42-1.11,2.09c-1.01-.93.18-2.91-1.29-2.78-.79.07-4.32,3.4-5.64,3.97-6.24,2.71-1.84-6-2.41-6.6-.97-.14-.87.73-1.21,1.06-1.78,1.75-6.24,5.52-8.74,5.42-2.19-.09-3.98-3.02-4.16-4.98-.1-1.08.81-1.96.45-2.84-.1-.26.12-.42-.39-.34l-5.58,4.91.53,1.08c1.06-.29,2.28-3.53,3.72-2.52-.44.57-2.3,2.63-2.4,3.13-.26,1.37,1.29,3.64,1.21,4.29-.02.14-.45.11-.49.29-.82,3.53-1.32,7.49-2.22,10.7-.69,2.45-1.78,3.93-3.78,1.25-1.6-2.14-1.75-5.32-.77-7.72.61-1.48,1.66-3.88,2.4-5.28.92-1.73,3.16-3.07.84-4.85-3.11,1.17-5.79.52-6.63-2.94-.79-3.24.79-8.69,2.05-11.77.62-1.52,1.43-2.9,3.3-2.57.26.26-.59,2.27-.78,2.69-.49,1.09-2.04,2.89-2.27,3.73-.52,1.97-1.14,5.55-.74,7.55.43,2.15,1.86,2.26,3.78,2.09.17-.97-.61-1.52-.85-2.38-.59-2.05-.69-3.86-.14-5.93.6-2.25,2.91-6.57,4.99-7.72,3.64-2.02,8.56,2.41,7.61,6.14-.22.86-.91,1.58-1.04,2.46ZM466.82,182.73c1.19-.88,4.37-4.2,5.21-5.46,1.66-2.47,1.97-5.07-.85-6.79-1.6-.98-2.66-1.05-4.27,0-3.44,2.24-4.81,8.44-3.49,12.08.24.67-.18,1.62,1.14,1.4.13-.02,2.06-1.08,2.26-1.23ZM476.49,177.53c-.47.01-1-.1-1.44.12-.1.05-1.39,1.39-1.54,1.57-.97,1.18-1.78,2.71-1.57,4.3.55-.39,1.11-.93,1.56-1.44.59-.67,2.39-2.82,2.77-3.47.23-.38.29-.65.23-1.09ZM466.42,193.47c.16-1.11,0-2.87,0-4.08,0-.04-.38-.42-.48-.36-2.2,4.04-5.19,8.37-3.73,13.19.13.41,1,2.24,1.56,1.68.3-2.43.98-4.82,1.56-7.2.23-.92.97-2.45,1.08-3.23Z"/>
      <path d="M113.09,294.12c.28-.16.68-.06.99-.02l.4.55c-1.47,1.74-1.95,9.91,1.03,9.9.9,0,4.55-2.04,5.1-2.79s.6-2.01.95-2.88c.96-2.4,2.51-6.34,5.77-5.07.58.77.5,1.15.21,1.92-.55,1.45,1.84-1.06,2.12-1.22,1.23-.73,5.47-2.63,6.77-2.61,1.44.03,3.79,1.16,4.68,2.3,1.43,1.84,1.22,3.11.21,5s-2.42,3.08-4.28,3.99c.04.29.3.45.58.46,1.07.04,7.11-1.34,8.3-1.78.4-.15.83-.21,1.09-.61-.3-1.85-.54-3.86-.97-5.76-.2-.9-1.69-4.25-.69-4.54,1.08-.32,1.27,1.19,1.77,1.79.46.56,2.6,1.83,3.29,1.98,5.37,1.12,4.47-7.48,9.9-5.93.26.37-1.31,3.03-1.67,3.47-1.06,1.3-3.87,2.19-3.49,3.96.44,2.03,3.2.71,4.46.13,3.8-1.76,7.33-4.83,11.18-6.57.83-.37,2.18-1.01,3.06-.71.56.23.49.93.27,1.4-1.76,1.53-2.95,4.83-5.52,5.06-.81.07-.53-.57-.71-.5-2.79,2.6-8.6,4.01-9.42,8.33-.76,3.97,2.65,5.4,6.01,4.09,1.98-.77,10.07-8.41,11.61-10.33.37-.47,1.67-3.98,2.13-4.02.2-.01.84.31.94.49.67,1.1-.7,2.16-1.01,3.06-.77,2.18-.88,7.82.01,9.93.84,1.99,1.59.32,2.86-.11.23-.08.61-.38.42.18-.22.66-1.21,1.96-1.9,2.18-4.24,1.33-3.58-6.83-3.97-9.24-1.73,1.88-3.65,3.54-5.53,5.27-.4.37-.6.89-.95,1.21-1.84,1.62-4.89,4.02-7.43,3.84-3.73-.27-4.4-3.23-5.83-6.07,1.07-2.87,3.4-4.56,5.47-6.63-1.19.3-2.12,1.32-3.34,1.57-2.41.49-4.42.04-4.33-2.77-2.2.53-4.19.6-5.99-.96-.23.32.45,4.64.64,5.24.5,1.62,2.28.76,2.12,2.66-.09,1.03-2.08,2.55-2.74,1.56-.61-.92.34-1.96-1.55-1.76-2.29.23-4.7,1.89-7.46,2.14-1.11.1-2.14-.26-3.05-.19-1.61.12-4.87,2.35-6.9,2.72-3.06.56-7.19-.58-7.21-4.21-1.13-.26-1.42.83-2.18,1.3-3.71,2.3-6.44,2.52-7.3-2.5-.8.02-1.15,2.09-1.79,2.76-2.8,2.97-3.9-5.1-3.6-6.72l-.48-.12c-.72,1.27-1.43,2.96-2.2,4.16-.95,1.49-3.57,5.24-4.83,6.23-.66.52-1.05.61-1.86.4-.35-.4,1.66-2.42,2.01-2.9,1.99-2.67,7.41-10.34,7.8-13.31.11-.85-.07-1.71.08-2.56.63-3.52,2.72-10.85,4.78-13.69.79-1.09,1.98-1.24,2.31.26.56,2.49-1.63,8.66-2.64,11.17-1.18,2.93-3.3,5.58-3.47,8.84-.06,1.07.33,6.25.7,6.99.12.24.22.48.54.41.18-.04,2.12-2.92,2.18-3.1.44-1.37.38-5.98,1.59-6.67ZM109.44,289.27c.89-2.91,2.35-5.61,3.05-8.58.14-.59.65-2.39-.05-2.69-.79,2.31-2.27,4.1-2.84,6.51-.32,1.34-.43,3.03-.62,4.42-.06.47.05.34.46.34ZM171.58,291.19l-1.81.71-6.11,3.84c1.53-.17,2.87-1.06,4.27-1.62.5-.2,1.12-.06,1.56-.32.36-.21,2.22-2.49,2.08-2.61ZM135.92,302.55c2.69-1.97,8.06-5.87,2.77-8.59-4.61-2.36-12.23,3.45-12.46,8.14-.02.41.2,2.46.3,2.82.68,2.38,5.89-.81,7.39-1.03.26-.3-2.91-4.93,1.68-3.59l-1.17.74c-.24.9.49,1.35,1.06,1.89.46.15.31-.28.44-.37ZM123.12,299.34c.39.41,2.5-2.38,2.7-2.7.22-.35,1.31-1.94.54-2.1-2.03.98-2.95,2.6-3.23,4.79ZM126.48,297.66c-.44-.1-.57.24-.84.48-.21.19-1.63,1.59-1.69,1.69-.15.25.14.59.09.68-.15.27-1.27.57-1.39,1.86-.22,2.21,3.3,3.93,3.11,3.34-1.71-2.5-.69-5.63.72-8.03Z"/>
      <path d="M401.64,221.29l-.6-.36c-1.65,1.61-6.23,5.78-8.28,3.23-1.31-1.63-.78-4.55,0-6.35-1.75.36-3.25,1.54-5.13,1.18-.5,3.11-1.7,5.41-4.22,7.33-1.37,1.05-3.85,1.76-5.15.34-4.07-4.48-1.69-8.95-.01-13.65.07-.2.28-.64,0-.72-1.07.32-2.1.9-3.18,1.13-1.3.28-4.66.1-5.33.67-1.06.89-2.32,6.92-1.22,7.68,2.69-.55,6.18,3.88,3.13,5.26-2.5,1.13-3.72-1.77-4.9-3.45-.5.25-1.06.19-1.58.32-1.07.27-5.57,1.65-6.3,2.09-.6.36-1.28,2.54-2.5,1.94-1.03-.5-.82-1.74-1.14-2.47-.95-2.13-2.12-3.37-1.21-6,.26-.76,1.28-1.34,1.2-2.15l-3.23,3.24c-1.33.71-3.06,3.03-4.67,2.76-.66-.11-1.1-1.13-1.88-.93-.65.17-1.07,1.3-1.55,1.65-1.53,1.16-4.74,2.38-6.65,2.41-2.1.02-1.9-1.09-3.1-2.44l-1.22-3.09c-.87,1.76-1.84,3.52-2.58,5.34-.23.57-.07,1.91-1.02,1.61-.39-.12-.36-.74-.38-1.07-.09-1.35,1.78-5.26,2.45-6.69.21-.45.87-.96,1.14-1.52.63-1.33,2.65-7.4,3.79-7.71,1.6-.43.4,2.84.12,3.49-.62,1.47-1.6,2.29-1.7,4.07-.05.9.11,2.43.58,3.2.24-4.31,7.86-12.56,12.18-11.7,1.26.25,2.66,1.9,2.82,3.18.25,2.08-.92,5.07-2.16,6.73-.3.4-1.3.75-1.21,1.19,1.19,1.14,2.94-.74,3.95-1.56,1.38-1.13,4.5-3.79,4.87-5.44.64-2.84,2.42-9.8,4.13-11.93.26-.32.9-1.04,1.31-1.07.64.11,1.25.27,1.47.93.08.23.02,2.35-.04,2.67-.36,2.15-2.11,5.35-3.22,7.3-.92,1.63-2.41,2.71-2.59,4.8,2.76,1.14,2.46,4.58,2.35,7.06.49.49,6.31-1.91,7.41-1.94-.08-2.64.18-6.43,1.84-8.59,1.46-1.91,2.27-1,4.3-1.22,1.26-.14,3.61-.74,4.81-1.19.79-.29,3.53-2.21,3.92-1.05-.04,1.65-1.54,3.17-2.18,4.71-.33.8-.59,1.7-.67,2.56,1.97-1.85,3.7-3.79,6.72-3,2.45.64,1.33,3.49,4.12,3.19.9-.1,3.6-1.35,4.35-1.9.99-.73,2.14-3.07,3.65-2.14.74,1.03-1.67,2.32-2.16,2.91-1.37,1.66-1.77,5.11-1.34,7.18.69.07,1.29-.11,1.92-.36,1.3-.52,5.79-3.82,6.58-4.93.72-1,2.16-6.36,4.12-4.8,1.42,1.13-2.06,4.46-2.59,5.85-.97,2.55-1.02,7.14.88,9.28.58.66,1.79.96,1.35,2.01-1.46.74-3.03-1.18-3.66-2.33-.14-.25-.92-2.08-.92-2.2v-4.56ZM357.74,211.81c.53.11.54-.26.73-.59,1.01-1.79,2.46-4.78,2.83-6.76.09-.46.39-1.21-.09-1.52-1.81,2.51-2.58,5.91-3.48,8.87ZM348.32,212.12c-2.29-2.23-5.33,1.42-7.55,2.15-1,2.57-2.93,4.14-3.82,6.85-.23.7-.87,2.46-.22,2.94,3.08,1.05,5.7-1.07,7.82-3.02l-.96-.24,2.07-3.7c.32-.09.64.08.83.33.32.42.01,1.41.46,1.22,1.13-1.43,2.96-4.99,1.37-6.53ZM384.3,223.49c.33-.38,1.27-1.99,1.46-2.5.79-2.13,1.01-4.65-1.51-5.58-.7.62-1.62.32-2.28.6-1.18.51-3.29,3.37-3.78,4.62-.71,1.81.33,5.37,2.67,5.08.74-.09,2.92-1.65,3.43-2.22ZM356.78,219.61c-.16,1.42.12,3.1,0,4.56l.73.25c.81-.62.13-4.72-.25-5.64-.25-.09-.47.74-.48.84ZM371.18,225.48c-.09-1.49-1.05-1.85-2.4-1.92.15,1.16,1.26,2.06,2.4,1.92Z"/>
      <path d="M382.49,135.37c.79-.46,1.6.61,1.51,1.42-.07.64-1.42,2.93-1.84,3.65-.93,1.62-1.44,1.8-1.37,4.13.02.51.99,2.66,1.77,2.49l10.11-10.99c.21-.06.43-.07.65,0,1.21.39,2.09,7.33,1.12,8.6,1.03.17,1.71-.22,2.56-.68.62-.33,2.96-2.16,3.33-2.66.73-.97-.24-3.71-.15-5.18.12-1.91,2.41-10.38,4.46-10.67,1.74-.25,2.6,2.35,2.74,3.73.36,3.51-.9,6.18-2.68,9.07-.45.73-1.48,1.31-1.4,2.32.34.35,6.16-3.02,7.14-3.29,1.13-.31,3.5-.87,3.65.8.06.66-1.54,4.57-2.03,5.14-1.83,2.13-3.9-.38-6.12-.49.35,5.17,4.31,6.02,8.04,2.88.29-.46-.3-1.14-.38-1.79-.27-2.11.92-4.13,2.52-5.4.19-.15,1.63-1.12,1.73-1.15.9-.26,2.83-.27,3.25.73,1.19,2.84-2.38,5.9-4.38,7.49-.16.66,1.31,1.02,1.8,1.07,1.97.2,5.24-1.05,7.2-1.67,1.81-.57,3.64-1.55,5.63-1.69-.24-1.84-.64-4.16-.21-5.96,1.36-.23,2.22,1.07,3.61,1.25,1,.13,2.68-.67,3.06.72-1.47,2.01-3.37,1.06-5.26.4.47.86.1,2.87.6,3.6.19.28.92.3,1.31.61,1.52,1.18-.25,3.26-.02,4.88-2.44,1.08-2.01-2.22-2.38-3.79-.8-.77-7.55,2.08-8.91,2.46-1.45.4-4.13,1.13-5.54.83-.8-.17-2.34-1.46-2.91-1.4-4.84,4.86-10.91,1.7-10.45-5.02-.68.23-1.91-.12-2.46.04s-3.14,2.91-4.18,3.51c-1.5.87-3.26,1.65-4.63.17-1.81-1.97-1.8-3.84-1.44-6.35-1.62,1.69-3.15,3.5-4.68,5.27-1.42,1.65-2.68,4.58-5.27,4.07-1.28-.25-2.91-3.72-2.29-5.03-.28-.28-3.24,1.78-3.84,2.04-3,1.29-5.07.28-5.52-3-1.61,2.1-3.53,5.14-6.6,4.8-2.11-.23-3.01-3.6-3.88-3.82-.68-.18-1.06.83-1.7,1.11-1.77.79-5.5.46-6.7-1.21-.78-1.09.03-1.62.91-2.18,1.58-1,4.17-2.16,6.04-1.77.63.13,1.61,1.14,2.07.88l4.82-7.77-4.02,1.99c-3.15.03-4.88-3.31-4.38-6.19-.6.42-1.45,2.34-1.45,3,0,1.22,1.27,1.39,1.21,2.52-3-1.16-3.03-2.18-1.97-4.97.32-.86,3.61-6.43,4.13-6.66,1.43-.64.81,1.7.61,2.53-.55,2.3-2.3,5.2-.13,7.3,3.08,2.98,7.49-3.38,9.95-4.92l.59.39-8.58,13.94c-.27.9,1.83,3.89,2.67,4.21.55.21,1.6-.35,2.07-.68,1.66-1.15,3.96-4.16,4.78-6.01.33-.75.96-3.31,1.47-3.57.9-.46,1.24.08,1.21.95-.08,2.22-2.17,3.42-1.67,6,.16.85,1.06,2.07,2.03,2.06.48,0,3.82-1.53,4.36-1.88,2.19-1.41,1.89-2.79,2.94-4.73.17-.31,1.6-2.39,1.73-2.46ZM402.56,139.11c.08-.05,1.07-1.35,1.2-1.55,1.92-2.92,3.76-7.95,1.12-10.87-.48,1.16-1.2,2.18-1.67,3.36-.93,2.32-1.72,4.83-1.57,7.32.04.65.09,2.22.92,1.74ZM412.92,138.2c-1.05-.17-1.86.32-2.8.68l-4.39,2.32,4.87,1.29c.74-.22,1.92-3.45,2.33-4.28ZM415.32,144.43c.37.08.56-.04.85-.23.33-.22,3.12-3.04,3.34-3.38.42-.67.61-1.57.15-2.29-2.6-.05-5.35,3.24-4.33,5.89ZM352.27,143.2c1.35,1.01,6.89.7,6.16-1.71-.58-1.92-5.01.31-6.17.82v.89Z"/>
      <path d="M497.31,239.43c.05.08,0,1.64-.05,1.88-1.17,4.6-5.84,8.61-8.53,12.35-.62.86-.85,1.92-1.65,2.69l.93,2.23-2.88-1.44c-.01,1.63,1.21,6.9,2.81,7.38,1.01.31,1.38-.18,1.98-.86.86-.99,3.11-3.97,3.72-5.1.53-.98.8-2.21,1.38-3.18,1.38-2.3,6-5.7,8.42-6.92s4.93-1.64,6.89.64c1.79,2.09,1.43,4.54-.04,6.68-.52.75-1.87,2.52-2.43,3.2-.29.35-1.12.56-1.31,1.2-.31,1.06.15,3.05,1.32,3.39,2.16.62,4.91-3.39,6.29-4.65.32-.29.82-.27.99-.5.58-.78.99-2.96,1.29-3.46.19-.3.63,0,.97-.2,1.94-1.11,1.76-4.91,2.75-5.42,2.54-1.32-.15,3.18-.22,3.61-.21,1.34-.15,3.16-.25,4.55l.22.5c.97.69,5.1-2.17,6.02-2.89,1.11-.86,4.4-3.87,4.74-5.1.17-.61-.22-1.99.86-1.71l.6.98c-1.21,2.97-1.92,6.03-2.34,9.19.08,1.81,3.66-.04,4.42-.61.08-2.61.77-5.02,2.08-7.27.94-1.6,1.05-1.02,2.04-1.68.27-.18.43-.77,1.04-.99,2.07-.75,3.28.8,3,2.76-.07.52-1.22,2.99-1.81,3.11l.48.36c-.55.25-1.48,1.81-1.74,1.97-.23.14-.67.04-.87.2-.88.66-2.15,1.39-1.9,2.57.42,1.97,2.15,1.71,3.76,1.58.32-1.02,1.91-2.38,2.79-3.08.46-.37,1.48-.86,2.04-1.2l-.72-.47c.46-.07.58.3.59-.25,0-.22.82-.98,1.04-1.36.56-.98,1.94-4.83,2.61-5.07.31-.11.7-.03,1.04-.04-.5,2.98-3.36,6.66-1.18,9.69,1.13,1.57,5.73-1.44,6.57-2.75.45-.7.49-1.53.88-2.23.35-.63,2.32-2.89,3.08-2.31-.98,1.18-1.25,2.69-1.82,4.05-.11.28-.51.5-.64.8-.67,1.61.37,3.5.89,4.98.09.27-.03.59.08.88.42,1.11,1.37,1.65,1.49,2.71-2.46.3-2.03-.94-2.82-2.34-.21-.38-.66-.5-.7-.59-.32-.59-.44-3.41-.56-3.54-2.19.96-5.7,4.52-7.88,1.52-1.1-1.51-.38-2.83-1.47-3.92-.08.06-.56,1.56-.72,1.8-.7,1.02-3.3,3.48-4.39,4.01-.85.41-2.64.73-3.52.29-1.15-.57-2.09-3.36-3.51-2.28-.28.21-.28.72-.75.92-1.02.43-2.82-.36-3.13,1.19-.09.43.26.99-.09,1.47-2.17.43-1.13-1.53-1.52-2.86-.19-.65-1.05-1.36-1.38-1.97-.16-.3-.12-.71-.24-.96-.63-1.29-2.93,1.26-3.61,1.56-.51.23-2.62.45-2.79.69.02.81.6,3.96-.39,4.28-.37.12-.65-.03-.78-.41-.25-.7-.53-5.59-.9-5.59-2.04.13-1.8.74-2.75,1.8-2.04,2.29-5.85,7.14-8.99,4.19-.97-.91-.75-1.42-1.08-2.53-.08-.27.16-.42-.36-.35-.56,1.15-3.05,1.28-3.36,2.16-.1.29-.25.34.24.24.73-.14,2.12-.88,2.64-1.44.24.6-1.23,1.58-1.81,2.02-.37.28-1.33,1.15-1.42,1.21-.17.1-3.51.17-3.92.08-.87-.2-3.05-2.48-3.37-3.35-.21-.58.1-1.58-.64-1.4.2,1.03-.52,1.4-.93,2.08-.56.94-1.04,1.84-1.94,2.62-2.62,2.26-4.67-.71-5.65-3.02-3.01-7.07-.87-22.07,7.62-24.75,1.11-.35,1.72-.18,2.76.22.39.15,2.26,1.33,2.4,1.55ZM485.13,251.26c-.11,1.26,0,2.78,0,4.08,0,.09-.26.31-.24.47.13,1.1.9-.62.97-.71,2.63-3.66,5.66-7.04,8.25-10.7.4-.57,1.83-3.18,1.81-3.7-.03-1.57-3.13-1.67-4.31-1.19-3.89,1.57-6.14,7.92-6.48,11.75ZM508.3,256.07c1.72-1.95,2.97-3.87,1.06-6.25-1.16-1.45-3.05-1.45-4.65-.81-2.86,1.15-8.02,6.24-8.68,9.31-.09.4-.49,3.44-.44,3.62.5,1.91,3.82.86,5.11.33,2.3-.93,5.94-4.31,7.6-6.2ZM538.77,254.16c.97-1.1,2.67-3.24,2.21-4.77-.3-1.01-1.52-.69-2.12-.05-.51.55-2.56,3.99-2.76,4.67s-.15,1.65-.35,2.41c.38.39,2.67-1.87,3.02-2.26ZM526.87,258.09l1.32-.23c.09-.9.79-2.15,0-2.89-1.09.69-.79,2.04-1.32,3.11Z"/>
      <path d="M117.61,247.78c1.52-2.31,4.39-4.07,5.86-6.25.7-1.04,1.75-4.67,3.12-4.55,2.71.24-1.32,4.54-1.74,5.21-2.61,4.24-3.99,15.41-3.37,20.3.23,1.83.44,6,2.94,3.72.64-.58,4.01-4.68,4.28-5.31.51-1.18.03-3.82.44-5.51.05-.2.44-.18.43-.29-.03-.45-.29-.65-.16-1.39.29-1.59,1.82-3.78,3.57-2.48.9,1.96-.11,3.96-.5,5.9l2-2.3c1.84-1.35,4.65-3.82,7.13-3.59.94.09,2.18,1.09,2.51,1.09.39,0,1.11-.79,1.8-.48.12.85-.67.95-.74,1.79-.05.66.4,4.14.52,5.02.54,3.83,4.01,2.81,6.22.98,1.86-1.53,1.65-4.1,3.01-6.1s3.04-2.18,2.44.76c-.43,2.09-2.21,3.39-2.93,5.23-.84,2.14-1.27,5.02-.33,7.16.54.11,1.13.07,1.66-.07,1.68-.42,7.47-6.67,8.42-8.37,1.05-1.87.63-4.14,2.51-5.4,2.49.61-.54,3.89-.81,5.66-.17,1.12-.22,4.95.9,5.45,1.37.61,3.59-.93,4.67-1.8.33-.27,2.57-2.29,2.69-2.46.58-.81,1.21-4.62,1.95-6.09.32-.63,1.78-2.89,2.56-2.71l.6,1.32c-.43.42-.79.1-1.37.51-.54.38-.95,1.34-1.74,1.65l.96-.12v1.44s.48-.24.48-.24c.56.48-1.17,2.97-1.44,3.71-.21.59-.49,1.62-.42,2.24.05.48.57,1.88.91,2.09.51.31,1.86-.21,1.68.47-1.58,2.39-4.24-.39-3.83-2.63l-.48-.12c-.03.28-.15.52-.35.72-1.07,1.12-3.98,3.6-5.41,3.96-1.33.34-2.78-.45-3.47-1.58-.59-.97-.44-1.91-.73-2.87-.1-.31-.05-.58-.48-.47l-4.67,5.16c-1.29.8-2.23,2.34-3.94,2.25-3.35-.18-3.49-4.78-2.55-7.18-.2-.17-1.79,1.07-2.23,1.24-1.85.73-4.46.59-5.19-1.58l-.49-.15c-.02.22-.1.42-.24.59-3.25,3.7-7.07,8-12.32,4.64-.33-.21-1.15-1.15-1.24-1.15-.93-.06.72,1.49.84,1.56.09.6-.4.36-.72.24-1.92-.68-1.56-1.94-1.67-3.61-.02-.36.19-.69-.36-.59-1.66,2.86-6.38,9.37-8.36,3.05-.99-3.14-.41-10.07.11-13.45.35-2.24.83-4.76,1.88-6.75.05-.16-.23-.17-.36-.12-.82.37-4.64,4.97-4.87,5.93-1.27,5.26-.26,12.27-.77,17.69-.03.37-.14.71-.26,1.06-.25.08-.51.04-.76-.03-.52-.16-4.78-2.96-5.22-3.42-2.16-2.29-2.09-4.88-.53-7.49.22-.36.59-.47.68-.63,1.63-2.65,5.45-7.37,5.84-10.11.36-2.47.6-6.11.72-8.63.03-.72.12-4.4-.26-4.65-.32-.09-.64-.04-.93.1s-2.44,2-2.89,2.39c-1.88,1.65-7.15,6.9-7.54,9.21-.1.57.55,2.21-.02,2.42-.5.19-.62-1.68-1.03-1.85-.76-1.32.5-3.24,1.28-4.37,1.51-2.17,8.38-9.13,10.67-9.96.52-.19,1.07-.2,1.53.13.36.26.81,2.8.86,3.45.14,1.8-.32,2.82-.46,4.35-.22,2.34-.41,4.7-.5,7.05ZM130.79,258.09c.24-1.18,1.89-4.32,1.64-5.35-.04-.18-.41-.59-.56-.64-.41-.16-.36.22-.5.44-.23.37-.99,1.76-1.05,2.08-.05.25-.2,2.96-.17,3.12.04.28.37.41.64.35ZM143.91,259.7c.8-1.17.02-1.67-.11-2.5-.43-2.91.12-5.47-3.95-4.32-2.56.73-7.84,5.79-8.69,8.34-.74,2.24,2.52,4.34,4.55,4.32,3.15-.04,6.49-3.38,8.19-5.85ZM115.68,252.82c-.57-.13-.39.1-.53.31-1.34,1.96-4.19,5.48-5.09,7.37-.09.19-.6,2.35-.59,2.52.03.52,1.11,1.87,1.53,2.27.33.31,3.39,2.59,3.61,2.63.19.03.4,0,.59,0,.04-5.04-.21-10.1.48-15.11Z"/>
      <path d="M200.55,203c.16.15.72,1.47.77,1.75.76,4.8-2.96,10.81-5.41,14.73-.23.74.51,1.86,1.4,1.63.94-.24,4.73-2.8,5.33-3.56.51-.64.25-1.28.49-1.91,1.05-2.83,1.93-4.36,5.28-4.07.82.07,2.3.36,2.01,1.5-.14.55-5.13,4.33-5.85,5.2-.35,1.88-.09,3.7.36,5.52.18.18,2.39-.52,2.77-.71.82-.42,3.44-2.45,4.24-3.13s1.5-1.46,2.1-2.28c1.42-.29.14,1.92-.32,2.44-.73.85-3.54,3.31-4.49,4.02-4.59,3.44-7.42.75-6.46-4.42l-3.04,2.35-3.09,1.23c.18.96-.11,1.79-.11,2.78,0,.55.24,1.08.25,1.67.03,1.87-1.45,6.62-2.21,8.58-.26.66-1.47,3.66-1.86,3.91-.29.19-1.14,0-1.21-.3.23-1.52-.19-3.07-.24-4.51-.15-3.86.39-7.58.73-11.4-1.3.39-1.8,1.49-3.26,1.66-2.14.25-4.78-1.29-5.5-3.33-.24-.69.11-1.61-.83-1.92.09.61-.5.5-.78.72-1.9,1.47-3.68,3.27-6.42,2.88v.71s2.16.24,2.16.24c-1,.55-1.07,1.21-2.46.91-1.16-.25-.95-1.58-1.61-2.47-.39-.53-1.04-.75-1.41-1.23-.49-.63-.9-1.92-1-2.72-.36-.1-.4.1-.6.24-1.65,1.14-4.91,5.83-7.19,2.39-.27-.4-1.03-2.93-1.09-3.46-.17-1.37-.02-4.37.26-5.74.07-.35.95-3.12,1.06-3.26,1.4-1.86,2.1,3.3,2.26,3.75.12.34-.07.4.5.33.53-1.18.22-1.94.23-2.99.01-.8.26-4.25-.37-4.43-.68-.2-1.69.96-2.14,1.42-4.82,5.07-6.62,13.67-8.76,20.14-1.1.14-.92-.53-.95-1.32-.07-2.05,1.3-5.67,2.01-7.62,1.4-3.86,4.59-11.53,8.13-13.65,4.79-2.86,3.81,3.7,3.5,6.37-.11.96-.52,5.24-1.77,5.14-1.29-.88-.91-2.93-1.61-4.09-.18-.3-.24-.5-.67-.41-.16,1.33-.29,2.61-.25,3.97.03,1.05.33,4.49,1.21,5.03,1.57.98,5.84-3.25,6.42-4.62.34-.81.38-2.21.74-3.1.44-1.1,1.59-3.29,2.95-2.13,1.88,1.6-2.04,4.86-2.28,6.59-.05.37.2,2.9.82,2.18-.18-1.39.3-2.59.85-3.83,1.72-3.92,6.8-10.31,11.61-7.06,3.07,2.07,2.05,5.17.36,7.76-1.08,1.66-2.03,1.36-1.31,3.96.91,3.32,3.47,3.58,5.99,1.67s2.02-4.21,2.76-7.07c.53-2.05,1.7-4.06,2.19-5.97.53-2.07.45-3.91,1.83-5.85.61-.85,2.17-1.64,3.02-.82ZM194.85,218.29c.45-.43,1.07-1.09,1.4-1.6.82-1.27,2.78-4.98,3.23-6.36.35-1.09,1.57-5.76,0-6.16-.9-.23-1.91,2.42-2.12,3.09-.49,1.56-1.08,3.86-1.48,5.47-.44,1.76-.87,3.77-1.03,5.57ZM183.4,216.91c.22-.14.65-.06,1.03-.29,1.45-.89,2.59-4.22,1.19-5.53-.73-.68-3.02-1.43-3.96-1.04-.78.32-4.17,2.75-4.66,3.46-.36.53-1.86,4.08-2,4.72-.1.43-.39,3.73-.27,3.87,3.19.82,5.76-1.67,7.77-3.81.31-.33.77-1.29.9-1.38ZM207.57,213.26c-1.24-.09-2.91.74-2.4,2.15l2.4-2.15ZM192.93,237.23c1.01-2.17,1.51-4.23,1.95-6.57.07-.4.4-.69.47-1.21.13-.97.16-5.36-.01-6.25-.14-.73-1.2-1.38-1.44,0-.67,3.82-1.49,9.42-1.42,13.22,0,.38,0,.7.46.81Z"/>
      <path d="M381.49,98.39c-.36-.4-1.87,1.7-2.11,1.92-.66.6-1.39,1.26-1.98,1.78-1.28,1.13-5.13,4.44-6.6,4.68-2.16.34-4.02-.95-6.17-.75-2.71-2.96-4.21-4.72-8.63-3.97-.9.15-3.24,1.66-3.62,1.59-.32-.06-.85-.81-.77-1.19.67-1.12,1.37-2.45,1.86-3.65.96-2.35,2.08-4.57,1.29-7.13s-4.25.59-5.53,1.22l-1.32-1.09c.12-.31,1.73-1.22,2.15-1.45s2.48-1.25,2.78-1.3c1.41-.23,3.28.96,3.65,2.32.99,3.58-1.08,6.49-2.34,9.66,2.41-.66,4.26-1,6.71-.24l-2.4-7.56c0-.51.77-.88,1.21-.74,1.24.35,1.98,5.47,4.07,5.9.08-.45.22-.95.44-1.36,1.44-2.71,5.38-7.02,8.59-7.25,2.07-.15,1.58,1.17,2.13,1.42l.27-.48c1.14-.34,1.93,1.98,1.73,2.94-.09.43-2.17,3.03-2.59,3.42-1.17,1.07-5.63,3.74-7.12,3.93-.77.1-1.59-.54-2.14.25.4,2.65,3.69,4.58,6.11,3.46,2.3-1.07,8.28-6.4,10.1-8.37.5-.54.69-1.65,1.56-1.57l.6.62c-.09,2.27-.99,7.53.97,9.1.46.37,1.04.36,1.51.61.24.13.02.58.39.48l3.25-5.74c2.33-2.36,4.47-6.13,7.38-7.73,3.95-2.17,3.04,1.47,2.78,4.21-.12,1.24-1.35,5.56.39,5.9,2.18.42,4.6-1.36,6.07-2.78l-.12-4.73c1.22-3.19.96-6.24,3.78-8.65.79-.67,3.04-.59,3.6.02.39.42.7,3.52.68,4.24-.05,1.71-2.11,5.51-3.21,6.88-1.17,1.45-4.18,2.9-1.56,4.89.22.17,1.86,1.07,2.03,1.09.29.03,2.53-.56,2.8-.72.52-.29,1.15-1.82,2.33-1.42.56.82.18,1.85.27,2.49.05.38.39.62.46.98.13.72-.38,2.02.73,2.03l5.76-13.91c.6-.07.69.35.74.84.14,1.49-3.37,10.01-4.22,11.87-.34.73-1.19,2.7-1.59,3.21-2.09,2.63-3.49-3.77-3.57-5.12-.09-.11-2.25,1.08-2.56,1.15-2.26.53-4.86-1.58-5.71-3.54-.11,0-1.38,1.23-1.68,1.43-2.54,1.66-4.97,2.31-7.63.44-2.48-1.75-2.34-4.16-2.56-6.91l-2.26,2.17c-1.42,1.67-5.33,7.36-5.79,9.32-.24,1.03.34,3.06-.47,3.37-.48.11-.33-.19-.48-.47-.72-1.36-.6-2.74.12-4.09-.84.18-1.43.46-2.25-.03-.41-.24-2.3-2.65-2.3-2.97v-4.92ZM410.13,95.12c2.62-2.02,2.74-5.47,2.55-8.48-.12-.09-2.64.85-2.88,1.08-.43.41-1.63,3.89-1.78,4.64l-.37,5.55c.32,0,.47.08.73-.16.39-.36,1.4-2.07,1.75-2.63ZM374.74,91.71c-3.14-.58-5.63,1.06-7.4,3.45-.4.53-1.67,2.53-1.94,3.1-.14.29-.31.49-.22.85,1.91.28,3.62-.71,5.2-1.63.99-.58,4.33-2.97,4.69-3.95.2-.54-.2-1.29-.33-1.82ZM397.57,100.55v-3.48c0-.1-.6-1.74-.96-1.8-.72,1.66-.23,3.95.96,5.27ZM363.5,101.99c-.06-.84-.09-2.35-1.2-2.4.13,1.07.27,1.78,1.2,2.4Z"/>
      <path d="M284.33,264.33c2.17-.59,4.63-3.17,5.4-5.28.38-1.05.43-2.5.79-3.53.26-.74,2.1-4.13,3.06-2.71.9,3.64-2.84,5.82-2.52,9.48.48,5.44,6.01-1.71,7.15-3.4,1.52-2.28,1.52-3.2,2.39-5.52.21-.56,1.77-3.13,2.45-2.46.32.31-1.32,3.8-1.56,4.56-.96,3-2.11,6.85-1.06,9.93.54,1.6,1.73.29,2.62-.46s1.49-1.74,2.52-2.28c.41-.13-.29,1.53-.4,1.75-.66,1.27-4.24,5.26-5.58,3.26-1.25-1.86-1.41-4.05-1.2-6.21.03-.33.35-.57-.25-.49-.95,1.36-4.16,5.16-5.75,5.25-1.99.12-2.99-2.22-3.13-3.81l-2.54,2.5c-3.14,2.35-4.05,1.05-4.18-2.5-.95,1.39-4.63,6.12-6.22,6.21-4.05.22-3.78-5.87-3.74-8.61l-2.75,1.92c-2.42,2.24-6.59,5.86-8.4.95-1.58,1.5-3.2,5.33-5.88,4.68-2.36-.57-2.99-1.98-3.85-4.07-.39-.95-.24-3.28-1.87-1.9-.54,1.25,1.41,4.26-.77,3.58-.36-.25-.48-1.92-.49-2.42-.06-3.57.57-7.52.95-11.05.44-4.05.76-8.12,1.71-12.08-1.07-.24-.95,1.12-1.56,1.68l-.12-.72c-3.12.96-5.47,3.84-7.44,6.36-.17.22-.58.28-.66.41-.24.41-.22,2.17-.05,2.65.1.29.68,0,.47.65-2.24-.15-2.22-2.22-1.39-3.91,1.25-2.53,3.64-4.71,5.87-6.36.62-.46,1.96-1.06,2.37-1.47.47-.47.45-1.22.83-1.81.24-.38,1.78-1.77,2.18-1.91,1.4-.49,1.7.99,2.51,1.08.62.06,2.66-.64,3.6-.72,5.35-.41,9.2,2.38,8.75,8.03-.32,4.01-5.05,11.38-8.4,13.66-.68.46-1.78.7-2.47,1.12-1.01.63-2.03,1.72-3.24,2.16.18,1.55,1.86,5.34,3.67,5.24,2.06-.12,4.88-5.31,5.35-7.14.44-1.71.05-5.38,2.46-5.33.45,1.28-.32,2.44-.47,3.49-.2,1.43-.75,5.22-.12,6.33.46.8,1.56.41,2.26.13,1.85-.72,7.11-5.12,8.05-6.82s1-3.91,3.33-4.09c1.33,1.8-1.51,3.66-2.12,5.06-.77,1.76-.8,5.89-.36,7.76.11.47.98,1.83,1.51,1.78,1.89-.85,3.67-2.79,4.92-4.44,2.14-2.84,2.07-3.92,3.04-7.04.09-.29,1.18-2.68,1.31-2.77.51-.36,1.39.04,1.4.68l-2.34,7.25v3.72ZM260.98,252.26c2.48-3.15,5.2-8.69,3.31-12.62-.55-1.14-3.06-2.37-4.32-2.42-.85-.03-3.11.18-4,.31-2.97.43-3.35,2.19-3.76,4.88-.44,2.94-.62,6.08-1.02,9.05-.37,2.76-.99,5.51-1.16,8.31.53.53,4.57-1.6,5.26-2.05,1.85-1.22,4.34-3.75,5.69-5.46Z"/>
      <path d="M254.45,173.07c-.67.56-1.79.85-1.75,1.7.1,2.04,3.61.71,4.83.3,2.36-.79,5.43-2.84,7.76-3.05.32-.03.74-.07.95.22l.06.81c-3.18,3.39-6.56,6.57-10.28,9.4,1.03.52,2.06,1.46,3.22,1.57,1.56.15,4.05.41,3.98-1.69,2.91.59.78,3.5-1.34,3.82-.65.1-2.87-.12-3.53-.28-1.26-.31-3.19-2.14-4.14-2.12-1.15.02-3.4,2.74-4.41,1.32-.71-.99.34-2.32,1.19-2.85.99-.62,2.17-.22,3.43-.89,1.66-.88,6.04-4.36,7.47-5.72.19-.18.63-.49.24-.72-3.44,1.04-8.89,5.31-11.3.74-1.5.31-2.61,1.25-4.28.93-.46-.09-.78-.59-1.33-.47l.11,2.4c.44.75,2.18-.13,2.31,1.79.08,1.18-1.89,3.45-1.97,4.88-2.25.51-1.59-2.44-1.41-3.8-1.02-.32-1.06.58-1.62.95-2.15,1.4-3.43,2.58-5.36,3.95-5.15,3.67-8.63.35-7.42-5.37-1.42,1.03-2.37,2.42-4,3.31-5.56,3.04-5.75-2.27-5.35-6.43-.69-.19-.91.47-1.35.68-2.12,1.05-2.96.86-5.05-.16-.16-.08-1.71-1.44-1.49-.44s1.03,2.35,1.36,3.44c.16.52,0,1.06.24,1.68.51,1.29,2.24.74,2.36,2.2.02.23-1.09,1.6-1.26,1.66-1.05.36-1.77-.8-1.88-1.65-2.33.34-7.35,3.96-9.47,3-.11-.05-1.15-1.07-1.22-1.18-.75-1.31.06-5.64.01-7.33-1.24.84-2.47,1.77-3.6,2.75-1.22,1.06-2.4,2.52-3.62,3.58-1.76,1.52-3.71,1.22-4.54-1.05-.24-.16-3.96,3.37-5.03,1.8.37-1.2,1.46-1.21,2.13-1.7.34-.25,2.29-1.7,2.37-1.83.22-.38-.17-1.3-.13-1.91.19-2.91,3.32-11.77,7.38-8.71s-2.88,8.62-5.22,10.73c.19,2.46.74,2.4,2.55,1.24,2.38-1.52,4.82-5.01,7.52-5.91,2.91-.97,1.48,1.59,1.38,3.29-.09,1.6.04,3.36.5,4.89.71.49,7.01-2.62,8.27-2.84.42-.54-.98-3.03-1.09-3.74-.11-.68.06-1.42-.03-2.13-.11-.9-.97-1.91-.12-2.8,1.17-.96,3.6,2.25,5.72,1.9.99-.17,3.47-1.9,4.31-2.61,1.16-.99,2.04-4.66,3.79-2.02-.03,1.04-1.23,1.35-1.65,1.95-.3.43-1.33,3.08-1.41,3.63-.15.98-.28,5.24,1.02,5.35,1.11.1,7.16-4.24,7.67-5.3.34-.71.4-2.67,1.45-2.87,2.57-.49.25,2.61-.14,3.71-.65,1.84-1.84,6.65,1.1,6.86,2.59.18,8.04-4.83,10.33-6.25-.09-.9.18-1.93.12-2.76-.07-1.09-1.04-3.72-.11-4.42,1.16-.88,1.86,2.63,3.99,2.34.5-.07,3.36-1.38,3.71-1.71s.39-.96.65-1.27c.94-1.13,2.01-2.23,3.63-2.03,2.52.31-.47,2.6-1.23,3.24ZM196.67,176.96c1.65-2.42.1-4.39-1.74-2.71-1.96,1.8-2.38,4.6-2.72,7.11.41.1.48-.14.71-.37.91-.92,3.12-3.11,3.75-4.03Z"/>
      <path d="M353.66,241.55c-.48.1-.55-.24-.78-.54-1.36-1.85-.73-5.33-3.05-6.06-3.6-1.14-7.9,2.94-9,6.13-.87,2.54-.37,8.15.12,10.9.06.32.22.68.59.6,2.49-2.53,5.13-4.99,7.32-7.8.38-.48,1.36-2.4,1.48-2.47.25-.15.83,0,1.16-.04.24,1.88-.83,3.64-1.18,5.42-.41,2.06-.32,4.36-.76,6.45l.13.37c2.34,1.52,2.6,4.9,2.4,7.43l3.45-.75c.12-2.34.01-3.03,1.48-4.87,1.91-2.4,5.71-4.41,8.46-5.93,2.77-1.53,4.89-.82,7.86-.53.43-1.6,2.55-11.08,3.76-11.42,1.65-.46,2.51,1.53,2.47,2.88-.68.28-.7-.44-.88-.47-1.28-.26-1.01.08-1.67.77.24,1.53-.61,2.86-.93,4.25-.2.88-1.12,5.05-.98,5.52.23.78,1.4,1.53,1.34,2.5-.05.77-1.15,1.63-1.53,2.32-1.21,2.2-.4,6.09-.26,8.6.02.41.3.61-.25.96-.83-.05-2.02-6.01-1.56-7.07l-.48-.12c-.03.19-.09.47-.23.6-2.09,1.85-4.84,3.44-7.14,5.09-.67.48-.74,1.06-1.75,1.33-1.82.49-2.78-.52-4.14-1.31-.48-.27-1.03-.37-1.49-.67-.36-.23-.88-1.09-1.19-1.12-.76-.08-3.35,1.43-4.44,1.12.69,1-.17,1.21-.35,1.69-.38,1.02-.36,2.75-2.05,2.27-1.59-1.5-1.28-3.99-1.92-5.76-.43-1.19-1.61-1.91-1.65-3.63-.04-1.54,1.58-2.38,1.84-3.39.23-.9-.05-2.07.08-3.04.17-1.29.84-2.86.94-4.22-2.03,1.92-3.97,3.97-5.86,6.01-.43.47-1.08.53-1.23,1.42.21,2.98,1.77,6.59,1.83,9.49.03,1.55-1,2.9-2.64,2.37-.12-.04-1.85-1.38-2.04-1.55-1.44-1.27-3.28-3.28-2.99-5.37.22-1.57,2.8-4.53,4.04-5.57-.14-.76-.11-1.59-.23-2.34-.83-5.13-1.91-9.93,1.45-14.65,1.37-1.93,5.5-4.52,7.92-4.08,4.54.84,3.41,4.89,4.56,8.27ZM360.41,262.62c2.08.79,4.55-.6,6.36-1.6s2.5-1.72,3.91-3.05c.52-.49,1.95-1.35,2.12-1.96.19-.66.45-3.52.07-4.05-.49-.68-2.67-1.31-3.5-1.3-.37,0-3.14.98-3.37,1.19-.8.76.11,1.01.14,1.8.1,2.23-2.61,4.25-4.18,5.45-.51.39-.49.8-1.49.9l-.07,2.62ZM364.46,253.78c-.6-.62-3.8,3.06-3.35,4.08.56-.37,3.91-3.5,3.35-4.08ZM349.35,256.18v4.8l1.68.48c.18-.19-.41-3.53-.61-4.07-.17-.47-.45-1.28-1.07-1.21ZM359.66,256.18c-.34-.34-1.31,1.3-1.45,1.55-.19.34-1.08,2.36-.95,2.52,1.81-.64,1.82-2.55,2.4-4.07ZM340.71,256.9l-2.75,2.4c-.39.53-.48,1.39-.36,2.03.16.8,3.44,4.42,4.19,4.2.58-.45.39-1.36.34-2.01-.19-2.1-1.21-4.48-1.41-6.62ZM350.3,265.77c.3-1.26.86-2.36-.71-2.88.17.82.14,1.72.24,2.52.04.33.12.71.47.36Z"/>
      <path d="M385.33,177.76l-.95-.48-.48,8.51.48.12c.04-.69.97-1.34,1.08-1.89.1-.48-.36-1.19,0-1.72.25-.38,1.45-.33,1.94-.7.6-.44,2.66-3.38,3.48-4.21.71-.71,3.79-3.79,4.68-2.53.47,1.56-.47,4.31-1.47,5.51-.31.37-2.77,1.93-3.21,2.07-.67.21-3.08.21-3.34.98-.03.36-.16.93.02,1.24.1.17,2.84,2.35,3.01,2.43.51.23,1.25.33,1.8.21.65-.14,3.61-3.16,4.09-3.85,1.39-2.03,1.71-4.34,2.33-6.65,2.68.26.31,3.81.22,5.16-.02.37.21,2.49.31,2.82.34,1.19,1.69.99,2.53.49,1.67-.99,3.62-3.17,4.42-4.94.49-1.08,1.67-5.92,2.95-5.93.28-.04.48.16.56.41.53,1.65-1.94,5.3-2.13,7.38-.28,3.08.92,6.8,4.21,3.73,2.52-2.36,4.33-5.69,6.62-8.2,1.02-1.12,3.62-3.52,4.66-1.15.67,1.51.65,5.17.41,6.85.2.39.35.35.73.3,1.82-.22,4.45-2.37,5.82-3.55.12-2.21.63-4.42,1.44-6.48.27-.69.99-1.4,1.21-2.15.26-.9.17-1.78.55-2.81.28-.76,2.22-3.7,3-3.63.95.08,2.1,1.61,2.2,2.48.21,1.74-1.05,5.52-1.87,7.13-1.23,2.41-3.07,3.98-4.8,6-.48.67.46,2.91,1.02,3.19,1.42.71,2.06-2.36,3.77-1.63.72.31,1.37,2.16,1.63,2.94.19.58-.07,1.44.59,1.68.02-.34.24-.63.43-.9,1.05-1.48,2.49-3.71,3.64-4.99.63-.71,2.11-1.38,1.94,0-.03.23-1.32,2.1-1.59,2.51-.74,1.13-2.04,2.53-2.75,3.55-.64.93-.77,2.82-2.47,2.43-1.04-.35-1.27-4.46-2.07-5.38-.69-.43-1.56,1.13-2.09,1.29-2.24.67-3.07-1.62-3.67-3.31-2.51,1.72-6.31,4.98-9.18,2.17-1.69-1.65-1.14-4.76-.42-6.73-1.62,1.99-3.38,3.92-4.99,5.91s-3.4,6.05-6.52,5.51c-1.52-.26-3.42-3.43-3.36-4.94-1.85,1.24-4.79,4.82-7.08,2.88l-1.43-2.16c-1.54,1.67-3.91,5.4-6.59,4.42-.63-.23-1.4-1.19-1.95-1.65-.26-.22-.69-.29-.94-.5-.42-.36-1.14-1.74-1.33-1.79-.62-.15-1.57,3.05-2.78,2.77-.74-.17-1.12-1.25-1.19-1.92-.34-3.28.32-13.24,1.04-16.49.33-1.51.84-2.61,1.2-4.32.75-3.59,4.39-5.21,6.38-1.46,1.55,2.93-1.12,6.55-2.74,8.93-1.07,1.58-3.12,3.13-2.98,5.06ZM384.61,175.37c.11.09,1.15-1,1.3-1.22.78-1.15,3.89-6.55,4.11-7.64.42-2.04-1.66-5.07-3.25-2.77-1.32,1.91-1.94,6.51-2.16,8.88-.04.4-.22,2.58,0,2.75ZM431.87,178.24c.53.13.53-.3.77-.55,1.91-1.98,4.32-5.9,4.52-8.67s-1.15-2.97-2.29-.61c-.76,1.56-1.85,5.23-2.34,7.01-.26.94-.39,1.89-.66,2.82ZM394.45,176.09c-.56-.05-.94.4-1.32.71-.45.36-4.12,3.93-3.71,4.32,2.87-.29,4.44-2.38,5.04-5.03Z"/>
      <path d="M36.27,158.83c.27.66-.21,1.39.73,1.44l-.02.46c-1.29.31-.13,1.9-.04,2.59.26,1.93-.58,4.81-.67,6.88-.17,4.05.72,4.1,3.59,1.91,1.38-1.06,5.02-4.77,6.43-5.08.34-.07.68-.08,1.02-.06.3.3-.79,3.32-1.01,3.9-.56,1.46-1.54,3.52-2.31,4.89-1.41,2.53-3.44,4.63-4.84,7.16,0,.65,1.59,1.27,2.14,1.7,2.02,1.56,3.67,4.01,6.26,1.35,1.39-1.43,3.99-5.38,4.68-7.24.33-.87-.06-2.35,1.43-2.42,1.64.13-.62,4.1-.78,5-.09.51.04,3.71.18,4.24.61,2.37,1.7,2.74,3.92,1.75,1.73-.77,7.32-6.79,8.22-8.56.76-1.5.15-3.47,2.27-3.13.21,1.28-.78,2.33-.94,3.5-.19,1.41-.05,5.98,1,6.99.71.68,1.64.09,2.28-.34,1.42-.96,6.05-5.79,6.6-7.33.3-.84.13-2.95,1.5-2.83.24.02.52.16.58.4.08.34-.85,2.52-.93,3.34-.17,1.7-.39,7.72,2.47,7.27,1.56-.25,5.03-4.72,5.88-6.12,1.04-1.72,1.27-3.07,1.99-4.73.38-.88,1.61-1.76,1.65-.52.02.75-1.18,2.54-1.4,3.64-.58,2.83-.51,6.88,2.01,8.72,1.92,1.4,3.13.4,4.68-1.06,2.3-2.16,5.8-7.71,6.83-10.68.88-2.57.84-6.04,1.62-8.69.17-.56,1.22-3.09,1.51-3.52.49-.72,1.14-.61,1.56.09.46.77-.15,2.98-.43,3.92-.7,2.39-2.42,5.34-2.88,7.67-.29,1.46-.4,6.57.16,7.88.97,2.28,3.92-.36,4.82-1.46.79-.97,2.02-2.69,1.5-3.9-.32-.74-1.09-.52-1.02-1.26,4.12.28,2.53,3.55.91,5.83-1.4,1.98-2.63,3.11-5.13,3.51-.16.21.88,3.36-.22,3.83-2.38-1.06-1.69-3.54-2.47-5.43-.37-.9-1.21-1.54-1.61-2.47-.35-.09-.39.22-.56.4-1.37,1.44-2.14,3.69-3.87,5.24-.69.62-3.15,2.36-3.96,2.23-3.3-.52-5.49-5.01-4.92-8.11-.02-.03-.58.24-.65.31-1.26,1.37-2.44,4.04-3.92,5.07-4.68,3.27-6.12-2.43-6.1-6.1l-2.36,3.03c-1.25.77-3.72,3.74-5.09,3.92-3.01.39-3.61-4.62-3.58-6.71-1.98,2.33-6.1,7.61-9.17,8.1-3.25.52-4.41-2.8-4.38-5.46-1.25.08-1.57,1.69-2.3,2.62-2,2.55-4.19,3.33-6.93,1.21-.65-.5-1.16-1.28-1.82-1.78-3.61-2.69-3.1.38-5.52,1.88-1.79,1.11-5.21,1.13-3.79-1.63,1-1.94,4.91-3.09,6.86-3.34,1.47-2.03,2.66-4.3,4.05-6.37.57-.86,1.61-1.6,2.06-2.5.36-.71,1.45-3.64,1.62-4.38.07-.3.1-.77-.34-.58-1.86,1.4-3.76,3.65-5.66,4.9-2.84,1.86-4.36,1.16-4.45-2.34-.09-3.47,1.21-6.82.57-10.29-.06-.35-.43-.69-.41-1.02.02-.41.68-.74.23-1.32h.71ZM34.35,184.24l-.47.14c.15,1.05-1.08,1.51-1.92,1.78,0,2.72,4.74-1.09,4.07-1.69l-1.53.24-.15-.48Z"/>
      <path d="M173.65,178.88c.87-1.03.37-1.59.62-2.62.4-1.6,1.93-4.75,3.71-5.16.36-.08,2.61-.54,2.82-.54,2.08-.03,2.24,1.71,2.05,3.37.65-.38,1.2-1.02,1.84-1.4,1.9-1.1,4.73-1.34,6.24.51,1.17,1.43.63,2.87-.15,4.38-1.17,2.24-4.16,4.22-5.74,6.25-1.33,4.17-3.41,8.06-4.83,12.19-.63,1.85-2,5.63-1.93,7.43.08,2.07,3.06,3.18,4.57,1.8-.3,4-5.96,1.67-5.99-1.56-.02-2.41,1.37-6.7,2.21-9.06.21-.58,1.74-3.6,1.62-3.76-.02-.03-.45-.03-.69-.39-.29-.42-1.95-3.2-2.18-3.34-.34-.2-1.17-.19-1.74-.42-2.22-.92-2.52-3.59-2.34-5.69-.91-.03-1.39,1.08-1.86,1.44-2.7,2.05-5.86,3.54-8.32.22-.17-.22-.75-1.17-.8-1.36-.21-.85.26-1.85-.42-2.45-2.91,3.01-10.57,9.19-11.88,1.6l-.6-.17c-.73,1.03-1.54,2.19-2.52,3.01-1.38,1.16-3.29,2.14-5.13,1.96-1.22-.12-2.81-2.79-3.03.55h-.96c-.32-1.2.73-2.43.72-3.48,0-.62-.41-1.13-.47-1.7-.16-1.71.02-3.46.66-5.06.74-1.85,3.95-6.03,5.58-7.14,2.45-1.67,4.46-1.12,3.52,2.07-1.21,4.11-4.66,7.76-6.95,11.29-.79,1.9,1.99,2.17,3.35,1.67.73-.27,3.42-2.72,4.03-3.41s1.74-2.32,2.08-3.2c.57-1.49.45-3.01,1.74-4.25.78-.75,1.79-.71,2.01.43.3,1.54-1.36,2.94-2.01,4.12-1.12,2.06-1.27,5.67,1.91,5.27,1.67-.21,7.18-3.9,8.16-5.27,1.07-1.48.72-3.08,1.73-4.74,1.29-2.12,2.25-.65,1.98,1.26-.2,1.42-1.51,2.32-1.91,3.6-.9,2.88.58,6.49,4.03,5.46,1.27-.38,4.39-2.71,5.26-3.73ZM147.11,168.65c-1.04-.22-1.11.6-1.55.95-3.16,2.47-5.72,6.05-5.83,10.27-.06,2.35,1.76-1.05,2-1.38,1.19-1.62,2.36-3.23,3.43-4.96l1.95-4.88ZM181.42,172.01c-1.89-.08-1.18.55-1.62,1.62-.19.45-2.91,3.47-2.7,3.66,2.06-.21,4.8-3.09,4.32-5.27ZM187.08,179.83c1.38-1.23,4.22-4.36,2.6-6.13-.93-1.01-2.29-.82-3.44-.35-2.88,1.2-6.46,5.34-7.29,8.3-.17.61-1.01,3.65.31,3.44.34-.06,3.45-1.78,3.91-2.1,1.03-.72,2.95-2.31,3.91-3.17ZM179.02,178.25c-1.06.47-1.85.85-3.08.76-.74,1.89-1.27,5.23,1.04,6.19-.03-2.66.57-4.75,2.04-6.95ZM181.17,189.75c.36-1.51,1.26-2.81,1.93-4.2.16-.33.37-.19-.12-.59l-3.68,2.06c.33.98.61,2.71,1.87,2.73Z"/>
      <path d="M159.49,125.4c-2.39,3.35-6.3,6.35-9.76,8.58-1.53.99-3.42,1.86-5.02,2.78-.08.34.03.39.25.59.23.21,1.48,1.07,1.83,1.29,1.2.77,4.38,2.69,5.6,3.03.51.14,1.13.42,1.61.19.17-.08,1.48-1.54,1.62-1.76.8-1.27,2.55-7.11,3.66-7.39.9-.27,1.03.85,1.63.94s1.38-.43,2.14-.51c2.46-.26,5.11.22,6.97,1.93.57.53,1.24,1.89,1.81,2.27,1.59,1.05,5.1-.36,6.55-1.35,1.88-1.29,3.56-4.87,5.86-5.19,1.28-.18,1.94.61,1.27,1.76s-3.89,2.7-4.96,3.79c-1.76,1.79-1.87,4.44-.8,6.63.35.36.43-.03.47-.36.47-3.71,1.22-5.8,4.21-8.27,2.34-1.93,7.48-4.32,10.07-1.92s-.96,6.1-2.75,7.79c-2.01,1.9-4.69,4.14-7.44,4.67l.15.49c.51.13,3.32,1.73,2.73,2.38-.61-.03-.86-.58-1.44-.84-1.74-.79-4.98-1.39-6.37-2.51-1.84-1.48-2.05-4.09-1.55-6.24-2.11.22-4.06,1.48-6.23.48.05.49-.06.85-.28,1.28-1.36,2.7-5.73,6.41-8.73,6.86-1.43.21-2.75-.01-3.93-.84-.33-.23-1.64-1.5-1.8-1.8-.35-.66-.15-1.59-.74-2.14-.25-.05-1.21,1.27-1.97,1.4-2.53.45-8.19-3.91-10.26-5.48-.44,1.61-.38,3.27-.61,4.91-.04.29.21,1.06-.35.84-.27-.1-.54-.54-.6-.84-.23-1.2-.11-5.1-.01-6.48.18-2.58.89-5.43,1.2-7.92.09-.74-.37-3.31,1.04-2.96.84.21.76,1.99.6,2.68-.1.43-.48.69-.6,1.19-.39,1.59-.11,4.9-.19,6.65,4.86-3.08,10.44-6.09,13.66-11.05.86-1.32,2.69-4.77,2.26-6.28-.15-.51-1.3-1.36-1.82-1.55-6.02-2.2-19.07,5.38-22.84,10.13-.76.96-1.17,2.68-2.4,2.75l.37.58-.02,3.01c-3.28-3.89,2.11-9.09,5.17-11.37,5.01-3.73,13.93-8.41,20.27-6.62,4.47,1.26,2.4,7.1.5,9.75ZM185.58,134.92c-2.08,2.54-4.34,4.82-3.68,8.43.16.87,1.96.47,2.65.25.52-.16,2.13-1.24,2.71-1.61,2.62-1.68,4.52-3.83,6.59-6.12,1.07-5.41-5.82-2.23-8.26-.95ZM169.04,136.42c-4.34-4.72-13.74-.01-10.75,7.03,1.35,3.18,5.93,1.41,8-.12,1.33-.98,2.44-2.66,3.69-3.76.48-1.39-.09-2.23-.94-3.16Z"/>
      <path d="M346.95,181.84c2.23.01,4.18-1.16,6.16-1.99.72-.66.42-1.56.67-2.33.41-1.22,2.36-5.9,3.83-5.76.43.04,1.75,1.42,2.01,1.85,1.36,2.2,0,3.36-1.64,4.76-2.18,1.86-3.8,1.41-2.45,5.08,1.46,3.93,4.69,2.48,7.42.85.91-.54,5.35-3.75,5.64-4.43.43-1.85.25-4.19.72-6,.25-.96,1.39-2.68,1.57-3.46.51-2.22-.29-2.91,1.38-5.34.14-.21,1.59-1.9,1.72-1.93,1.16-.29,1.75.49,2.04,1.51.22.77.42,2.79.44,3.64.07,3.05-1.19,6.36-3.1,8.69l1.54,3.18c.73.17,4.88-3.35,6.04-3.55.35-.06.63-.08.92.18,1.08,1.46-.41,1.4-1.23,1.93-1.79,1.17-3.59,2.33-5.41,3.47-.46,2.29-.11,4.06-1.66,6.01-3.21,4.03-5.24-3.99-4.56-6.35-.49-.5-4.1,2.95-4.68,3.36-1.73,1.21-4.88,2.88-7.01,2.21-2.96-.93-3.2-3.68-3.78-6.29-1.8,1.39-4.13,2.2-6.33,2.66-.17,1.39.54,3.83-1.52,3.52-2.36-.36-4.15-5.08-5.31-6.93-1.47-2.35-3.57-3.8-3.97-6.82-.23-1.78.33-3.29.94-4.9,1.2.89,3.23.21,2.87,2.4-.63-.52-1.01-.89-1.92-.72-.89,5,1.62,8.96,6.97,6.35.52-4.05.3-8.96,1.79-12.82.52-1.33,2.6-4.45,3.96-4.91.61-.21,1.59-.22,2.22-.08,1.28.29,4.09,4.51,4.24,5.85.37,3.09-2.95,6.45-5.03,8.37-.68.63-5.52,4.2-5.52,4.55v4.2ZM354.61,160.75c-1.53-.1-2.57-1.26-3.96-.02-3.12,2.78-3.42,10.71-3.7,14.64.39.07.65-.18.94-.38,2.11-1.4,7.62-6.26,8.12-8.67s-1.47-3.32-1.39-5.57ZM374.77,164.82h-.7c-.09.95-.92,1.52-1.33,2.4-.59,1.25-1.18,3.37-1.49,4.74-.44,1.95-.86,4.35-.54,6.29l2.83-3.52c1.73-3.2,2.29-6.36,1.24-9.91ZM355.1,178.24c.32.24,2.93-1.68,3.22-2.18.71-1.23.12-1.52-.36-2.61-1.92.56-2.23,3.14-2.86,4.78ZM345.51,178.48c-.75-.25-1.17.46-1.67.61-.77.23-1.63-.16-2.17.47,1.01,1.21,2.21,2.09,3.83,2.28v-3.36ZM370.82,179.92c-.33.1-.34.54-.38.82-.1.78.14,3.95.27,4.79.07.43.8,2.15,1.29,2.04,1.25-.28,1.94-4.46,1.54-5.59-.15-.42-.82-.41-1.18-.74-.43-.39-.78-1.56-1.53-1.33ZM345.69,183.81l-2.34-.77,1.8,2.88c.92.39.88-1.84.54-2.11Z"/>
      <path d="M88.34,123.81c.24.23-.61,3.4-.71,3.99-.16.94.13,1.8-.32,3.01-.28.75-1.32,1.96-1.37,2.73-.06.88,1.3,2.5.89,4.35-.18.82-1.11,2.06-1.11,3.03,0,1.49,1.19,4.15,3.04,3.33.75-.33,2.39-2.26,2.75-3,.4-.82.11-2.22,1.15-2.33l-.48-.47c.82-.04.66-.57,1.69-.34l.95-2.06.48.12-1.23,2.99-.7-.23c0,1.2-.76,2.44-.37,3.61.13.38,1.13,1.85,1.57,1.43-.37-2.52.95-4.44,2.76-5.99.35.2.09.47-.05.7-.64,1.07-1.31,1.65-1.48,3.04-.31,2.48.18,3.84,2.84,2.84.79-.29,3.35-2.21,3.84-2.86.63-.84,1.74-3.8,2.76-3.97.37-.06.42,0,.37.36l-1.2,2.04c2.52-.6,4.71-5.29,1.62-6.53-.29-.12-2.21-.45-2.46-.43-.54.04-.49.57-.77.74-1.49.92-3.06,1.66-4.74,2.15-.21,0-.16-.49-.12-.6.08-.19,3.04-2.14,3.43-2.33,1.46-.71,4.27-1.4,5.75-.63,1.15.6,1.59,2.75,1.59,3.94,0,1.75-3.09,4.45-3.98,5.96.42,2.34,2.37,3.8,4.77,3.18.38-.1,3.78-2.17,4.01-2.47.45-.57.43-1.59.68-2.19.2-.49.78-.88.77-1.51.8.07-.19,2.16.96,1.56.29-.15,2.47-2.45,2.55-2.76.11-.42-.48-1.52-.87-1.2.12.61-1.95,2.15-2.16,1.92-.47-.6,2.13-3.03,2.33-3.08.36-.09.93.15,1.14.46,1.66,2.47-2.64,5.4-3.71,7.31-.14,1.33,2.05,2.52,3.02,1.81.78-.57.61-2.7.89-3.67.42-1.5,2.57-5.39,3.8-6.28,1.85-1.34,6.54-2.34,7.92-.03.05.08.44,1.77.43,1.87-.05.37-1.3,1.83-1.64,2.22-1.23,1.4-3.27,2.98-4.83,4.05-.81.55-4.82,2.7-4.97,3.19-.02,1.09.12,2.73.46,3.77.25.76.82,1.23,1.12,2,.99,2.54,1.62,6.68.48,9.23-.32.71-2.57,3.12-3.23,3.26-.71.15-1.4-.15-1.75-.78-1.12-2,2.45-9.18,2.56-12.04.07-1.85-.48-3.59-.87-5.35-1.87.26-3.9-.51-4.94-2.12l-4.83,2.32c-2.43.02-4.35-1.32-5.23-3.57-1.38.07-2.01,1.35-3.14,1.9-.54.26-3.12,1.25-3.54,1.22-1.74-.14-4.73-1.6-4.95-3.59-1.12.35-1.53,1.89-2.74,2.41-1.87.82-4.31-1-4.46-2.9-1.45.57-2.15,1.98-3.48,2.88-.22.15-2.05,1.18-2.17,1.2-1.17.21-3.62-.66-4.3-1.69s-.82-4.01-.6-5.14c.1-.54.86-1.05,1.17-1.71.29-.62.31-1.53.64-2,.87-1.23,4.19-3.16,5.74-3.15,1,0,1.81.76,2.77.4.67-3.16,1.18-6.32,2.35-9.35l1.47-.14ZM83.98,135.11c-.07-.12-2.44-1.08-2.57-1.1-.51-.09-1.3.25-1.95-.13.31,1.06-1.07,1.49-1.68,2.28-.69.9-.34.84-1.2,1.47s-1.31,4.92-.61,5.61c1,.98,2.96-.63,3.96-.96l-2.28,2.4c-.36.84,2.17.23,2.65,0,.68-.32,3.32-3.19,3.58-3.85.07-.17.41-3.46.39-3.7-.08-.76-1.59-.2-.25-1,0-.29.1-.79-.04-1.01ZM119.76,144.91c4.15-1.54,7.39-4.54,10.45-7.68.39-.79-1.6-2.35-2.41-2.37-.39,0-3.81,1.23-4.21,1.52-.82.6-2.53,3.06-2.91,4.04-.23.6-1.18,4.2-.91,4.48ZM120.72,153.07c-.43-.35-.4.11-.5.34-.79,1.76-1.61,3.56-1.68,5.54-.02.62.31,1.25.26,1.67-.05.51-.66.68-.73,1.21-.04.28.24,1.75.39,1.8.17.05.84.03,1.01-.07.23-.13,1.83-2.59,1.92-3,.17-.84.23-4.33.06-5.23-.05-.27-.64-2.19-.73-2.27Z"/>
      <path d="M546.54,127.65c0,.64.22,1.09-.45,1.32l.21.6c-1.42.09-1.95,2.67-2.43,3.93-.14.37-.59.76-.65,1.04-.07.34.19.66.17.89-.05.4-.74.07-1.03.62-.95,1.74-1.64,3.62-2.14,5.46-.01.04-.36.05-.39.21-.09.39-.08,2.45.03,2.8.08.24.91.66,1.03,1.1.27.03,2.51-2.48,2.84-2.93.53-.72,2.35-4.25,2.56-4.39.72-.45,1.28.45,1.93.27.53-.15,1.37-1.23,2.22-1.63,1.93-.91,5.91-1.72,6.09,1.4.12,2.13-1.07,2.71-1.49,4.16-.15.51.13,1.44.08,1.81-.01.08-.32.62-.49,1.37-.15.7-.88,1.78.29,2.21.44.16,1.61-.63,1.94-.95,1.12-1.11,1.66-3.79,2.35-5.33,1.47-3.27,2.62-6.25,5.41-8.62.36-.31,1.3-.2.87-1.05,2.47-.23,2.37,1.32,2.13,3.21-.6,4.72-4.38,8.01-7.54,11.17-1.53,1.53-1.21,2.75.93,1.41.65-.41,3.82-2.75,4.24-3.19.63-.67.89-2.2,1.47-3.08.44-.67,1.28-1.15,1.65-1.71s.63-1.86,1.18-2.37c.39-.37.66.17.82-.89,3.81-.84,3.59,2.03,1.59,4.38-.97,1.14-4.51,3.53-4.92,4.51-.14.32.12,2.69.34,3.01,1.06,1.5,4.71.45,6.38.58.36.03.69-.19.59.36-1.82,1.51-6.44,2.38-8.08.29-.35-.45-.78-2.81-1.15-2.8l-5.16,3.47c-.16.16-.71,4.03-.71,4.57,0,2.3.38,3.75-.27,6.2-1.29,4.91-2.84,3.2-3.1-.92-.23-3.63.1-7.4.97-10.92-1.84.37-3.13.72-3.78-1.38-.24-.76-.12-1.68-.06-2.46-2.86,2.26-9.25,6.4-9.35-.24-.57-.13-.39.1-.53.31-1.26,1.84-2.15,3.07-3.93.8-2.84-3.63,1.13-9.47,2.88-12.89.6-1.17,2.17-5.36,3.2-5.68.4-.12.86-.04,1.27-.05ZM559.5,144.43c.64.51,4.41-3.94,4.84-4.63,1.3-2.05,2.6-4.93,1.87-7.36-.41,0-.28.58-.55.89-1.82,2.1-2.29,3.16-3.56,5.62-.11.22-.35.24-.43.39l-2.18,5.08ZM552.47,137.53c-1,.21-3.72,1.96-4.47,2.73-1.54,1.59-4.2,6.76.08,6.07,2.14-.34,5.64-4.09,6.42-6.05.85-2.12.53-3.29-2.03-2.75ZM571.73,137.72l-2.03,1.44-.84,2.15,2.5-1.69c.52-.61.57-1.15.38-1.9ZM558.3,156.66c-.15-1.72.28-3.47,0-5.16-.06-.35,0-.74-.48-.84-.54,3.39-.76,6.85-.72,10.31,1.7-.56.67-3.34,1.92-4.2l-.72-.12Z"/>
      <path d="M81.83,282.59c.12.08.48,1.69.51,2.01.29,3.03-.52,5.46-1.6,8.22-.11.29-.5.26-.55.46-.07.34-.08,1.53-.02,1.88.07.45.63.45.91,1.25.34.97.18,2.42.33,3.51s.8,2.19.46,3.5c4.59-.17,9.21-5.62,7.68-10.31,1.26.36,1.33,2.66,1.18,3.7-.25,1.72-2.45,5.41-3.84,6.47-1,.77-5.41,2.38-6.46,1.94-.15-.06-2.35-1.91-2.56-2.13-.53-.58-1.66-3.12-2.11-3.02-3.09,2.67-6.31,6.46-10.57,6.96-2.2-.39-2.58-1.78-2.77-3.73-.03-.35.21-.7-.35-.6l-3.97,4.42c-.68.17-1.61,1.38-2.07,1.52-3.62,1.09-4.74-6-3.91-8.34-1.32.84-3.28,5.24-4.68,5.51-3.6.7-2.58-3.91-3-6.11-.07-.39.16-.41-.47-.36.04.49,0,.91-.19,1.37-.68,1.74-3.13,5.76-4.91,6.35-1.57.52-2.24-.23-2.77-1.66-.81-2.19-.51-4.86-.29-7.14s1.27-5.98,1.19-7.91c-.02-.53-.27-1.03-.23-1.57-.51-.53-4.5,2.94-5.03,3.48-1.6,1.61-2.82,4.64-5.52,4.19.16-.43.31-.83.59-1.21,1.1-1.5,7.19-7.08,8.83-7.71,1.09-.42,1.66-.27,2.29.69,1.27,1.94-.38,6.74-.65,9.1-.12,1.1-.39,7.98.19,8.38l1.41.05c1.76-2.22,3.58-4.79,4.7-7.41.79-1.85.96-3.68,1.71-5.48.67-.15.78,1.81.81,2.3.09,1.35-.26,2.78-.24,4.05.03,1.55.55,3.29.26,4.89,1.11.58,1.95-.55,2.63-1.31,1.46-1.65,3.98-5.73,4.54-7.66.08-.27.31-.96.61-1l1.1.29c.13,1.01-.8,1.63-1.09,2.51-.69,2.11-.58,5.31-.33,7.53.15,1.31.71,3.2,2.38,2.68.17-.05,2.52-1.89,2.79-2.14,1.99-1.9,2.85-3.88,4.29-5.91.42-.59,2.02-1.26,1.44-2.4-.48.47-.74,1.44-1.56,1.44.15-1.04,1.19-2.51,2.29-2.63.52-.06.27.07.38.34.44,1.12-1.18,3.07-1.58,4.21-.61,1.72-.6,5.77,2.04,5.42,3.06-.41,6.91-4.9,9.32-6.76.36-1.64.4-4.18,1.83-5.37.38-.31.86-.19,1.08-.36.49-.35.57-5.19.73-6.22.12-.8.93-3.97,1.59-4.17.26-.08,1.05-.14,1.24-.02ZM81.38,284.47h-.48c.36.69-.72,1.47-.72,1.56v5.4c.35,0,.47-.73.55-1.01.1-.35.65-2.34.65-2.47v-3.48ZM78.5,296.94c-.55-.12-.39.08-.55.3-.76,1.05-.43,3.43.79,4.02.15-.35-.24-.7-.24-.84v-3.48Z"/>
      <path d="M216.61,140.05c.48-.67,1.69-2.24,2.04-2.88.49-.89,1.54-5.27,2.69-4.96s-.61,3.08-.83,3.7c-.59,1.71-.6,4.1.96,5.29,1.37,1.05,4.67.37,5.47-1.26.47-.95.17-1.83.36-2.76.32-1.59.76-3.14,1.86-4.37,3.3-3.71,8.51-1.57,4.79,3.11-.5.63-1.82,2.1-2.4,2.64-.65.62-2.69,1.55-2.58,2.36,1.66,3.52,5.31,2.42,7.73.39,1.93-1.6.93-1.48,1.11-3.44.23-2.54,1.98-6.35,2.8-8.96.19-.59,1.79-3.24,2.21-3.72,2.06-2.32,4.16,1.04,4.02,3.23-.25,3.99-2.88,7.46-5.3,10.41-.21.25-.71.42-1.01.79-.15.18-1.06,1.7-1.06,1.8-.02.76.6,2.07,1.61,1.62,1.77-.78,4.41-5.05,6.17-6.3,2.59-.78.7,1.61.43,2.59s-.26,2.47-.29,3.5l-1.33.88.12-3.59c-.42-.11-.48.17-.72.36-.92.71-3.38,4.17-4.25,4.4-1.92.52-2.77-2.22-3.34-2.33-2.68,1.29-5.3,3.48-8.33,1.61-.86-.54-1.98-2.45-2.67-2.37-2,2.16-5.48,2.18-7.32-.35-.58-.79-.58-1.51-1.08-2.27-2.71,4.48-6.35,6.3-7.2-.49l-3.83,4.56c-.65-.43-.19-.54-.13-.84.66-3.08,2-3.58,3.42-5.94,1.03-1.7.61-4.36.97-6.47.71-4.23,2.38-8.95,5.71-11.8s4.23.23,3.8,3.32c-.37,2.64-2.49,6.46-3.96,8.75-1.02,1.58-4.17,4.83-4.39,6.4-.14.98-.05,5.11,1.29,5.13.36,0,2.25-1.47,2.45-1.75ZM219.56,118.78c-.47-.12-.46.19-.67.4-3.2,3.2-4.9,7.6-5.74,12-.1.5-.07,1-.06,1.5.51.11.54-.26.76-.56,1.91-2.61,3.7-5.63,4.87-8.56.68-1.68,1.74-2.6.84-4.79ZM241.29,137.14c1.94-2.16,4.71-6.01,4.38-9.07-.06-.58-.96-2.88-1.66-1.96-.33.44-1.17,1.8-1.47,2.33-1.73,3.05-2.47,6.81-3.07,10.24l1.82-1.54ZM232.21,132.49c-2.06.42-3.75,3.63-3.55,5.59.04.36.04.6.38.83.86-.72,8.05-7.4,3.17-6.42Z"/>
      <path d="M220.43,301.41c-.96,1.21-2.73,2.47-3.91,3.52-.87,1.04,1.57,3.3,2.5,3.47,2.71.49,4.59-.49,6.54-2.22.5-.44,1.7-1.59,1.93-2.14.45-1.05.49-3.76.86-5.13.08-.28.72-2.11.82-2.18.88-.61,1.65.96,1.66,1.77.03,2.36-3.56,8.61,1.75,7.5,2.23-.47,6.27-4.5,7-6.67.29-.86.53-4.23,1.92-3.82,1.15,1.52-.24,2.99-.53,4.5-.19,1-.4,4.41-.14,5.29,1.1,3.8,4.26-.06,6.06-.81.27-.11.88-.32.73.25-1.76,1.91-5.45,6.02-7.63,2.6-.93-1.45-.89-2.44-1-4.04-.02-.36.18-.69-.36-.59-1.97,2.58-5.27,5.77-8.82,4.97-.99-.22-1.04-1.03-1.36-1.76-.07-.15.05-.51-.38-.33s-.83,1.09-1.2,1.44c-3.91,3.58-9.4,5.08-12.24-.49-2.28,1.17-4.44,2.5-6.98,3.05-.27.06-.67-.23-1.11-.13-.37.09-1.08.74-1.73.93-2.54.76-4.56-.63-5.18-3.13l-1.67.24c0-.27-.03-.55.01-.82.17-1.09,4.42-5.89,5.36-7.11.55-.71,1.24-2.41,1.89-2.68.7-.29,1.1.18,1.6-.04.63-.28,2.46-2.07,3.39-2.63,1.27-.77,4.53-2.34,5.93-2.49,1.57-.16,5.08,1.5,5.75,3.01.05.12.52,1.74.54,1.88.16,1.31-1.18,3.76-2.01,4.8ZM215.96,300.3c-.01.51.05,1.03-.02,1.54-.04.31-.77,1.84-.1,1.81.13,0,1.65-1.42,1.93-1.67.9-.81,2.79-2.72,3.12-3.83.87-2.86-2.3-5.36-4.98-4.99-3.22.43-9.32,5.22-11.09,7.88-.95,1.42-1.11,5.18.46,6.22,1.04.69,2.25.51,3.3-.06,1.31-.71,4.56-4.22,5.51-5.52.62-.84.32-1.67,1.86-1.38ZM210.68,306.77c.61.02,1.26-.44,1.76-.76s2.17-1.44,1.73-2.12l-.6-.09-2.88,2.97ZM204.45,309.17c.09-.82-1.03-.59-1.26-1.25l-1.13-3.78c-1.09,1.78-1.27,2.76-.27,4.65l2.66.39Z"/>
      <path d="M300.89,172.73c2.19-1.73,8.97-5.75,11.62-5.51.23.02,1.5.62,1.09.95-3.9.54-7.48,3.13-11.02,4.94-.71.37-.62,1.08-1.95.68-.45,1.44-.64,5.46,1.53,5.4,3.81-.11,8.26-3.16,12-4.04.97-2.5,1.38-5.22,2.44-7.69.7-1.63,3.66-6.76,5.32-7.15,2.41-.56,3.27.86,3.61,3,.43,2.75-2.74,7.01-4.4,9.15s-3.52,4.01-5.34,5.92c-1.58,5.69,2.7,7.92,7.65,5.86-.24,2.04-4.73,2.2-6.24,1.8-.69-.18-1.99-1.34-2.36-1.96-.5-.85-.85-3.52-1.23-3.81-.46-.35-.75.51-1.34.61-.32.06-.8.06-1.08-.11-.32-.23-.22-.32-.13-.62.3-1.07,3.19-1.31,2.78-3.1l-8.2,3.43c-1.58.2-4.35,1.18-5.7.04-.2-.17-1.25-2.2-1.33-2.5-.58-2.26.56-7.65,1.32-9.97.5-1.53,1.76-2.91,1.45-4.67-.85.05-2.88,1.63-3.33.32-.57-1.67,1.92-1.62,3.15-2.06,2.16-.78,6.78-3.37,8.7-3.32,1.34.04,2.76,1.18,1.67,2.42-2.36-1.96-5.11.74-7.33,1.79-.05,3.85-3.39,6.33-3.34,10.2ZM316.89,175.3c.2-.21.22-.63.43-.88,1.97-2.31,5.49-6.05,6.46-8.9.6-1.76.12-5.14-2.14-3.1-.76.68-1.62,2.35-2.17,2.87-.3.29-.92.24-1.06.64s.16.91.09,1.32c-.24,1.51-1.23,3.25-1.67,4.76-.3,1.02-.31,2.22-.84,3.24l.35.35c.16-.12.41-.17.54-.3Z"/>
      <path d="M338.31,158.82c-.28,1.02-.41,1.9-1.11,2.85-1.03,1.4-1.7,1.62-3.19.61-2.38-1.6-2.13-4.41-1.33-6.81.45-1.33,2.3-4.31,2.29-5.41,0-.55-1.2-1.97-1.47-2.86-.19-.64-.15-1.87-.46-2.18-.37-.37-1.31-.31-1.76-.58-.37-.22-1.11-2.05-1.6-1.69-.01.76-.77.74-1.19,1.09-2.18,1.81-4.56,4.78-7.8,4.17-1.8-.34-4.14-5.24-5.09-6.83.11-1.07,3.26-.31,4.13-.35.79-.03,2.5-.32,3.21-.63.12-.05,1.54-.97,1.59-1.05.3-.49.05-1.63.12-2.23-1.05-1.24-2-.15-3.24-.17l-.12-.48c.58.02.49-.62,1.07-.73,1.47-.28,2.79-.06,3.46,1.35,2.04,4.31-5.09,6.17-8.13,5.13l2.51,3.84c1.93,1.3,3.72-.03,5.28-1.21,3.78-2.86,4.06-3.76,6.17-7.74.43-.82,1.92-3.04,3.08-2.46,1.67.85-.57,3.6-1.24,4.53-1,1.39-3.5,3.08-.44,4.24.51-2.71,1.75-5.04,3.84-6.84.49-.43,2.83-2.04,3.35-2.16,1.88-.44,4-.1,5.1,1.63.49.77.59,1.66.24,2.51-.39.95-4.23,3.76-5.26,4.33-1.8,1-3.76,1.67-5.73,2.19-.4,1.29.44,2.47.86,3.61.85-.36.25-1.75,1.44-1.44v3.96c0,.11.98,1.51,1.15,1.97.72,2,.84,3.83.29,5.83.63-1.3-1.05-5.76-2.04-6.95-.54,1.9-3.13,5.39-2.71,7.26.03.14,1.28,2.09,1.37,2.18.44.4,1.08.14,1.48-.18.08-.06,1.08-1.09,1.12-1.16.14-.25-.02-.63.1-.85.09-.17.63-.2.68-.28ZM334.47,143.23c.36.34,4.36-1.66,5.04-2.03.91-.51,4.54-2.83,4.76-3.65.17-.98-.98-2.12-1.96-2.15-3.54-.11-7.19,4.61-7.85,7.84Z"/>
      <path d="M191.25,294.06l-.96,7.43c1.53-1.11,2.92-2.47,4.47-3.56.47-.33,1.15-.59,1.7-.94,1.95-1.25,4.05-3.07,6.54-2.93.25,1.32-.55,2.18-1.32,3.12-3.29,4.01-8.41,6.82-12.2,10.37-.71,3.28-.83,6.59-1.08,9.93-.01,2.51.47,5.43.45,7.87-.01,1.5-1.21,1.5-1.68.24-.67-1.75-.8-4.79-1.26-6.65-.64-2.55-2.06-4.95-2.11-7.61-.25-.3-1.93,1.45-1.95,1.88l-.57.03-.36-.58c0-.2.7-1.68.84-1.81.46-.42,1.52-.43,2.25-1.35.92-1.15.17-.97.05-1.22-.26-.56-.37-1.34-.07-1.92,1.58-1.82,4.69-11.39,6.3-12.17.31-.15.62-.15.95-.12ZM199.89,296.7c-.24-.24-5.11,3.19-5.63,3.6-.67.52-4.67,3.99-4.68,4.43.83.95,1.75-.75,2.41-1.18,2.18-1.46,1.9-1.27,3.7-3.02.93-.9,2.88-1.81,3.72-2.75.17-.19.65-.91.48-1.08ZM185.74,306.29c.26.29,2.16-1.94,2.27-2.17.37-.77.42-2.44.61-3.35-.91.73-1.12,2.18-1.58,3.09-.22.44-1.62,2.07-1.29,2.42ZM187.65,308.93c-.36-.28-2.37,1.22-2.4,1.8l.96,6.59c1.18-.8.63-2.69.72-3.95.06-.75.01-1.85.07-2.37.07-.61.49-1.44.64-2.07Z"/>
      <path d="M477.45,140.36c.09-.06.82-1.6,1.04-1.84.45-.51,1.9-1.64,2.57-1.16,1.17,1.52-.68,3.65-1.81,4.68-.34.32-.93.39-1.19.73-.81,1.07-.8,4.68.66,4.28.14-.04,2.13-1.42,2.44-1.65,1.23-.9,2.48-2.37,3.56-3.27,2.42-2.02,4.89-4,7.36-5.96l1.41.15c.22.32-1.28,4.27-1.39,5.16-.17,1.38-.13,4.81.35,6.07.26.67,2.68,2.48.73,2.41-3.72-.15-3.34-8.45-2.07-10.78-.41-.11-.48.16-.72.36-3.18,2.52-6.48,6.21-9.85,8.38s-4.73-.39-4.54-3.58c.04-.68.48-1.8.41-2.38-.09-.71-1.57-2.08-1.13-3.26-3.69.29-5.23-2.07-4.44-5.52.51-2.22,2.77-5.01,3.24-1.2-1.69-1.03-2.13,2.59-1.82,3.61.5,1.61,2.93,2.05,3.61.22.19-.52.11-1.06.31-1.6.91-2.41,5.22-7.61,8.19-5.92,4.08,2.32-1.77,6.37-3.74,7.73-.6.41-3.68,2.01-3.8,2.2-.28.47-.33,2.32.6,2.16ZM484.09,129.64c-1.73-2.07-5.21,2.6-6.02,4.03-.36.63-.79,1.64-.87,2.37.3.31,4.55-2.58,5.04-2.99.83-.7,2.76-2.31,1.84-3.41Z"/>
      <path d="M349.59,198.63v-2.4c-.74,0-1.48-.05-2.22.06-3.43.53-10.92,5.39-13.74,7.61-1.53,1.2-2.8,2.92-3.41,4.74-1.77,5.24-2.49,10.51-2.94,16-.1,1.23,0,7.2-.71,7.69l-.93-.19c-1.05-3.1.35-6.07-.04-9.31l-1.91,3.73.96.46c.86,1.22-1.58.65-2.01.39-.98-.6.01-2.72.32-3.5.66-1.66,1.77-3.33,2.4-5.03,1.81-4.91,1.4-10.12,2.42-15.09.81-3.97,2.43-2.42,2.38.7l.48.12c.06-.48.38-.78.72-1.08,3.38-2.96,10.92-7.9,15.27-8.72.77-.14,2.33-.18,3.08-.02,2.49.52.52,4.53-.11,3.83Z"/>
      <path d="M150.46,197.43h-.71c.5-5.77-4.32-4.81-7.97-3.05-4.4,2.13-9.45,6.72-11.75,11.04-3.84,7.23-3.1,14.27-3.08,22.22l-1.17-.03-.76-4.87.25-6.13c-.47.3-.83,1.6-.9,2.09-.28,1.97.27,4.55-.78,6.41l.72.84c-1.93.06-1.37-1-1.45-2.04-.61-7.25,1.81-10.17,3.3-16.61.24-1.05.89-6.41,1.26-6.66l1.47.29c-.12,1.2-.33,2.39-.48,3.58-.06.47.05.35.46.34,2.14-4.96,7.36-9.56,12.19-11.92,1.92-.94,5.15-2.11,7.18-1.32,2.44.96,3.06,3.49,2.22,5.81Z"/>
      <path d="M134.19,224.25c2.18.55,2.95-.9,4.15-2.38,3.09-3.81,7.85-10.74,11.81-13.37.47-.31.87-.68,1.5-.5,1.13,2.5.02,5.2-.22,7.77-.17,1.82-.36,3.69-.5,5.51-.05.69.63,4.67-1.14,3.67-.16-.09-1.79-2.48-2.2-2.95-.5-.56-2.65-1.69-1.34-2.78s2.47,2.94,3.26,2.18l.96-11.27c-.33-.02-.46-.07-.73.16-1.39,1.21-3.63,3.86-4.91,5.35-2.68,3.12-4.97,6.61-7.62,9.76-1.81.77-2.76.76-4.33-.45-3.06-2.35-2.93-8.06-1.92-11.42.51-1.7,3.22-5.35,4.7-6.34,1.79-1.19,3.51-1.08,3.78,1.38.45,4.17-4.19,10.64-5.41,14.75l.17.93ZM133.43,222.85c-.39-1.91.8-3.03,1.48-4.63.93-2.17,3.35-7.27,3.09-9.41-.04-.33,0-.66-.4-.8-.95-.32-2.76,1.61-3.33,2.37-.22.29-1.69,2.66-1.74,2.82-.24.73-.7,2.78-.77,3.55-.18,1.97-.13,4.91,1.67,6.11Z"/>
      <path d="M238.49,212.32c.76,2.7,1.33,7.12.08,9.74-.63,1.32-1.86,1.96-3.29,1.64-.37-.08-3.19-1.29-3.65-1.52-1.44-.73-2.6-2.61-4.02-3.41-.41.1-2.77,5.64-3.62,6.46-.49.47-1.05.73-1.56.16-.31-.36-.25-.74-.17-1.16.2-1.18,1.22-4.59,1.85-5.54.21-.32.68-.22.91-.47.62-.67,2.29-2.19,2.58-2.57.58-.76,2.41-4.87,2.88-5.99,1.15-2.76,3.03-8.31,3.47-11.17.05-.3.12-.77-.34-.58-.11.05-1.75,1.27-1.92,1.44-.51.47-3.85,4.26-3.89,4.7-.07.69.4,1.82-.07,2.73-1.58-.82-1.39-2.87-.83-4.31s4.88-5.5,6.24-6.48c2.8-2.03,2.51,1.38,2.22,3.42-.54,3.83-3.18,10.03-4.78,13.69-.51,1.18-1.05,2.41-1.85,3.44-.07.21-.08.42-.01.63s3.11,2.74,3.49,3c.78.53,3.4,1.73,4.24,1.44,1.8-.62.96-7.29.91-8.92l1.14-.37Z"/>
      <path d="M221.44,244.22c.39.24.12,2.66,0,3.17-1.44,6.41-3.71,13.9-1.97,20.49.07.27.46,1.24.68,1.24,3.16-3.27,4.21-7.64,6.15-11.59.6-1.23,2.3-5,2.51-1.19.16,2.87-.11,5.92.09,8.83.03.48,1.01,3.01-.12,2.76-2.24-1.81-1.72-5.02-1.55-7.54.02-.26.15-.91-.25-.84-1.21,2.14-1.97,4.71-3.08,6.87-.75,1.45-1.87,2.63-2.67,4.05-.5.81-2.33-.37-2.75-.87-1.25-1.46-1.43-5.83-1.33-7.77.12-2.5.77-5.09,1.19-7.55-1.79,2.43-2.89,5.54-4.6,7.99-.39.56-2.15,2.81-2.84,2.32l.48-.96c-.15-.16-1.65,1.54-1.44.36.14-.83,1.74-1.59,2.23-2.34.82-1.23,1.94-3.19,2.66-4.52,2.21-4.09,4.07-8.46,5.45-12.89h1.14Z"/>
      <path d="M188.38,264.34c.03,1.07.29,2.07.62,3.08.1.3.21.7-.26.5-1.02-.42-1.13-2.86-1.68-3.59-.51-.67-2.44-1.03-3.37-2.38l-.82-2.17-9.12,16.06c-.47-1.72.64-3.87,1.47-5.36,2.85-5.12,5.71-9.52,8.24-15.02.26-.57,1.03-3.92,2.02-2.48.7,1.01-.41,2.23-.64,3.14-.51,2.08-.45,5.73,2.22,6.06.63-4.32,4.36-8.78,8.21-10.75,3.59-1.84,7.47-1.5,7.04,3.44-.17,2-2.03,3.46-3.49,4.66-3.01,2.47-6.54,4.22-10.42,4.81ZM200.58,251.9c-.15-.14-2.43-.26-2.86-.18-2.05.41-5.73,3.42-6.9,5.09-.5.71-2.97,5.09-2.44,5.59,2.43.18,5.18-1.25,7.27-2.44,2.68-1.53,5.94-3.55,5.46-7.04-.05-.39-.32-.31-.41-.45-.12-.19-.06-.52-.12-.58Z"/>
      <path d="M300.37,120.73c.25.39-.13,2.19-.56,2.6l-.37-1.67c-.84-.57-4.19,3.46-4.79,4.19-4.72,5.69-9.48,13.02-13.24,19.38-.52.87-.6,2.89-2.11,2.09.46,1.56-.06,3.05.72,4.55-1.29-.23-2.47-1.58-2.11-2.94,1.15-2.16,2.08-4.43,3.27-6.57,1.02-1.84,3.28-4.65,3.93-6.38.75-1.98.55-4.51.92-6.51.25-1.34,1.01-2.91,1.19-4.33l-.68-.07-5.32,8.48-1.2-.14c.84,1.27-.98,1.63-.97.6,1.5-2.22,2.68-4.67,4.12-6.92.5-.78,1.33-1.7,1.87-2.5.42-.63,1.51-3,2.1-3.15.29-.1.47.05.69.2,2.07,1.4-.53,8.17-.61,10.45-.01.36-.17.69.35.59,1.51-2.07,3.05-4.38,4.69-6.35,1.27-1.53,4.85-5.77,6.7-6.02.32-.05,1.31.27,1.41.42Z"/>
      <path d="M154.78,158.1c-.69.69-.68-2.06-1.12-2.17-1.42-.24-2.56.6-3.75,1.26-4.22,2.34-10.51,8.29-12.45,12.73-1.77,4.05-2.07,9.6-2.06,13.96,0,.89.58,4.6-.04,5.05-.27.19-.48.14-.74,0-1.04-.55-.69-5.03-.7-6.25-.01-1.04-.21-2.1-.01-3.23l-1.14,2.57c.42,1.98-1.91,2.8-1.75.43.03-.41.78-3.05.96-3.61,1.63-5.13,3.79-9.44,4.99-14.91.27-1.24.08-5.68,2.23-4.22l-.37,5.35c3.05-3.57,7.25-8.16,11.71-9.87,3.08-1.18,5.19-1.05,4.24,2.92Z"/>
      <path d="M513.62,137.8c.16.07.58.65,1.36.89.64.2,4.19.72,4.2,1.31-.62,1.49-5.08-.08-5.27.12l.34,4.93c.8.88,1.5.51,1.6,1.89.06.83-1.26,4.56-1.87,4.94-2.43,1.5-.94-4.6-1.27-5.05l-8.74,2.41c-1.98.14-2.8-.6-3.85-2.16-1.83,1.02-2.88,3.57-5.16,3.58-.27-1.2.91-1.36,1.59-2,.59-.55,2.55-2.29,2.82-2.81.56-1.06.48-3.55,1-5,.83-2.3,4.15-7.42,7.05-5.88.75.4.24,1.77-.02,2.36-.76,1.74-2.84,4.73-4.05,6.26-.41.52-1.6,1.37-1.8,1.81s.05,1.64.46,1.93c1.69,1.19,8.17-1.47,10.22-2.05.67-.56-.19-5.76-.21-6.91.12-.6,1.16-.75,1.59-.56ZM506.24,136.04c-2.75,1.08-4.44,4.63-4.79,7.43,1.1-.89,2.1-2.28,2.88-3.47.36-.55,2.3-3.53,1.91-3.96Z"/>
      <path d="M30.04,264.33c.4.41,4.84-2.8,5.54-3.21,1.31-.76,3.03-.95,3.92-2.32.5-2.47.79-4.98,1.45-7.42.27-.99.6-3.04,1.56-3.36v-.23c-1.27-.14-.45-1.2-.58-1.94-.17-.99-1.64-1.94.57-2.38l.74,2.04c-.06.6-.72.51-.74.74-.03.33.39,1.46.39,2.1,0,2.58-1.58,6.1-1.81,8.7-.04.46-.08.76.35,1.05l9-4.91c.86-.97-.57-.73-.48-1.56,1.32-.28,1.83-.34,2.62.87.26,1.51-8.96,5.8-10.46,6.76-1.13.72-1.55.78-1.89,2.19-.5,2.06-.33,4.53-1.19,6.49-.34-2.23-.14-4.48.12-6.71-3.05.98-6.04,3.97-9.12,4.69-1.88.44-1.52-3.37-1.43-4.57.23-3.15.95-7.08,1.51-10.24.39-2.19,1.5-5.27,1.59-7.31.04-.75-.46-1.06-.43-1.36.03-.34.47-.62.55-.89.15-.46.05-1.53.49-1.67.98-.3,1.06,1.21,1.07,1.8.09,3.16-1.84,9.1-2.38,12.48-.2,1.23-1.33,9.81-.97,10.17Z"/>
      <path d="M429.95,225c.76-1.37,1.64-2.79,2.04-4.32.31-1.2.02-3.97,1.57-3.23.57.27.3,2.63.18,3.3-.36,1.98-2.35,7.78-5.15,5.74l-2.35-2.44c-.59.23-3.13,4.84-3.89,5.29-.57.33-1.36.21-1.99.23-.22-2.67.83-5.71,2.73-7.58.17-.17.61-.19.88-.43.48-.42.71-1.52,1.5-1.31.4.11.57.82,1.12.69,1.39-3.2,3.44-6.06,4.31-9.49.34-1.36,1.08-7.39-1.58-5.06-.87.77-3.81,4.48-4.27,5.44-.39.83-.03,2.54-1.33,2.62-.56-1.88.04-2.89.92-4.48s3.29-5.18,5.01-5.54c5.31-1.09,2.67,7.91,1.62,10.49-.58,1.43-3.72,6.66-3.73,7.56,0,1.03,1.54,2.14,2.41,2.52ZM425.39,221.89c-.48-.5-2.09,1.99-2.31,2.36-.51.87-1.09,1.88-1.04,2.91.95-1.25,2.41-2.83,3.12-4.19.14-.27.41-.9.23-1.08Z"/>
      <path d="M347.43,75.61c-.94,1.02-2.37-4.85-4.93-3.37-1.6.93-5.06,7.24-5.96,9.15-4.52,9.56-11.25,38.46,3.93,41.82.5.11,2.38.01,2.4.48l-3.21.36c-5.71-1.52-8.96-7.21-9.63-12.83-1.45-12.35,2.24-29.89,10.55-39.46.39-.45,1.26-.51.85-1.19.81.23,1.83-.27,2.51-.23,1.25.07,3.59,3.91,3.49,5.26Z"/>
      <path d="M448.18,296.94c-.35.1-.59.49-.78.78-1.11,1.62-3.13,3.15-4.13,4.75-.3.48-.42.86-.37,1.43l-1.45-.35-.24-1.17c.86-.35.8-.96,1.21-1.48,2.06-2.67,4.58-5.09,6.57-7.82.49-.67,2.45-4.2,2.69-4.28.78-.23,1.25.89,1.04,1.52l-2.82,6.31c.1.75-.85,3.46.33,3.64s10.15-9.98,10.89-11.86c1.41-.11,1.37.39,1.09,1.59-.78,3.37-2.08,5.97-2.23,9.71-.04,1.08.87,5.67.62,6.06l-.65.27c-2.43-3.52-1.77-8.01-.99-11.97-.44-.11-.47.15-.68.4-.99,1.15-1.87,2.45-2.94,3.53-.94.94-4.05,3.81-5.2,3.94-.87.1-1.97-.76-1.97-1.52v-3.48Z"/>
      <path d="M284.47,170.47c-.25.61-.79,1.62-1.13,2.34-.79,1.66-1.84,3.18-2.57,4.88-.03.38,1.85,2.59,2.48,2.71.88-.2,1.71-7.08,2.4-7.91.29-.35,1.2-.38,1.46-.01.5,1.11-.29,1.94-.51,2.88-.47,2.03-1.01,4.3-1.66,6.26-.79,2.37-3.63-.14-4.56-1.22-.34-.39-.22-1.24-.97-.95-.07.03-.45,1.05-.74,1.42-.65.83-2.06,2.27-3.12,2.41-2.25.29-2.21-2.35-2-3.93.27-2,2.36-3.57,4.4-3.24.68.11,1.25.85,1.93.23.33-.3,2.32-4.54,2.63-5.29.85-2.03,3.94-10.06.43-10.75-.67-.13-1.86.88-2.1,1.41-.21.46-.07,1.39-.12,1.44-.07.07-.64-.11-.91.05-.18.11-.17.67-.53.67-1.45-4.19,4.5-7.88,6.35-3.11,1.23,3.17.04,6.73-1.18,9.73ZM277.05,177.61c-1.07.04-1.58.65-1.96,1.59-.44,1.09-.81,3.46.97,2.41.24-.14,2.42-2.86,2.47-3.05.23-.8-.92-.98-1.49-.95Z"/>
      <path d="M301.93,149.32c1.92-1.53,3.37-5.03,3.03-7.52-.63-.05-.4-.03-.47.36-.17.89-.26,1.85-.25,2.75-.74.19-.75-1.07-.74-1.56,0-.6.41-3.45.78-3.68,1.32-.81,2.26,1.72,2.36,2.72.35,3.44-2.1,6.15-3.65,8.94-4.56,1.93-6.86-2.61-8.71-5.94l-3.24,3.47c-2.5.74-1.12-2.14-.34-3.22,1.58-2.2,3.37-1.78,4.76-5.07.77-1.81,1.16-4.15,1.59-6.09-.13-.34-.46-.02-.65.07-1.44.63-5.43,5.55-5.58,7.15-.04.37.9,3.96-.58,1.99-.65-.86-1-1.55-.75-2.61.49-2.13,5.74-9.97,8.42-7.93,1.28,2.04-.42,6.37-1.48,8.39-.45.86-1.58,1.27-1.2,2.66.46,1.67,3.6,5.71,5.55,5.77,1.06.03.74-.31,1.16-.64Z"/>
      <path d="M270.18,138.44c.02,1.22-.68,1.44-1.21,2.02-2.71,3.01-8.12,8.27-12.1,4.44-2.67,2.04-4.88,5.97-8.76,3.25.7.03,1.23-.61,1.68-.74,1.07-.3,1.47,0,2.8-.77.64-.37,2.81-2.36,3.07-2.93.2-.44-.18-3.24-.12-4.19.15-2.04,1.1-6.53,2.06-8.25.86-1.54,3.56-5.31,4.71-1.88,1.19,3.54-.51,7.34-2.17,10.41-.71,1.31-3.48,4.1-.63,4.62,2.01.37,5.46-2,7.05-3.24,1.18-.93,2-2.48,3.62-2.74ZM257.23,141.55c.33.39,1.28-1.4,1.39-1.6.73-1.27,1.99-3.73,2.33-5.1.25-1.02.85-4.64-.25-5.04-.42-.15-1.04,1.48-1.36,1.76-1.58,3.01-2.54,6.61-2.12,9.99Z"/>
      <path d="M454.4,124.07c.83.56-.27,2.24-.4,2.8-.78,3.45-2.28,9.01-2.13,12.37.08,1.8,1.32,2.05,2.74,1.3.99-2.94,1.83-6.22,3.05-9.06.2-.45,1.4-3.02,1.54-3.19.24-.28.75-.26,1.08-.41l.61,1.31c-1.73.74-.98.84-1.3,1.81-.47,1.45-1.21,3.19-1.75,4.75-.22.65-1.75,4.27-1.51,4.61,1.62-.75,5.65-2.95,7.31-2.64.55.1.9.64.46.98l-8.14,3.33c-1.34,3.43-1.41,7.18-1.19,10.8-.66.06-.47.11-.59-.37-.85-3.24-.53-6.68,0-9.95-4.09.87-4.02-2.89-3.85-5.89s1.3-5.83,2.06-8.73c.17-.65.4-4.91,2-3.83Z"/>
      <path d="M50.43,119.02c.08.12-1.03.5-.7,1.52.06.19.46.15.47.29.11,1.57-2.23,3.82-2.87,5.06s-1.44,3-2.42,4.21c-.54.67-1.66,1.2-1.94,1.98-.35.95.41,2.57.5,3.6.08.82.06,2.03-.02,2.85-.07.72-1.36,5.89-1.66,6.14-.54.45-.36-.6-.71-.48,0,1.14.47,2.07,0,3.2-.18.5-1.1-.11-.96-.32l.72-.37-.46-.22,1.9-8.18-.33-4.31-.46-.31c-.18.01-2.44,1.01-2.64,1.15-.52.35-1.45,1.8-2.15,2.22-.59.36-1.23.48-1.72-.07-1.69-1.89.26-8.89.27-11.45l.26-.3c.43-.18.98.1,1.38-.21,1.16-.9,2.24-2.97,3.47-3.99,1.06-.88,5.13-2.63,6.52-2.83s2.37.12,3.56.81ZM38.34,124.44c-.1.14-.4.19-.57.49-.89,1.51-2.39,6.76-1.03,8.12,1.78,1.76,3.4-2.36,4.58-2.89s1.24.68,2.87-1.2c.75-.87,4.67-5.9,4.91-6.6.91-2.64-1.23-3.64-3.53-3.05-.28.07-4.42,1.93-4.62,2.1-.69.58-2.05,2.26-2.61,3.03ZM37,134.85l-1.44-.72.22,1.8.73.11.49-1.19Z"/>
      <path d="M330.6,239.9c.87.54-.69,5.09-.86,6.15-.65,4-1.09,8.1-1.52,12.15l.25,6.85s-.57-.23-.65-.31c-.66-.7-.98-4.22-1.04-5.31-.24-4.47.71-8.71,1.45-13.08l-10.43,15.83c-.45-.4-.67-.89-.56-1.5.11-.64,1.86-3.65,2.32-4.42,3.26-5.43,7.66-10.43,10.15-16.34h.89Z"/>
      <path d="M440.27,226.92c-.25.32.95,1.63.11,1.44-2.05-.46-2.76-6.12-1.98-7.75.17-.34.53-.38.66-.59,2-3.17,6.05-7.19,10.18-6.52,1.39.22,3.04,2.62,3.24,3.96.22,1.46-.48,3.47-1.32,4.65-.99,1.39-5.15,4.15-6.77,4.74-1.46.53-2.63.91-4.13.07ZM440.33,224.94c1.22,1.19,2.94.62,4.26-.05,1.22-.62,5.84-3.94,6.18-5.09.51-1.71-.08-3.8-1.65-4.73-1.41-.83-4.44.84-5.61,1.79-1.53,1.24-4.96,6.34-3.18,8.08Z"/>
      <path d="M382.68,272.49c-.07.59.28,2.03.19,2.48-.06.33-.82.8-1.08,1.28-.9,1.65-1.88,4.68-2.56,6.55-.34.92-.7,1.89-.85,2.86.42.46,1.93-2.04,2.11-2.32.93-1.47,2.16-3.68,2.89-5.26.27-.58.87-2.93,1.28-3.16.63-.36,1.74.09,1.35.97-2.24,4.1-2.87,8.51-2.11,13.12-2.13-.85-1.56-4.33-1.68-6.23-1.04,1.04-2.67,5.3-4.01,5.71-1.15.35-1.57-.18-1.83-1.21-.33-1.29.93-4.54,1.41-5.93,1.01-2.88,2.36-5.69,3.44-8.53l1.46-.35Z"/>
      <path d="M39.94,202.16c.43.71.3,1.91.16,3.03-.55,4.39-1.52,8.83-2.1,13.24-.43,3.29-.45,6.69-1.11,9.92-.4-.27-.34-.66-.37-1.07-.26-3.46.14-7.59.5-11.04.24-2.36.84-4.7.96-7.08l-4.08,5.87c-1.57,1.09-2.84,3.02-4.48,3.92-.68.37-2.51,1.34-2.48.05.73-.34,1.66-.93,2.27-1.45,4.07-3.43,7.51-8.51,9.24-13.54.29-.85.55-1.56.51-2.48l.8-.28c.52.26.06.69.19.9Z"/>
      <path d="M532.58,143.66c-.68,1.29-.32,2.22-.43,3.75-.03.46-.24.88-.24,1.34-.57.1-.75-.51-.85-.94-.5-2.12.2-4.2.19-6.31,0-.9,1.87-5.87,1.75-6.17-.25-.61-.27-.14-.42.06-.52.66-2.06,3.78-2.39,3.97s-.99-.01-1.39.05c-.19.99.87.16,1.2.35s.33.53,0,.73c-.9.57-2.04-.47-1.64-1.39,2.32-4.05,5.54-7.55,7.81-11.63.48-.86.85-3.31,2.06-2.91.24.1.37.3.47.52.32.73-2.15,5.33-2.58,6.41-1.24,3.09-2.3,6.19-3.06,9.41-.12.51-.56,1.04-.62,1.56-.06.47.25,1.01.15,1.2Z"/>
      <path d="M321.43,123.17c.73.62,1.63,2.03,1.41,3.04-.12.57-1.96,3.42-2.43,4.05-1.33,1.78-3.42,2.79-2.74,5.53h-.96c-.89-3.91,2.51-6.1,4.03-9.03.54-1.05.79-1.39-.08-2.23-1.52-1.47-3.4.26-4.27,1.67-1.81,2.95-2.5,7.65-1.05,10.84,1.56,3.44,2.24.27,4.73.43-1.37,1.44-3.75,3.96-5.33,1.37-1.8-2.96-1.93-7.31-.83-10.52.98-2.89,4.02-8.12,7.52-5.15Z"/>
      <path d="M52.11,140.6c1.43.15.86,1.88.96,2.88l1.2-.72c-.16.7-.12,4.06.22,4.44,1.44,1.61,4.82.08,6.14-1.08.6-.53,3.43-3.7,3.82-4.33.61-.98.71-4.19-.29-4.79-.46-.27-2.01-.54-2.58-.49-.95.09-1.66.78-2.51,1.1-.96.35-1.93.33-2.95,1.06-.35.25-.6,1.31-1.13.85.22-.27.36-.59.59-.85,1.65-1.85,3.51-3.04,6.02-2.9.14,0,0-.41.45-.47,1.64-.21,3.75,1.12,3.97,2.8.06.45-.16.86-.12,1.18.05.48.44.75.25,1.43-.73,2.52-5.53,7.83-8.17,8.26-5.81.94-7.28-3.58-5.86-8.38Z"/>
      <path d="M191.97,265.05c.68.66-3.66,9.23-4.19,10.56s-1.52,3.81-1.28,5.09c.1.53.68,1.75,1.4,1.27l1.79-5.17c.08-.3.81-.03.84,0,.09.1-.77,2.09-.89,2.59-.27,1.14-.26,3.55-1.27,4.24-.49.34-.86.23-1.25.38-.25.1-.16.69-.73.42-.77-.14-.65-.65-1-.92-.31-.23-.7-.31-.91-.49-1.16-.98-2.95-3.13.05-2.39-.01-3.7,2.66-6.6,3.5-10.05,1.39-1.17,2-4.34,3.21-5.37.27-.23.39-.19.73-.16Z"/>
      <path d="M432.35,105.59c-.46-.12-.5-1.45-.46-1.77.36-2.85,1.85-6.58,2.37-9.65.35-2.07.85-5.55.97-7.64.1-1.67-.1-9.03-2.51-8.97-1.68.04-.79,2.55-2.28,2.01l.75-2.96c1.88-.1,3.75-.39,4.65,1.64,2.24,5.1.32,12-.78,17.2-.33,1.57-.51,3.23-.94,4.81-.5,1.82-1.51,3.49-1.75,5.32Z"/>
      <path d="M187.49,153.61c-.94,2.34-3.48,7.63-2.54,9.94.19.47,1.66,2.01,2.19,1.71,1.85-3.17.52-7.08.97-10.42.06-.46.5-.32.5-.48.01-.36-.43-1.03-.24-1.54.21,0,.37.22.43.41.34,1.27.02,3.4.04,4.75.02,2,.29,3.85,0,5.97-.34,2.45-1.7,3.56-3.9,2.02-1.97-1.39-1.82-2.79-1.6-5.11s1.49-5.34,2.43-7.4c.3-.65,1.48-2.4,1.54-2.78.06-.4-.51-.51-.37-.97,1.3.33,1.73-.87,2.64-1.44-.48,1.44-.97,2.92-1.55,4.33-.22.53-.5.94-.53,1.02Z"/>
      <path d="M225.78,155.24v2.24s.87.37.87.37l.1.36c-1.08,3.08-1.81,6.28-1.96,9.57l-.68.4c-.1-.72-.39-1.35-1.2-1.2l.12.48c-.51.04-1.19.04-1.44-.48-1.04-2.13,1.53-7.67,2.4-9.84.38-.95.13-2.1,1.79-1.9Z"/>
      <path d="M505.28,155.46c-.4,1.01.56,2.52.49,3.24-.05.55-.73.57-1,1.17-.34.79-.25,2.13-.69,3.02.54.05.89-.5,1.16-.88.74-1.06,1.78-4.19,2.56-4.88.4-.36.85-.24,1.32-.24.39.39-1.76,4.05-2.04,4.8-.2.56-.91,3.95-1.08,4.08-1.11.01-.6-.91-1.08-1.43-.55,1.3-2.59,2.67-2.96.54-.2-1.18,1.12-4.49,1.48-5.86.37-1.44-.02-3.7,1.84-3.55Z"/>
      <path d="M319.36,225.72c-2.45.05-10.4,1.08-11.99-.84-.77-.93.11-1.48.98-1.17.41.14.68.51,1.01.62,2.17.75,5.81.71,8.21.92.72.06,1.35-.64,1.79.47Z"/>
      <path d="M498.8,131.96c.53-.73.25-5.27-.6-5.27-1.02.67-.89,1.52-.84,2.63-2.71-.96-.75-5.01,1.58-3.61.3.18.98,1.22,1.05,1.59.14.76-.2,3.23-.47,4.05-.13.39-.19.7-.71.62Z"/>
      <path d="M26.43,178.72c-.11.1-2.16-.08-2.88.11-1.3.34-2.43,2.44-3.83,2.28l.17-.43-.42-.18c-.12-.66.94-1.29,1.47-1.65,1.34-.91,3.6-1.87,5.2-1.16.48.21.63.71.29,1.02Z"/>
      <path d="M450.17,185.26c-.43.66.03,2.41-1.75,2.09.61-1.52.48-3.11.72-4.68.21-1.44,1.52-.8,1.76.17.07.28-.04,1.72-.12,1.97-.11.31-.51.31-.61.46Z"/>
      <path d="M180.42,233.9c.15.54.98,1.51.91,2.02-.04.28-.56.47-.58.71-.01.16.37.59.41.97.09.99.12,2.21-.59,2.98-.98-1.86-.48-4.14-1.34-6.12-.06-.53.82-.48,1.19-.57Z"/>
      <path d="M66.26,282.31l-1.32-.95c-.71.43.29.92.36,1.43l-.97-.12c-.32-.82-3.94-2.9-1.98-3.45.95-.26,4.43,2.5,3.9,3.08Z"/>
      <path d="M332.79,185.92c-.55.05-1.07-.23-1.52-.52-.63-.4-3.28-3.04-2.33-3.68,1.19-.8,1.53,1.17,1.93,1.69.31.41,2.4,2.03,1.92,2.51Z"/>
      <path d="M542.94,201.27c.55.59-1.14.66-1.2.72.43,1.01,1.56,1.63,1.44,2.87-1.56.21-3.46-2.48-2.06-3.62.38-.31,1.59-.22,1.82.03Z"/>
      <path d="M382.21,81.37c.07-.09.57.2.48-.24l-.72-.48c1.61-.61,4,2.77,3.84,3.95-.02.16-.41.51-.6.13-.07-.61-3.14-3.19-3-3.36Z"/>
      <path d="M114,225.48c-2.09-.5-2.33-2.63-3.12-4.31.61-.04.99-.07,1.45.35.16.14,1.8,3.8,1.66,3.97Z"/>
      <path d="M244.27,266.73c-1.39-.08-2.62-.77-1.94-2.3.35-.79,1.36-1.17,1.94-.45-.73,1.29-.14,1.47,0,2.75Z"/>
      <path d="M200.11,147.54l-.72-.13-.09-1.55c-3.04-.55-.09-2.9.89-.65.34.79.2,1.55-.08,2.32Z"/>
      <path d="M93.85,258.1c.15.79.5,2.14.89,2.81.27.47.88.4.79,1.02-.52-.19-.93.04-1.42-.37-.82-.67-2.28-3.31-.26-3.47Z"/>
      <path d="M198.93,90.24c-.29-1.08.53-1.61.84-2.4.17-.43.44-2.16.72-2.15l.8,1.03c-.83,1.23-.67,2.97-2.36,3.53Z"/>
      <path d="M477.47,302.47c.18,1.74-2.69,1.82-2.17-.25,1.49.32,2.52-.16,3.71-.96,1.04.97-.86,1.29-1.54,1.21Z"/>
      <path d="M95.05,134.12c.26,1.5-.65,1.28-1.18,1.81-.46.45-.7,1.22-1.21,1.55,0-1.43.57-3.73,2.4-3.35Z"/>
      <path d="M280.5,166.01l-.94-1.77,1.06-.86c.56.04,1.13,2.79-.12,2.62Z"/>
      <path d="M162.9,92.11c-.05.06-1.11.33-1.15.29.03-.52-.54-1.46-.02-1.81,1.18-.8,1.82.77,1.16,1.52Z"/>
      <path d="M547.75,282.79l-.09-.91.56-2.92c.72.27.03,4.25-.47,3.83Z"/>
      <path d="M573.89,150.43c.09-.07,2.01.54,1.92,1.08-.1.62-1.58-.18-1.92.01-.38-.15-.04-1.05,0-1.09Z"/>
      <path d="M35.31,159.3c-.81.02-.5,1.45-1.43,1.68-.24-.92.7-2.97,1.43-1.68Z"/>
    </g>
  </g>
</svg>