<?xml version="1.0" encoding="UTF-8"?>
<svg id="Kirchtagskrapfen" xmlns="http://www.w3.org/2000/svg" viewBox="0 0 595.28 396.85">
  <g id="Bgg47w">
    <g>
      <path d="M391.9,109.85l-.77-2.26c-.51-.13-.55.13-.79.46-1.51,2.18-1.17,12.8-.82,15.84.14,1.24.33,4.27,1.5,4.85l2.8-.05-.43-3.19c.33-.92,1.51,0,1.65-.13l1.39-3.88c-.19.51-1.75,1.27-1.83,1.4-.1.16.45,1.4-1.2,1.3.33-1.83.38-3.94,2.8-3.86.97.03.5.86,1.33.6.39-.12,2.36-2.68,3.37-3.07.49-.19,1.01-.04,1.46-.18.4-.12,2.69-1.4,1.96.06-.49.98-3.36,1.69-4.31,2.35-1.41.97-3.14,4.51-3.46,6.15-.51,2.63,3.41,1.72,4.81.82.97-.63,1.37-2.14,2.11-2.7.7-.53,1.76-.56,1.69.36-.02.33-1.03.35-1.28.66-.22.28-.98,3.15-.81,3.33.31.03.56.07.85-.11.2-.13,2.89-3.29,3.1-3.64,2.21-3.75-.91-4.21-1.64-6.97-.35-1.33,1.9.58,2.08.77,2.98,3.15,1.35,7.41-1.61,9.88-.89.74-3.11,1.19-2.31,2.49.66,1.07,1.55.7,2.53.34,1.81-.66,5.38-3.34,6.55-4.87.9-1.16,1.41-2.78,2.69-3.8l-.84.11c-.1-1.68,1.15-3.5,2.91-3.55.35,3.69-3.43,5.41-2.81,9.29.25,1.56,3.17,2.94,4.67,2.53-.6-1.42-1.94-4.36-1.29-5.84.12-.26,1.64-2,1.96-2.28.44-.41.98-.43,1.27-.67,1.26-1.04,2.11-2.36,4.02-2.67,1.58-.25,3.67,1.01,3.83,2.69.11,1.19-.58,3.74-1.15,4.82-.73,1.38-2.33,2.25-3.26,3.47-2.31,3.05-2.01,5.17-1.32,8.74.31.44.35.15.63.09,2.46-.53,5.38-1.83,7.87-2.04,3.2-.28,7.57.01,10.34,1.66,3.84,2.27,6.48,5.42,4.38,10-1.22,2.66-8.11,8.46-10.74,10.26-.68.46-4.26,2.35-4.38,2.57-.27.52,2.34.97,2.47,1.75.85,2.14,2.3,8.99,5.65,6.33.25-.2,2.51-2.58,2.57-2.76,1.05-3.15-1.47-9,2.58-11.17,1.75-.2,1.87,3.88,1.31,5.05,1.45.17,2.1-1.33,3.22-1.92.84-.44,3.62-1.66,4.46-1.9,1.7-.47,4.35-.73,5.73.6.42.4,1.95,2.79,2.01,3.27.3,2.79-2.36,5.84-2.16,7.16.13.87,1.84,2.69,2.65,2.98.94.33,2.82-.25,3.67-.76.65-.39,3.61-3.43,4.03-4.08.47-.73.47-1.98.95-2.69.32-.47,2.17-1.51.07-1.6-.26-1.7,1.28-2.15,1.67-3.56,1.09-3.95,2.03-11.42,5.42-14.05.8-.62,1.83-.42,2.62-.83.35-.18,2.78-2.55,3.17-2.99.41-.48,3.49-4.57,3.58-4.85.52-1.58.06-2.54.21-3.83.11-.99.72-.93.79-1.04.91-1.59-2.28-.83-2.84-.87-5.51-.42-9.61-4.27-7.94-10.06-.99-.14-1.87.55-2.71.72-1.05.22-4.82,1-5.11-.32-.17-.79.66-1.08,1.29-1.15s2.83-.2,3.37-.16,1.02.62,1.34.55c.3-.06.53-.8.93-1.05.59-.36,1.5-.21,2.09-.67.39-.31.57-1.06,1.02-1.52,1.1-1.11,2.87-.99,2.6.74-.16,1.05-2.47,1.28-3.23,2.64-.87,1.54-.49,4.99.75,6.32.53.57,2.03,1.47,2.76,1.75,5.77,2.19,14.54-4.29,9.12-9.36-3.38-3.16-8.25,1.64-10.6,4.04-.28,1.43,5.22,3.35,4.31,4.16l-3.95-1.59c-1-.53-1.4-1.74-1.11-2.78.1-.37,2.11-2.86,2.28-2.95.35-.18.97.1,1.36-.14.26-.16.17-.74.48-1,.16-.13,3.27-1.75,3.6-1.88,2.93-1.12,4.76.82,5.8,3.35.79,1.92.56,4-.42,5.86s-4,2.65-4.25,4.75c-.11.93.25,1.68.22,2.51-.19,6.77-.08,12,.53,18.78.1,1.11,1.11,2.33-.14,3.37-1.85,1.53-5.36-.6-6.64-2.17-.7-.87-1.56-3.11-2-3.56-.34-.34-.49-.36-.96-.32-.3,3.2-2,5.98-3.8,8.55-.43.62-1.14,1-1.63,1.73-.36.54-1.78,3.39-1.17,3.78l1.38-.08c2.56-1.86,4.96-4.38,7.51-6.18.25-.18,1.88-1.3,1.99-1.33,2.82-.83.27,3.43-.07,4.55-.87,2.84-2.32,7.71-1.55,10.53.07.27-.18.54.4.4,1.72-.42,4.35-3.46,6.15-4.17,2.35-2.02,4.3-4.64,6.4-6.77.91-.92,3.57-3.66,4.47-4.21s1.23-.2,1.23.77c-.03,4.41-2.86,9.01-2.35,13.61.4,3.6,3.14.58,4.48-.38.46-.33,1.05-.29,1.54-.68,1.17-.92,4.78-5.23,5.22-6.59.59-1.8.2-4.19,3.11-3.78.55,2.31-1.33,3.2-2.17,4.78-1.17,2.21-1.71,6.12-1.34,8.56.5.38,6.48-3.71,7.1-4.43.33-.39,1.66-2.87,1.77-3.33.34-1.39.01-3.49,1.75-4.24.75-.17.98.68,1.16,1.26-1.56,3.16-3.1,6.41-2.8,10.05.05.59.14,1.22.71,1.53,1.81.63,4.59-3.51,6.62-2.7-1.79,2.05-4.89,6.02-7.83,3.81-2.01-1.51-.78-2.79-.82-4.65,0-.42.22-.81-.4-.71-1.09,1.69-6.58,7.22-8.55,4.76-1.26-1.58-.01-4.63-.08-6.44-.84.82-1.43,2.03-2.2,2.86-1.14,1.23-4.59,4.37-6.22,3.97-5-1.22-1.56-8.97-1.13-12.32l-.3-2.12c-.44-.01-.58.3-.84.56-3.11,3.16-5.72,6.77-9.15,9.64-1.7,1.42-5.9,5.35-7.42,2.34-1.93-3.82-.15-5.23.49-8.57.1-.53-.17-1.02-.1-1.52.13-.85.75-1.71.96-2.48.09-.34.42-.29-.16-.74-2.77,2.74-6.07,4.8-9.26,6.9-.17.62-.4,1.22-.41,1.87-.01.38.27,3.26.61,3.25.54-.66,1.15-1.72,1.47-2.49.16-.39-.16-.82.04-1.1.13-.19.68-.17.75-.44.13-.53-.79-2.43.61-2.31.19,1.41-.92,2.49.38,3.51l-1.75,4.29c.72.78,4.23-3.77,4.61-3.92.3-.11.48.12.53.32.36,1.53-2.47,4.75-3.83,5.13-3.77,1.06-5.34-3.09-6.21-5.9-2.09,1.87-3.63,5.38-6.79,5.66-1.98.17-4.48-2.03-5.01-3.9l-.71-.21c-1.24,2.07-5.65,4.06-7.95,3.93-2.96-.17-4.89-2.27-6.61-4.38-1.46,2.18-3.06,4.96-6.12,3.56-3.38-1.56-3.09-8.61-6.1-9.24-.8-.17-1.96.42-2.88.14l.03-.83c.93-.07,1.94-.55,2.75-.99,4.36-2.36,12.53-8.34,14.56-12.84,1.9-4.21-1.93-8.06-5.85-9-5.05-1.21-10.38.21-15.26,1.54-.58.45-.63,5.61-.78,6.7-.11.82-.77,4.1-1.89,3.97-2.29-1.4-2.83-4.34-3.47-6.8-.23-.44-.61-.13-.69.15-.48,1.61,1.32,3.24,1.79,4.65-1.68-.52-2.85-3.1-2.66-4.71.07-.64.8-.63,1.12-1.13s.31-1.36.61-1.95c1.05-2.02,1.47-2.87,2.27-5.11.49-1.35,1.37-1.55.39-3.5-.45-.89-3.08-.75-4.25-1.19-.42-.16-2.18-1.22-2.46-1.49-.91-.9-.14-2.38-1.17-3.24-2.13,2.49-5.25,5.95-8.87,5.33-1.29-.22-1.51-1.52-2.23-1.72-.51-.15-1.62.48-2.48.46-1-.03-2.8-.66-3.61-1.26-.42-.31-1.02-1.3-1.36-1.44-.55-.24-.5.92-1.21,1.31-.98.52-2.29.39-3.06-.42l-2.46-5.02c.2,1.63-.68,3.01-1.53,4.3-1.78,2.66-6.69,6.15-9.65,3.25-2.05-2.01-1.5-4.15-1.46-6.7,0-.54-.27-1.08-.24-1.68.13-2.29,1.55-2.21,3.44-2,.09.93-1.08.58-1.73,1.19-1.4,1.34-.44,2.52,1.35,1.88-1.21,2.02-1.89,2.96-.88,5.3,1.32,3.05,4.12,1.36,6.09-.09,2.22-1.64,5.24-5.15,3.84-8.08-.04-.08-1.13-1.33-1.21-1.39-.65-.48-2.34.18-3.06.54-1.21.61-3.21,2.85-4.08,3.18-.96.37.11-2,.51-2.35,1.61-.3,3.24-2.69,4.73-2.8,1.7-.13,2.78,1.63,4.25,2.09-.66-2.01.04-4.31.2-6.3.14-1.68.12-8.16,1.69-8.92,1.42-.69,2.05,2.64,2.12,3.58ZM427.95,121.37c-.17-.18-3.75.04-4.29.21-.5.16-.67.64-1.09.87-.31.17-.81.03-1.04.18-.12.07-.56,1.16-.88,1.52-1.72,1.93-2.41,1.57-1.27,4.58.8,2.1,1.7,2.61,3.8,1.3.39-.24,3.87-3.68,4.08-4.04.66-1.16.62-3.3.7-4.62ZM401.69,127.82c-1.22.09-1.94.99-3.26,1.03-1.06.03-1.65-.66-2.63-.52,1.72,1.51,3.58,1.87,5.83,1.73l.07-2.24ZM488.25,153.83l-1.01-15.7-6.27,8.06c.16,1.43,1.31,2.29,1.96,3.31,1.35,2.13,2.16,4.64,5.32,4.33ZM421.57,136.86c-.66-.11-.44-.03-.6.37-.19.48-1.1,3.83-.94,4.07,2.97-.28,2.68-2.24,1.54-4.43ZM422.38,146.55c.17-1.34,0-2.84.13-4.2l-.56-.32-3.17,2.72,2.5,5.26c.28.01,1.04-3.06,1.09-3.46ZM479.29,145.44c-.58-.1-.94.44-1.26.82-1.65,1.94-3.49,6.79-4.04,9.3-.15.67-.11,1.35-.13,2.03.56.13.67-.25.91-.62,2.2-3.34,4.53-7.45,4.52-11.53ZM455.82,169.34c.32-.61.21-1.46.42-2.02.24-.64,1.36-1.18,1.75-2.18.28-.71.19-1.44.49-2.08.63-1.36,3.24-1.13.04-3.42-2.75-1.97-4.73-.8-7.69-.1l-.6.81.56.29c-.59.77-1.19,1.91-2.3,1.75l.03-.84c-2.92.35-5,4.64-3.43,7.16s4.16,2.82,6.8,2.07c.94-.27,2.21-2.44,3.93-1.43ZM443.42,163.34c.91,1.06,1.51-4.44,1.27-4.72l-1.13,2.13-.14,2.59Z"/>
      <path d="M248.87,323.38c.03-.15.37-.4.3-.69l1.38.6c.24-.72-.74-.69-.81-1.06-.3-1.48.76-1.69,1.97-1.38.91,1.4-.66,1.93-.88,2.88-.38,1.61-.85,5.22.33,6.46,1.57,1.64,7.94-.85,8.43-2.61.22-.81.04-1.75.44-2.58.64-.16.88.78,1.27.86.75.15,2.48-3.2,2.18-3.55-1.44.08-1.56,2.38-3.15,2.14-.29-1.13.48-1.44.84-2.14.66-1.3.44-2.28,2.45-1.61,1.75.59,1.66,3.38.07,3.87l.4.56c.17,0,1.08-1.62,1.34-1.98.96-1.36,3.89-4.69,5.35-5.65,4.25-2.78,10.06,2.31,9.43,6.86-.2,1.42-2.39,4.2-3.73,4.86-.68,1.08,1.82,3.12,3.07,3.16.89.02,1.47-.71,1.67.31,2.23-2.65,5.27-.76,5.65-5.27.2-2.38.48-6.36.2-8.63-.06-.46-1.36-3.43.3-3,.84.22.91,4.56,1.4,5.75.83,2.03,1.74,3.14,4.03,2.63,1.29-.28,6.66-2.83,7.72-3.64.66-.51.92-1.17,1.46-1.62.3-.25.39-.58.72-.12.76,1.47-1.43,4.09-1.7,5.72-.31,1.81-.42,7,.32,8.61.92,2.01,3,1.33,4.55.35,2.92-1.84,5-5.02,6.16-8.2.56-1.53.28-4.21,2.39-4.87l.62.26c1.24,1.43-1.25,3.94-1.71,5.13-.58,1.5-.93,5.25.02,6.63.7,1.02,2.23.33,3.04-.18.29-.18,3.53-2.97,3.68-3.17.13-.17,1.34-3.43,1.54-4.01.53-1.52.23-4.27,2.43-3.89.71,2.87-1.96,5.49-2.11,8.41s1.16,5.8,4.49,4.37c3.15-1.35,2.3-3.43,3.17-6.17.44-1.38,2.6-5.74,3.58-6.6.38-.34,2.79-1.9,3.09-1.84,1.88.37.42,3.74-.04,4.8-.64,1.46-2.01,3.66-2.93,4.98-1.22,1.75-4.7,3.87-1.65,5.96,2.94,2.01,4.89-.74,7.44-2.1-.69-.44-1.59-.49-1.35-1.58.9.59,4.66-1.84,4.93-2.43.55-2.49.17-5.11.43-7.62.33-3.11,3.12-12.92,5.1-15.11,1.03-1.14,1.47-1.79,2.83-.74,4.58,3.52,1.84,10.7-.47,14.84-.96,1.73-5.45,6.92-5.68,7.86-.35,1.45,1.8,3.26,3.31,3.24.82-.01,3.77-1.25,4.29-1.82.62-.67.75-2.33,1.36-3.1.36-.45,1.81-.84,1.32-1.56l-1,.53c-.31-.38,1.25-4.3,2.24-4.43,1.92.04.31,4.16-.04,5.18-.72,2.08-2.32,3.46-.85,5.73,1.04,1.61,4.23,2.26,6.01,2.09,3.14-.3,6.42-4.97,9.3-6.43l.4-1.31c-.75.55-1.79.72-2.55,1.19-.49.31-.85.93-1.31,1.21-2.91,1.78-6.72,4.16-9.57.83-2.25-2.62,1.1-6.44,2.95-8.46,4.03-4.38,12.38-9.84,14.51-.59.86,3.74-.68,3.71-1.87,6.54-.89,2.14-.57,5.67,1.48,7.12,1.08.76,3.04.52,4.27.18.55-.15,3.43-1.45,3.78-1.75,1.19-1.03.39-1.57.49-2.64.06-.65,2.38-6.26,2.72-6.61.64-.66,2.1-.29,2.4.72,1.03,3.5-2.91,6.16-2.79,7.81.1,1.34,2,3.33,3.39,3.43-.59-1.63-1.02-2.42-.58-4.24.63-2.56,4.53-6.87,7.06-7.81,2.72-1,3.04.04,5.36.94.62-2.19,1.24-4.39,1.83-6.59.16-.59.02-1.24.19-1.83.51-1.76,2.3-5.75,3.38-1.93,1.71,6.07-6.28,10.68-3.63,18.33.5,1.45,1.15,2.27,2.77,2.22,4.24-.12,3.24-2.63,4.44-5.71.61-1.56,2.49-4.77,3.69-5.91.98-.94,1.39-.55,2.07.51.87,1.35.68,2.38.12,3.85-.69,1.81-2.46,4.01-3.72,5.44-.48.54-1.27.38-1.38,1.59-.29,3.15,2.2,6.67,5.54,6.78,4.35.14,7.36-1.98,10.4-4.85,1.41-1.33,3.56-3.45,3.81-5.35,1.74.19-.34,3.77-.94,4.65-.92,1.36-6.15,6.12-7.59,6.95s-7.7,1.12-8.89.38c-.13-.08-.17-.5-.34-.61-2.53-1.71-2.85-3.59-3.71-6.45-2.47.53-3.6,1.6-6.08.14-1.46-.86-2.12-2.76-2.47-4.34-.38-.09-.35-.07-.59.16-1.89,1.89-3.31,4.4-5.97,5.44-2.43.96-6.22.8-8.03-1.29-.77-.89-.96-3.12-2.46-2.07-.69.48-.85,1.36-2.18,2.02-4.62,2.29-8.43.63-9.78-4.33-.22-.82.19-1.7-.48-2.26-2.41,3.1-5.86,5.37-9.6,6.54-3.99,1.25-6.86-.92-8.25-4.6h-.41c-1.74,1.73-5.03,3.01-7.17,1.28l-2.32-2.44c-1.12,1.72-2.93,2.8-4.39,4.15-.17.16-.18.65-.4.87-1.31,1.3-3.65,2.76-5.55,2.72-1.77-.04-2.51-1.12-3.4-2.48-.37-.56-.03-1.26-.97-1.52-1.15,1.48-.96,2.54-3.16,2.69-3.68.25-4.46-2.8-5-5.76-.43-.12-.45.05-.69.28-.98.92-1.59,2.26-2.8,3.09-3.81,2.64-5.05-.88-6.16-3.96-.51.21-.45,1.3-.74,1.74-.18.27-2.93,2.85-3.35,3.16-1.78,1.31-4.73,2.59-6.27.19-.72-1.11-1.85-5.68-1.79-7.03.08-1.78,1.06-3.86,1.04-5.71-1.53,1.46-6.92,4.27-8.88,3.87-.95-.19-1.26-1.21-1.82-1.85l-.83.16-.32,4.17c.75,1.09,3.21-1.18,3.22.5,0,.95-.78.95-1.15,1.37-.28.32-1.53,2.04-1.66,2.07-1.41.27-1.24-1.25-1.48-1.43-.76-.57-1.82.87-2.47,1.21-.73.39-3.8,1.56-4.48,1.61-1.01.07-2.58-.82-3.29-1.5-.52-.51-1.08-1.97-1.89-2.02-.32-.02-3.62,1.37-4.47,1.61-2.48.69-5.56,1.28-7.98,0-.74-.39-2.12-2.44-2.63-2.37-2.98,2.57-8.73,4.99-10.55-.08l-1.55.78c-2.51-.82-2.67-3.45-3.76-5.44l-4.7,5.98c-.85,1.51-1.99-.65-1.44-1.39.14-.18,1.23-.13,1.53-.54s.28-1.77.82-2.6c.6-.92,2.99-2.7,3.39-3.92.48-1.48-.14-3.33-.09-4.71.03-.73.33-2.2.48-2.99.7-3.69,3.17-10.87,5.81-13.49,1.43-1.42,3.48-.76,3.74,1.13.51,3.64-4.35,14.11-6.28,17.58-.65,1.17-1.87,1.9-1.96,3.44-.05.94,1.65,4.99,2.55,5.2.62.14,1.24-.64,1.26-1.17.04-1.22-.08-3.11.13-4.2ZM251.51,302.31c-.53-.11-.76.06-1.15.36-.13.1-1.84,2.28-1.98,2.52-2.41,3.97-3.42,9.39-3.57,13.99.64.15.45-.05.64-.34.79-1.2,2.04-3.63,2.66-4.97.69-1.5,4.25-10.62,3.4-11.57ZM344.89,326.04c2.54-3.94,6.13-8.17,7.07-12.87.59-2.95.09-4.98-2.08-7.13-.76-.03-2.37,4.15-2.68,4.95-1.26,3.34-2.5,7.69-2.76,11.24-.02.32-.29,4.28.45,3.81ZM371.98,317.47c-2.75-2.35-9.14,3.05-10.84,5.2-.51.65-2.52,3.5-2.71,4.09-.21.67.21,1.63.65,2.13,1.07,1.21,2.85.76,4.19.4,2.06-.55,7.89-3.47,9.33-4.96.9-.94,1.48-2.32,1.31-3.64-.08-.61-1.49-2.85-1.92-3.21ZM275.64,327.46c.33.4,2.53-2.2,2.67-2.5.69-1.52-.21-4.02-1.32-5.14-.36-.37-3.82-2.25-4.2-2.21-1.53.2-4.39,3.99-5.36,5.3-1.11,1.49-3.28,4.07-3.24,5.97.02.79.67,2.28,1.65,2.21l7.89-1.74c.77-.5.43-2.51.69-3.6.17-.7,1.23-3.33,2.07-3.3,1.96,1.01-1.69,3.07-.86,5.03ZM335.81,320.71c-.53-.65-2.15,2.3-2.31,2.51-.25.33-.84.4-1.01.73-.11.21-1.44,4.18-1.49,4.5-.04.22-.25.79.2.78.76,0,5.19-7.12,4.62-8.53ZM411.15,330.41c.54.57,2.29-2.37,2.47-2.72.66-1.28,1.2-2.48.82-3.9-1.11.35-.74,1.42-1.03,2.22-.21.57-.85.91-1.1,1.43-.46.97-.55,2.05-1.16,2.96ZM397.26,324.42c-.44.06-2.55.75-2.91.96-1.16.67-4.13,5.36-4.28,6.74-.39,3.7,1.94,2.77,4.02,1.39.88-.59,3.28-2.45,3.73-3.27.14-.25-.06-.7.05-.83.25-.31.98-.2,1.42-.79.26-.35.89-2.47.77-2.86-.91-.94-1.42-1.52-2.8-1.34ZM263.34,326.5c-.42-.16-1.32.99-1.45,1.2-.76,1.23-.27,2.09.91,2.7.31-.52-.14-1.13-.08-1.79s.71-1.35.62-2.11Z"/>
      <path d="M505.14,241.61c-.5.58-1.07,2.45-1.02,3.25l1.46-2.06c3.15-.3,1.83,4.71,2.1,6.73.49,3.64,4.58,1.9,7.14,2.1.57-2.61.53-6.13,2.03-8.41.39-.6,2.8-2.96,3.39-2.78,3.35,2.01,2.04,6.72-.15,9.14-1.05,1.16-2.47,1.42-3.31,2.54.41,2.39,3.01,3.61,5.24,3,.43-.12.79-.57,1.22-.74.37-.15.78.15,1.19-.15.57-.42.7-1.39,1.12-1.87,1.22-1.4,2.35-.88,3.04-3.56.2-.79.34-4.71.93-4.81,2.34-.38.64,4.29.52,5.2-.19,1.48-.52,6.1,1.9,5.82.44-.05,2.67-1.85,3.34-2.26.37-.22,1.26-.32,1.35-.45.13-.19.06-1.03.3-1.56.26-.56.94-.85,1.23-1.29,1-1.53,1.99-3.76,3.34-4.98.5-.45,1.69-.15,1.37-1.85,1.16-.86,1.33,1.77,1.24,2.5-.07.52-.66,1.24-.8,2-.21,1.16-.57,4.66-.46,5.81.17,1.91,1.62,3.55,2.37,5.26.24.15.57.02.81-.06.97-.32,3.65-4.05,4.47-5.09.24-.31.02-.7.74-.51l-1.35,4.35c-2.26,1.48-3.4,5.29-6.15,2-1.43-1.72-2.7-6.01-2.55-8.22.1-1.48,1.44-3.72,1.46-4.43,0-.34-.39-1.04-.84-1.01-.01,1.39-1.07,1.79-1.59,2.65-1.54,2.56-3.96,6.76-6.49,8.42-3.51,2.3-4.98-.91-5.74-3.95-.73.18-.95,1.12-1.47,1.47-.43.29-1.1.24-1.56.65s-.48,1.11-1.15,1.67c-2.47,2.06-5.87,1.26-7.67-1.23-.36-.5-.81-1.99-1.22-2.1-1.26.35-2.55.52-3.84.76-.3.05-.58.43-.94.44-.42,0-2.37-1.14-2.63-.92-.16.82-.2,2.16-1.17,2.35-3.08-.48-3.57-4.89-3.64-7.48-.03-1.04.83-2.5-.1-3.42-3.04,2.51-6.2,5.28-10.41,5.55-.2,1.25,3.68,6.57,1.87,7.06-.47.08-.68-.14-.97-.44-.28-.28-1.87-3.66-2.1-4.27-.65-1.7-.13-3.81-2.5-4.13-.28.06-2.25,3.38-2.68,3.8-1.02,1-.53.14-1.46,1.61-.73,1.16-3.2,3.52-4.46,3.94-2.09.69-5.51-2.56-5.44-4.79-2.62,1.89-5.83,2.96-8.82,1.08-.4-.25-2.43-2.69-2.54-3.05-.69-2.21.82-4.04.13-6.23-2.47.9-3.35-.01-5.45-.73-.64-.22-.46.82-.46,1.25.01,1.25,1.52,4.47-.94,3.46l1.1.6c-.49,1.78-.3,3.62-1.57,5.13-1.02,1.21-1.86,1.43-2.22-.38.51-1.56.21-3.2.43-4.72s1.51-3.39,1.56-4.71c.07-1.83-1.39-6.78-3.79-6.38-.51.09-3.44,2.04-3.33.54,0-.55.43-1.15.92-1.35.27-.12,3.41-1.09,3.6-1.11,1.77-.15,3.24,1.24,3.87,2.77.71,1.72.09,2.73,2.37,3.47,3.25,1.05,4.89.03,7.28-1.93.31-.26.8-.15.71-.54l-.57-.18c-.45-1.28,3.82-2.98,4.03-2.79l.22,1.97c1.6-.66,3.59-2.01,5.33-.79.94.65,2.61,4.96,2.63,6.22.06,3.9-4.33,6.8-2.03,10.32,1.87,2.85,5.77-1.14,7.22-2.74.45-.49.83-1.41,1.35-2.03s1.73-1.39,2.03-1.89c.5-.82.15-1.74.61-2.46.17-.27.75-.38,1.03-.7,1.96-2.24,2.43-4.39,4-6.77l.76.11c.38.07.37.15.36.5-.02.87-1.12,2.46-1.41,3.45-.54,1.85-.54,4-1.15,5.86.87.79,5.52-1.57,6.5-2.19,1.03-.65,2.33-2.22,3.48-2.68.35-.14.74.18.79.14.84-.53,1.87-8.21,2.51-9.92.6-1.58,1.83-2.77,2.45-4.33,3.7-.29,3.35,4.5,2.14,6.91-1.09,2.17-2.93,3.83-4.41,5.57ZM508.43,230.23c-.17-.18-.89-.5-1.03-.39l-2.27,9.45c.42.45,1.48-1.26,1.67-1.54,1.18-1.69,3.29-5.75,1.62-7.52ZM475.51,245.91c4.12.34,1.47-7.04-1.55-6.44-.57.11-3.15,2.06-3.6,2.53-.49.51-2.02,3.31-2.22,4-.53,1.79-.53,5.14,1.75,5.59,4.16.81,5.82-2,5.63-5.68ZM519.81,242.32c-1.5.17-3.13,5.08-3.22,6.45-.04.52-.08.91.39,1.25,1.87-.45,5.37-6.55,3.46-7.6-.23-.13-.37-.14-.63-.11ZM469.38,253.27c-.09-1.27-1.57-1.46-2.29-2.33-1.99-2.42.13-5.46,1.05-7.82.11-.28.4-.9.06-1.1-2.46.99-4.23,4.74-4.01,7.27.16,1.84,3.4,3.89,5.19,3.97ZM490.28,248.06c.85-1.32.64-2.67.7-4.18-1.29.79-2.01,3.08-.7,4.18ZM506.68,246.81l-.59-2.16c.13,1.02-.62,1.58-1.1,2.35l1.78,2.44c.06-.71.41-1.37.38-2.1-.02-.47-.44-.44-.47-.52ZM506.09,253.33c.53-.57-1.5-4.01-2.09-4.55-.32.59,1.39,5.31,2.09,4.55Z"/>
      <path d="M297.56,283.02c.06.07.6.06.92.35,1.59,1.46,1.37,4.56,1.07,6.48,1.66.17,3.58-.2,4.81-1.39,1.88-1.83,1.02-4.8,1.69-7.17.34-1.22.41-.97.64-2.49.32-2.11,1.98-2.09,3-3.47,1.99,1.21,3.68,1.74,3.64,4.47-.03,1.95-2.21,4.67-3.56,6.04-1.44,1.48-3.67,1.78-2.69,4.41.5,1.35,2.21,1.55,3.47,1.34.78-.13,1.24-1.04,1.89-1.46,2.39-1.55,6.72-4.21,8.02-6.8.55-1.1.52-2.23.95-3.33l1.53-.31c1.92,1.66-.85,2.98-1.58,4.3-.85,1.55-.9,4.32-.81,6.1.29,6.32,4.83,2.47,7.43.09,1.61-1.47,2.79-2.83,3.68-4.76.18-.39.77-.95.82-1.17.09-.46-.62-.72-.73-1.15-.19-.75,1.23-4.12,2.2-2.05.8,1.7-.17,1.74-.5,2.8-.81,2.58-.67,5.63.25,8.16l1.93-.18c.24,1.71-1.21,2.83-2.74,1.89-1.24-.77-1.49-3.08-1.67-4.41-.05-.4.29-.81-.38-.71l-1.61,2.27c-2.35,1.15-3.76,4.7-6.79,4.64-4.03-.09-3.5-5.93-3.18-8.69-.48-.14-.57.18-.85.39-2.9,2.08-5.14,5.92-9.16,6.18-2.72.18-3.65-1.64-4.22-3.94-1.44,1.83-3.64,1.96-5.7,2.6-.18,2.48-.8,4.95-1.56,7.31-.65,2.02-2.54,7.28-3.62,8.88-.47.69-1.44.61-2.06.13-1.65-1.78.34-14.77.46-17.75l-1.4-.5.31-.98,1.39.19c.07-1,1.86-6.42.64-6.7-1.02.16-1.46,1.08-2.07,1.63-.18.16-.71.14-.93.37-.4.41-.22,1.11-.73,1.54-1.06.9-4.25,2.71-5.62,3.56-1.52.94-3.7,1.17-4.01,3.25-.7,4.65,0,9.96-.24,14.57-.02.34-.35,1.78-.7,1.79-1.45-.57-1.11-1.71-1.59-2.84-.91-2.12-2.07-4.55-2.59-6.8-.08-.36-.43-3-.32-3.1.07-.06.63.17.87-.14.53-.68.72-2.82,1.76-3.56-3.38-2.81.43-1.29.62-1.36,1.6-.64,1.66-4.58,1.82-6.12.04-.44-.23-.99-.16-1.65.16-1.42,1.12-3.34,1.26-4.9-.2-.21-3.85,2.72-4.42,2.96-.67.28-1.45.19-1.94.46-.46.25-2.52,3.58-3.13,4.26-2.57,2.89-7.43,6.18-11.18,3.42-1.94-1.43-1.31-3.33-2.36-5.11-1.16,1.06-2.41,2.72-3.61,3.67-1.07.85-3.29,2.41-3.92.42,4.37-2.72,9.02-6.56,10.19-11.82l1.52.27c.48.21-.72,2.69.18,2.26.6-.92,2.14-1.72,3.18-2.11.56-.21,1.71-.23,1.78-.29.11-.09-.07-.61.22-.82,2.38-1.68,7.07.85,6.68,4,.26.42,2.92-.23,3.4-.44,1.08-.48,3.35-4.52,4.87-3.59l-1.64,12.25c1.89-1.38,3.74-3.38,5.63-4.7,2.31-1.61,5.5-3.43,8.19-4.16.43-2.27,1.16-4.52,1.65-6.78.53-2.4.16-3.83,1.9-6.08,2.24-2.91,2.62,1.32,2.42,3.16-.2,1.8-3.33,12.41-2.89,12.91ZM294.96,284.37c.58-.19.78-.92.97-1.42,1.67-4.57,3.08-9.54,3.18-14.41-.84.26-.71,1.32-1.06,1.91-.2.34-.63.52-.83.85-.76,1.28-.99,7.06-1.32,9.01-.23,1.36-.77,2.69-.94,4.07ZM311.14,277.6c-.57-.61-3.78,2.2-3.97,2.87-.12.43.26,1.06.2,1.62s-1.15,3.5-.26,3.5c1.08-1.24,4.96-3.84,4.75-5.52-.08-.68-1.02-1.54-.72-2.47ZM268.5,277.72c-2.85.13-6.99,3.48-8.13,6.1-2.25,5.18,3.43,6.24,7.11,4.11,2.18-1.26,6.69-6.73,5-9.49-.4-.56-3.17-.75-3.98-.72ZM298.01,285.03c-1.32,0-.54.91-.6,1.52-.17,1.61-.95,2.27,1.3,2.98l-.7-4.5ZM287.92,285.27c-.36-.34-3.51,2.15-3.94,2.59-.3.3-.51.16-.37.91,1.48-1.15,3.34-1.8,4.31-3.5ZM298.32,291.53c-.05-.09-1.16-.41-1.61-1.07-.58-.87-.35-2.79-1.56-3.56-.16,1-.71,1.97-.91,2.94-.67,3.21-1.25,8.12-1.51,11.41-.08,1.02-.22,5.13.38,5.75.48.51.49-.22.6-.38,1.51-2.3,3.15-7.87,4.1-10.67.27-.8.85-3.86.52-4.42ZM278.7,293.37c-.73-.15-.44.08-.6.38-.48.88-1.12,2.31-1.74,3.06-.26.31-.8.34-.85.4-.1.12.7,2.46.66,3l2.17,4.07.35-10.92Z"/>
      <path d="M171.6,234.46c.26-2.06.39-2.42,1.95-3.86,1.91.76,1.13,3.43.51,4.89-1.01,2.38-4.32,4.34-3.14,7.08,1.45-1.95,2.29-4.29,3.98-6.18,1.3-1.45,7.05-6.06,8.76-6.29,5.42-.72,4.33,4.99,2.43,8.09-1.55,2.55-3.13,2.88-1.71,6.4,1.24,3.07,3.27,3.81,5.76,1.4.78-.75,4.21-4.93,4.64-5.76.67-1.29.63-4.69,1-6.45.5-2.38,2.05-7.65,3.85-9.21.99-.86,1.6-1.25,2.85-.42.13.35.23.72.23,1.1.02,1.98-3,8.12-4.05,10.16-.66,1.28-2.17,2.56-2.32,4.21-.14,1.45.95,6.93,2.74,6.97,1.19.03,4.18-3.08,4.88-4.09,1.29-1.87-.48-2-.58-2.71.7-2.38,2.24,1.04,2.76.54-.43-1.14-.52-2.2-.17-3.36l-1.97.21c.08-1.39.92-2.43,2.27-1.45,1.67,1.22.18,3.32.56,4.9,1.26-.49,2.22-1.58,3.38-2.18,1.91-.99,4.02-1.95,5.97-2.89.56-.27,4.32-2.06,4.57-2.01.54.11.96,1.18.55,1.67-2.37,2.72-4.32,5.74-7.27,7.9-.19.19-.18.4-.12.65.04.18,1.72,2.79,1.97,3.06.68.78,1.61,1.52,2.68,1.43.28-.02,3.35-.83,3.49-.93.7-.5.12-2.4.26-3.49.32-2.48,1.04-4.21,2.25-6.29.28-.48.22-1.13.58-1.56.76-.92,3.02-2.21,3.51-.33.54,2.09-1.86,7.26-3.03,9.1-.46.72-1.21.56-1.21,1.91,0,1.88,1.87,2.31,3.42,2.52.3-1.7,2.41-2.01,3.33-2.87,1.13-1.06,4.69-5.88,5.35-7.32.76-1.65.85-3.78,2.62-5.02l.82.19c.22,1.75-1.31,2.94-1.94,4.4-.89,2.07-2.09,5.51-1.17,7.6,1.17,2.66,5.53-.52,6.87-1.81.7-.67,3.27-4.4,3.72-5.29s.84-4.45,2.17-4.05c.41.36.43.34.25.84-.35,1-1.16,2-1.26,3.23-.28,3.27-.42,6.72.57,9.92.13.41,1,3.1,1.73,2.58l.89-1.37c.36,1.51-.03,2.71-.13,4.2-1.69.36-3.12-2.16-3.67-3.48-1.16-2.81-1.75-6.61-.96-9.55-.57-.14-.66.26-.91.62-.93,1.28-1.56,3.04-2.31,4.19-.37.57-3.28,2.62-3.94,2.75-3.9.76-5.11-2.78-4.94-5.98l-4.51,5.75c-2.67,2.52-5.71,3.12-7.27-.8-2.38,2.26-6.02,3.01-8.43.3-.83-.94-.76-2.23-1.57-3.15-.81-.21-2.62,3.28-3.97,2.94l-.83-1.7c.1-.2,2.14-1.82,2.47-2.01.23-.13.65.06.82-.04.99-.55,4.32-3.78,5.04-4.71.3-.39,2.15-3.35,1.95-3.56-3.73,1.27-6.86,3.94-10.47,5.47-.74.31-1.57.18-2.2.54-.53.3-2.3,2.96-3.04,3.71-2.68,2.74-5.38,4.21-7.01-.5-.25-.71-.43-4.1-.83-4.1-2.19,2.88-6.35,11.4-10.72,6.79-1.35-1.43-1.74-3.38-2.08-5.25-.36-.07-.35-.09-.59.16-.41.43-.6,1.2-1.29,1.75-.85.68-3.57,2.11-4.63,2.3-4.27.79-5.04-1.87-6.51-5.18-2.24,1.04-3.87,3.19-6.65,2.58-.43.4.82,5.69-1.46,4.08-.37-2.39-.35-3.98-1.71-6.13-.68-1.09-3.11-2.75-.98-3.97l2.55,3.59.71-.41,1.09-12.01c-.46-.12-.57.13-.85.4-2.35,2.27-6.26,8.3-8.3,9.67-.71.48-1.48.88-2.12.09-.69-.85.41-.94.81-1.35,1.91-1.97,8.45-10.53,10.51-10.93.82-.16,1.75,1.24,1.65,2.02-.35,2.97-.51,5.98-.85,8.94-.09.81-.96,3.82-.43,4.21,1.25.91,5.89-2.28,6.44-3.59.9-2.14-.08-2.39,1.96-4.43-.1.79.16,1.65-.35,2.37.32.34.29.58.68.15,1.05-1.16,1.55-3.46,1.43-4.99-1.07.65-.77,1.48-1.76,2.47ZM201.6,225.06c-1.35-.02-1.6,1.25-2.18,2.15-1.03,1.59-.42.75-.81,2.03-.73,2.41-2.23,4.63-2.14,7.42.4-.06.56-.5.74-.8,1.57-2.66,3.72-6.62,4.28-9.62.07-.39.13-.78.11-1.18ZM183.52,238.48c2.07.13,3.39-4.7,2.96-6.17-.29-.56-3.76-.9-4.13-.74-.56.24-.92,1.27-1.48,1.65-.6.41-1.09.05-1.38.23-.89.55-3.49,3.54-4.21,4.5-.93,1.25-5.2,7.49-1.12,7.23,2.61-.16,4.82-3.86,6.51-5.54.55-.55,1.94-1.23,2.03-1.37.41-.6.12-2.49.76-2.59,1.53-.24-.23,2.5.05,2.8ZM227.58,235.98c-1.25-1.38-3.37,5.58-3.49,6.26-.13.77-.13,1.53-.14,2.31,2.02-2.33,3.36-5.49,3.63-8.57ZM182.36,239.57c-.46-.56-2.32,2.3-2.61,2.57l-2.01,1.76c2.43-.65,5.15-1.13,4.62-4.33Z"/>
      <path d="M310.88,110.36c.69.59-.35,5.34-.59,6.41-.67,3-1.64,6.17-3.47,8.66.39,1.22,1.63,2.05,2.86,2.22,3.26.45,3.34-3.61,5.05-5.42-.14,4.2-2.58,10.03-7.58,6.44-.78-.56-.84-1.35-1.68-1.63-.33.55-1.46,1.23-1.71,1.59-.26.37-.18.88-.6,1.39-1.7,2.02-6.98,3.16-8.71.52-1.57-2.4.3-5.43,1-7.87.11-.37.55-.52-.18-.49-1.71.96-8.46,9.16-9.56,9.23-1.31.08-1.98-2.05-2.2-3.1-.12-.56.28-1.62-.44-1.49-.72.1-2.19,1.88-2.88,2.43-.73.59-2.18,1.9-2.74,2.29-2.85,1.98-5.74.38-6.79-2.61-2.08.85-5.26,4.44-7.36,2.32-2.3-2.33-.36-6.51-.74-7.04-.73-.19-.44.16-.6.39-1.24,1.82-5.78,8.08-7.79,8.46-1.08.2-2.58-3.5-2.6-4.34-.03-1.4,1.15-4.56,1.48-6.1.27-1.21.17-4.2,1.14-4.86.64-.43,1.15-.33,1.26.46-.96,3.88-3.05,8.12-1.97,12.2.11.42-.02.85.57.8,1.4-.12,4.02-3.6,5.07-4.74,3.05-2.29,4.8-5.89,6.34-9.45.42-.81,1.4-.7,1.11.31-.37,1.28-1.64,3.16-2.07,4.45-.36,1.09-1.28,4.9-1.16,5.87.08.65.75,2.71,1.39,2.79s4.69-2.28,5.01-2.78c.72-1.12.02-2.17.14-3.3.06-.57.81-2.76,1.3-2.98.56-.25.41.47.4.72,0,1.35-1,3.13,0,4.33.18.04,2.7-1.98,3.01-2.28.22-.22,2.11-2.44,2.17-2.6.2-.57.25-1.07.22-1.67-1.95-.24-3.45-.12-4.95,1.24-1.1-1.54,3.57-2.69,4.25-2.6.92.12,1.99,1.65,1.73,2.58-.1.37-3.23,4.15-3.75,4.71s-2.03,1.53-2.16,1.76c-.69,1.27,1.14,3.16,2.41,3.3,2.43.27,3.04-1.23,4.73-2.35,1.43-.94,3.1-1.36,4.06-2.91.44-2.31.76-4.68,1.35-6.95.94-3.64,2.14-7.44,3.78-10.73.16-.31.78-.84,1.14-.83.38-.02.47.24.65.49,1.96,2.81.12,9.64-1.52,12.49-.59,1.02-3.21,3.85-3.42,4.46-.43,1.3.01,3.47.07,4.85.48.14.57-.18.85-.39,1.16-.83,2.32-2.29,3.46-3.26s5.97-4.92,7.05-4.95c1.91-.05.2,1.54-.1,2.24-.77,1.83-2.21,5.17-.66,6.86,1.03,1.12,6.33-.61,7.34-1.48.78-.67.65-2.23,2.04-2.02-.54-2.07-1.76-4.19-1.73-6.4.01-.98.75-4.12,1.06-5.17.57-1.92,1.69-3.87,3.11-5.3,1.04-.98,3.1.82,3.1.82ZM285.28,123.52c2.53-2.77,4.69-6.53,5.1-10.33.08-.73.23-3.79-.59-4.08-1.23-.23-.85.96-1.16,1.64-1.24,2.82-2.71,6.83-3.2,9.91-.15.95-.13,1.91-.16,2.87ZM310.06,110.58c-.12-.13-1.85.45-2.11.79-1.5,1.87-3.07,6.52-2.99,9,.01.42.62,3.4.75,3.52.11.1.86.08.98-.26,1.68-4.14,4.07-8.44,3.37-13.05Z"/>
      <path d="M92.12,144.21c.18.29.63.4.95,1.15,1.63,3.91-1.6,7.54-4.05,10.17l-.46,4.64c.23.76,2.09.57,2.76.42,2.1-.48,8.55-5.69,9.29-7.75.54-1.51.77-4.55,1.36-5.78.23-.47.92-.6,1.19-.9.66-.71.73-1.91,2.08-1.49,1.14,2.34-.43,4.74-1.65,6.73-.83,1.35-1.98,1.92-2.28,3.65s.03,5.47.31,7.27,4.24-.47,4.66-1.39c.32-.69.97-6.37,1.89-6.37l.7.48c.04,1.87-1.71,3.04-1.3,5.09.16.2,2.36-1.53,2.58-1.73.57-.51,2.84-2.92,3.01-3.47.35-1.1-.59-2.21-1.71-2.24.43-1.23,2.16-.75,2.65.1.73,1.27.07,2.78-.69,3.87l-5.05,4.75c.1.87,1.84,2.14,2.66,2.41.48.16,1.08,0,1.55.17.5.17.64.98,1.21.63,2.15-2.35,5.45-3.07,7.77-5.08.47-1.45-1.5-6.61-1.63-8.43-.22-3.04,1.15-.61,1.69-.21.72.53,3.42,1.91,4.27,1.98,1.79.16,2.24-.9,3.47-1.79.27-.19.18-.55.93-.32-.8,3.01-3.6,5.22-6.53,3-.12-.09-1.31-1.05-1.38-1.12-.55-.54-.53-1.27-1.06-1.61l1.14,8.16c1.36-.3,3.33-2.1,3.92,0l-2.94,8.43c-1.83-.79-.3-2.46-.31-3.2,0-.85-1.32-2.26-.73-3.55l-.69-.02-7.78,4.73c-3.07.47-5.19-.8-6.88-3.22-1.62.77-3.01,2.05-4.91,2.09-.52,1.81.72,3.25.33,4.98-2.65,1.04-1.6-3.46-2.18-4.79-.28-.64-2.31-1.42-2.62-1.96-.34-.6-.65-3.75-.85-3.76-2.58,1.34-4.96,3.67-8.09,3.39.42,2.17,1.57,4.21,1.19,6.48-2.95.38-1.75-5.95-2.64-7.02-.21-.25-1.03-.3-1.47-.66-.59-.49-1.18-2.2-2.17-2.33-.52-.07-2.11.74-2.94.91-.68.13-1.89-.06-2.27.18-.18.11-1.8,2.79-2.47,3.45-2.34,2.29-5.65,4.36-8.84,2.56-1.21-.68-1.5-2.05-2.65-2.66-1.09,1.67-2.26,2.61-3.79,3.79-.66.51-.39,1.33-2.19.72-.3-.1-2.01-1.92-2.2-2.27-2.11-3.85-.54-8.88-6.4-2.15-1.12-.75-.21-1.63.38-2.48,2.23-3.17,6.23-7.34,8.87-10.52.55-.66,1.71-1.1,1.32-2.06-.03-.08-.99-1.41-1.06-1.47-.81-.66-1.78.26-2.63.42-2.15.41-4.39.45-6.41.71-.57.07-3.92-.95-4.39-1.29-.63-.45-.66-1.5-1.12-2.12.35-1.1,1.41-1.6,2.41-1.95,2.58-.92,6.78-.96,9.32.1.99.41,2.33,1.98,3.1,1.89.15-.02,2.3-1.04,2.68-1.23,1.35-.67,6.21-3.97,7.11-4.03.37-.02.61,0,.94.17.19.09,2.92,2.7,2.99,2.9.37.99-2.2-.28-2.63-.23-.14.02-1.74.32-1.86.35-2.22.59-1.59,1.11-2.71,2.32s-2.56,2.32-3.7,3.59c-.38,3.62.26,8.2-.3,11.83-.17,1.11-.88,2-.96,3.32-.02.25-.23,1.24.39,1,.29-.11,2.26-2.67,2.5-3.12.82-1.59,1.84-7.9,2.48-8.36.31-.22.57-.12.86.04,1.13.63.15,3.29.27,4.36.65-.72,1.03-1.68,1.72-2.36.82-.8,3.29-2.69,4.33-3.06,4.5-1.57,5.53,1.96,5.33,5.75.3.51,3.11.3,3.7.12s.68-1.57.82-2.17c1.17-.25.81,1.27,2.01.91.14-.04,2.03-1.84,2.18-2.08,1.26-1.99,1.15-5.25,1.74-7.4.2-.73.87-1.23,1.05-1.78.15-.46.04-2.56,1.12-2.28.47.13.32,1.03.39,1.13l-.55-.15-1.96,8.76c1.28-.25,2.1-2.7,2.29-3.77.3-1.66-.14-3.2.22-4.83ZM61.24,147.38c.41.13,4.13-3.51,3.73-4.05-1.31,1.21-5.69,1.97-3.73,4.05ZM51.51,146.65c1.47-1.01,3.83-.37,5.55-1.19,1.16-.74-2.1-1.71-2.67-1.84-3.08-.7-5.49.06-8.5.5-.52.42,1.23,1.1,1.46,1.21,1.15.57,3.25.78,3.5,1.74l.55.02c0-.14.01-.38.11-.45ZM104.37,146.56l-1.99,2.1c.23,1.24.08,1.75-.41,2.87,1.43-1.16,1.9-3.27,2.4-4.96ZM61.1,150.5c-.64-.19-.47.14-.65.34-2.07,2.23-3.87,5.17-5.97,7.44,2.53,1.88,2.02,5.43,4.05,7.81l1.8-.49.03-.83-.85.53c-.07-1.55,1.05-2.84,1.26-4.3.33-2.35.64-6.06.56-8.4-.03-.72-.13-1.39-.23-2.1ZM75.01,153.47c-3.18-.18-4.74,2.6-6.58,4.64-.23.26-.64.09-.88.34-.96,1.05-1.52,3.47-.82,4.81,1.44,2.74,5.3,1.23,7.32.04.27-.16,3.01-3.13,3.12-3.33.18-.33.26-.71.15-1.08-2.38-.67-2.9-3.35-2.31-5.43ZM77.69,157.47c.04-.72.35-3.91-.81-3.91-1.93.62-.46,3.2.81,3.91ZM99.39,156.01c-1.01,1.02-1.57,3.07-1.34,4.49.14.88,2.12,3.24,2.12,1.28s-.91-4.06-.02-6.11c-.03-.03-.68.25-.77.34ZM87.52,156.67l-1.43.66,1.06,2.13c.46.09.27-.37.3-.68.06-.7.02-1.41.07-2.1ZM125.54,159.29c-2.41-.3-3.44,2.45-1.95,4.13l1.95-4.13Z"/>
      <path d="M39.08,257.2c.14.12,1.36,1.71,1.38,1.82.1.4.15,3.18.04,3.66-.7,3.05-4.3,7.61-6.44,9.95-.77.84-3.04,2.5-3.4,3.32-.33.75-.54,5.19-.09,5.52.57.06,1.16-.15,1.68-.36,2.79-1.11,6.63-4.21,7.85-6.97.58-1.3.37-3.78,2.57-3.76.95,2.66-1.44,4.37-2.31,6.65-1.92,5.04.31,14.56,6.31,7.89-.06-1.33-1.39.9-1.71,1.08-.7.41-2.01-.65-2.48-1.2-1.08-1.28-1.16-2.56-.92-4.16.5-3.25,4.26-8.46,7.65-8.92,1.86-.25,3.5.23,4.12,2.08,1.36,4.09-2.92,7.64.75,12.05,1.71,2.05,2.67.8,4.35-.54,2.3-1.84,7.07-7.83,8.69-10.42.59-.94,2.65-6.07,3.18-6.09.14,0,.74.37.84.53.62,1.07-1.12,3.08-1.53,4.16s-2.14,7.09-2.09,7.92c.02.28.17.62.43.69.36.1,3.6-1.28,4.18-1.59,1.75-.95,5.07-3.02,6.63-4.22,1.06-.82,2-1.97,3.04-2.84l-.84.11c-.11-1.23.81-2.34,1.91-2.76,2.39,1.79.66,2.08-.21,3.27-1.03,1.42-3.34,7.2-2.31,8.6s6.67-.66,7.56-1.68c.7-.8.43-4.19,1.94-5.9.6-.67,1.07.13.59-1.61.74-.69,1.48-.52,1.39.57-.05.54-1.75,3.26-2.02,4.48-.05.21-.44,2.04.29,1.76,2.55-2.19,4.67-4.67,4.61-8.25-1.05.27-1.89,1.26-3.1.6.66-2.84,4.4-1.68,4.16.94-.32,3.52-3.66,6.39-6.1,8.59.51,2.03,1.08,5.86,3.89,4.13,1.9-1.17,4.16-4.22,5.53-5.98.29-.37.76-.44,1-.74.75-.96,1.1-3.86,1.96-4.21,1.56-.62-.19,1.98-.25,2.36-.24,1.65-.45,5.58-.07,7.16.41,1.67,1.94,1.63,3.31.91.55-.29,1.16-1.35,1.76-1.88s2.15-1.56,2.59-2.15c.64-.84.62-2.01,1.12-2.87.45-.78,2.08-1.77,1.87-2.64l-1.29.8c-.39-.47,2.33-5,3.12-2.62-3.15,5.07-3.36,9.42-1.41,15,.13.38-.06.66.53.59,1.02-.12,2-2.65,2.9-3,1.01-.38-.15,1.03-.24,1.2-.6,1.2-1.11,2.47-1.5,3.75-.62.01-1.7.15-2.2-.17-1-.64-2.24-7.67-2.64-9.2-.07-.27-.03-.64-.4-.57-.7,1.2-.87,2.74-1.83,3.69-1.23,1.2-3.81,2.85-5.57,2.05-.5-.23-1.67-2.65-1.79-3.22-.28-1.37.46-3.1-.56-3.95-.53,1.47-1.27,2.9-2.26,4.11-.57.69-3.42,3.44-4.09,3.75-3.14,1.44-4.4-3.6-4.8-5.7-2.47,1.2-4.92,2.38-7.76,2l.42,4.22c-.95.07-1.35-.04-1.94-.76s-2.42-6.33-2.54-7.39c-.07-.58-.21-1.13.56-.94.24.88.42,1.83.75,2.69.14.36.39,1.2.8,1.28l.78-6.56-.55-.16c-.05.33-.18.61-.44.83-2.27,1.87-6.31,4.88-9.07,5.68-.54.16-1.08.19-1.64.14.39,2.16-.05,4.21.31,6.37.07.41.09.44-.38.35-.97-.18-1.88-1.53-2.01-2.46-.19-1.44.17-5.28.36-6.88.13-1.07.89-2.17,1.07-3.43.04-.3.27-1.54-.22-1.54-.73.95-1.13,2.2-1.78,3.17-1.65,2.47-6.06,8.18-8.65,9.31-2.35,1.03-4.71-3.46-5.15-5.35-.16-.68.27-1.73-.56-2.05-.29,2.58-2.28,5.07-4.43,6.42-2.43,1.53-4.29,2.27-6.42-.19-1.86-2.16-2.12-6.19-1.4-8.87-2.4.62-6.27,6.35-8.79,3.77-1.15-1.18-.67-3.68-.69-5.19-1.29.02-2.44,1.55-3.36.03.21-.27.77-1.26.89-1.36.41-.33,1.84-.51,2.35-.9.64-.49,1.84-7.87,2.32-9.47.81-2.7,3.67-12.11,7.88-8.33ZM38.06,257.06c-.31-.03-.55-.07-.84.11-.16.1-2.15,2.2-2.32,2.45-1.32,1.99-2.38,5.48-2.98,7.83-.2.8-1.33,5.93-1.11,6.19.46.12.57-.13.85-.4,3.18-3.12,7.75-8.21,7.43-12.93-.08-1.21-1.06-2.03-1.03-3.25ZM52.21,277.07c.44-.71.27-3.19-.86-3.55-.53-.17-2.71-.24-3.24-.11-.56.15-3.33,2.6-3.77,3.21-1.38,1.94-2.73,5.48-.85,7.52,1.41,1.53,2.57-.11,3.96-.72.71.06-.29,1.47.52,1.13.15-.06.7-1.3.76-1.51.23-.8-.89.21-.54-.58.67-1.5,2.48-1.8,2.74-2.29.32-.6.06-1.53.32-2.26.24-.67.86-.68.96-.85Z"/>
      <path d="M393.29,223.37c-.73-.4-.48-1.34-.81-2.09-2.69-6.11-8.21-.72-9.73,3.16-1.47,3.75-1.44,9.43-.31,13.26l.57.19c.04-1.32,1.46-1.72,2.34-2.58,2.18-2.13,6.42-6.23,7.89-8.66.39-.65,1.46-4.29,2.56-3.46.83,1.46-.21,3.47-.84,5-.3.73-1,1.27-1.26,2.13-.5,1.62-2.06,9.04-1.99,10.48s2.23,5.39,2.59,7.05c.16.71-.17,1.21-.16,1.89.78.85,7.19-1.6,8.06-2.55.67-.74.61-4.2,1.02-5.57.9-3.05,3.8-6.57,5.1-1.51,1.07-1.13,2.13-2.14,3.45-2.98.44-.28.97-.23,1.44-.5.65-.37,1.45-2.01,1.97-.51,1.43-2.18,4.82-1.21,5.85,1.02,1.67-2.44.64-5.85,2.02-8.55.4-.79,1.43-.25,1.91.26,2.05,2.17-1.68,7.48-2.57,9.74-.52,1.3-1.3,3.84-1.63,5.21-.63,2.67-.92,4.57.96,6.81,2.67,3.2,6.14-.63,9.22-1.2.46-.08.59-.22.76.39-3.49,1.2-6.22,5.87-10.29,3.27-1.92-1.23-2.62-3.8-2.8-5.93-1.21.83-1.89,2.04-3.08,2.93-3.71,2.79-10.11,4.12-11.84-1.43-1.91.24-2.78,1.89-4.83,2.47-1.01.29-4.45.4-4.71.62-.17.14-.33,1.45-.74,1.81-2.05,1.79-2.51-2.31-2.94-3.21-.82-1.71-1.79-1.86-2.84-4.66-.17-.45-.79-.99-.8-1.42-.02-.35.41-.59.47-.85.15-.66-.02-1.34.4-1.9.49-.65,1.81-.94,2.59-1l.23-.34c.34-2.44,1.09-5.06,1.41-7.47.05-.36.29-1.73-.21-1.82-1.61,2.68-4.11,5.11-6.53,7.07-.62.5-1.72.56-1.88,1.5-.29,1.73,3.21,7.53,3.54,9.97.22,1.65-.12,5.48-2.24,5.59-3.03.16-6.74-2.81-8.19-5.32-1.62-2.81-1.33-3.67.27-6.32,1.12-1.86,2.36-3.21,4.4-4.06.16-1.98-.57-3.89-.66-5.86-.26-5.91,1.26-13.71,7.16-16.39,1.66-.76,2.66-.88,4,.49,1.44,1.46,2.7,3.78,1.76,5.81ZM407.11,249.51c1.35,1.2,3.34.7,4.67-.21.58-.4,1.29-1.38,1.77-1.59.3-.13.68.17.96-.1.34-.32.99-1.82,1.51-2.46,1.35-1.68,4.06-4.12,4.42-6.32.32-1.98-4.19-2.39-5.51-2.13-.21.04-.23.44-.43.52-2.7.99-5.48,3.55-7.1,5.98-1.08,1.62-1.92,4.88-.29,6.33ZM406.8,238.93c-.65-.68-2.03,1.97-2.19,2.44-.11.32-.73,3.09-.09,3.08.53-.66,2.7-5.09,2.28-5.52ZM381.81,240.65c-.72-.21-.62.53-1.13.96-.66.56-1.45.94-2.03,1.6-1.19,1.33-2.75,3.95-1.5,5.62.39.52,3.51,3.07,4.2,3.52,5.01,3.32,3.74-2.25,2.79-5.34-.63-2.06-1.84-4.21-2.33-6.37ZM390.01,247.08c-.38-1.54,1.3-5.27-.94-5.35l-.72,4.27,1.66,1.08ZM391.8,243.77c-.5-.04-.59-.16-.57.4.03.85.25,4.13.57,4.63.11.17.87.65.94.6,1.28-2.31-.58-3.46-.94-5.63Z"/>
      <path d="M536.12,268.86c.75.56-1.17,2.85-1.53,3.72-2.67,6.52-4.86,14.99-5.19,21.99-.04.84.3,1.58.53,2.34.73.19,1.41.1,2.13-.11.27-.08,3.65-2.98,3.8-3.19,1.14-1.69.44-6.33,3.35-7.43-2.43-1.56.99-2.37,2.56-1.99l-.09,3.61-1.06-1.29c-.15-.08-.81.02-.94.1s-1.65,2.34-1.69,2.64c-.06.48-.06,1.08.52,1.25-.07-.76.89-1.17,1.08-1.45.42-.62-.15-1.61,1.53-1.26.33,2.67-4.55,4.65-3.28,7.28.2.41,1.11,1.35,1.52,1.56.85.45,4.84.71,5.75.47.46-.12.86-.82,1.43-1.08,1.42-.64,5.37-2.36,6.67-2.73,1.15-.33,2.79-.26,3.99-.23l-.8-7.94c1.74-4.61,2.14-2.78,5.11-1.39,1.41.66,3.86.65,3.47,2.58-2.28.08-4.62-.93-6.52-2.12-1.09.62-1.25,2.28-1.07,3.4.09.56.56.92.71,1.51.6,2.47,1.21,6.05,1.54,8.6.15,1.13.75,2.25.38,3.58-2.73.19-1.85-2.57-2.23-4.28-.12-.55-1.12-2.82-1.6-2.87-1.01.52-2.14.43-3.12.74-2.71.87-5.49,2.18-8.29,3.03-3.01.92-5.16,1.6-7.71-1.02-.66-.84-.44-3.04-1.92-1.43-.88.96-1.13,1.71-2.5,2.55-1.75,1.07-2.76,1.54-4.01-.54s0-4.36-.93-6.46c-2.08,2.79-4.82,6.67-8.29,7.66-2.31.66-3.9.93-5.9-.59-1.29-.98-1.96-3.48-2.14-5.05-.3-2.61,1.08-5,1.37-7.54-1.33.62-2.34,1.66-3.99,1.81-.15,2.57-.71,4.11-2.07,6.21-1.98,3.07-5.85,7.84-9.86,7.72-3.28-.1-4.57-3.68-4.69-6.48-.08-1.83.47-5.68.83-7.49.84-4.23,2.71-7.29,6.11-2.53,2.6-1.35,4.57-2.63,7.32-.63.85.61.9,1.47,1.85,1.54s4.6-.98,5.44-1.47c1.31-.77,1.94-3.2,3.89-1.87,1.31.89-.27,2.12-1.17,2.75-.79.56-1.28-.06-2.09,1.53-1.54,3-2.63,11.24,2.67,10.8-3.04-3-.76-7.88,1.6-10.6.75-.87,4.17-3.88,5.19-4.02,1.6-.21,2.97.12,3.83,1.53l1.21,2.25c.36-1.68.58-3.74,1.09-5.36.68-2.16,1.69-5.46,2.47-7.49.33-.85,2.14-4.09,2.75-4.59.27-.22.73-.45.98-.25ZM498.6,284.78l-2.71-1.8c-.22,2.03-1.53,3.77-1.31,5.84l3.76-3.08.26-.96ZM525.42,291.31c.5-.71,1.57-1.2,1.88-2.48.29-1.2.14-3.72-1.19-4.19-.3-.11-1.89-.39-2.12-.36-.36.05-1.27,1.14-2.35.69-1.11,2.44-4.01,5.25-4.89,7.66-.26.71-.29,1.22-.09,1.96.05.17,1.15,2.14,1.26,2.21.87.55,4.17-1.13,4.91-1.74.86-.72,1.89-2.76,2.59-3.75ZM505.87,285.57c-1.36-.18-2.27-1.58-3.66-1.21-1.45,1.56-3.91,2.4-5.32,3.88-.54.57-2.47,3.52-2.58,4.2-.18,1.08.71,1.56.64,2.55l-1.11-.31c.41,7.55,7.11,4.16,10.2.31.83-1.04,4.05-6.35,2.89-7.42-.97.1-4.25.31-3.85-1.41.26-1.13,2.52.5,2.79.22v-.81Z"/>
      <path d="M230.83,161.27c.4.06.73.05,1.11-.11,1.21-.51,5.1-3.03,6.39-3.9.78-.52,3.27-3.04,3.77-2.91,1.49.4-1.52,3.23-1.88,3.77-.67,1.01-1.08,2.31-1.84,3.25-1.57,1.96-4.44,3.22-6.58,4.42l.8,1.14c-.76-.01-2.83,1.03-3.31.39l-.3-1.62c.37.03.76.05,1.11-.12,1.14-.56,5.8-3.46,6.58-4.28.62-.66,1.04-1.72,1.23-2.6-1.62.87-3.01,2.17-4.66,2.98-.97.48-2.68.78-3.4,1.23s-2.3,3.32-2.99,4.13c-3.97,4.7-8.42,3.56-8.46-2.8-.85-.1-1.06.9-1.58,1.35-2.34,1.98-6.48,4.22-8.34.49-.72-1.44-.29-2.57-.63-3.74-.38-1.28-.97.69-1.36,1.22-3.14,4.3-9.27,9.38-11.51,1.33-2.85,1.59-7.52,7.08-10.76,3.58-2.46-2.66-1.06-4.39-.42-7.11.1-.44.51-.54-.16-1.03-.34.01-1.57,3.91-1.63,4.36-.1.71.6,2.03-.49,1.97-2.32-.13.75-5.11.16-6.4-.99,1.52-3.78,3.26-4.56,4.69-2.35,4.31-4.13,8.9-5.84,13.46-.35.94-1.89,3.36-1.95,4.03-.08.98,3.37,4.81,4.25,4.97.34.06.57.11.8-.2.55-4.08-1.22-8.24-.03-12.34l.7.3c-.06,1.55-.32,3.05-.3,4.62.05,3.19,1.58,6.43.25,9.4-.87-.18-1.74-.58-2.47-1.08-.85-.59-3.4-3.18-3.72-4.11-.66-1.87.23-3.93,1-5.71,1.75-4.04,4.1-7.88,5.98-11.86.16-.34.31-.63.25-1.03-3.1,1.73-6.92,3.76-10.4,1.75-.25-.15-1.75-1.47-1.93-1.72-1.19-1.61-.04-5.75,1.45-7.01,1.33-1.12,3.02-.76,4.41-1.23,2.62-.88,4.71-3.45,8.43-3.76,2.99-.25,6.1,2.48,4.14,5.43.86.16.8-1.08,1.33-1.62.57-.58,1.27-.65,1.47.24.17.73-.66,1.93.25,2.32.31-.93.87-2.07,1.49-2.82,1.44-1.74,4.33-3.79,6.39-4.56,3.1-1.16,6.75,1.61,6.48,4.88-.03.39-.63,2.14-.82,2.59-1.24,2.94-3.24,2.61-1.65,6.28.69,1.6,1.88,1.7,3.5,1.19,1.96-.63,5.77-4.75,6.88-6.56,1.35-2.2,1.52-4.67,2.89-6.91,2.7.04-.03,3.65-.5,5.11-.88,2.75-1.41,8.62,3.09,7.35,1.78-.5,3.05-2.13,4.39-2.85.32-.17.89-.03,1.06-.16.49-.37.55-3.94,1.17-4.11,1.13-.14,1,.97.93,1.71.97-.27,1.66-4.59,1.28-5-1.14-.09-.87,1.55-1.46,2.06-1.05.9-.18-1.4,0-1.73.59-1.11,1.37-2.25,2.09-.51.59,1.44.18,3.63-.72,4.87-1.03,1.43-1.89.86-1.88,3.52.02,3.24,1.49,5.32,4.65,3.21.51-.34,2.81-2.25,3.2-2.67.08-.08,1.11-1.61,1.14-1.71.26-.84-2.09-2.15-2.1-3.94,0-.7,1.21-5.18,1.59-5.56.98-.97,2.73-.07,3.2,1.09.97,2.39-.09,4.44-.64,6.71ZM197.15,160.39c1.49-1.16,1.63-4.69.41-6.07-.33-.37-2.58-.92-3.09-.93-.15,0-2.57.49-2.95.57-.69.16-4.43,4.04-4.94,4.85-3.41,5.41-1.16,8.72,4.74,5.06,1.11-.69,3.49-3.01,4.23-3.32.44-.18.98.31,1.6-.17ZM229.97,160.65c.19-.11.97-3.87.95-4.21-.06-1.09-.69-2.22-1.93-1.96-.48.1-1.07,2.51-1.06,3.12.02.94.76,3.8,2.04,3.06ZM166.27,159.02c-1.85,1.8-2.5,5.5.25,6.77,5.48,2.54,11.12-3.86,15.21-6.64l-.09-2.92c-.22-.75-1.56-.41-2.26-.6-1.25-.34-2.05-1.4-3.32-.86-1.49.64-2.23,1.3-3.56,2.06-1.41.81-3.74,1.6-4.65,3.16-1.04,1.79,1.04,1.79,1.55,3.09-.62.55-1.35.11-1.16,1.22-1-1.32-1.91-4.06-.67-5.49-.28-.66-.99-.11-1.3.2ZM194.15,163.55c.31-.29.98-.5,1.2-.9s-.04-.83-.26-.85c-.45-.03-3.83,2.81-4.75,3.33-1.44.8-3.3,1.9-4.86,1.06-.13-.07-2.32-2.06-1.86-.7.33.97,2.2,2.93,3.35,2.73.41-.07,4.44-2.35,5.04-2.76.84-.57,1.44-1.26,2.14-1.92Z"/>
      <path d="M220.53,185.04c-.84-.02-1.61-.31-2.05.56-.48.96-1.41,5.28-1.53,6.47-.35,3.37,1.27,5.08,1.17,7.33-.06,1.33-1.44,2-1.24,3.85.07.62,1.08,3.17,1.63,3.39,1.54.62,3.98-3.01,4.25-4.33.32-1.54-.27-4.15,2.37-3.12-.17,1.08-.79,2.11-.95,3.18-.08.52-.34,1.8.51,1.56-.04-1,.33-1.95.72-2.86,1.1-2.62,3.1-4.51,5.47-6.03,3.53-2.26,6.27,1.06,7.13,4.28l1.12-.24c-.61,2.22-2,2.77-2.02,5.35-.03,3.19,1.62,4.56,4.82,3.85.52-.12,4.64-2.7,4.98-3.08.74-.84.95-2.97,1.54-4.15.38-.77,2.82-4.5,3.56-4.61,1.66.59.69,2.17.28,3.35,2.42-.44,6.1-1.36,8.33-.09.33.18.33.52.53.66,1.37.96,2.31.51,1.6,3.22-.82,3.1-8.09,6.69-10.81,8.15-.07,2.59.96,5.03,1.32,7.65.21,1.56.45,3.71.47,5.26.07,4.63-1.04,6.27-4.27,2.11-1.57-2.02-2.7-4.81-1.71-7.34.69-1.77,1.56-3.83,2.34-5.61.15-.34.59-.3.65-.52.82-3.1-4.02-4.02-3.4-7.48-.43-.12-.45.05-.69.28-.7.66-1.59,1.86-2.42,2.43-4.17,2.87-9.18.99-8.33-4.47l-3.18,2.28c-1.79-.39-1.43.45-2.56,1.3-3.25,2.46-6.24.6-7.18-2.88-.53-.52-1.35,1.57-1.62,1.89-2.99,3.59-4.96.47-5.92-2.69-.39-.09-.35-.07-.58.16-.67.66-.95,1.32-1.91,1.95s-3.65,1.75-4.8,1.84c-2.67.21-6.97-1.57-7.7-4.42-.15-.6.16-1.1.06-1.42-.09-.25-.6-.42-.66-1-.05-.47.72-3.11,1.03-3.39,1.51-1.42,2.75,1.58,2.97,1.43.55-1.22,2.96-4.16,4.1-4.75s3.04-.71,4.14-1.64l3.14,1.15c.28-1.96,1.35-9.34,2.7-10.31.76-.54,3.08,1.16,2.62,1.51ZM214.82,195.01c-.95-1.05-3.13-.94-4.41-.65-2.13.49-5.98,4.52-6.88,6.56-1.82,4.12,1.06,5.73,4.91,5.24,1.49-.19,6.18-2.59,6.65-3.91.41-1.14-.07-1.73-.07-2.68,0-1.02.36-3.93-.21-4.56ZM236.03,197.11c-.18-.17-.61-.19-.87-.39-1.25-.97-.91-1.42-3.05-1.23-1.68.15-1.35.91-2.16,1.46-.39.27-1.07.21-1.34.46s-.36,1.09-.62,1.51c-1.05,1.66-3.67,5.35-2.1,7.3,1.22,1.51,3.17,0,4.49-.43.48-.16.94.04,1.45-.14.48-.17,2.51-1.43,2.96-1.79,1.73-1.36,3.07-5.05,1.24-6.74ZM252.06,197.82c-.62.04-1.72,1.37-1.96,1.82-.17.32-1.01,2.61-.28,2.59,1.03-1.36,2.51-2.51,2.24-4.4ZM260.64,204.65c.45-.44,1.23-.56,1.34-1.34-.04-.68-.21-1.56-.79-1.97-1.11-.79-6.04-1.86-7.32-1.46-.42.13-3.1,3.38-3.28,4.03-.26.94-.14,5,.73,5.33.96.36,4.4-.6,5.38-1.14,1.32-.73,2.84-2.39,3.94-3.46ZM201.87,199.29c.01.5-1.34,2.88-.52,3.06.93.2,2.11-3.15.52-3.06ZM249.78,207.83c-.83-1.37.1-2.77-.28-4.21-1.14.8-.93,2.51-.4,3.64.19.42-.03.68.69.56ZM251.26,214.04c-.71-.74-.92,1.81-.98,1.99-.52,1.58-2.5,5.98-1.58,7.34.16.23.64.3.85.62.76,1.18,1.29,3.05,2.96,3.53.49-2.47.22-5.13-.11-7.63-.1-.75-.94-5.64-1.14-5.86Z"/>
      <path d="M308.47,203.83c-.94,2.71-5.04,5.84-7.91,4.86-1.35-.46-3.12-1.57-3.44-3.04-.41-1.88-.42-4.61.09-6.46.08-.28,1.03-1.57.12-1.33-1.7.45-4.2,3.68-6.19,4.18.37,2.79,2.36,5.63.89,8.41-3.65.42-1.11-1.35-1.04-2.56.03-.59-.77-4.58-1.13-4.67-1.82.54-3,2.3-4.97,2.36-.91,1.14,5.67,2.62,4.62,4.35-.58-.03-1.19.04-1.76-.11-1.04-.28-4.88-3.55-4.81-4.73.03-.59,3.11-2.42,3.68-1.13-.38-1.5,2.67-1.76,2.2-2.74-1.88-2.51-5.12-2.79-7.28-.51l-.65-.96,4.47-5.09c1.3-2.76,4.08-5.96,3.47-9.2-.22-1.15-2.06-1.52-3.13-1.67-4.1-.59-11.51,1.21-15.25,3.07-1.04.52-1.34,1.55-2.92,1.08-.23,1.13.64,1.88,1.03,2.83-.95.1-2.57-1.19-2.42-2.11.18-1.03,1.14-.91,1.71-1.39,4.18-3.51,11.83-5.85,17.37-5.2,6,.7,6.19,3.91,3.9,8.78l-4.82,7.16c1.49-.21,3.27.12,4.44,1.13.73.64.73,1.82,1.99,1.54.43-.1,5.12-3.28,5.92-3.84.59-.41,3-2.64,3.26-2.74.36-.14.69-.06,1.05-.05.49.51-1.43,3.35-1.73,4.09-.87,2.17-2.22,7.95.96,8.71,3.14.75,6.22-1.1,7.9-3.6.11.26.28.4.4.57.54-1.55.73-3.46,1.13-5.02.21-.83.82-2.62,1.78-2.74.6-.13.64.82.6,1.21-.33,3.06-2.64,4.79-1.11,8.78,1.76,4.57,5.96-.93,7.57-2.75l.68.58c.82-3.37,3.84-6.02,5.39-9.16,1.07-2.17,1.13-3.53,1.55-5.58.18-.88.58-3.2,1.46-3.35,1.01-.06,1.58,1.43,1.54,2.25-.07,1.42-2.5,5.1-3.08,7.1-.8,2.77-2.11,7.4,1.98,7.92,1.27.16,4.21-1.14,5.34-1.84.79-.49.94-1.15,1.5-1.59,1.23-.99,3.42-2.18,3.84-3.72.23-.87.19-3.05.6-3.7.3-.48,1.18-.34,1.49-.58.29-.22.75-1.66,1.26-1.99-1.19-.66-.84,1.14-2.15,1.47-.47.05-.45,0-.41-.43.08-.92,1.93-3.87,2.85-3.92,2.84,2.01-.99,6.17-1.8,8.51-.54,1.57-.5,8.5-.38,10.52.23,3.86,1.66,2.67,4.67,2.3-.39-1.8-2.63-3.42-1.09-5.35,1.02,1.07,1.07,2.31,2.29,3.27,3.79,2.99,9.37.25,13.43-.84.36-.47-1.17-6.7-1.14-8,.01-.66.56-3.59.85-4.04s.35-.13.6-.03c1.59.63,3.49,2.26,5.21,2.19s2.73-1.63,4.01-2.41c1.01-.61.56.77.35,1.24-2,4.32-6.63,3.12-9.51.43l-.14,4.34,1.28,5.45c2.36.49,5.82.8,4.64,4.05-.16.45-1.54,2.44-1.96,2.45-1.23.05-1.66-1.8-2.18-2.5s-1.39-.9-1.63-2.05c-1.81.39-3.59.96-5.35,1.53-3.04.98-3.24,1.8-6.74,1.18-.53-.09-.99-.58-1.4-.59-.47,0-1.84,1.51-2.97,1.74-4.18.84-6.64-2.56-6.56-6.39.03-1.3.79-2.37.43-3.77,1.28-.14-.29,2.31,1.32,2.28l-.18-3.09c-3.19,1.49-6.69,6.56-10.67,5.81-1.15-.22-1.73-1.51-2.91-1.48-.44,2.17,1.47,5.04,1.2,6.91-.17,1.16-.59,1.21-1.45.52-2.58-2.08-.89-8.99-1-11.95-1.53-.22-1.63,1.83-2.21,2.71-1.17,1.78-4.01,5.48-5.66,6.71-2.29,1.71-5.33.98-6.24-1.75-.41-1.21-.11-1.69-.9-2.82ZM362.06,207.05c.28.33,1.27,1.99,1.74.63.42-1.21-1.44-2.19-2.45-1.59-.18.65.45.65.71.96Z"/>
      <path d="M79.82,117.2c.28,0,.56.04.83.02.86-3.86-.12-8.78,2.52-11.93.72-.38,2.26-.58,2.62.33-1.52-.34-2.58,1.7-2.83,2.92-.58,2.9-1.14,10.73-.72,13.57.88,5.97,4.17,6.39,8.4,2.71l-.32-3.36c2.78,0,1.42,3.33,3.51,4.03-1.12-3.24,3.34-9.5,6.13-10.69.76-.32,1.26-.16,1.86-.33.15-.04,2.54-1.37,1.49-.15-.56.64-1.67.66-2.29,1.03-1.76,1.06-6.12,6.33-6.23,8.34-.03.52.24,1.29.3,1.85,2.73,1.05,8.58-1.31,10.04-3.79.4-.67.38-1.59.72-2.13.5-.8,1.44-.42,1.14-2.25s-2.72-2-2.68-3.59c2.18.16,3.96,2.59,4.23,4.61.21,1.58-1.32,2.08-1.53,3.27s-.08,4.8,1.85,3.76c1.18-.64,5.16-4.06,6.04-5.13,1.15-1.4,1.15-3.6,3.32-3.26,0,2.25-2.31,2.75-2.83,4.93s.31,5.44,3.07,5.16c-.85-4.05.25-6.96,3.92-8.84-.3,2.02-3.09,3.59-3.21,5.63-.03.42.21,3.27.39,3.41,1.87.58,2.59-.64,3.72-1.29,1.37-.79,3.29-1.6,4.45-2.64,1.9-1.69,2.58-3.94-.1-5.28-2-1-2.68-.63-4.27.75l-.25-1.13c2.05-1.06,3.71-1.89,5.74-.21,1.63,1.34,1.69,4.07.51,5.72-1.09,1.53-6.34,4.34-8.21,5.14-.43.18-.87.22-1.33.18-.57,1.36,1.15,2.33,1.27,2.75.16.53-.03,1.22.19,1.99.3,1.05,1.54,1.97,1.98,3.3.81,2.48.08,4.05-.62,6.4-.27.9-1.12,4.16-1.93,4.33-.81-.11-2.36-1.74-2.81-2.44-.14-.22-1.23-3.01-1.25-3.18-.04-.26.99-3.31,1.18-3.84.44-1.22,2.02-3.89,2.13-4.98.03-.34-.73-3.01-.91-3.45-.38-.92-1.94-.4-2.51-.63-2.15-.87-2.34-4.12-2.69-6.04-1.02.26-1.37,1.29-2.16,1.89-1.14.87-2.75,1.28-3.5,2.7-1.47.32-1.95-1.37-2.18-2.53-.2-.99.44-1.68-.7-2.05-2.95,3.23-6.26,5.11-10.79,4.41-1.33-.2-2.31-1.56-3.01-1.52-.63.04-1.84,1.6-2.73,2.04-4.01,1.99-6.25.3-7.48-3.6-.11-.36-.26-3.37-1.01-2.71-.31,1.23-1.34,2.37-2.21,3.29s-4.19,3.69-5.28,4.22c-2.58,1.26-5.08.62-6.56-1.81-1.57-2.58.29-7.14,1.3-9.73l.82.17c.28,2.06-1.02,3.57-1.3,5.54-.04.3-.35,2.69.34,2.39.47-.21,1.01-1.95,1.4-2.56.47-.73,1.13-1.58,1.71-2.23.94-1.07,3.46-3.32,4.62-4.05,1.34-.84,4.39-1.67,4.73.56-2.35-.01-4.75-.22-6.47,1.64-.95,1.02-2.86,3.87-3.6,5.14-1.42,2.43-2.6,4.42,1.73,3.87,2.61-.33,8.47-5.76,8.55-8.25.01-.41-.13-1.93-.21-2.39ZM121.3,134.22c-.38-.1-.46.04-.71.25-.53.43-2.53,6.25-2.58,7.1-.09,1.49,1.47,2.98,2.52,3.81,1.03.04,2.27-5.5,2.33-6.49.12-2.1-.78-2.92-1.55-4.67Z"/>
      <path d="M376.48,284.61l.67-.36,1.85.59.35-2.23-1.85,1.05c-.46-.35-.5-.68-.33-1.21.06-.17,2.32-2.57,2.48-2.66.32-.18,1.17-.08,1.4.13,1.02.96-1.16,5.05-1.8,6.11-.54.87-1.54.7-.99,2.62,1.17,4.11,7.62,5.66,11.02,3.52.37-.23,3.2-2.95,3.28-3.18.52-1.6-1.32-3.08-1.38-4.31-.02-.52.58-.62.72-1.03.35-1.06-2.22-3.58-3.33-3.56-1.72.03-6.72,4.57-7.04,6.44-.3,1.72.88,1.69.96,3.18-2.07-.22-2.07-2.17-1.84-3.84.49-3.45,5.39-8,8.95-6.49,4.2,1.78,5.32,8.53,3.15,12.16-3.28,5.48-14.47,4.26-16.14-2.11l-.55-.2c-.55,1.75-2.17,3.27-3.65,4.36-3.87,2.85-6.78,3.06-8.06-2.2-.19-.79.22-1.9-.61-2.28-.66,2.15-2.91,6.44-5.59,5.93-3.25-.62-2.33-7.92-2.68-10.4-.65-.2-.47.14-.65.33-1.88,2.02-3.85,6.94-7.28,6.83-2.83-.09-2.09-3.75-1.17-2.97l.27,1.1c.35.26,2.73-.8,3.02-1.07.24-.23.32-.82.67-1.17,1.69-1.68,3.63-3.12,4.99-5.11,1.7-5.83,2.24-12.69,4.19-18.4.21-.62,1.46-3.07,1.81-3.57,1.54-2.16,3.16,2.23,3.15,3.71-.03,6.18-3.62,11.43-6.41,16.55-1.24,2.27-1.25,6.09-1.03,8.68.32,3.81,1.67,5.12,4.27,1.72,1.13-1.48,3.28-5.14,3.86-6.89.25-.75.93-4.94,1.31-5.02l.94.04c.29,1.62-.99,2.9-1.23,4.33-.33,1.94-.68,6.11-.05,7.87,1.27,3.57,3.89,1.73,6.2.13.87-.6,2.38-2.39,3.03-2.85.41-.28,1-.18,1-.23l.13-4.06ZM362.94,261.34c-.48-.11-.73.21-.98.55-2.32,3.28-1.81,5.2-2.43,8.7-.43,2.44-1.63,4.83-1.61,7.4.43-.06.55-.5.72-.82,2.09-3.81,4.9-10.73,4.14-14.96-.05-.29.22-.8.15-.87Z"/>
      <path d="M393.12,191.23c1.66,1.92,1.5,9.5,1.66,12.15.1,1.56,1.35,3.94-.58,4.59l-.6-1.04-1.13-10.48c-.74.58-.97,2.83-.98,3.75,0,1.53,1.12,8.71,3.4,8.26,1-.19,2.97-2,3.16-3.02.26-1.41-.48-3.75,1.81-3.43.24.25-.62,2.26.5,1.98l.72-5.02-1.18,1.64-.7-.29c-.65-.99,1.87-3.11,2.61-3.02.35.06.69.28.84.6.39.87-.8,4.34-1.21,5.36-.8,1.97-2.84,3.22-.82,5.23.89.88,3.71,2,4.87,1.41.49-.35.11-.4-.12-.71-.57-.77-1.22-1.01-1.57-2.06-1.48-4.45.87-8.99,4.39-11.72.64-.5,3.24-2.24,1.92-.26s-3.66,3.03-4.76,5.92c-1.01,2.65-.98,7.59,2.81,7.34,2.14-.14,1.55-.65,2.47-1.71.43-.5,2.15-2.52,2.85-2l.28,1.11c1.61.23,2.06-1.4,2.03-2.73-.83-.16-1,1.5-1.99.92,1.48-1.69,3.57-1.36,3.51-4.1-.04-1.98-2.62-4.06-4.5-4.22-.46-.04-2.42.41-2.38-.19,0-.09,1.09-1.09,1.35-1.16,3.98-1.04,7.97,3.59,6.77,7.51-1.21,3.96-2.44,4.85-1.06,9.55.3,1.03,1.11,2.16,2.3,2.2,1.82.06,2.46-2.78,3.85-3.73-.12-1.86.86-3.32.5-5.11l.98.3c.75,3.1-1.42,10.48-5.18,10.72-.55.03-2.37-1.18-2.8-1.6-1.34-1.3-2.43-6.13-1.17-7.72-.99-.29-.93.57-1.56,1.08-4.54,3.66-11.92,6.82-16.02.87-2.45,1.4-3.57,3.2-5.86.35-2.73-3.4-2.54-9.53-1.34-13.53.27-.9,1.44-1.41.15-2.73-1.11-.3-8.44,8.98-9.66,10.25-.73,2.18,2.83,1.7,3.49,3.27l-4.55-1.29c-.25-.17-.87-1.06-.92-1.33-.23-1.31,5.48-7.9,6.69-9.16.91-.94,4.01-4.1,5.18-3.87.31.06,1.35.62,1.56.86Z"/>
      <path d="M82.13,324.46c-.18-1.33-1.45,0-1.65-.9s1.02-1.07,1.4-1.69c.62-1,.35-3.45.12-4.63-.06-.31-.1-.97-.59-.79-2.83,3.05-6.57,6.72-10.74,7.51l-.68,3.04c-1.76.07-1.23-1.7-1.56-3-.25-.96-.9-1.59-1.2-2.4-.15-.41-.83-3.99-1.42-3.69-.91,1.77-2.47,3.05-3.79,4.5-.37.41-.51.97-.88,1.37-3.97,4.27-7.88,3.23-7.89-2.91-5.68,8.65-12.28,8.57-9.81-3.54l-.51-2.12c-.08.47-.31.9-.55,1.29-1.62,2.61-4.85,8.17-6.71,10.22-.62.68-1.24,1.14-2.02,1.62l-.65-.69,12.25-17.92c.52-.1,1.16-.14,1.43.42-1.87,4.62-3.35,10.08-1.51,14.91,1.95.56,2.64-1.1,3.69-1.91,1.79-1.37,3.56-2.74,4.67-4.86.48-.92.4-2.31.91-3.11.28-.44,1.9-.25,1.28-1.5l-1.01.81c-.54-1.1,2.55-6.08,3.14-3.62.65,2.74-1.72,4.93-2.56,7.29-.89,2.52-1.01,7.76,2.84,5.92,3.02-1.44,3.42-3.18,5.39-5.25s3.47-3.65,5.03-6.22c.8-1.31.9-3.83,2.5-1.89-1.03,2.14-.44,3.99-.44,6.09,0,1.45-.25,3.05-.13,4.47.04.4.1,1.14.64,1.05.6-.02,1.4-.55,1.93-.86,1.85-1.07,3.5-2.53,5.11-3.82,1.35-1.08,4.04-3.21,4.9-4.62.33-.54.35-.94.31-1.55-1.06.23-.93.65-.89,1.65-.7.07-.45-.02-.58-.42-.26-.8.16-3.59.88-3.75.82.18,3.12,1.14,3.08,2.12-.04.92-1.01,1.64-1.34,2.34-2.63,5.56-.04,11.94.03,17.66.03,2.78-1.61,2.48-2.67.39-.66-1.31-2.27-5.18-2.59-6.53-.19-.8-.63-1.79.63-1.81-.16,1.58.88,2.74,1.43,3.95.28.6.19,1.46.63,1.72-.11-1.34.31-3.06.14-4.34ZM69.08,320.82l.1-7.29c-2.08,2.16-2.46,4.12-1.35,6.97l1.25.32Z"/>
      <path d="M404.16,281.01c-.73.51-.54.08-.96.25-.55.22-2.08.73-2.39.94-1.11.75-1.02,5.41-1.48,6.77.42,3.04,2.09,2.74,4.23,1.37,1.37-.88,4.75-3.64,5.28-5.1.43-1.19-.45-3,1.54-3.86,2.42,1.25-.26,2.93-.69,4.2-.98,2.9-.07,8.66,4.27,7.16,1.39-.48,7.13-4.97,7.63-6.34.42-1.15.24-2.39,1.05-3.51,1.45-2,2.08-.23,1.73,1.56-.39,1.95-2.18,2.4-2.13,5.56.08,5.73,3.98,4.98,7.11,1.77,1.32-1.35,3.78-4.19,4.57-5.83.42-.88,1.12-4.04,1.95-4.3.73-.22,1.68.15,1.65,1,0,.19-1.64,2.74-1.89,3.38-.68,1.71-1.99,7.19-.85,8.65,1.21,1.55,3.26-1.78,4.03-2.51.34-.32.9-.4,1.24-.71.52-.48.78-2.02,1.82-1.39-1.43,2.37-2.53,5.03-4.84,6.7-3.72,2.69-5.11-3.57-4.42-6.3l-5.29,5.35c-4.95,1.74-7.26-1.96-6.43-6.56-1.18.79-1.99,2.12-3.1,2.97-.36.28-1.05.34-1.48.67-.84.63-.94,1.65-2.2,2-2.43.69-5.12-.42-5.84-2.9-.2-.7-.23-3.44-.66-3.44l-3.18,3.25c-1.52,1.15-3.63,1.86-5.35.68-2.76-1.9-.4-7.31-.38-10.1-1.54.28-4.3-1.81-4.1-3.33.08-.58.69-1.15.62-1.83,1.18,0,.62,1.26.92,1.99.33.82,2.27,1.97,3.12,1.16.51-.49,2.03-7.62,2.87-9.24.54-1.03,1.35-2.29,1.96-3.39s2.76-3.11,4.03-3.26c3.73-.43,4.22,3.24,3.48,6.04-1.35,5.12-3.17,7.48-7.43,10.48ZM409.82,265.97c-.61-.42-2.79.37-3.34.85-.14.12-2.1,2.71-2.19,2.88-.36.71-1.67,3.46-1.85,4.11-.6,2.22-.78,4.98-1.47,7.25,2.53-2.12,5.7-3.65,7.55-6.57,1.44-2.26,2.37-6,1.3-8.52Z"/>
      <path d="M543.89,123.14c.45-.51.98,1.17,1.01,1.35.32,2.25-.98,3.7.28,5.99s6.67,1.1,8.79.22c.35-.53-.34-7.72-.18-9.31.23-2.2,1.64-8.75,2.41-10.74.96-2.49,2.65-3.51,2.37.21-.38,5.05-2.37,10.83-2.99,15.91-.23,1.87-.07,3.28.68,5,1.96,4.45,4.73,1.22,7.51-.47l-.28-3.32c.61.75,1.13,4.66.54,5.2-1.49.54-2.47,1.91-4,2.38-3.53,1.1-4.39-1.77-5.89-4.24-1.58,1.2-1.59,1.92-3.75,2.08-4.8.36-7.72-1.02-6.91-6.35-1.12.16-.94,1.06-1.45,1.79-.85,1.21-2.84,4.66-4.24,4.76-1.91.13-2.62-3.18-3.06-4.58-.72-.11-.44-.01-.58.39-.21.63-.16,1.03-.61,1.67-.68.98-2.74,2.6-3.97,2.66-2.06.11-3.07-1.7-4.29-2.8-2.33,1.54-4.03,3.44-7.08,2.85-1-.19-2.76-1.61-3.03-2.58-.14-.51-.33-4.85-.25-5.5.1-.9.59-1.24.65-2.07-1.27.7-.1-.93-.02-1.32.19-.94.13-1.94.44-2.86l.78.49-.68,8.01c.38,6.31,5.39,4.32,8.75,1.53-.06-2.08-.05-4.15.28-6.23.26-1.66.66-2.21,1.29-3.54.44-.93-.03-2.07,1.59-2.05.41,0,1.9.8,2.14,1.13,1.19,1.67-.77,7.59-1.87,9.27-.66,1.01-1.88,1.04-1.12,2.49s2.17,1.5,3.58,1,1.35-1.65,2.16-2.33c.51-.42,1.41-.44,1.52-.55.1-.11.64-2.53.68-2.9.7-6.02.86-9.96,3.78-15.65.76-1.48,2.26-3.71,4.1-2.27,2.88,2.26-1.36,9.98-2.57,12.58-.38.81-.46,1.75-.85,2.57-.72,1.51-3.45,4.21-3.39,5.6.02.58.98,3.75,1.69,3.59,1.82-1.91,3.16-4.16,4.7-6.28.7-.95,1.87-1.2,1.33-2.77ZM542.53,113.15c.21-1.28-.03-2.87.13-4.2l-.55-.3c-.18.07-2.34,2.38-2.61,2.72-1.19,1.52-3.41,10.42-3.51,12.5-.02.47.08,1.18.39,1.55.52-.67,1.12-1.37,1.56-2.1.95-1.58,4.32-8.63,4.58-10.17ZM557.72,111.26c-.53-.26-1.25,1.12-1.3,1.32-.09.37.18.85.08,1.25-.9,3.61-1.99,6.98-1.44,10.78l2.67-13.36ZM526.34,128.74l2.55-4.94c.14-.75.57-4.34-.16-4.51-1.44-.33-1.58,1.99-1.9,2.53-.19.32-.74.33-.83.64-.12.39.26.93.21,1.38-.17,1.8-.53,3,.12,4.91Z"/>
      <path d="M192.72,285.77c1.67,1.67,5.25-3.05,6.37-4.2,1.62-1.67,1.67-1.09,2.43-3.78,1.09-3.83,1.6-6.12,3.96-9.39.65-.9,1.65-2.33,2.84-2.44s1.58,2.41,1.26,3.34c-.3.88-3.46,5.82-4.18,6.83-.75,1.06-2.84,2.53-3,3.44-.49,2.78.06,9.15,4.22,7.98.43-.12,2.63-1.77,2.87-2.15.55-.88,1.01-6.27,2.82-5.66,1.14.39-.26,2.33-.45,2.99-.07.26-.3.98.19.92.64-1.87,3.38-3.65,3.56-5.62.03-.36.02-.58-.41-.43-1.22.41-1.25,2.46-2.72,1.73.02-.34-.05-.76.08-1.07.18-.43,2.48-2.16,3.09-2.21.52-.04,1.27,1.07,1.33,1.53.17,1.45-2.35,4.48-3.36,5.57-1.32,1.44-2.41,1.26-2.5,3.7s.87,5.15,3.24,6.19c1.49.65,4.12.48,5.52-.31s6.41-5.06,7.61-6.36,1.43-3.08,2.55-4.37c.07,1.57-1.03,4.3-1.98,5.55-1.21,1.59-7.55,6.51-9.38,7.37-4.74,2.24-9.93-3.18-8.97-7.97-2.68,2.94-6.15,3.85-8.07-.43-.7-1.56-.44-3.15-1.15-4.62-1.38,1.52-3.02,3.37-4.62,4.62-.96.75-1.48,1.43-2.72,1.19-2.77-.55-2.32-4.3-2.86-6.29-.11-.4.18-.49-.55-.42-.19,1.27-1.36,1.63-2.04,2.31-1.89,1.9-5.38,6.09-8.49,4.7-2.15-.96-1.5-4.3-2.28-5.74-.25-.47-.95-.54-.96-.76-.04-.77,1.39-2.58,1.72-3.37.66-1.59.48-3.6,2.34-4.74,2.46,1.87-.97,4.44-1.41,6.6-.34,1.68-.21,4.49.74,5.96,1.78,2.75,6.02-2.15,7.52-3.23.44-.32,1.08-.27,1.33-.46.13-.1,1.86-2.51,1.96-2.69.66-1.2,1.03-5.67,1.61-7.55s1.69-4.29,2.66-5.84c1.18-1.87,4.24-3.79,4.9-.58.32,1.54-1.96,5.63-2.86,7.11-1.01,1.68-4.35,5.41-4.7,6.87-.24.96.33,5.58.94,6.19ZM192.64,276.88c.88-1.4,1.95-2.67,2.8-4.1.68-1.14,2.47-4.4,2.7-5.52.1-.47-.04-1.77-.53-1.96l-.96.08c-.11.95-1.85,1.88-1.98,2.23-.18.47-.02,1.16-.23,1.78s-1.14,1.63-1.49,2.46c-.68,1.6-.93,3.13-.86,4.87l.55.16ZM208.92,267.6c-1.21-.24-1.48,1.04-2.14,1.62-.38.32-1.21.48-1.26.54-.23.3.21,1.06.13,1.48-.1.56-1.78,2.69-2.14,3.47-.38.84-.65,1.87-.79,2.78l1.63-1.44c.74-1.08,5.31-7.63,4.57-8.45Z"/>
      <path d="M546.11,211.18c.63.14.45-.02.63-.34.95-1.61,1.81-3.73,2.79-5.41.25-.42.84-.7,1.06-1.18.32-.69.12-2.05.55-2.31,2.86-.25,4.11.45,4.12,3.51,0,1.56-1.16,2.73.15,3.92,1.11,1.01,2.78.81,4.1.34,3.35-1.2,1.95-3.77,2.26-6.57.36-3.27,1.75-6.45,2.76-9.51.22-.66-.04-2.28.89-2.54,3.05-.86,1.73,7.52,1.48,9.12-.5,3.26-1.75,5.92-3.51,8.71-.65.71,1.04,3.87,1.5,4.08,1.72.78,2.78-1.54,4.43-.52-1.2-3.57.41-7.47-.77-11.09,1.18-.32,1.44,1.76,1.52,2.65.32,3.4.19,7.07.61,10.55.2,1.6.52,2.97,1.22,4.41-.95.28-1.85.4-2.75-.13-.14-1.75-.42-3.75-1.71-5.04-2.62,2.52-4.75-1.19-5.36-3.53-1.52.22-1.95,1.48-3.83,1.55s-2.8-1.02-3.94-1.2c-.56-.09-1.3.42-1.78.05-.48-1.89.26-3.64-1.64-4.97l-3.59,7.17c-2.56,2.12-3.38-5.5-3.54-6.73s.28-2.7-.61-3.77c-.6,1.03-.99,2.18-1.59,3.22-1.43,2.52-3.21,5.34-4.37,8.08-.47,1.1-.58,2.31-.83,3.47-.1.46.16.49-.56.41.08-.69-.52-1.12-.5-1.8.06-1.71,3.08-7.53,4.07-9.3,1.81-3.25,4.47-5.86,4.68-9.79.05-.93-.29-1.79-.24-2.53.19-2.71,1.35-10.9,2.83-12.92,1.91-2.62,5.3-.43,5.1,2.52-.13,1.85-2.37,7.12-3.24,9.01-.72,1.56-3.18,5.23-3.4,6.5-.64,3.7-.05,8.34,1,11.91ZM544.92,195.74c.54-.39,1.17-1.15,1.51-1.72.98-1.63,4.05-8.12,4.15-9.75.09-1.34-.5-2.52-1.99-2.42-.93.06-1.91,2.66-2.43,3.49l-1.24,10.4ZM563.88,206.7c1.51-4.57,3.78-9.73,1.88-14.49-.38-.08-.44.49-.51.75-.7,2.84-1.34,5.99-1.76,8.83-.2,1.39-.41,2.81-.7,4.19l.26.58.83.14Z"/>
      <path d="M116.15,317.77c-.35.45-.76.18-1.05,1.33-1.84,7.46,3.16,7.97,8.39,4.6l.57-4.75c1.23.09,1.15,1.33,1.05,2.27,1.59-1.18,2.27-3.61,2.41-5.53-.92.57-1.34,1.72-1.51,2.73l-1.65-.03c-.19-.2,1.35-3,1.58-3.25.36-.4,2.85-.78,3.14.31.5-1.61,3.49-3.15,5.11-2.91.75.11,2.44,1.25,3.04,1.78,2.91,2.59,3.92,7.46,2.09,10.9-1.03,1.95-4.97,3.38-7.1,3.71-3.6.57-6.27-1.18-8.24-4.11-1.12.58-1.7,1.49-2.92,2.05-5.47,2.55-8.42-1.37-7.97-6.62-1.66,1.81-4.05,4.25-6.05,1.19-.91-1.4-.07-3.3-1.43-3.68-.51,1.31-1.54,3.1-2.55,4.09-.78.77-2.8,1.8-3.4,2.45s-.12,1.88-1.31,1.22c-.9-.66,1.25-2.72,1.78-3.33,2.62-2.99,5.89-6.05,6.75-10.17.81-3.9,1.24-5.65,2.56-9.43.87-2.47.82-5.52,3.99-6.46,3.07,2.04.35,7.93-.89,10.63-1.85,4.03-5.21,7.29-4.7,12.01.13,1.16.97,2.62,2.25,2.48.64-.07,3.31-2.27,3.63-2.81.54-.9,0-2.28,1.2-2.78,1.37-.57,2.14.89,1.23,2.06ZM113.23,298.43c-.58-.52-1.76,2.4-2.26,2.65l-2.6,9.24c.62.15.64-.29.87-.66,1.14-1.8,3.19-6.28,3.6-8.32.19-.95-.16-2,.4-2.9ZM127.9,324.29c-.5-.49-1.47-3.2-2.14-2.22-1.17,1.72,2.09,4.47,3.56,4.82,3.37.81,10.15-1.47,9.76-5.62-.28-2.95-2-7.34-5.49-7.37s-6.85,6.2-5.42,9.18c.4.83,1.51,1.04,1.84,1.94-.84.08-1.52-.15-2.12-.73Z"/>
      <path d="M444.66,116.32c.09,1.1-.4,2.94,0,3.91.24.58,1.75,1.7,2.25,2.51.98,1.59,1.38,5.35,3.68,5.51.5.04,2.23-.35,2.65-.61.84-.5,3.02-3.74,3.2-4.72.12-.65-.23-1.13-.18-1.61.1-.9.73-4.06,2.07-3.31,1.42.8-.9,5.57-1,7.06-.35,5.51,9.81,7.85,11.02,1.33.31-1.65-.39-4.11-1.1-5.63-1-2.13-1.79-2.67-4.12-1.97-.29.09-3.13,1.9-3.22,2.07-.33.61,1.94.78,2.34,1.61.54,1.13-2.08.94-2.69.62-.26-.13-.62-.71-.69-1-.71-2.71,5.05-5.37,7.23-4.61,2.46.85,3.71,5.5,3.44,7.86-1.06,9.28-10.57,8.88-13.88,1.41-1.26,2.41-2.71,4.1-5.62,3.1-3.54-1.22-3.35-5.68-5.85-7.95.01,1.59-.32,5.99.6,7.18.45.59,1.31.15.35,1.27-1.4.29-1.84-2.26-1.93-3.33-.16-1.95.22-3.98-.04-5.92-.48-1.15-3.62-1.12-4.88-2.17-1.39-1.15,3.83-2.02,4.24-2.41.92-.87-.08-2.73.27-3.91,2.06-.18,1.45,1.49,1.9,2.83,1.15.78,8.38-3.33,9.21-4.44.24-.31,1.21-2.79,1.3-3.24,1.74-8.54-7.54-8.3-13.23-6.58-3.24.98-6.12,2.79-8.87,4.72-.76.53-.87,1.34-2.19,1.29-.93-1.6,6.68-5.84,7.96-6.42,4.04-1.85,9.8-3.26,13.96-1.24,5.61,2.73,4.67,9.09.89,13.02-2.36,2.47-5.87,3.14-9.08,3.77ZM443.78,117.12c-1.47-.32-2.26,1.14-3.8.72-.62.39.78,1.11,1.22,1.3.33.14,1.76.59,1.93.48l.65-2.49Z"/>
      <path d="M69.48,195.03l-1.38,3.02c-4.32,3.49-10.81,5.3-16.29,3.92-4.68-1.19-1-8.63-.95-11.73-4.29,1.09-2.6-1.71.3-2,.63-2.47.92-4.91.83-7.48-.48.07-2.35-.37-1.78-1.2,1.52-1.27,3.32-.52,5.04-.7,2.05-.21,7.89-1.75,9.45-.93.64.34.56,1.22.5,1.84-2.59-.78-5.42.37-8.09.78-.95.15-2.79-.11-3.42.69-1.03,1.31.03,4.04-.77,5.7,3.72-.85,5.97-3.86,10.16-2.33.46.17,1.32.38,1.09,1.01-2.03.19-3.9.19-5.85.85-.84.28-5.03,2.11-5.48,2.55-.26.26-.37.58-.5.91-.59,1.48-1.49,7.9-1.09,9.29.17.59.6.91,1.17,1.08,2.44.73,8.62-.13,11.04-1.12,4.28-1.75,4.59-4.45,6.86-8.03l1.14-10.07.83-.22c.82.49.52,1.56.79,2.25.21.53,1.77,2.07.5,2.25l-.67-1c-.71-.58-.33,2.12-.36,2.51-.22,2.5-2.42,12.77-1.33,14.28.69.81,1.67.23,2.46-.04,2.1-.72,5.01-2.42,6.86-3.47.9-.51,1.8-1.19,2.9-1.02.27,1.89-.7,1.41-1.73,2.06-2.11,1.33-7.47,5.12-9.83,4.87-1-.1-2.61-1.61-2.59-2.48l.19-6.02Z"/>
      <path d="M282.09,144.15l-1.52-.61c-2.19-.11-1.7,6.75-1.39,8.1.54,2.38,3.15,4.45,5.61,3.78.46-4.17.9-7.02,4.4-9.63,1.25-.93,4.38-3,5.83-2.5,3.92,1.35.43,6.14-1.23,7.97-.41.45-1.72.76-1.27,1.59.1.18.97.44,1.18,1.48.46,2.2-5.21,6.39-7.19,3.73l-.54.2c-.72,1.4-2.47,3.77-2.21,5.35.24,1.45,3.91,3.17,5.2,2.74.23-.08.63-.68,1.04-.89,4.42-2.24,6.79-4.35,10.67-7.14.74-.53,1.26-1.44,2.14-1.72,1.5.29-.31,5.21-.33,6.54-.03,2.47,1.35,6.22,4.39,5.26,2.09-.66,2.82-2.74,4.8-3.13-1.55,4.13-6.67,7.77-9.68,2.7-1.14-1.92-.57-3.58-.59-5.69-.01-.98-.48-1.86-.05-2.95-3.48,2.87-6.06,5.81-10.55,7.28-2.31.76-3.75,1.23-6.08.17-3.02-1.37-2.58-4.15-1.48-6.78.22-.53,2.26-2.97,2.08-3.14-7.51,1.27-8.56-5.45-7.46-11.28.09-.48.79-3.25.9-3.38.13-.16.32-.28.51-.35.53-.13,3.29,1.89,2.81,2.3ZM291.84,151.37c1.44-1.29,3.98-4.36,3.66-6.37-.19-1.24-1.93-.44-2.8-.09s-5.11,3.78-5.54,4.52c-.45.78-1.52,5.17-.96,5.78,1.76-1.19,4.06-2.44,5.63-3.84ZM292.69,154.3c-2.21-.81-3.77,1.4-5.66,2.19-.11.94,2.44,1.24,3.12,1.09.28-.06.31-.54.51-.66,1.07-.67,1.97-1.05,2.03-2.62Z"/>
      <path d="M518.1,210.28c.39-.24,2.21-5.39,2.68-6.26.92-1.69,2.41-2.3,1.89-4.79l.86.2c1.32,2.78-.4,5.32.06,8.31.83,5.46,4.89-.24,6.43-1.69.43-.41,1.44-.75,1.64-1,.73-.92,1.18-4.81,1.53-6.04.4-1.41,2.08-1.98,2.14-.62.04.76-1.34,3.97-1.55,5.31-.23,1.45-.54,5.9.29,6.99.44.57,1.5.54,1.38,1.16-.06.34-.38.84-.73.86-2.07.16-3.02-5.46-2.73-7-1,.53-1.29,1.78-1.97,2.68-.29.37-2.03,2.37-2.25,2.52-4.43,3.09-6.39-2.81-5.55-6.35-.59-.11-.45-.05-.64.33-.67,1.39-1.87,7.38-3.44,7.61-2.5.38-2.96-6.23-3.68-6.23-1.67,1.63-3.55,6.88-6.15,3.86-.17-.78,1.27-.61,1.7-.79.51-.22,3.88-4.95,4.04-5.53.56-1.94.26-6.32.67-8.84.53-3.31,2.02-9,3.37-12.04.97-2.19,4.44-4.17,5.65-1.36.91,2.12-2.24,10.23-3.21,12.64-1.1,2.74-3.16,6.03-4.07,8.68-.4,1.17-.51,2-.42,3.26.05.75.84,4.91,2.06,4.15ZM522.39,181.58c-.73-.64-2.87,1.81-3.27,2.42-1.19,1.78-3.83,12.97-3.73,15.15.02.5-.11.9.39,1.25,1.98-4.05,4.25-8.49,5.67-12.76.34-1.03,1.7-5.39.94-6.06Z"/>
      <path d="M484.33,203.2c1.46-1.25,3.28-2.64,3.92-4.65.69-2.15.45-5.21.86-7.48.62-3.46,3.3-3.47,3.01.31-.23,3.08-4.66,10.1-1.96,12.68,2.03,1.93,4.4-4.39,5.71-1.07-.05.4-3.86,3.62-4.77,3.37-.32.34.09,2.53.04,3.15-.11,1.31-.34,4.1-2.07,3.45s-.55-8.76-2.8-9.86c-.99,1.8-4.43,4.74-6.39,5.06-1.38.23-4.24-2.08-4.45-3.45h-.41s-3.02,2.41-3.02,2.41c-.36-2.34,2.25-3.11,2.73-4.78.28-.97-.25-1.67-.25-2.57-.02-4.21,1.18-9.54,3.4-13.16,1.38-2.25,2.54-3.7,5.31-2.61.62.25,1.16,1.44,1.24,2.1.44,3.51-2.26,9.62-4.19,12.57-.77,1.17-3.78,4.24-3.61,5.3.08.48,1.18,1.87,1.58,2.07,2.11,1.05,4.66-1.59,6.13-2.86ZM475.83,201.08c.97,1.16,4.47-5.55,4.73-6.1,1.36-2.88,3.4-7.2,1.82-10.21-1.19.52-2.01.83-2.85,1.88-3.16,3.93-4.05,9.53-3.7,14.43Z"/>
      <path d="M114.65,187.62c-2.19,2.69-5.51,5.8-8.49,7.59-.75.45-2.52.53-2.56,1.32,0,.22.97,3.35,1.15,3.83.85,2.26,1.96,4.32,4.45,5.06,2.32.69,3.61-2.33,4.28-4.14.76-2.07,1.24-7.43,2.35-8.78.25-.31.31-.56.81-.44.61,2.01-.63,3.97-1,6.02-.18,1.01-.39,2.83-.45,3.86-.11,1.94-.26,4.18,1.43,5.49,3.24-.05,4.91-3.33,7.52-4.76-1.13,2.85-5.23,8.13-8.57,5.73-1.87-1.34-.95-2.46-1.99-4.11-3.04,6.14-8.06,1.8-9.79-2.76-.49-1.29-1.59-4.83-.85-5.98.35-.54,2.42-1.21,3.08-1.63,4.65-2.96,9.29-7.28,10.88-12.71.77-2.62,1.2-5.02-2.19-5.66-4.96-.93-15.28,3.98-19.32,7.04-1.29.98-1.71,2.53-3.34,2.5-.91,2.01.67,2.84.84,4.53-2.07-1.04-2.66-2.35-1.59-4.44,1.94-3.79,11.41-8.85,15.51-10.09,10.38-3.16,15.12.13,9.52,10.44-.6,1.1-1.06,1.33-1.69,2.1Z"/>
      <path d="M197.32,119.46c.69-.59,1.85-1.14,2.03-1.31.25-.24.18-1.1.86-1.26.41-.13.78.05.89.46.22.8-1.9,5.31-2.44,6.29-.82,1.48-1.87,3.15-3.71,3.28,1.49,1.53,2.08,2.91,4.5,2.79.39-.02,2.22-.38,2.51-.52.48-.22,2.38-2.37,3.06-2.84-1.16-2.75-.34-6.65,1.21-9.11,1.68-2.66,5.58-1.24,4.85,2.57-.16.85-2.38,5.09-2.96,5.82-.86,1.08-2.21.96-1.02,2.94.93,1.54,2.59.6,4.01,1.12-2.49,3.37-4.56.86-6.1-1.74-.35,1.48-4.63,3.79-5.87,3.75-1.61-.05-4.13-1.84-4.99-3.23-1.46.23-3.74,1.72-5.01.38-1.66-1.75,2.93-3.14,3.32-2.71l-.03.84c-1.14-.18-1.84-.03-2.55.9,1.22.82,3.93.14,3.42-1.71,1.67,1.03,3.42-1.52,4.24-2.85s.92-2.56,1.31-4.11l-.55-.16c-.56,2.17-5.56,5.81-7.62,5.93-1.25.07-1.79-.5-2.92-.67-.4,1.39-.97,3.87-1.63,5.07-.56,1.02-1.53.38-1.31-.8.28-1.48,2.16-3.89,2.39-5.01s-.37-2.92-.12-4.45c.14-.87.51-2.3.73-3.28.09-.4,1.2-4.4,1.66-2.24.11.5-.88,4.01-.98,4.99-.25,2.51-.71,5.24,2.73,4.64.26-.05,3.16-1.24,3.54-1.43.31-.16,1.99-1.84,2.56-2.33ZM209.79,117.48c-1.39-.45-2.02,1.16-3.35.43.42,1.2-.28,1.78-.39,2.91-.14,1.36-.06,2.74.17,4.08.5.13.55-.13.81-.44,1.6-1.95,3.68-4.27,2.77-6.98Z"/>
      <path d="M55.68,292.67c.43.54-1.5,3.9-2.33,3.27.2-.36,1.17-1.78.19-1.68-.35.04-5.02,2.22-5.73,2.58-3.38,1.69-11.64,6.71-13.97,9.41s-2.49,8.95-2.23,12.39c.1,1.32.81,2.5.74,3.94-.03.55-1.1,4.72-1.3,4.86-1.45-.22-1.44-1.85-1.58-3-.46-3.71.46-7.08.62-10.76-.81-.18-.45.22-.65.59-.73,1.37-3.81,7.94-5.13,8.13-.32.04-.61-.27-.93-.25.3-1.91,1.82-3.19,2.73-4.76,2.54-4.4,4.95-8.68,5.77-13.59.15-.89.75-4.43,2.13-3.98.5.32.7.98.71,1.55,0,.34-.79,2.42.05,2.1.63-.24,1.95-1.7,2.6-2.15,3.11-2.18,7.02-4.95,10.42-6.55,1.1-.52,5.24-2.28,6.19-2.4.63-.08,1.13.23,1.72.3Z"/>
      <path d="M143.89,129.06c.41-.06.58-.46.78-.75,1.3-1.83,1.81-3.36,2.64-5.29.72-1.68,1.78-4.14,3.9-3.8.06-.44-.18-.84-.18-1.27.01-2.41-1.06-5.7-1.75-8.19-.17-.63-1.33-2.83-.74-3.23,1.26-.84,2.28,2.29,2.75,2.97,1.97,2.86,5.01,3.81,8.27,2.56,1.33-.51,4.43-2.94,4.96-4.26.26-.65.21-2.89,1.41-1.99.7.52-.01,2.88-.42,3.57-.17.28-2.95,2.9-3.32,3.18-2.72,2.01-6.17,2.64-9.1.68l-2.46-2.44c.94,4.35,2.32,8.59,3.09,12.98.15.83.93,4.35.26,4.77-1.31.83-1.73-3.53-1.96-4.26-.33-1.01-1.07-2.44-1.57-3.42-.13-.26-.01-.75-.53-.57-.44.16-1.1,1.57-1.33,2.05-.7,1.46-3.21,8.03-4.2,8.55-2.1,1.11-1.69-2.15-1.54-3.37.58-4.64,2.57-9.9,3.44-14.57.25-1.31,1.27-7.77.32-8.42-2.71-.41-3.52,2.69-5.01,4.28-1.43-1.49,1.58-5.03,2.96-5.52,2.27-.81,3.71.16,3.7,2.55-.02,2.71-1.19,7.66-1.78,10.49-.88,4.21-2.6,8.3-2.58,12.74Z"/>
      <path d="M357.56,227.02c.71,1.7-.06,3.33-.61,4.92-1.34,3.92-3.75,7.67-5.71,11.3-.48,1.67,3.14,5.06,4.39,6.08,1.39,1.14,2.76,2.45,4.32.57.37-.45,2.25-3.55,2.43-4.06.58-1.65.81-4.97,1.6-6.4.31-.56.47-.52,1.07-.45.25.28-1.18,6.44-1.43,7.3-1.33,4.56-3.67,9.42-8.78,5.13l-4.99-5.63c-.74.15-1.95,5.6-3.33,6.02l-1.02-.25c-.88-1.79-.77-5.27.26-6.95.29-.48.72-.51.94-.81.3-.4.39-1.23.79-1.47.98-.6,2.28.41,2.85.07,1.99-4.45,5.37-8.4,5.51-13.51l-3.89,2.95.65,2.27c-4.33-.3-1.16-4.93,1.05-5.97.52-.24,1.18-.23,1.75-.45.64-.24,1.1-1.16,2.15-.67ZM348.11,243.21c.16.94-.65.98-1.01,1.39-.53.6-.65,2.7-.85,3.73-.09.45-.5.54.12.99.86-1.41,4.16-5.23,1.74-6.1Z"/>
      <path d="M152.73,312.19c-1.33,1.47-3.73,3.13-5.62,3.74-.37,3.58-.45,7.22.24,10.77,1.77-.06,2.54-1.59,3.59-2.69,2.09-2.18,4.32-4.27,6.45-6.44.29-.29.32-.77.92-.61.11,1.36-.3,2.53-.96,3.69-.1.18-.56.16-.58.36-.04.38.27.85.23,1.34-.13,1.61-.76,3.89.96,5.12,2.64,1.89,4.77-2.28,7.12-3.01-.65,2.14-4.13,5.74-6.45,5.39-4.16-.63-3.98-6.74-2.38-9.59-.67-.67-2.33,2-2.73,2.44-1.04,1.14-2.33,2.27-3.33,3.4-.82.93-1.4,2.99-2.97,2.52s-1.9-5.22-1.95-6.61c-.23-6.28,1.74-14.11,5.06-19.5,2.24-3.64,6.81-4.46,7.2.7.17,2.19-3.26,7.3-4.78,8.98ZM147.16,314.93c3.22-2.24,10.1-8.61,8.97-12.89-.34-1.28-2.2-1.19-3.21-.79-2.33.93-5.7,11-5.76,13.68Z"/>
      <path d="M459.35,181.78c.54.56-1.44,2.5-1.72,2.93-5.9,9.21-10.52,19.2-16.6,28.32-.49.73-2.66,3.95-3.4,3.9-1.24-.08,1.2-4.1,1.46-4.51,1.44-2.29,3.56-4.18,4.37-6.93-2.47-3.23-2.25-7.66-1.86-11.53.21-2.12,1.04-4.61,1.3-6.72.1-.77.33-1.81-.31-2.36-.97-.25-1.84,2.97-2.15,3.49-.41.7-2.31,2.97-2.39,3.54-.14,1.02,2.56.43,1.88,1.71-1.56.35-3.01.13-4.05-1.12l.12-1.04c1.03-1.45,2.54-2.93,3.53-4.35.67-.96,2.91-5.52,3.96-5.52,1.3,0,.99,2.6.91,3.48-.43,4.99-2.06,8.81-1.87,14.24.03.85.47,5.73,1.65,5.5.62-.5.48-1.36.83-2.01,1.87-3.48,4.77-8.04,6.92-11.44,2.01-3.19,4.35-6.18,6.5-9.27.27-.39.67-.58.92-.33Z"/>
      <path d="M252.62,165.99c2.04-1.59,7.76-5.61,8.44-7.93.16-.56.18-1.12.18-1.7l.85.15c.71.56.07,4.12.1,5.05.04,1.49,1.74,9.66,1.07,10.27l-1.54-.33c-.71-1.15-.52-6.53-2.3-6.26-.28.04-.16.98-1.15.84-2.39-.34.5-3.45,2.59-.97l1.12,2.47c-.01-2.52-1.81-4.38-1.17-7.04-1.49,1.42-2.79,3.12-4.38,4.45-2.05,1.71-6.77,5.25-9.43,4.85-1.4-.21-2.1-1.49-2.82-1.44-.53.04-3.51,2.58-4.43,2.83-1.56.43-3.47.04-4.61-1.13-.51-.53-2.86-3.62-1.51-3.97,1.82-.46,1.65,3.18,4.33,3.5,2.77.33,3.16-1.41,5.5-2.12.15-1.03.03-2.07.22-3.1s1.27-4.87,1.65-5.77,2.87-3.57,3.89-2.83c1.47,1.06-.55,6.8-1.34,8.16-.57.98-1.96,1.88-2.1,3.2.14.56,2.08,1.07,2.58,1.03.18-.02,3.23-1.15,3.4-1.24.5-.27.57-.74.86-.97ZM248.61,157.08c-1.07-.08-1.09,1.13-1.49,1.73-.99,1.5-.67,1.09-1.29,2.68s-1.89,3.23-.45,4.73c1.64-2.85,2.85-5.88,3.23-9.14Z"/>
      <path d="M133.69,243.25c.35-.36,1.04-1.66,1.35-2.01.4-.46,1.29-.73,1.76-1.47.14-.22.81-2.74,1.62-1.89.26.27-.74,1.96-.96,2.3-1.14,1.77-4.05,5.23-5.85,6.21-2.55,1.4-4.95,1.97-7.17-.42-1.71-1.83-1.54-3.63-1.79-5.93-.04-.4.29-.82-.38-.72l-9.83,9.5c-1.01-.21-.73-1.1-.32-1.81.23-.4,2.74-2.91,3.29-3.44,2.11-2.04,4.49-3.66,6.73-5.56.96-2.28,1.12-4.76,1.95-7.19.62-1.83,3.03-6.89,4.47-7.97,1.26-.94,5.09-2.91,5.49-.26.7,4.54-6.31,11.94-9.56,14.74-1.78,1.62.3,7.61,2.13,8.23.89.3,2.63-.14,3.53-.46.49-.17,3.31-1.63,3.54-1.86ZM128.42,231.84c1.25-1.47,4.56-6.82,4.58-8.6.02-2.48-4.89,1.97-5.4,2.65-.43.58-1.65,3-1.94,3.72-.75,1.87-1.11,3.85-1.45,5.83.39.44,3.86-3.2,4.21-3.61Z"/>
      <path d="M99.13,222.61c-1.78,4.55-3.4,9.05-3.25,14.04.09,2.75.76,7.31,3.39,8.77,3.21,1.79,5.03-.1,7.2-2.4s3.98-5.22,3.9-8.29c-1.79.33-3.9,1.71-4.88-.58-.22-.87,1.74-.06,2.31-.11.91-.07,3-.74,2.68-1.84-.59-2.05-3.35-2.66-5.21-2.33-.24.04-3.54,1.36-3.7,1.48-.42.32-1.67,3.71-1.72,4.34-.12,1.43.71,2.89.55,4.32-1.86-1.87-1.55-5.78-.38-7.93.45-.83,1.08-.89,1.57-1.37.19-.18.18-.69.53-1.02.69-.67,4.38-1.63,5.32-1.45,1.15.22,2.67,1.35,3.34,2.32.33.47.71,2.09,1.33,1.97l9.62-6.68c.2.21-1.88,2.38-2.14,2.63-2.09,2.01-4.38,3.16-6.48,4.82s-2.05,3.8-3.16,6.18-3.63,6.05-5.84,7.38c-2.31,1.39-5.3.69-6.94-1.37-3.84-4.8-2.77-14.55-.5-19.88.2-.47,1.72-3.8,2.47-3.01Z"/>
      <path d="M209.82,324.14c.49-.65,1.98-3.08,2.29-3.79.37-.86.61-3.01.98-3.58.76-1.17,1.34-.17,1.23,1.01-.29,3.06-1.73,6.9-1.98,9.8s2.17,8.12,5.59,8.4c-.87,1.19-3.27-.02-4.16-.86-1.58-1.49-2.73-3.81-2.87-5.99-.11-1.65.47-3.16.41-4.44-.04-1.07-.26-.97-1.12-.73.93,2.48-3.13,7.02-5.81,6.13-3.66-1.22-3.15-7.06-2.89-10.05-.81.56-.96,1.84-1.49,2.46-.34.39-1,.54-1.41,1.1-.87,1.17-1.95,3.45-.86,4.72l-1.41-.51c-.59-2.67.94-4.37,2.35-6.44,1.09-1.61,2.89-4.11,3.69-5.91.37-.82.51-2.95,1.39-3.15l.8.26c.31,4.94-4,11.5.11,15.66,2.12,0,3.25-2.18,4.41-3.6.19-.24.64-.31.76-.47Z"/>
      <path d="M514.68,125.28c.15.17-.51,1.45-.66,1.76-.57,1.2-3.22,5.62-4.07,6.37-1.01.88-1.76,1.12-2.69.05-1.49-1.72-.69-4.23-.77-6.34-.02-.43-.24-2.83-.31-2.96-.58-1.02-3.46,2.55-3.48.26,0-.85,3.26-1.78,3.57-2.75-.01-2.54.59-4.95.92-7.42.34-2.58.42-5.54.86-8.06.2-1.13,1.42-6.69,2.56-6.75.83-.04,2.53,2.48,2.77,3.31,1.82,6.17-.13,11.91-3.34,17.14-.63,1.02-2.2,2.5-2.46,3.46-.4,1.47-.18,6.96.43,8.32.14.32.21.79.69.7.39-.07,3.86-5.37,4.54-6.16.19-.22,1.17-1.23,1.43-.93ZM507.57,120.01c3.28-3.74,5.51-9.17,5.23-14.27-.1-1.76-.59-3.24-1.97-4.39l-1.37,4.03-1.89,14.63Z"/>
      <path d="M194.48,185.04c-1.52-1.38-1.96-2.81-4.24-3.21-1.12.87-3.28.66-3.84,1.97-.63,1.5-1.53,15.28.21,15.27.39-.43.8-.94,1.08-1.45,1.58-2.93,3-6.07,4.61-8.98.15-.28,1.16-1.79,1.56-1.38-.47,5.1-3.49,8.99-6.58,12.83l.12.96c1.75,2.48,5.25,5.94,2.78,9.05-2.91,3.68-10.13-2.61-7.02-7.48.46-.73,1.47-1.31,2.15-1.83-.38-2.25-1.14-4.32-1.21-6.7s.62-9.55,1.72-11.5c.36-.64,1.27-1.5,1.99-1.64.47-.09,2.57-.29,3.03-.26,1.47.1,3.94,2.72,3.65,4.34ZM186.38,201.59c-2.93,1.23-2.91,4.97-.6,6.93,1.06.9,1.72,1.66,2.85.52,2.47-2.52-1.59-4.92-2.25-7.45Z"/>
      <path d="M36.53,241.54c.18-.18,2.32-4.3,2.39-4.54.19-.67.04-1.39.21-2.09.47-1.89.85-4,1.65-5.76.66-.12.42.58.38.98-.34,3.18-1.32,9-2.84,11.74-1.12,2.03-2.34,2.24-4.27.91-1.53-1.06-2.4-2.86-3.71-4.14-.84-.17-3.96,5.94-5.72,5.94-.6-.39-1.13-1.17-1.18-1.9-.02-.24.96-4.29,1.07-4.52.06-.11,1.7-1.66,1.85-1.78,1.42-1.08,2.93-1.49,4.52-.54,1.12-2.86,2.41-5.42,3.44-8.35.16-.44.61-.76.74-1.24.23-.88.5-5.16-.74-5.34-2.58.77-4.8,3.52-5.11,6.19-2.64-.79.59-5.1,1.73-6.12,1.63-1.45,4.98-2.72,5.39.39.47,3.56-1.33,8.11-2.81,11.33-.41.9-2.15,3.38-2.1,4.11.31,1.21,3.86,5.94,5.1,4.73ZM25.81,241.98c.46-.46,3.2-3.83,3.3-4.16.62-2-2.43.25-3.02-.47.28.75-1.88,5.11-1.15,5.29.39.08.58-.37.87-.66Z"/>
      <path d="M343.49,168.95c0,.25.46.8.24,1.27l-.81-.73-.04-7.43c-.23-.24-5.96.52-6.53.71-1.26.41-1.65,1.55-2.94,1.79-.37-.02-.96-.56-1.08-.88-.32-.82.51-7.12.72-8.48.3-1.92,2.19-8.52,1.95-9.72-.03-.15-1.19-.78-.78-1.62l1.4,1.81c1.2,2.95-.36,5.89-.86,8.74-.44,2.53-.62,5.12-1.12,7.64,2.82-1.77,6.07-1.49,9.19-2.21l1.29-9.62c.8-1.45.61-1.74.62-3.1.02-2.2,2.55.25,2.24.5l-1.95-.34c1.9,1.8.57,2.83.2,4.7-.49,2.49-.84,5.08-1.15,7.6l3.87-1.23,4.93-2.41c.78,1.61-2.23,3.01-3.51,3.64-1.05.52-5.63,1.8-5.66,2.65-.07,2.19-.27,4.55-.22,6.72Z"/>
      <path d="M311.08,253.23c-.51-.16-.66-.9-.73-1.35-.43-2.81-.12-6.58.27-9.41.58-4.18,2.25-8.17,2.04-12.44-.64-.18-.46.1-.65.33-3.65,4.42-6.01,9.09-10.29,13.33-1.52,1.51-5.59,6.06-7.26,2.98.03-.87,2.87-1.63,3.54-2.03,1.84-1.09,3.37-2.48,4.25-4.44,4.58-3.47,6.92-9.28,10.39-13.82,1.65-1.39,2.4,1.49,2.31,2.73-.2,2.99-1.88,7.33-2.5,10.38-.93,4.52-1.32,9.13-1.37,13.74Z"/>
      <path d="M363.16,149.55c.71,2.51-.36,5.02-.24,7.56,3.21-.75,6.63-2.17,9.81-.38l-5.57,1c-.89.58-3.82,1.05-4.34,1.74-.92,1.2.35,6.65.62,8.28,2.48.33,4.57-1.33,6.77-2.13,1.54-.56,7.73-2.29,8.38-3.51.3-.58.14-1.33.2-1.96.86-.1.92,1.05.91,1.68-.04,1.89-1.82,2.77-3.26,3.49-2.38,1.18-8.14,3.72-10.56,4.37-.51.14-1.5.26-2.02.19-3.33-.42-2.61-6.61-3.08-8.99-.11-.57-.7-.95-.72-1.48-.04-.89.93-.89,1.09-1.7.15-.75,0-1.51.14-2.18.35-1.85.97-3.63,1.06-5.53l.8-.44Z"/>
      <path d="M38.27,143.95c.27.29.33,1.08.32,1.48-.08,3.31-3.31,6.66-4.26,9.81,2.51.65,3.53-.39,5.7,1.58s3.17,7.18.92,9.39c-2.39,2.35-4.66,1.97-7.58,1.19-3.25-.87-7.67-2.15-4.96-6.16.5-.74,1.8-1.67,1.4-.25-.42,1.52-2.29,1.43-.42,3.35,1.38,1.41,6.1,2.44,8.06,2.5s3.09-1.39,3.31-3.13c.72-5.63-3.67-9.03-8.42-5.49l-.88-.75c-.17-.76,1.47-1.93,1.85-2.57,1.22-2.03,2.97-5.62,3.43-7.92.12-.58.12-1.16.12-1.75-.46-.5-3.9,1.3-4.52,1.69-.85.54-1.84,1.67-2.63,2.13-.3.18-.83.04-1.05.17-.59.36-.37,2.37-.16,3.02-.44.42-1.81-1.62-1.79-2.16.03-.82,1.16-1.15,1.63-1.63.36-.36.56-.86,1.01-1.24,1.48-1.27,7.16-5.11,8.88-3.28Z"/>
      <path d="M50.3,224.7c.22.32-1.9,3.07-2.01,3.75-.09.56.25,1.22.19,1.9-.08.78-.7,1.29-.65,2.08.14.16,1.67-.48,1.99-.62,3.18-1.38,7.04-4.04,10.22-5.02.36-.11,1.14-.26,1.41.06-4.13,3.24-9.3,5.29-14,7.66-.54,1.44-1.02,7.72.31,8.45.75.41,4.07-.91,5.08-1.25,1.61-.56,9.54-3.76,10.07-4.92.23-.5-.01-3.84,1.03-1.94.69,1.27-.59,3.31-1.57,4.13-1.1.91-11.49,5.56-12.9,5.78-5.57.87-3.62-6.23-3.41-9.57l-2.97,1.02c-1.83-2.62,2.59-1.76,3.62-3.37.74-1.16.47-3.46.71-4.74.11-.59.55-1.18.76-1.8.48-1.4-.03-2.98,2.12-1.6Z"/>
      <path d="M38.36,202.37c1.2-1.39.09-3.96.79-5.05.12-.19.58-.14.59-.32.01-.49-.76-1.58-.65-2.54s.88-1.38,1.35-.3c.65,1.5-.09,5.35-.24,7.07-.07.83.47,1.05-.16,2.2-1.56,2.82-6.02-.06-7.47-1.88-.54-.68-.37-1.92-1.5-1.03-.43,1.43-1.55,5.4-3.41,3.54-.51-.51-.63-5.27-.33-5.71.25-.37.96-.6,1.11.02.36,1.46-.65,3.29-.12,4.86.61.68,2-3.17,2.54-3.42.09-.99-2.47-2.06-1.78-2.72l2.78.65c0-.38.03-.75.18-1.11,1.83-4.59,4.22-9.37,3.69-14.46-2.06-.41-3.29,2.33-5.09,1.66,2.12-2.87,6.95-5.46,6.39.45-.47,4.95-2.63,9.68-4.63,14.16,1.16,2.06,3.45,4.58,5.99,3.92Z"/>
      <path d="M36.82,104.05l-1.85,14.23c.31.45,8.75-4.33,9.94-4.6,1.27-.29,1.37.59.61,1.31l-10.55,5.04c-.79.72.06,5.18-.12,6.37-1.05-1.56-.56-3.84-.93-5.64l-4.24.74c-5.35-1.21-4.26-7.23-3.41-11.34l.83.31c-.05-.7-.44-1.06-.51-1.83-.03-.37-.18-1.14.45-.97,1.46,2.53-.15,5.82.17,8.8.42,3.9,3.9,3.55,6.78,2.36l.82-12.73c.11-.48.97-1.29,1.37-1.71.17-.18,0-.54.65-.34Z"/>
      <path d="M390.08,146.03c4.43,4.5-.42,12.64.1,18.5.55,6.3,6.02,1.02,8.7-.5.61-.34,1.45-.54,2.15-.9.56-.28,3.22-2.41,3.51-1.15.09.8-.13,1.84-.94,2.17-.45.18-.84-.12-1.3.02-3.03.91-5.05,4.63-9.09,5.08-5.24.57-5.02-4.79-4.6-8.66.48-4.39,3.07-8.94.44-13.2l.56-.51-.52-1.56s.85.54,1,.69Z"/>
      <path d="M165.42,124.81c-.69.89-1.42,1.3-.76,2.55.72,1.35,2.34,1.22,3.5.52,1.46-.89,8.14-6.79,9.2-8.13.91-1.14,1.1-5.06,2.14-5.16,1.53-.15.16,1.96.08,2.34-.75,3.53-.71,9.7.32,13.24.22.75.73,1.51,1.58,1.52.79-.05,1.3-2.03,2.43-1.49-1.11,1.3-2.42,4.35-4.4,2.23-2.67-2.86-1.77-8.85-2.14-12.38-.56.56-.64,1.37-1.09,2.02-1.33,1.92-6.37,6.54-8.45,7.48-2.61,1.18-3.28-.12-4.7-2.11-.86.15-3.77,3.25-4.03,3.22-1.64-.18,1.78-3.07,2.07-3.29.44-.35.95-.34,1.3-.7.33-1.17-.37-1.9-.47-2.79-.2-1.78.86-5.81,1.7-7.41.7-1.34,2.07-2.81,3.73-2.59,3.55,3.6,1.07,7.13-1.31,10.4-.2.28-.57.37-.7.54ZM164.47,124.68c.27-2.33,4.51-6.18,2.92-8.58-.93-1.41-1.61-.4-2.15.57-1.28,2.32-2.65,5.36-1.6,7.97l.82.03Z"/>
      <path d="M150.17,194.83c.28,1.32-.61,2.12-.93,3.21-.7,2.42-2.27,7.64-.06,9.53,1.95,1.67,5.47-2.92,7.03-4.13.58-.45,1.53-.67,1.76-.87.19-.16,1.92-3.77,2.24-4.42.44-.88.19-2.41,1.56-2.67,1.05.26-.94,3.16-1.23,3.89-.78,1.98-1.43,4.33-1.13,6.47.1.76.63,2.35,1.62,2.18,2.69-1.71,4.71-4.23,6.59-6.75-.62,2.26-3.91,8.13-6.15,8.64-3.34.76-4.16-4.65-3.84-7-.11.88-.7.91-1.03,1.3-1.09,1.33-4.89,5.88-6.66,5.6-1.56-.25-3.21-2.92-3.4-4.38-.11-.88.2-3.74.38-4.67.15-.8.83-1.27,1.11-2,.48-1.23.66-3.56,2.14-3.93Z"/>
      <path d="M459.24,194.11l.5,2.1-1.35,7.28.39.68c2.75-1.24,6.92-2.65,7.61-5.92,1.37.29,1.27,1.82.59,2.81s-4.77,3.97-5.9,4.42c-.95.38-1.99.18-2.84.76-.66.73.61,6.34-.03,6.32-.88-2.24-1.01-4.63-1.05-7.03-5.07-.69-4.66-7.22-4.12-11.07,1.11-1.05,1.73,3.4,1.77,3.91.07.84-.38,1.29-.1,2.54s2.5,4.58,2.83,2.26c.42-2.99.22-6.74.92-9.73.07-.29.74-1.56.96-1.57,1.41.72,1.9,2.49-.21,2.23Z"/>
      <path d="M175.67,281.94c.88.97-3.2,4.36-4.27,4.56-3.65.7-4.72-2.12-4.43-5.23l-.59-2.15-8.13,9.28c-.57.86-.4,2.21-1.55.87-.22-.79.75-2.24,1.23-2.95,2.88-4.28,7.26-7.61,10.03-12.47.73-1.28.95-3.83,2.62-1.75-1.43,3.14-2.68,5.55-2.41,9.14.29,3.8,1.81,4.5,4.91,2.42.86-.58,1.43-1.85,2.59-1.72Z"/>
      <path d="M353.78,130.66c-2.53-2.39-3.73-7.58-.75-10.01,1.05-.86,1.98-1.74,3.01-2.58,6.75-5.53,11.14,4.01,7.92,9.9-2.26,4.14-6.17,6.49-10.18,2.69ZM356.45,120.39c-.48.46-1.21.8-1.78,1.43-2,2.22-2.19,3.73-.63,6.29,4.1,6.72,10.89-.34,9.94-5.79-.22-1.23-1.95-4.76-3.34-5.03-.52-.1-2.59,1.14-3.07,1.53-.68.55-.74,1.21-1.11,1.57Z"/>
      <path d="M332.74,111.03c0,3.01-1.09,6.07-.85,9.08.16,1.94,1.36,4.47,3.51,2.87.21-3.23-.07-6.67,1.61-9.57,1.62.08-.6,8.31-.44,9.5.52.6,8.83-3.21,8.58-5.33l.55.17c.85,1.23-2.49,4.28-3.55,4.9-1.54.91-3.86,1.77-5.63,1.96l.09,5.59c-1.19-.52-.79-4.73-1.28-5.05-7.74.46-3.84-9.56-4.27-14.18l1.67.05Z"/>
      <path d="M152.15,168.27c-.68.17-.79-.71-.93-1.16-1.08-3.5-.15-7.09.18-10.63-2.14,1.36-3.46,5.59-5.15,7.1-.62.56-1.63.95-1.76-.13.6-1.15,1.55-2.03,2.25-3.11,3.32-5.11,6.41-9.27,7.6-15.32.18-.92,1.68-3.91,2.73-3.79l.65.5c.09.53.06,1.06-.07,1.57-.59,2.35-2.81,5.75-3.77,8.13-1.16,2.88-2.24,8.53-2.34,11.63-.05,1.6.65,3.56.61,5.2Z"/>
      <path d="M68.85,222.5c.39.67-1.8,11.23-1.8,12.93-.29,5.2,1.14,5.63,5.63,3.98,2.49-.92,4.88-2.24,6.58-4.28.93.19.79.92.38,1.57-1.16,1.81-8.08,5.64-10.17,5.67s-4.03-2.52-4.18-4.46c-.32-4.13,1.61-9.85,1.65-14.17.06-.72,1.46-2.01,1.91-1.24Z"/>
      <path d="M154.83,285.47c-.52-.12-.5-.57-.54-.99-.24-2.6-.2-5.71.27-8.27-2.38.94-4.49,2.86-6.97,3.71-.6.2-3.46,1.01-3.5.02-.04-.77,1.16-.71,1.53-.97,1.55-1.06,2.04-1.12,3.6-1.94.83-.44,5.44-2.84,5.71-3.18,1.07-1.37.39-4.43,1.99-5.69,1.82,1,.13,2.72.01,4.2.25.28,5.39-2.44,5.59.18-2.79.44-5.87,1.25-6.73,4.26-.25.88-.8,3.52-.83,4.33l-.14,4.34Z"/>
      <path d="M53.08,116.76c1.64.07,1.88.84,2.89,1.45.59.36,1.33.08,1.89,1.26,1.93,4.05-5.28,8.07-8.43,8.89-4.7,1.22-6.61-1.14-5.93-5.75.33-2.23,1.34-1.05,2.46-1.72.88-.52,2.32-3.1,3.67-3.62.49-.19,2.9-.54,3.45-.52ZM55.42,123.6c.99-.92,1.79-2.1,1.49-3.5-.42-1.91-1.03-.99-1.9-1.19-1.49-.33-2.85-.85-4.5-.86-1.91,1.56-4.3,3.24-4.52,5.91-1.29.17.01-1.68-.49-2.12-.42-.4-.46-.2-.64.2-.43.91.06,4.11.88,4.74,1.88,1.45,8.1-1.7,9.69-3.17Z"/>
      <path d="M270.84,258.66c-5.39,0-10.4,2.17-15.72,2.78-.86.1-1.64-.06-2.44,0-1.3.11-6.63,1.37-6.57-.92.04-1.54,4.48-.51,5.46-.56,5.02-.21,10.91-2.59,15.82-2.82,1.21-.05,3.68-.2,3.45,1.5Z"/>
      <path d="M246.01,114.74c1.16.77-.33,6.42-.62,7.79-.39,1.85-1.45,3.44-.61,5.57.54.16.55-.21.8-.44,1.09-1.02,3.13-3.38,4.12-4.58s1.53-3.02,3.07-3.96c.2,1.91-1.79,3.41-2.77,4.86-.86,1.28-3.28,5.9-4.86,5.82-4.39-3.42,1.56-9.72-.8-14.31-1.31.28-1.28,1.56-1.83,2.53-.24.42-.66.7-.86,1.11-.91,1.81.1,3.82-2.43,4.02-1.32-1.24.56-1.64,1.06-2.59.69-1.31.7-2.98,1.96-4.28.54-.56,3.07-1.99,3.77-1.53Z"/>
      <path d="M171.69,257.72c.09-1.04-.74-1.69-1.73-1.72-3.06-.09-6.81,1.87-9.85,2.54-2.02.45-6.59,1.18-8.51.77-1.03-.22-.87-1.72-.18-1.93,2.88.09,5.77-.4,8.59-.97s9.11-2.97,11.56-1.71c1.77.91.82,3.72.12,3.02Z"/>
      <path d="M187.63,328.27c.04.85-.29,1.58-.68,2.31-.35.64-2.25,2.64-2.85,3.04-4.56,3.06-6.93-5.1-6.11-8.53.19-.81,1.07-1.71,1.3-2.67.17-.7.2-4.69,1.66-4.03,1.73.78-.24,3.21-.57,4.32-.66,2.21-1.13,7.43.68,9.14,2.29,2.16,5.86-4.41,6.57-3.58Z"/>
      <path d="M169.78,317.05c.47,1.75-1.68,2.93-2.04,4.33-.31,1.24-.42,4.5-.18,5.76.19.99,1.12,2.91,2.21,3.09,3.43.57,4.6-2.97,7.28-3.98.45.5-2.82,4.16-3.32,4.56-5.4,4.3-9.03-2.51-8-7.52.18-.89.83-1.69,1.15-2.54.58-1.49.6-3.94,2.9-3.71Z"/>
      <path d="M228.43,122.53c-2.13,2.12-2.88,5.65-5.3,7.52-5.28,4.07-6.59-.28-7.96-4.86l-1.45,1.49c.03.74-2.49,3.92-2.6,1.88-.06-1.13,1.48-1.54,2.06-2.16.44-.47,3.02-3.75,3.14-4.18.32-1.11-.19-3.04,1.7-3.1,1.21,1.17-.31,2.15-.66,3.05-1.09,2.85-.47,9.46,3.94,7.38,1.07-.5,4.34-3.69,5.1-4.7.59-.79,1.01-2.41,1.76-2.98.38-.29.83-.13.86-.16.09-.08-.22-.66-.18-.95.07-.49.64-.79.75-1.2.18-.7-.45-1.59.83-2.29.41.75-.16,1.63-.22,2.37-.16,2.22-.7,5.11-.52,7.27.05.55.7,2.61,1.02,2.85,1.56,1.17,4.53-3.54,5.61-4.18.37-.22.72-.18.69.16-1.52,1.74-2.75,5.52-5.44,5.8-2.03.21-2.27-1.88-2.7-3.32-.09-.31-.6-.75-.6-.8l.16-4.9Z"/>
      <path d="M180.87,259.69l-1.65-.89c.16.85-.91,1.32-1.06,1.9-.12.45.32.93.25,1.48s-.58,1.05-.69,1.55c-.31,1.42-.07,4.39,1.33,2,.24-.42,2.18-4.52,2.27-4.82.43-1.5-.49-4.42,2.16-4.21.55,1.94-.97,2.83-1.4,4.15-.21.65-.1,1.35-.32,1.97-.43,1.21-2.45,5.35-3.43,5.9-2.58,1.45-1.93-4.49-1.79-5.67.18-1.51.79-2.35,1.18-3.66.32-1.06-.08-2.54,1.18-3.38,1.65.31,1.61,2.34,1.95,3.68Z"/>
      <path d="M111.57,227.77c-1.31.2-.4-2.8-1.17-2.83-.74.77-1.67,1.07-2.61.4-.7-2.02.07-4.14.49-6.13s.75-4.39,1.27-6.17c.1-.32.15-1.23.69-.99.19.08.58.56.63.78.05.2-.31,3.67-.39,4.1-.21,1.06-2.17,6.21-1.6,6.84,1.95.02,2.3-3.1,2.93-4.55.42-.98,1.56-1.71,1.25-3.16.93.51.24,2.79.03,3.66-.23.95-1.38,3.26-1.4,4l-.13,4.06Z"/>
      <path d="M134.15,202.92c.32-.35.48-1.24.89-1.79.92-1.23,2.26-1.75,2.94-3.54.2-.54-.01-1.19.26-1.75.53-1.06,2.33-.53,1.06,1.14-.14.19-.59.23-.65.32-.11.18.22.65.08,1.07-.86,2.81-2.84,6.07-1.16,8.96,1.82,1.26,7.42-5.88,8.16-5.09-.09,1.53-1.41,1.96-2.19,2.73-1.02,1.01-3.98,4.43-5.42,4.25-1.57-.83-2.68-2.21-2.58-4.07.07-1.36,1.22-3.04.57-4.34-2.02,2.29-4.5,7.43-7.89,7.82-2.23.26-3.97-4.49-3.71-6.34.04-.27,1.22-2.68,1.46-3.02.35-.51,1.98-1.68,1.7-2.09l-1.4.38c.28-.84,2.06-4.26,3.04-3.96.65.42.41,1.11.26,1.7-.8,3.21-3.93,4.82-3.46,8.91.64,5.55,4.57,1.33,6.54-.42.41-.37,1.24-.61,1.48-.88Z"/>
      <path d="M373.69,142.94c.87-.05,4.05.39,4.22,1.34l-.43.64c-4.21-.77-8.72,1.41-12.95,1.58-.85.03-5-.16-2.7-1.43.88-.48,4.23-.57,5.5-.79,1.82-.32,4.65-1.23,6.37-1.34Z"/>
      <path d="M338.51,236.74l-.04,1.4c-3.05-.15-6.63-.06-9.62.6-1.86.41-3.57,1.82-5.59,1.71.02-.63-.1-1.28.32-1.83.6-.78,6.07-2.05,7.24-2.12,2.56-.17,5.21.46,7.69.25Z"/>
      <path d="M475.28,287.92c-1.68-.76-1.62-2.05-3.71-2.36-2.75-.41-4.72.55-7.1.83s-2.21-1.89-.84-2.35c3.34-1.12,12.09-1.58,11.65,3.88Z"/>
      <path d="M428.34,152.77c1.1,1.93-.06,2.85-.4,4.64-.39,2.1-1.04,7.41-.87,9.44.04.46,1.17,3.6.28,3.54-.42-.36-.69-.81-.91-1.32-1.17-2.77-.28-11.07.55-14.11.09-.33.63-2.75,1.34-2.19Z"/>
      <path d="M250.5,281.54c-.06-.42-.2-.72-.18-1.18.28-4.57,1.52-9.67,2.07-14.31.15-1.26-.36-3.3.69-4.04l1.04,2.69c-.92,4.43-1.59,8.92-2.43,13.35-.19,1.02-.44,2.83-1.2,3.5Z"/>
      <path d="M101.61,206.43l-.86-.19c-.51-4.88-.77-10.63.81-15.34.09-.28.58-1.54.74-1.54,1.44.04.15,2.86.05,3.54-.65,4.34-1.13,9.2-.74,13.53Z"/>
      <path d="M59.18,219.08l-.21,1.43c-2.9.59-5.81,2.49-8.69,3.15-.61.14-1.04-.16-1.61-.04-.83.18-1.62,1.49-2.26.51-.34-1.55,4.01-2.12,5.2-2.56,1.08-.39,6.99-3.13,7.57-2.49Z"/>
      <path d="M277.2,208.99l.51-16.39,1.04-1.49c.5.35.37.75.39,1.26.16,3.67-.62,7.28-.93,10.9-.13,1.52.09,3.34-.13,4.78-.08.56-.16,1.04-.88.94Z"/>
      <path d="M266.29,242.84c.38,1.5.09,2.07-1.14,2.89.79.87.13,1.5.16,2.24.02.68.82,1.52.47,2.41-.92.23-1.79-.67-2.04-1.48-.59-1.96,1.17-3.79,1.29-5.83l1.26-.22Z"/>
      <path d="M126.9,290.71l-1.39-.14c-.61-.44-.35-5.41,1.44-5.43,1.19.3.11,4.65-.05,5.57Z"/>
      <path d="M385.24,168.75c.26.93-.6,1.92-.62,2.65s1.77,2.83-.23,2.65c-1.25-.11-1.97-1.91-1.75-2.99.15-.77,1.43-1.31,1.52-2.3h1.08Z"/>
      <path d="M93.42,121.27c-.73.04-.47.03-.54-.44-.15-1.02.09-2.43-1.03-2.97-.07,1.08-.04,3.21-1.51,3.31-.61-2.09.97-3.01,1.69-4.7,1.74.9,1.48,3.12,1.39,4.8Z"/>
      <path d="M151.23,260.62c.1.19.63.29.73.53.11.26.08.89-.43.68-.86-.36-4.41-3.27-2.97-4.32,1.93-1.41,2.07,1.96,2.67,3.11Z"/>
      <path d="M407.58,171.15c.29-1.38,1.56-2.29,2.14-3.65.24-.56.17-2.35.98-2.13,1.99,1.23-2.26,6.7-3.12,5.78Z"/>
      <path d="M331.08,110.42c.07-1.05-.36-5.07,1.65-4.41.77.25.24,3.13.01,3.72-.19.49-1.16.65-1.66.69Z"/>
      <path d="M347.06,206.19c.14-1.18.86-2.66.94-3.79.06-.92-.34-1.73-.39-2.56-.03-.41-.26-.75.38-.62,2.32.46.67,6.17-.92,6.98Z"/>
      <path d="M246.28,264.59c-2.64-.05-2.62-2.55-2.09-4.55l1.26.3c.27.86-.07,1.76.1,2.62.12.66.78.95.73,1.62Z"/>
      <path d="M462.39,287.78c-.76.51-3.41-2.11-3.16-2.62.78-1.09,3.05-1.05,2.93.48-.07.82-.53,1.21.23,2.15Z"/>
      <path d="M347.01,198.91c.53.55-2.53,3.97-3.32,2.7-.89-1.41,2.2-3.07,3.32-2.7Z"/>
      <path d="M226.96,194.21c.39.53-.92,4.27-1.24,3.88l-.66-1.43c-.29.07-.43,1.63-1.3,1.36l1.94-3.57,1.26-.25Z"/>
      <path d="M230.72,330.5l1.03,2.55c-1.09-.27-2.87-1.84-2.72-3.03.19-1.41,1.2.1,1.55.1.2,0,.52-.5.85-.44.71.13.49,2.17-.72.82Z"/>
      <path d="M280.7,187.25l-.08,1.07c-1.44.16-1.44,1.42-2.41,2.2-.95-.88.2-2.22-.03-3.36l2.52.08Z"/>
      <path d="M90.32,200.19c-.12,1.48.43,3.58-1.52,3.87-.73-.58.92-4.61,1.52-3.87Z"/>
      <path d="M436.81,246.9h-.81s-.08,1.65-.08,1.65l-.84-.03-.45-2.63c.89-1.27,2.14-.28,2.18,1Z"/>
      <path d="M430.65,107.17c-.31,1.94.49,2.83,1.83,3.98-.7-.08-2.61-.94-2.84-1.56-.36-.94-.29-2.39,1.01-2.42Z"/>
      <polygon points="538.78 186.29 536.34 183.55 535.23 183.54 534.98 182.53 537.09 182.86 538.78 186.29"/>
      <path d="M303.03,146.22l-1.91-1.6c-.23-.35-.83-1.06-.24-1.42,1.98-.6,1.7,1.77,2.15,3.02Z"/>
      <path d="M500.93,211.19c.85,1.63-1.63,1.23-2.48.7-.3-1.61,1.99-1.62,2.48-.7Z"/>
      <path d="M111.17,152.96c.77,1.18-2.05,2.22-2.27,1.16-.2-.98,1.91-1.7,2.27-1.16Z"/>
      <path d="M447.06,241.91l-.17-2.05c2.15-2.2,1.83,1.3.17,2.05Z"/>
      <path d="M338.88,111.78l-2.27,1.05c-.47-1.74,1.83-2.91,2.27-1.05Z"/>
      <path d="M323.03,239.04l-.06,2.09c-.05.98-3.62-2.12.06-2.09Z"/>
      <path d="M68.58,220.25l1.05.56-.17.97c-.59.04-1.29.3-1.67-.33l.79-1.2Z"/>
      <path d="M144.87,316.25c-.63-.52-2.94.39-2.48-1.06.34-1.06,2.96.64,2.48,1.06Z"/>
    </g>
    <g>
      <path d="M433.9,68.85c-.95.75-3.62,4.54-4.8,5.85-1.4,1.56-3.07,3.72-4.84,4.96-.35.24-.67.52-1.12.55-.51-.11-.7-3.39-.63-4.04.27-2.58,3.4-4.64,1.47-7.03-.99-.66-1.89,1.39-2.08,2.14-.47,1.81.09,2.27-1.13,4.23-1.34,2.15-3.74,3.63-5.23,5.67-1.3-.42-3.31.15-3.67-1.61-.48-2.37,2.06-2.98,3.03-4.69,1.2-2.1.65-4.64-2.05-4.87-3.06-.26-3.64,3.84-1.69,3.32.43-.11.77-3.1,2.42-2.77.5,2.47.03,4.06-2.02,5.57.02-.75-.68-2.56-1.51-2.53-1.05.04.81,3.68-.18,4.35-2.82,2.2-5.61,5.21-9.42,5.3-1.06-1.14-1.45-2.19-1.23-3.75.76-5.45,4.55-9.47,5.17-14.83.11-.94.16-2.29-.06-3.2-.23-.96-1.31-2.36-2.31-1.35-.3.31-1.77,6.03-1.54,6.35.59-.45,1.29-1.46,1.63-2.15.29-.58.17-1.52.65-1.74l-.05,4.06c-.01,1.17-2.75-1.37-1.89.89l.44.1.02.53c-.35.03-.64.1-.79.46-.59,1.37-.81,3.73-1.46,5.31-.6,1.45-1.6,2.5-2.35,3.83.16,1.1.51-.96,1.39-.39.1.07.32,1.26.31,1.54-.06,1.64-1.44,1.79-1.47,2.8-.02.65.55,1.04.56,1.93.02,2.08-1.06,5.58-1.24,7.84-.29,3.67.38,7.73,2.6,10.68.75.74,1.66.8,2.03.31,1.09-1.41,2.52-3.81,2.49-5.63,0-.62-.38-1.08-.42-1.65-.3-3.68-1.02-6.91-1.85-10.5,3.48-.28,6.47-3.19,9.17-5.2,2.66,7.16,8.17.61,10.96-2.67.65-.1.39.22.34.63-.2,1.83-.71,5.05,2.17,4.23,3.35-.96,5.27-6.35,7.6-8.39.72-.63,1.55-.69,1.98-1.09.52-.49,2.75-5.07.59-3.36ZM401.28,90.19c.3,1.72-.3,3.9,1.36,5.04l-.14.42c-.16.15-.5.2-.62.34-.57.69-.79,5.39-2.61,4.32-.57-.34-1.59-4.57-1.66-5.43-.19-2.42.2-7.94.69-10.34.1-.48.36-.69.71-.97,1.3,1.9,1.88,4.39,2.27,6.63Z"/>
      <path d="M338.05,59.07l.32,1.01c-.4.11-.68.26-.95.6-4.02,4.88-7.22,10.51-11.51,15.17.42,1,1.55,6.08,2.3,6.23.83.16,8.06-5.59,9.74-6.39,1.29-.62,2.49-.81,3.9-.97.16-.97-1.9-5.24-.62-5.6.82-.23,3.09,3.1,4.45,3.67,3.44,1.44,9.33-1.79,11.98-4.05.71-.6,2.63-3.43,3.6-2.71,1.04.77-1.31,2.43-1.81,3.06-1.45,1.83-2.91,4.64-1.79,6.95.81-.86.87-2.02,1.46-3.04,1.49-2.62,6.34-7.87,9.34-8.28,2.39-.33,4.22.71,4.26,3.28.03,2.05-.42,4.13-.61,6.13-.25,2.71.38,5.16,2.61,6.85.13.03,2.09-.78,2.33-.93,1.45-.93,4.63-3.99,5.01-5.63.09-.39-1.14-3.2.63-3.89,1.43-.56,1.33,2.03,1.05,3.06s-1.94,2.41-.89,3.33c2.92-1.67,5.4-4.3,8.87-4.8,1.28-.18,5.09-.34,4.62,1.64-.31,1.29-4.84,3.97-5.21,1.87.83-.34,2.23-1.3,2.54-2.21-1-.71-6.42,1.84-6.46,2.3-.09.82,1.94-.28,2.17-.33.49-.1.98-.07,1.47-.05-1.61,3.25-6.09.66-8.13,4-1.58,2.6-1.64,13.02-1.66,16.47,0,1.18.9,1.98-.98,2.35-1.1-1.08-.51-2.72-.7-4.03-.33-2.19-1.73-5.66-.84-7.74.66-1.55.43-2.23.94-3.86.22-.72,2.09-4.21,1.82-4.51-3.29,1.08-3.28,5.05-7.41,4.05-2.29-.55-2.92-4.6-3.18-6.54l-.57-.17c-1.62,4.71-10.72,9.56-13.26,3.11-.19-.48-1-4.34-1.02-4.83-.03-.91.5-1.53.61-2.37-.99-.2-1.31.79-1.99,1.22-2.94,1.85-7.5,3.63-10.5.87-1.05-.97-1.36-2.64-2.33-3.67-.12,1.22.55,3.48,1.22,4.48.56.82,1.61.82,2,1.23,1.21,1.3.42,8.89-.74,8.88-1.02-.5-1.83-5.49-1.47-5.89l1.39.57c.14-1.21-.27-2.5-1.38-1.42-.21-2.99-4.14-.92-5.69-.02-1.96,1.15-7.06,6.15-8.56,6.28-3.02.26-2.75-6.48-3.53-6.48-1.09.91-2.08,2.73-3.81,2.05-1.09-.49.3-3.38.75-3.78.1-.09,1.76-.9,1.54-.12-.84.76-1.7,1.7-1.71,2.92.27.31,1.64-1.14,1.84-1.37,1.29-1.45,2.46-3.14,3.78-4.63l9.92-13.64.86.32ZM366.96,78.65c.31-1.24,1.77-2.27,2.29-3.2.37-.68.36-1.47.69-2.13s1.27-1.39,1.51-2.13c.34-1.03.7-4.28-.56-4.73l-4.95.14c-1.09,2.13-3.42,3.64-4.85,5.59-1.24,1.69-4.04,6.37-.83,7.4,2.56.82,4.32-1.42,6.71-.94ZM380.06,86.68h-1.12c-.3,1.76.5,3.3.5,5.03l.58-2.37.03-2.66Z"/>
      <path d="M235.65,82.04c3.31.39,6.74-1.63,8.54-4.35.65-.98,1.42-3.81,2.32-3.88,3-.25-1.35,4.86-1.48,5.57-.06.31.21,1.63.68,1.71-.07-1.07.32-2.07.82-2.99,1.05-1.91,5.75-6.38,7.7-7.42,2.14-1.14,5.89-2.38,7.86-.46.55.54,1.58,3.21,1.61,3.97.08,2.26-4.1,5.92-5.61,7.5,1.54,8.93,12.72-.5,14.41-4.78l.28-.2.82.52c.62-1.15,2.48-2.35,2.3-3.61l-2.69,2.2c-.44-.77,2.11-2.91,2.48-3.01.77-.21,1.57.34,1.43,1.17-.27,1.6-4.22,4.29-4.51,6.19s1.18,3.96,3,4.51c.9.27,1.95-.05,2.66.72.18-1.23-.66-2.52-.66-3.8,0-3.74,3.49-7.02,6.39-8.77.35-.21.33-.66.87-.84,1.2-.41,4.33.26,5.19,1.38,1,1.29,1.26,3.1.54,4.54-1.37,2.79-5.24,5.73-8.01,7.1-1.16.58-3.2.49-2.8,2.1-.48.05-.26-.68-.72-.83-.16-.05-1.72.26-2.46.2-3.61-.3-5.2-2.44-5.43-5.92-.16-.12-2.59,2.45-2.98,2.76-2.14,1.72-5.05,3.71-7.84,3.46-2.51-.22-3.34-4.15-3.63-4.15-3.41,3.41-10.14,5.24-12.52-.25-.22-.5-.33-2.4-.89-2.17-1.13,1.13-2.98,2.92-4.59,3.24-.97.19-2.49-.25-3.19.7s.01,2.19-.02,3.24l.45-2.79c.94.69,1.11,5.09.32,5.56-3.25.07-2.03-4.54-2.54-6.72-1.82-1.23-4.3-2.43-4.31-4.95-.01-2.12.99-1.26,1.66-1.87,1.46-1.31,4.17-8.36,4.29-10.43.06-.99-.34-2.16-.12-3.3.16-.82,1.28-2.25,2.1-1.25,1.2,1.47-1.36,8.83-1.67,11.04-.19,1.31-.74,8.91-.08,9.34ZM258.05,79.84c.29.3,2.28-1.74,2.55-2.06,1.43-1.69,2.62-3.93,1.05-6.01-.35-.47-3.35-1.48-3.88-1.45-.74.04-1.43.88-2.13,1.1l-.27-.84c-1.57,2.34-4.38,4-6.24,6.23-1.34,1.61-3.85,4.9-1.32,6.53.87.56,1.66.16,2.44.34.25.06.06.61.57.57,1.36-.09,4.09-1.21,5.11-2.17,1.34-1.26,1.4-5.49,3.13-5.3l.13.56c-1.05.02-.82,1.72-1.15,2.51ZM280.79,84.44c1.52-.88,3.15-1.54,4.6-2.51s5.17-4.12,4.87-5.96c-.16-.99-3.18-2.92-4.02-3-.55-.05-.98.49-1.47.61-.35.09-.84-.26-1.1-.11-.07.04-.53,1.03-.79,1.33-2.66,3.18-5.52,5.71-3.59,10.33.87.31,1.2-.52,1.51-.69ZM234.25,78.84l.05-4.06c-.94.59-1.49,1.92-2.01,2.9l1.4,1.43.56-.28ZM233.1,81.49c.09-1.11-.8-1.97-1.64-2.54l.54,2.51,1.1.03Z"/>
      <path d="M148.8,81.56l2.39-1.09.28.57-1.84.96c1.18,1.9,2.03.21,2.81-.53,2.07-1.97,4.06-5.16,5.47-7.72,1.96-3.57,3.4-7.49,5.16-11.16.33-.72,1.35-.57,1.36.25.02,1.66-2.01,4.56-2.74,5.99-2.25,4.4-4.66,8.68-7.53,12.73-.05,2.04,2.11,4.14,4.24,3.77,1.81-.31,4.39-5.56,5.99-6.91.36-.3.47-.36.97-.28.51,1.87-.3,10.24,1.74,10.9,1.02.33,2.11-.32,2.98-.8,2.36-1.31,3.67-2.75,5.57-4.2,1.48-1.13,3.1-2.17,4.68-3.18l.08-.36c-1.54-2.66-.57-6.1-1.54-9,1.69-1.19,1.94,1.45,2.55,2.46,3.27,5.43,8.37,2.16,12.14-.79,1.09-.86,2.94-3.51,4.48-2.98,1.1.38.62,3.03.73,4,.16,1.32,1.29,3.85.99,4.76-.77,2.33-2.32-2.96-3-3.08l-.55.27c.53.86.08,1.84.3,2.74.12.5,2.03,3.79,2.44,4.26,1.97,2.23,2.99,1.37,4.88-.3.58-.51.89-1.61,1.83-1.53-.84,5.2-6.16,6.88-8.75,1.62-.85-1.72-1.86-6.35-1.47-8.11.09-.41.74-.94.52-1.62l1.39.58c.03-.62.21-1.62-.68-1.7-.37,0-2.56,2.33-3.12,2.77-2.84,2.21-5.97,4.3-9.74,3.66-2.03-.35-2.03-2.05-3.28-3.25.61,1.25.27,3.91.78,4.84.26.48,1.73.56,1.89,1.83.04.3-.25,3.11-.34,3.51-.78,3.69-2.96-.47-2.41-2.33l1.39-.42c.27-1.25-2.17-.1-2.62.15-2.93,1.62-5.35,4.56-8.25,6.58-.25.17-.32.64-.5.75-.09.06-1.86.57-2.05.59-4.88.62-4-5.1-4.52-8.29l1.03-2.94c-1.57.87-1.45,2.3-2.13,3.49-.37.64-2.63,3.65-3.15,3.86-2.81,1.14-5.97-1.23-6.81-3.86-1.71,1.21-2.49,1.68-4.05-.05,0,1.01.62,2.06.78,2.97.05.26.22,1.31-.28,1.24-.26-1.41-.95-3.25-1.07-4.63-.5-5.72,0-13.62-.04-19.61-.01-1.55,1.78-1.99,1.97-.81.1.64.02,1.82-.02,2.53-.23,4.66-.93,8.94-1.05,13.73-.02.98-.51,2.1-.29,3.19Z"/>
      <path d="M212.28,62.8c.18.11.57,1.16.61,1.48.28,2.66-2.87,9.25-3.95,12.14-.54,1.46-1.75,2.47-1.25,4.27.72,2.59,4.96-.63,6.48-1.17.65-.23,1.92-.82,2.45-.65s2,1.69,2.33,2.18c.89,1.3.96,2.93,1.57,4,.21.36.28.58.77.49.34-1.99,1.15-3.86,1.67-5.8.23-.87.37-2.96.67-3.51.24-.43,1.13.23.87-.87-.01-.06-.44-.11-.6-.53-.42-1.09-.34-1.66.77-2.12.61.03.41,2.65.38,3.22-.13,2.02-2.01,11.83-3.97,12.4-1.8-.37-2.17-3.37-2.88-4.88-.61-1.3-1.57-2.48-2.04-3.86l-.92.04c-.17.43-.17.75-.53,1.09-.27.25-5.02,2.69-5.32,2.72-1.36.12-2.79-1.11-3.18-2.4-1.02-3.37.59-11.5,2.31-14.67.17-.32,2.22-3.1,2.38-3.23.37-.29.9-.61,1.38-.33ZM207.95,77.25c-.08-2.45,1.77-4.71,2.53-6.9.28-.81.82-3.02.93-3.87.06-.5.07-1,.05-1.5l-2.5,2.68c-.77,2.66-2.09,5.99-1.66,8.78.08.54-.1.97.64.82Z"/>
      <path d="M300.02,88.13l-2.82-6.52c-.39-.57-1.61-.77-.92-1.86,1.66-.19,2.31,2.38,2.94,3.5.23.42.71.68.91,1.05.43.84.46,2.18,1.24,2.79-.31-5.06.23-10.24-1.21-15.14-.43-.09-.65.04-.99.25-.65.41-2.75,2.62-3.39,3.33-2.07,2.27-3.57,5.04-5.73,7.17-1.88.48.15-2.48.56-3.12,1.13-1.8,7.88-9.89,9.74-9.87,1.16,0,1.83,2.95,1.97,3.88.36,2.32.57,7.62.52,10.03-.01.65-.34,4.69-.48,4.9-.47.67-1.77-.09-2.32-.39Z"/>
      <path d="M280.81,104.47c3.79-3,2.47-8.43,1.74-12.56l1.06,2.7c.17,2.96.87,5.95-.63,8.65-.5.9-1.42,1.57-1.77,2.58"/>
      <path d="M281.2,105.84c-.95.79-3.41-2.57-3.52-3-.13-.52.29-1.01.22-1.32-.06-.29-.59-.34-.71-.53-.73-1.17.69-5.29,1.18-6.7.42-1.22,2.06-4.23,2.21-5.14.12-.73-.58-.83-.5-1.48l.97.57,1.57-2.22c-.09,2.86-2.08,5.17-3.03,7.52-.75,1.85-1.7,5.65-1.22,7.55.14.56,1.91,3.45,2.45,3.36"/>
      <path d="M320.51,54.55c-.62-.19-.61,1.34-.57,1.82.08,1.01.88,1.5.83,2.23-.04.57-.59,1.05-.72,1.56-1.34,5.15-1.51,15.35-.34,20.52.08.36.54.54-.2.47-.41-.27-.53-.55-.67-1.01-1.14-3.64-1.12-16.79-.26-20.65.34-1.5,1.25-.65,1.35-.75.07-.87-.97-.67-1.04-1.6-.02-.28.24-2.78.3-2.98.31-.99,1.72-.19,1.33.38Z"/>
      <path d="M433.45,73.06l-.08,6.3c0,.26.74,1.27.54,1.83,1.5.34,2.19-1.61,3.38-1.22-.14,2.68-3.81,4.63-5,1.55-.86-2.23.09-5.31-.26-7.72l1.41-.74Z"/>
      <path d="M167.24,62.19c-1.71-.24-1.05-3.19-1.34-4.49,2.93.18,1.37,2.66,1.34,4.49Z"/>
    </g>
  </g>
</svg>