<?xml version="1.0" encoding="UTF-8"?>
<svg id="Ebene_1" data-name="Ebene 1" xmlns="http://www.w3.org/2000/svg" viewBox="0 0 200 200">
  <path d="M156.99,127.31c-.95-.35-2.71.75-3.38,1.34-2.23,2.02-6.95,9.45-9.91,12.12-7.86,7.1-16.73,15.26-23.21,2.57-3.21-6.28-3.97-21.99-3.7-29.39.2-5.46,4.36-10.84,2.47-16.76l-3.53.31c-1.4.48-1.86,16.43-2.42,19.37-1.29,6.79-7.49,21.51-10.99,27.59-8.03,13.97-13.71,9.73-16.78-4.31-2.08-9.53-3.93-23.81-.43-32.88,7.89-20.46,18.68-41.83,15.75-64.89-.7-5.53-8.93-21.12-13.59-12.29-1.08,2.04-4.51,11.77-4.99,14.2-4.47,22.25-3.08,48.11-6.56,70.69-2.42,4.8-5.76,9.05-9.19,13.16-5.22,6.25-8.75,14.63-16.66,18.06-1.04.45-2.4.74-3.19-.08-.55-.57-.57-1.45-.75-2.22-.17-.77-.74-1.63-1.53-1.53-.62.08-.99.71-1.2,1.3-1.91,5.42,2.78,10.06,8.06,9.53,12.85-1.28,17.78-20.6,23.79-29.07.56-.8-.24-1.99,2.26-1.57,2.54,9.07,2.7,36.74,15.13,37.46,10.23.59,16.5-16.52,17.91-24.87,3.26.98,2.29,5.35,3.4,8.19,7.39,18.98,18.11,16.76,31.16,4.22,2.76-2.66,5.37-5.81,7.5-8.99,1.6-2.4,2.93-5.02,3.65-7.82.11-.42.19-.81.48-1.12.04-.05.09-.09.14-.13.27-.22.63-.33.8-.66.3-.57.12-1.3-.51-1.53ZM90.33,34.52c.74-1.4,1.5-2.7,3.37-2.53.29.22-.48,2.28-.15,3.32,4.92,15.39-2.14,42.6-8.06,57.84-.49,1.27-.69,3-2.28,3.42-1.33-9.56,1.97-19.08,2.37-28.38.56-13.36-2.29-20.29,4.75-33.66Z"/>
</svg>
